<svg width="108" height="36" viewBox="0 0 108 36" fill="none" xmlns="http://www.w3.org/2000/svg">
<g clip-path="url(#clip0_6166_1070)">
<path d="M101.972 16.4668H89.3353V6.98892C89.3353 4.37462 91.4599 2.25 94.0742 2.25H101.972C104.587 2.25 106.711 4.37462 106.711 6.98892V11.7278C106.711 14.3421 104.587 16.4668 101.972 16.4668Z" fill="#3870F3"/>
<path d="M89.3353 18.9557V16.4668H92.9492L89.3353 18.9557Z" fill="#3870F3"/>
<path d="M23.5036 13.5059H21.3395C20.8182 13.5059 20.3285 13.7665 20.0363 14.193L13.157 24.3027L6.25392 14.193C5.96169 13.7586 5.472 13.5059 4.95072 13.5059H2.78661C1.91781 13.5059 1.20697 14.2167 1.20697 15.0855V34.4203C1.20697 35.2891 1.91781 35.9999 2.78661 35.9999H5.88271C6.75151 35.9999 7.46235 35.2891 7.46235 34.4203V25.4006L10.6532 30.0131C10.9455 30.4396 11.4351 30.6923 11.9485 30.6923H14.3417C14.8551 30.6923 15.3448 30.4396 15.637 30.0131L18.8279 25.4321V34.4203C18.8279 35.2891 19.5387 35.9999 20.4075 35.9999H23.5036C24.3724 35.9999 25.0832 35.2891 25.0832 34.4203V15.0855C25.0832 14.2167 24.3724 13.5059 23.5036 13.5059Z" fill="#1B2934"/>
<path d="M42.7018 14.5326C42.4727 13.9166 41.8804 13.5059 41.2248 13.5059H36.9598C36.3042 13.5059 35.7198 13.9087 35.4828 14.5247L28.1217 33.8595C27.7268 34.8942 28.4929 35.9999 29.5987 35.9999H32.6158C33.295 35.9999 33.8953 35.5655 34.1164 34.9258L39.0449 21.878L43.8549 34.91C44.0682 35.5576 44.6763 35.9999 45.3556 35.9999H48.4991C49.6048 35.9999 50.363 34.8942 49.976 33.8674L42.7018 14.5326Z" fill="#1B2934"/>
<path d="M37.8885 31.2935L36.9279 32.2541C36.2895 32.8926 36.2895 33.9277 36.9279 34.5662L37.8885 35.5268C38.527 36.1653 39.5622 36.1653 40.2007 35.5268L41.1613 34.5662C41.7997 33.9278 41.7997 32.8926 41.1613 32.2541L40.2007 31.2935C39.5622 30.655 38.527 30.655 37.8885 31.2935Z" fill="#3870F3"/>
<path d="M75.3083 13.5059H73.1442C72.6229 13.5059 72.1332 13.7665 71.841 14.193L64.9616 24.3027L58.0586 14.193C57.7664 13.7586 57.2767 13.5059 56.7554 13.5059H54.5913C53.7225 13.5059 53.0117 14.2167 53.0117 15.0855V34.4203C53.0117 35.2891 53.7225 35.9999 54.5913 35.9999H57.6874C58.5562 35.9999 59.267 35.2891 59.267 34.4203V25.4006L62.4579 30.0131C62.7501 30.4396 63.2398 30.6923 63.7532 30.6923H66.1464C66.6597 30.6923 67.1494 30.4396 67.4417 30.0131L70.6325 25.4321V34.4203C70.6325 35.2891 71.3434 35.9999 72.2122 35.9999H75.3083C76.1771 35.9999 76.8879 35.2891 76.8879 34.4203V15.0855C76.8879 14.2167 76.1771 13.5059 75.3083 13.5059Z" fill="#1B2934"/>
<path d="M95.3457 22.1307H86.5945V15.0855C86.5945 14.2167 85.8837 13.5059 85.0149 13.5059H81.8556C80.9868 13.5059 80.276 14.2167 80.276 15.0855V34.4203C80.276 35.2891 80.9868 35.9999 81.8556 35.9999H85.0149C85.8837 35.9999 86.5945 35.2891 86.5945 34.4203V27.3751H95.3457C96.2145 27.3751 96.9254 26.6643 96.9254 25.7955V23.7103C96.9254 22.8415 96.2145 22.1307 95.3457 22.1307Z" fill="#1B2934"/>
</g>
<defs>
<clipPath id="clip0_6166_1070">
<rect width="105.512" height="36" fill="white" transform="translate(1.19916)"/>
</clipPath>
</defs>
</svg>
