<svg width="149" height="24" viewBox="0 0 149 24" fill="none" xmlns="http://www.w3.org/2000/svg">
<g clip-path="url(#clip0_8655_19210)">
<path fill-rule="evenodd" clip-rule="evenodd" d="M3.66082 5.12861C3.84167 4.90745 3.95038 4.62344 3.95038 4.31367C3.95038 3.60818 3.38646 3.03625 2.69084 3.03625C1.99522 3.03625 1.4313 3.60818 1.4313 4.31367C1.4313 5.01917 1.99522 5.59109 2.69084 5.59109C2.87257 5.59109 3.0453 5.55206 3.20134 5.48182L4.20403 6.53725C1.71427 7.77461 0 10.3701 0 13.3717C0 15.3936 0.778181 17.2317 2.04673 18.5938L0.52174 20.5053L0.144414 20.9781H0.744275H7.3855H7.5H8.07847L8.05795 20.9575C11.9395 20.668 15 17.3823 15 13.3717C15 10.784 13.7258 8.49805 11.7791 7.12401L12.7605 6.12861C12.9305 6.22983 13.1284 6.28787 13.3397 6.28787C13.9721 6.28787 14.4847 5.76793 14.4847 5.12658C14.4847 4.48522 13.9721 3.96529 13.3397 3.96529C12.7073 3.96529 12.1947 4.48522 12.1947 5.12658C12.1947 5.34302 12.2531 5.54563 12.3547 5.71909L11.2853 6.80371C10.1742 6.14365 8.88066 5.76529 7.5 5.76529C6.53386 5.76529 5.61039 5.95056 4.76225 6.28798L3.66082 5.12861ZM1.21514 10.4125C0.802752 11.3119 0.572519 12.3145 0.572519 13.3717C0.572519 15.3269 1.35962 17.0951 2.63069 18.3692L2.81504 18.5539L2.65201 18.7582L1.34414 20.3975H6.69252L6.6805 20.3854L7.38908 20.3967C7.42597 20.3973 7.46296 20.3975 7.5 20.3975C8.87589 20.3975 10.1581 19.9907 11.2361 19.2893C10.6258 19.4444 9.98883 19.5265 9.33374 19.5265C4.84287 19.5265 1.20229 15.665 1.20229 10.9015C1.20229 10.7374 1.20661 10.5744 1.21514 10.4125ZM2.98517 8.04282C2.69674 8.86057 2.53896 9.74643 2.53896 10.6716C2.53896 14.7998 5.68083 18.1466 9.55651 18.1466C11.0312 18.1466 12.3996 17.6621 13.5291 16.8343C14.1009 15.8124 14.4275 14.6308 14.4275 13.3717C14.4275 9.4915 11.3259 6.34593 7.5 6.34593C5.77525 6.34593 4.19771 6.98519 2.98517 8.04282ZM9.90458 10.7008C9.90458 11.5987 9.4432 12.3266 8.87405 12.3266C8.30489 12.3266 7.84351 11.5987 7.84351 10.7008C7.84351 9.80286 8.30489 9.07496 8.87405 9.07496C9.4432 9.07496 9.90458 9.80286 9.90458 10.7008ZM12.3092 12.5588C12.7518 12.5588 13.1107 11.9869 13.1107 11.2814C13.1107 10.5759 12.7518 10.004 12.3092 10.004C11.8665 10.004 11.5076 10.5759 11.5076 11.2814C11.5076 11.9869 11.8665 12.5588 12.3092 12.5588Z" fill="#2C74F0"/>
</g>
<path d="M27.524 11.896C28.472 11.896 29.084 11.212 29.084 10.18C29.084 9.136 28.46 8.452 27.512 8.452H25.268V11.896H27.524ZM23.828 16.132V7.204H27.572C29.3 7.204 30.524 8.428 30.524 10.18C30.524 11.92 29.3 13.144 27.572 13.144H25.268V16.132H23.828ZM34.1109 14.98C35.1069 14.98 35.7549 14.188 35.7549 12.964C35.7549 11.752 35.1069 10.936 34.1109 10.936C33.1149 10.936 32.4669 11.752 32.4669 12.964C32.4669 14.188 33.1149 14.98 34.1109 14.98ZM31.0269 12.964C31.0269 11.08 32.2989 9.76 34.1109 9.76C35.9229 9.76 37.1949 11.08 37.1949 12.964C37.1949 14.848 35.9229 16.168 34.1109 16.168C32.2989 16.168 31.0269 14.848 31.0269 12.964ZM46.4822 9.796L44.5982 16.12H43.2422L41.9582 11.848L40.6982 16.12H39.3302L37.4342 9.796H38.9342L40.0382 14.032L41.2142 9.796H42.6902L43.8902 14.032L44.9822 9.796H46.4822ZM51.3483 12.424C51.2403 11.716 50.7723 10.936 49.7523 10.936C48.8523 10.936 48.1683 11.608 48.0243 12.424H51.3483ZM46.6803 12.964C46.6803 11.08 47.9403 9.76 49.7403 9.76C51.7323 9.76 52.3563 11.392 52.3923 11.476C52.7763 12.34 52.6563 13.324 52.6563 13.48H48.0243C48.1683 14.368 48.9483 14.968 49.7523 14.968C50.8803 14.968 51.2283 14.308 51.2643 14.26L52.4283 14.752C52.4283 14.752 51.8403 16.156 49.7403 16.156C47.9403 16.156 46.6803 14.848 46.6803 12.964ZM55.1304 10.912C55.4784 10.228 56.2704 9.748 57.0504 9.748V11.032C55.8864 11.032 55.1304 12.1 55.1304 13.012V16.12H53.7024V9.772H55.1304V10.912ZM62.0916 12.424C61.9836 11.716 61.5156 10.936 60.4956 10.936C59.5956 10.936 58.9116 11.608 58.7676 12.424H62.0916ZM57.4236 12.964C57.4236 11.08 58.6836 9.76 60.4836 9.76C62.4756 9.76 63.0996 11.392 63.1356 11.476C63.5196 12.34 63.3996 13.324 63.3996 13.48H58.7676C58.9116 14.368 59.6916 14.968 60.4956 14.968C61.6236 14.968 61.9716 14.308 62.0076 14.26L63.1716 14.752C63.1716 14.752 62.5836 16.156 60.4836 16.156C58.6836 16.156 57.4236 14.848 57.4236 12.964ZM67.276 16.096C65.56 16.096 64.36 14.812 64.36 12.988C64.36 11.176 65.56 9.892 67.276 9.892C67.912 9.892 68.632 10.24 69.076 10.864V7.12H70.516V16L69.076 16.012V15.124C68.656 15.748 67.948 16.096 67.276 16.096ZM65.8 12.988C65.8 14.152 66.436 14.92 67.396 14.92C68.32 14.92 69.076 14.068 69.076 12.988C69.076 11.92 68.32 11.068 67.396 11.068C66.436 11.068 65.8 11.836 65.8 12.988ZM77.8536 14.92C78.8136 14.92 79.4496 14.152 79.4496 12.988C79.4496 11.836 78.8136 11.068 77.8536 11.068C76.9296 11.068 76.1736 11.92 76.1736 12.988C76.1736 14.068 76.9296 14.92 77.8536 14.92ZM74.7336 16V7.12H76.1736V10.864C76.6896 10.156 77.4216 9.904 77.9736 9.904C79.6896 9.904 80.8896 11.176 80.8896 12.988C80.8896 14.812 79.6896 16.096 77.9736 16.096C77.4216 16.096 76.7136 15.928 76.1736 15.124V16.012L74.7336 16ZM83.9193 18.832H82.3473L83.7033 15.58L81.1113 9.76H82.6953L84.4473 14.008L86.1513 9.76H87.7233L85.3233 15.448L83.9193 18.832ZM92.6721 13.804C93.2361 14.476 94.0761 14.956 94.8081 14.956C95.9001 14.956 96.6681 14.38 96.6681 13.552C96.6681 11.8 91.8921 12.724 91.8921 9.616C91.8921 8.164 93.1521 7.144 94.9281 7.144C95.9721 7.144 97.0761 7.696 97.7361 8.5L96.6801 9.34C96.2241 8.776 95.5521 8.38 94.9281 8.38C93.9921 8.38 93.3321 8.896 93.3321 9.616C93.3321 11.404 98.1081 10.624 98.1081 13.552C98.1081 15.1 96.7401 16.192 94.8081 16.192C93.6321 16.192 92.3601 15.568 91.6041 14.656L92.6721 13.804ZM107.688 12.616C107.688 11.656 107.16 10.972 106.404 10.972C105.588 10.972 105.024 11.704 105.024 12.568V16.12H103.584V12.616C103.584 11.656 103.068 10.972 102.324 10.972C101.496 10.972 100.92 11.728 100.92 12.676V16.12H99.4797V9.796H100.92V10.84C101.268 10.228 101.94 9.796 102.528 9.796C103.308 9.796 104.088 10.312 104.424 11.056C104.844 10.312 105.684 9.796 106.464 9.796C108.024 9.796 109.128 10.948 109.128 12.58V16.12H107.688V12.616ZM113.384 15.052C114.332 15.052 115.136 14.176 115.148 13.024C115.136 11.872 114.332 10.996 113.384 10.996C112.376 10.996 111.692 11.8 111.692 13.024C111.692 14.236 112.376 15.052 113.384 15.052ZM110.252 13.024C110.252 11.152 111.5 9.832 113.264 9.832C113.948 9.832 114.644 10.144 115.148 10.816V9.796H116.588V16.12H115.148V15.22C114.644 15.904 113.948 16.216 113.264 16.216C111.5 16.216 110.252 14.896 110.252 13.024ZM119.3 10.912C119.648 10.228 120.44 9.748 121.22 9.748V11.032C120.056 11.032 119.3 12.1 119.3 13.012V16.12H117.872V9.772H119.3V10.912ZM126.154 15.82C125.854 15.952 125.59 16.108 124.894 16.108C123.778 16.108 122.998 15.28 122.998 14.092V11.02H121.882V9.856H122.998V7.984H124.438V9.856H126.034V11.02H124.438V14.092C124.438 14.524 124.678 14.848 125.026 14.86C125.338 14.884 125.674 14.692 125.698 14.68L126.154 15.82ZM127.481 16.132V7.204H131.165C132.593 7.204 133.613 8.212 133.613 9.628C133.613 10.204 133.289 10.888 132.821 11.332C132.893 11.38 132.965 11.416 133.025 11.464C133.697 11.908 134.165 12.772 134.165 13.564C134.165 15.064 133.157 16.132 131.717 16.132H127.481ZM128.921 14.884H131.513C132.257 14.884 132.737 14.368 132.737 13.576C132.737 12.724 132.257 12.16 131.513 12.16H128.921V14.884ZM128.921 10.924H131.117C131.765 10.9 132.197 10.432 132.197 9.724C132.197 8.956 131.717 8.452 131.009 8.452H128.921V10.924ZM139.676 12.424C139.568 11.716 139.1 10.936 138.08 10.936C137.18 10.936 136.496 11.608 136.352 12.424H139.676ZM135.008 12.964C135.008 11.08 136.268 9.76 138.068 9.76C140.06 9.76 140.684 11.392 140.72 11.476C141.104 12.34 140.984 13.324 140.984 13.48H136.352C136.496 14.368 137.276 14.968 138.08 14.968C139.208 14.968 139.556 14.308 139.592 14.26L140.756 14.752C140.756 14.752 140.168 16.156 138.068 16.156C136.268 16.156 135.008 14.848 135.008 12.964ZM146.601 12.424C146.493 11.716 146.025 10.936 145.005 10.936C144.105 10.936 143.421 11.608 143.277 12.424H146.601ZM141.933 12.964C141.933 11.08 143.193 9.76 144.993 9.76C146.985 9.76 147.609 11.392 147.645 11.476C148.029 12.34 147.909 13.324 147.909 13.48H143.277C143.421 14.368 144.201 14.968 145.005 14.968C146.133 14.968 146.481 14.308 146.517 14.26L147.681 14.752C147.681 14.752 147.093 16.156 144.993 16.156C143.193 16.156 141.933 14.848 141.933 12.964Z" fill="#242424"/>
<defs>
<clipPath id="clip0_8655_19210">
<rect width="15" height="18" fill="white" transform="translate(0 3)"/>
</clipPath>
</defs>
</svg>
