<svg width="51" height="50" viewBox="0 0 51 50" fill="none" xmlns="http://www.w3.org/2000/svg">
<path fill-rule="evenodd" clip-rule="evenodd" d="M0.5 25C0.5 26.578 1.77919 27.8571 3.35715 27.8571L22.6429 27.8571L22.6429 47.1429C22.6429 48.7208 23.9221 50 25.5 50C27.078 50 28.3572 48.7208 28.3572 47.1429L28.3572 22.1429L3.35715 22.1429C1.77919 22.1429 0.5 23.422 0.5 25Z" fill="#8E9CCC"/>
<path fill-rule="evenodd" clip-rule="evenodd" d="M50.5 25C50.5 23.422 49.2208 22.1429 47.6429 22.1429L28.3572 22.1429L28.3571 2.85714C28.3571 1.27919 27.0779 -8.42936e-07 25.5 0C23.922 -1.20419e-06 22.6428 1.27919 22.6428 2.85714L22.6429 27.8571L47.6429 27.8571C49.2208 27.8571 50.5 26.578 50.5 25Z" fill="#8E9CCC"/>
</svg>
