<svg width="16" height="16" viewBox="0 0 16 16" fill="none" xmlns="http://www.w3.org/2000/svg">
<path fill-rule="evenodd" clip-rule="evenodd" d="M12.2732 5.63706L8.15403 1L4.03418 5.63706L6.55726 5.63706L6.55726 10.4704C6.55726 10.7465 6.78112 10.9704 7.05726 10.9704H9.20726C9.4834 10.9704 9.70726 10.7465 9.70726 10.4704V5.63706L12.2732 5.63706ZM13.05 8.69697C12.7739 8.69697 12.55 8.92082 12.55 9.19697V12.2424H3.45V9.19697C3.45 8.92082 3.22614 8.69697 2.95 8.69697H1.5C1.22386 8.69697 1 8.92082 1 9.19697V14.5C1 14.7761 1.22386 15 1.5 15H14.5C14.7761 15 15 14.7761 15 14.5V9.19697C15 8.92082 14.7761 8.69697 14.5 8.69697H13.05Z" fill="white"/>
</svg>
