<svg width="26" height="26" viewBox="0 0 26 26" fill="none" xmlns="http://www.w3.org/2000/svg">
<rect width="26" height="26" rx="13" fill="black" fill-opacity="0.08"/>
<g clip-path="url(#clip0_8641_22745)">
<path d="M9.11154 10.7778H14.1115C14.7252 10.7778 15.2227 11.2753 15.2227 11.8889V16.8889C15.2227 17.5026 14.7252 18.0001 14.1115 18.0001H9.11154C8.4979 18.0001 8.00043 17.5026 8.00043 16.8889V11.8889C8.00043 11.2753 8.4979 10.7778 9.11154 10.7778Z" stroke="black" stroke-linecap="round" stroke-linejoin="round"/>
<path d="M15.2222 15.2222H16.8889C17.1836 15.2222 17.4662 15.1052 17.6746 14.8968C17.8829 14.6884 18 14.4058 18 14.1111V9.11111C18 8.81643 17.8829 8.53381 17.6746 8.32544C17.4662 8.11706 17.1836 8 16.8889 8H11.8889C11.5942 8 11.3116 8.11706 11.1032 8.32544C10.8948 8.53381 10.7778 8.81643 10.7778 9.11111V10.7778" stroke="black" stroke-linecap="round" stroke-linejoin="round"/>
</g>
<defs>
<clipPath id="clip0_8641_22745">
<rect width="12" height="12" fill="white" transform="matrix(-1 0 0 1 19 7)"/>
</clipPath>
</defs>
</svg>
