<svg width="16" height="16" viewBox="0 0 16 16" fill="none" xmlns="http://www.w3.org/2000/svg">
<g clip-path="url(#clip0_7682_17402)">
<path d="M9.87462 0H2.34366C1.05144 0 0 1.08269 0 2.37491V5.18731C0 6.31934 0.806563 7.26597 1.87494 7.48381V9.87463C1.87494 10.2926 2.38191 10.4992 2.67506 10.206L4.85303 8.05931C5.23987 6.67803 6.49666 5.65606 7.99969 5.65606H12.2183V2.37491C12.2183 1.08269 11.1669 0 9.87462 0Z" fill="#8E9CCC"/>
<path d="M13.656 6.59351H7.99991C6.70769 6.59351 5.65625 7.64494 5.65625 8.93716V10.8121C5.65625 12.1043 6.70769 13.1558 7.99991 13.1558H10.6182L13.2933 15.8621C13.5872 16.156 14.1247 15.9497 14.1247 15.5307V13.1086C15.193 12.8907 15.9996 11.9441 15.9996 10.8121V8.93716C15.9996 7.64494 14.9482 6.59351 13.656 6.59351Z" fill="#8E9CCC"/>
</g>
<defs>
<clipPath id="clip0_7682_17402">
<rect width="16" height="16" fill="white"/>
</clipPath>
</defs>
</svg>
