<svg width="16" height="16" viewBox="0 0 16 16" fill="none" xmlns="http://www.w3.org/2000/svg">
<path fill-rule="evenodd" clip-rule="evenodd" d="M13.0007 2.84515C13.3088 3.16408 13.3088 3.68116 13.0007 4.00009L7.71486 9.23252C7.40675 9.55144 6.90721 9.55144 6.5991 9.23252L4.15686 7.0001C3.84875 6.68118 3.84875 6.16409 4.15686 5.84516C4.46497 5.52623 4.96451 5.52623 5.27262 5.84516L7.15698 7.5001L11.885 2.84515C12.1931 2.52622 12.6926 2.52622 13.0007 2.84515Z" fill="white"/>
<path fill-rule="evenodd" clip-rule="evenodd" d="M10.7307 2.30059C9.70652 1.48641 8.41006 1 7 1C3.68629 1 1 3.68629 1 7C1 10.3137 3.68629 13 7 13C8.20924 13 9.33493 12.6423 10.277 12.0269L12.926 14.6758C13.4092 15.1591 14.1927 15.1591 14.6759 14.6758C15.1591 14.1926 15.1591 13.4091 14.6759 12.9259L12.0269 10.2769C12.6423 9.33486 13 8.2092 13 7C13 6.5821 12.9573 6.17418 12.876 5.78037L10.9352 7.72116C10.5956 9.58609 8.96292 11 7 11C4.79086 11 3 9.20914 3 7C3 4.79086 4.79086 3 7 3C7.85723 3 8.65148 3.26966 9.30255 3.72877L10.7307 2.30059Z" fill="white"/>
</svg>
