<svg width="24" height="24" viewBox="0 0 24 24" fill="none" xmlns="http://www.w3.org/2000/svg">
<path d="M12.6239 11.8084C12.4583 11.9314 12.2431 11.9996 12.02 11.9996C11.797 11.9996 11.5818 11.9314 11.4162 11.8084L3.77344 6.08781C4.07334 5.91869 4.42835 5.82816 4.79187 5.82812H19.2121C19.5757 5.82816 19.9307 5.91869 20.2306 6.08781L12.6239 11.8084Z" fill="#8E9CCC"/>
<path d="M20.2306 7.88525V15.9252C20.2306 16.5208 19.9705 17.092 19.5076 17.5132C19.0446 17.9344 18.4167 18.171 17.762 18.171H6.24201C5.5873 18.171 4.95941 17.9344 4.49647 17.5132C4.03352 17.092 3.77344 16.5208 3.77344 15.9252V7.88525L10.9158 13.8141C11.2171 14.0521 11.603 14.1825 12.002 14.1809C12.4059 14.1802 12.7955 14.0443 13.0964 13.7992L20.2306 7.88525Z" fill="#8E9CCC"/>
</svg>
