<svg width="20" height="20" viewBox="0 0 20 20" fill="none" xmlns="http://www.w3.org/2000/svg">
<rect x="1" y="1" width="18" height="18" rx="9" fill="white"/>
<rect x="1" y="1" width="18" height="18" rx="9" stroke="#FF2B9E" stroke-width="2"/>
<path fill-rule="evenodd" clip-rule="evenodd" d="M14.972 5.59766C15.0843 5.29437 14.8437 4.97717 14.5196 5.00129L12.5313 5.14935C12.1846 5.17519 12.0013 5.56625 12.1982 5.84605C12.2145 5.87153 12.2318 5.89426 12.2456 5.9117C12.2599 5.92981 12.2757 5.94878 12.289 5.96475C12.291 5.96711 12.2929 5.96941 12.2948 5.97163C12.297 5.97426 12.2991 5.97682 12.3012 5.97932L7.83762 9.06691C7.64103 9.20289 7.58727 9.46889 7.7158 9.66983L8.67818 11.1745L5.19894 13.4805C4.98516 13.6222 4.93544 13.9135 5.09006 14.1175L5.62534 14.8233C5.76784 15.0112 6.03294 15.0559 6.22973 14.9253L10.7786 11.9058C10.9789 11.7728 11.0372 11.5059 10.9102 11.3023L9.96115 9.78044L13.3774 7.39479C13.3894 7.41178 13.4023 7.43084 13.417 7.45247C13.4316 7.47401 13.4491 7.49987 13.4666 7.52365C13.48 7.54189 13.4986 7.56615 13.5212 7.59009C13.7388 7.85008 14.1631 7.78103 14.2826 7.45854L14.972 5.59766Z" fill="#FF2B9E"/>
</svg>
