<svg width="16" height="16" viewBox="0 0 16 16" fill="none" xmlns="http://www.w3.org/2000/svg">
<g id="(ICON)">
<path id="Vector" fill-rule="evenodd" clip-rule="evenodd" d="M14.1633 1.03923C14.5879 0.88193 15.032 1.21884 14.9982 1.6725L14.7909 4.45617C14.7547 4.9415 14.2073 5.19814 13.8155 4.92246C13.7799 4.89971 13.748 4.87549 13.7236 4.85619C13.6983 4.83615 13.6717 4.814 13.6493 4.79536C13.646 4.7926 13.6428 4.78991 13.6397 4.78733C13.636 4.78427 13.6325 4.78129 13.6289 4.77838L9.30632 11.0273C9.11596 11.3026 8.74355 11.3778 8.46224 11.1979L6.35566 9.85054L3.12726 14.7215C2.92891 15.0208 2.52104 15.0904 2.23556 14.8739L1.24739 14.1245C0.984336 13.925 0.921784 13.5539 1.10462 13.2784L5.33193 6.9099C5.51805 6.62956 5.89177 6.54796 6.17675 6.72571L8.30739 8.05439L11.6473 3.27161C11.6235 3.25486 11.5968 3.23675 11.5665 3.21625C11.5364 3.19583 11.5002 3.1713 11.4669 3.14678C11.4413 3.12798 11.4074 3.10191 11.3739 3.07032C11.0099 2.76571 11.1066 2.17168 11.558 2.00436L14.1633 1.03923Z" fill="#FF2B9E"/>
</g>
</svg>
