<svg width="16" height="16" viewBox="0 0 16 16" fill="none" xmlns="http://www.w3.org/2000/svg">
<path d="M9.80278 5.22012H11.7065L9.80278 3.32336V5.22012Z" fill="#242424"/>
<path d="M8.98247 5.59087V3.08336H2.30418C2.04549 3.08336 1.83496 3.29388 1.83496 3.55258V14.5308C1.83496 14.7895 2.04549 15 2.30418 15H11.4787C11.7374 15 11.9479 14.7895 11.9479 14.5308V6.04054H9.43204C9.18413 6.04054 8.98247 5.83878 8.98247 5.59087Z" fill="#242424"/>
<path d="M13.6954 1H4.52095C4.26225 1 4.05173 1.21053 4.05173 1.46922V2.29103H9.7544C9.89923 2.29103 10.0354 2.34743 10.1378 2.44986L12.5769 4.88004C12.68 4.98311 12.7364 5.11929 12.7364 5.26413V12.9165H13.6955C13.9541 12.9165 14.1646 12.7061 14.1646 12.4474V1.46922C14.1646 1.21053 13.9541 1 13.6954 1Z" fill="#242424"/>
</svg>
