<svg width="16" height="16" viewBox="0 0 16 16" fill="none" xmlns="http://www.w3.org/2000/svg">
<g id="store">
<path id="Vector" d="M13.9999 2.60187V4.69062C14.0043 5.00378 13.8857 5.30652 13.6688 5.5357C13.4519 5.76487 13.1535 5.90277 12.8357 5.92062C12.6754 5.92679 12.5155 5.90071 12.3658 5.84397C12.2161 5.78723 12.0797 5.70102 11.965 5.59063C11.8492 5.48054 11.7573 5.34854 11.6948 5.20256C11.6322 5.05659 11.6003 4.89967 11.6011 4.74125C11.6011 5.05454 11.4746 5.35499 11.2495 5.57652C11.0244 5.79805 10.7191 5.9225 10.4007 5.9225C10.0824 5.9225 9.77704 5.79805 9.55193 5.57652C9.32682 5.35499 9.20036 5.05454 9.20036 4.74125C9.20036 5.05454 9.07389 5.35499 8.84878 5.57652C8.62367 5.79805 8.31836 5.9225 8 5.9225C7.68165 5.9225 7.37633 5.79805 7.15122 5.57652C6.92611 5.35499 6.79964 5.05454 6.79964 4.74125C6.79964 5.05454 6.67318 5.35499 6.44807 5.57652C6.22296 5.79805 5.91764 5.9225 5.59929 5.9225C5.28093 5.9225 4.97562 5.79805 4.75051 5.57652C4.5254 5.35499 4.39893 5.05454 4.39893 4.74125C4.39953 4.89932 4.36774 5.05589 4.30544 5.20159C4.24315 5.34729 4.15163 5.47913 4.03637 5.58923C3.92112 5.69933 3.78448 5.78542 3.63463 5.84236C3.48479 5.8993 3.32481 5.92592 3.16428 5.92062C2.84655 5.90277 2.54809 5.76487 2.33118 5.5357C2.11428 5.30652 1.99567 5.00378 2.00012 4.69062V2.60187C2.00012 2.44225 2.06456 2.28916 2.17926 2.17629C2.29396 2.06341 2.44952 2 2.61173 2H13.3883C13.5505 2 13.706 2.06341 13.8207 2.17629C13.9354 2.28916 13.9999 2.44225 13.9999 2.60187ZM12.3461 14C12.4886 14 12.6252 13.9443 12.726 13.8451C12.8267 13.746 12.8834 13.6115 12.8834 13.4713V6.66875H12.7862C12.3559 6.66819 11.9382 6.52632 11.5992 6.26562C11.2557 6.52698 10.8339 6.66878 10.3998 6.66878C9.96563 6.66878 9.54377 6.52698 9.20036 6.26562C8.85651 6.52683 8.43438 6.66851 8 6.66851C7.56562 6.66851 7.14349 6.52683 6.79964 6.26562C6.45623 6.52698 6.03437 6.66878 5.60024 6.66878C5.16611 6.66878 4.74425 6.52698 4.40083 6.26562C4.0586 6.52557 3.63852 6.66667 3.20619 6.66687H3.11664V13.4713C3.11664 13.5407 3.13054 13.6094 3.15754 13.6736C3.18454 13.7377 3.22412 13.796 3.27402 13.8451C3.32391 13.8942 3.38314 13.9332 3.44833 13.9598C3.51352 13.9863 3.58339 14 3.65395 14H4.85621V10.2162H7.77708V14H12.3461Z" fill="#3870F3"/>
</g>
</svg>
