<svg width="20" height="20" viewBox="0 0 20 20" fill="none" xmlns="http://www.w3.org/2000/svg">
<path d="M13.7043 8.44746H11.7542C11.4317 9.3568 10.5628 10.0098 9.54434 10.0098C8.48864 10.0098 7.59376 9.3082 7.30141 8.3468C6.33977 8.05461 5.63802 7.15957 5.63802 6.10371C5.63802 4.81137 6.68938 3.75996 7.98173 3.75996H13.7043C13.8133 3.60332 13.9329 3.45566 14.0613 3.31715C12.7551 1.57141 10.6714 0.439453 8.32825 0.439453C4.38223 0.439453 1.17196 3.64977 1.17196 7.59574V8.61687L0.0306328 12.007C-0.0295625 12.1858 7.80448e-06 12.3826 0.110086 12.5359C0.220164 12.6891 0.397273 12.7799 0.585945 12.7799H1.17196V16.342C1.17196 16.6656 1.4343 16.928 1.7579 16.928H4.34825V18.9746C4.34825 19.2982 4.61059 19.5605 4.93419 19.5605H12.1576C12.4812 19.5605 12.7435 19.2982 12.7435 18.9746V15.2039C12.7435 14.3368 13.1744 13.6979 13.7199 12.8889C14.2609 12.0867 14.8929 11.1495 15.2345 9.77094C14.6271 9.46672 14.0987 9.01387 13.7043 8.44746Z" fill="#1B2934"/>
<path d="M17.0704 3.17383C15.8691 3.17383 14.8373 3.89711 14.3851 4.93164H7.98177C7.33459 4.93164 6.80994 5.45633 6.80994 6.10352C6.80994 6.7507 7.33459 7.27539 7.98177 7.27539H8.37252V7.66582C8.37252 8.31301 8.8972 8.8377 9.54439 8.8377C10.1915 8.8377 10.7163 8.31301 10.7163 7.66582V7.27539H14.3851C14.8373 8.30992 15.8691 9.0332 17.0704 9.0332C18.6884 9.0332 20.0001 7.72152 20.0001 6.10352C20.0001 4.48551 18.6884 3.17383 17.0704 3.17383ZM17.0679 6.68926C16.7445 6.68926 16.4822 6.42699 16.4822 6.10352C16.4822 5.78004 16.7445 5.51777 17.0679 5.51777C17.3914 5.51777 17.6537 5.78004 17.6537 6.10352C17.6537 6.42699 17.3914 6.68926 17.0679 6.68926Z" fill="#1B2934"/>
</svg>
