<svg width="40" height="40" viewBox="0 0 40 40" fill="none" xmlns="http://www.w3.org/2000/svg">
<g clip-path="url(#clip0_8655_19153)">
<path fill-rule="evenodd" clip-rule="evenodd" d="M15.393 11.6017C15.61 11.3314 15.7405 10.9843 15.7405 10.6057C15.7405 9.74339 15.0638 9.04437 14.229 9.04437C13.3943 9.04437 12.7176 9.74339 12.7176 10.6057C12.7176 11.4679 13.3943 12.167 14.229 12.167C14.4471 12.167 14.6544 12.1192 14.8416 12.0334L16.0448 13.3234C13.0571 14.8357 11 18.008 11 21.6766C11 24.1478 11.9338 26.3944 13.4561 28.0591L11.6261 30.3954L11.1733 30.9733H11.8931H19.8626H20H20.6942L20.6695 30.9481C25.3275 30.5942 29 26.5784 29 21.6766C29 18.5138 27.471 15.7199 25.1349 14.0405L26.3126 12.8239C26.5165 12.9476 26.7541 13.0186 27.0076 13.0186C27.7665 13.0186 28.3817 12.3831 28.3817 11.5992C28.3817 10.8153 27.7665 10.1799 27.0076 10.1799C26.2487 10.1799 25.6336 10.8153 25.6336 11.5992C25.6336 11.8638 25.7037 12.1114 25.8257 12.3234L24.5423 13.649C23.209 12.8423 21.6568 12.3799 20 12.3799C18.8406 12.3799 17.7325 12.6063 16.7147 13.0187L15.393 11.6017ZM12.4582 18.0598C11.9633 19.159 11.687 20.3845 11.687 21.6766C11.687 24.0663 12.6315 26.2274 14.1568 27.7846L14.3781 28.0104L14.1824 28.2601L12.613 30.2637H19.031L19.0166 30.2489L19.8669 30.2627C19.9112 30.2634 19.9555 30.2637 20 30.2637C21.6511 30.2637 23.1897 29.7665 24.4833 28.9092C23.751 29.0988 22.9866 29.1991 22.2005 29.1991C16.8114 29.1991 12.4427 24.4795 12.4427 18.6575C12.4427 18.4569 12.4479 18.2576 12.4582 18.0598ZM14.5822 15.1635C14.2361 16.163 14.0468 17.2457 14.0468 18.3764C14.0468 23.4221 17.817 27.5125 22.4678 27.5125C24.2374 27.5125 25.8795 26.9204 27.2349 25.9086C27.9211 24.6596 28.313 23.2154 28.313 21.6766C28.313 16.9341 24.5911 13.0895 20 13.0895C17.9303 13.0895 16.0373 13.8708 14.5822 15.1635ZM22.8855 18.4121C22.8855 19.5096 22.3318 20.3992 21.6489 20.3992C20.9659 20.3992 20.4122 19.5096 20.4122 18.4121C20.4122 17.3147 20.9659 16.425 21.6489 16.425C22.3318 16.425 22.8855 17.3147 22.8855 18.4121ZM25.771 20.6831C26.3022 20.6831 26.7328 19.9841 26.7328 19.1218C26.7328 18.2595 26.3022 17.5605 25.771 17.5605C25.2398 17.5605 24.8092 18.2595 24.8092 19.1218C24.8092 19.9841 25.2398 20.6831 25.771 20.6831Z" fill="#2C74F0"/>
</g>
<defs>
<clipPath id="clip0_8655_19153">
<rect width="18" height="22" fill="white" transform="translate(11 9)"/>
</clipPath>
</defs>
</svg>
