<svg width="24" height="24" viewBox="0 0 24 24" fill="none" xmlns="http://www.w3.org/2000/svg">
<path d="M18.4923 7.32092V10L20.0003 8.97385L18.4923 7.32092Z" fill="#8E9CCC"/>
<path d="M5.58853 7.21612L4 8.88696L5.58853 10V7.21612Z" fill="#8E9CCC"/>
<path d="M17.51 4.47809V10.6129L13.2836 14.3618C12.5452 15.0167 11.4396 15.0351 10.6799 14.4052L6.57274 11V4.47809C6.57274 4.21406 6.79266 4 7.06393 4H17.0188C17.2901 4 17.51 4.21406 17.51 4.47809Z" fill="#8E9CCC"/>
<path d="M20.2306 9.88477V17.9247C20.2306 18.5203 19.9705 19.0915 19.5076 19.5127C19.0446 19.9339 18.4167 20.1705 17.762 20.1705H6.24201C5.5873 20.1705 4.95941 19.9339 4.49647 19.5127C4.03352 19.0915 3.77344 18.5203 3.77344 17.9247V9.88477L10.9158 15.8136C11.2171 16.0517 11.603 16.182 12.002 16.1805C12.4059 16.1797 12.7955 16.0438 13.0964 15.7987L20.2306 9.88477Z" fill="#8E9CCC"/>
</svg>
