<svg width="26" height="26" viewBox="0 0 26 26" fill="none" xmlns="http://www.w3.org/2000/svg">
<rect width="26" height="26" rx="13" fill="#3870F3"/>
<g clip-path="url(#clip0_8461_14893)">
<path fill-rule="evenodd" clip-rule="evenodd" d="M17.2143 14.3086H15.5V9.0705H17.2143C17.3721 9.0705 17.5 9.2509 17.5 9.47343V13.9057C17.5 14.1282 17.3721 14.3086 17.2143 14.3086Z" stroke="white" stroke-linecap="round" stroke-linejoin="round"/>
<path d="M15.5 13.9158L13.8502 17.2646C13.6064 17.7593 13.026 17.9534 12.5537 17.6981C12.4655 17.6503 12.3848 17.5886 12.3146 17.5151C12.0333 17.2204 11.8753 16.8207 11.8753 16.4039V14.8325H9.24986C9.03474 14.8325 8.82997 14.7357 8.6876 14.5667C8.54523 14.3978 8.47897 14.1729 8.50565 13.9493L9.06815 9.75882C9.11507 9.36563 9.43412 9.07056 9.81236 9.07056H15.5" stroke="white" stroke-linecap="round" stroke-linejoin="round"/>
</g>
<defs>
<clipPath id="clip0_8461_14893">
<rect width="10" height="11" fill="white" transform="matrix(-1 0 0 -1 18 18.5)"/>
</clipPath>
</defs>
</svg>
