<svg width="20" height="20" viewBox="0 0 20 20" fill="none" xmlns="http://www.w3.org/2000/svg">
<path fill-rule="evenodd" clip-rule="evenodd" d="M6 2C3.79086 2 2 3.79086 2 6V14C2 16.2091 3.79086 18 6 18H14C16.2091 18 18 16.2091 18 14V6C18 3.79086 16.2091 2 14 2H6ZM10 15.2522C10.6885 15.2522 11.2466 14.6941 11.2466 14.0057V10C11.2466 9.31156 10.6885 8.75343 10 8.75343C9.31157 8.75343 8.75344 9.31156 8.75344 10V14.0057C8.75344 14.6941 9.31157 15.2522 10 15.2522ZM8.75344 5.99434C8.75344 6.68245 9.31199 7.24092 10 7.24092C10.688 7.24092 11.2466 6.68237 11.2466 5.99434C11.2466 5.30623 10.688 4.74777 10 4.74777C9.31199 4.74777 8.75344 5.30623 8.75344 5.99434Z" fill="#1B2934"/>
</svg>
