<svg width="16" height="16" viewBox="0 0 16 16" fill="none" xmlns="http://www.w3.org/2000/svg">
<path d="M7.99995 3.448C6.32048 3.448 4.9541 4.81437 4.9541 6.49384C4.9541 8.17331 6.32048 9.53969 7.99995 9.53969C9.67941 9.53969 11.0458 8.17331 11.0458 6.49384C11.0458 4.81437 9.67941 3.448 7.99995 3.448ZM8.4687 8.00009C8.4687 8.25897 8.25882 8.46884 7.99995 8.46884C7.74107 8.46884 7.5312 8.25897 7.5312 8.00009V6.49384C7.5312 6.23497 7.74107 6.02509 7.99995 6.02509C8.25882 6.02509 8.4687 6.23497 8.4687 6.49384V8.00009ZM7.99995 5.45634C7.74123 5.45634 7.5312 5.24634 7.5312 4.98759C7.5312 4.72884 7.74123 4.51884 7.99995 4.51884C8.25866 4.51884 8.4687 4.72884 8.4687 4.98759C8.4687 5.24631 8.25866 5.45634 7.99995 5.45634Z" fill="#8E9CCC"/>
<path d="M13.0166 0H2.9833C1.89427 0 1.0083 0.886 1.0083 1.975V13.2829C1.31002 13.0958 1.66543 12.9875 2.0458 12.9875H2.9828H13.0166C14.1267 12.9875 14.9916 12.0834 14.9916 11.0125V1.975C14.9916 0.872156 14.0957 0 13.0166 0ZM7.99996 10.4771C5.80355 10.4771 4.01661 8.69013 4.01661 6.49372C4.01661 4.29731 5.80355 2.51041 7.99996 2.51041C10.1964 2.51041 11.9833 4.29734 11.9833 6.49375C11.9833 8.69016 10.1964 10.4771 7.99996 10.4771Z" fill="#8E9CCC"/>
<path d="M2.0458 13.9249C1.4728 13.9249 1.0083 14.3894 1.0083 14.9624C1.0083 15.5354 1.4728 15.9999 2.0458 15.9999H13.0166C14.1267 15.9999 14.9916 15.0958 14.9916 14.0249V13.1509C14.4721 13.631 13.7781 13.9249 13.0166 13.9249H2.0458Z" fill="#8E9CCC"/>
</svg>
