<svg width="20" height="21" viewBox="0 0 20 21" fill="none" xmlns="http://www.w3.org/2000/svg">
<g id="ICON">
<g id="Group">
<path id="Vector" d="M11.6763 1.5H1V18.8164H11.6763V1.5ZM5.81734 15.5289H4.71065V13.5108H5.81734V15.5289ZM5.81734 11.4602H4.71065V9.4421H5.81734V11.4602ZM5.81734 7.42402H4.71065V5.40595H5.81734V7.42402ZM9.16994 15.5289H8.06326V13.5108H9.16994V15.5289ZM9.16994 11.4602H8.06326V9.4421H9.16994V11.4602ZM9.16994 7.42402H8.06326V5.40595H9.16994V7.42402Z" fill="#3870F3"/>
<path id="Vector_2" d="M19.0002 16.6356V8.59583H12.5879V18.8164H16.8193C18.0237 18.8164 19.0002 17.8399 19.0002 16.6356ZM16.5264 15.5614H14.3781V14.4873H16.5264V15.5614ZM16.5264 12.8598H14.3781V11.7531H16.5264V12.8598Z" fill="#3870F3"/>
</g>
</g>
</svg>
