<svg width="16" height="16" viewBox="0 0 16 16" fill="none" xmlns="http://www.w3.org/2000/svg">
<g clip-path="url(#clip0_7573_3917)">
<path d="M14.105 5.63043C14.0454 5.74599 13.9795 5.8582 13.9076 5.96655L12.2267 8.31995C12.0862 8.5163 11.9009 8.67633 11.6861 8.7868C11.4714 8.89726 11.2335 8.95497 10.992 8.95515C10.8427 8.95274 10.6947 8.92807 10.5527 8.88196V13.748L13.4738 14.6657C13.5209 14.6799 13.5699 14.6871 13.6192 14.6871C13.6856 14.6871 13.7514 14.674 13.8127 14.6486C13.8741 14.6232 13.9299 14.5859 13.9768 14.539C14.0238 14.492 14.061 14.4363 14.0864 14.3749C14.1118 14.3135 14.1249 14.2478 14.1249 14.1814V5.75226C14.1233 5.71098 14.1167 5.67006 14.105 5.63043Z" fill="#8E9CCC"/>
<path d="M7.52642 4.79633L6.46387 5.08883V14.5665L9.54134 13.7195V8.01733L8.07653 5.96684C7.82388 5.61315 7.6375 5.21655 7.52642 4.79633Z" fill="#8E9CCC"/>
<path d="M2.07862 4.22253C2.01534 4.26957 1.96394 4.33078 1.92854 4.40124C1.89314 4.47171 1.87472 4.54948 1.87476 4.62834V13.0574C1.87473 13.1662 1.90976 13.272 1.97466 13.3593C2.03956 13.4465 2.13087 13.5105 2.23502 13.5417L5.45232 14.5523V5.06338L2.52587 4.14405C2.45037 4.12129 2.37059 4.11653 2.29292 4.13015C2.21525 4.14378 2.14186 4.17542 2.07862 4.22253Z" fill="#8E9CCC"/>
<path d="M10.5804 7.73195C10.6272 7.79747 10.6889 7.85087 10.7605 7.88771C10.8321 7.92456 10.9114 7.94378 10.9919 7.94378C11.0725 7.94378 11.1518 7.92456 11.2234 7.88771C11.295 7.85087 11.3567 7.79747 11.4035 7.73195L13.0844 5.37883C13.359 4.99438 13.5223 4.54172 13.5565 4.07053C13.5907 3.59935 13.4944 3.12785 13.2782 2.7078C13.062 2.28774 12.7343 1.93536 12.331 1.68934C11.9277 1.44332 11.4644 1.31317 10.9919 1.31317C10.5195 1.31317 10.0562 1.44332 9.65292 1.68934C9.24961 1.93536 8.92187 2.28774 8.70568 2.7078C8.48949 3.12785 8.39321 3.59935 8.4274 4.07053C8.46158 4.54172 8.62492 4.99438 8.89948 5.37883L10.5804 7.73195ZM10.9919 3.04148C11.1587 3.04148 11.3216 3.09092 11.4602 3.18354C11.5989 3.27616 11.7069 3.4078 11.7707 3.56182C11.8345 3.71584 11.8512 3.88533 11.8187 4.04883C11.7861 4.21234 11.7059 4.36253 11.588 4.48042C11.4701 4.5983 11.3199 4.67858 11.1564 4.7111C10.9929 4.74363 10.8234 4.72694 10.6694 4.66314C10.5154 4.59934 10.3837 4.4913 10.2911 4.35269C10.1985 4.21407 10.149 4.0511 10.149 3.88439C10.149 3.7737 10.1708 3.66409 10.2132 3.56182C10.2555 3.45955 10.3176 3.36663 10.3959 3.28836C10.4742 3.21008 10.5671 3.148 10.6694 3.10564C10.7716 3.06328 10.8812 3.04148 10.9919 3.04148Z" fill="#8E9CCC"/>
</g>
<defs>
<clipPath id="clip0_7573_3917">
<rect width="14" height="14" fill="white" transform="translate(1 1)"/>
</clipPath>
</defs>
</svg>
