<svg width="20" height="20" viewBox="0 0 20 20" fill="none" xmlns="http://www.w3.org/2000/svg">
<path d="M3.12649 13.5156V11.7578H0.586401C0.262821 11.7578 0.000488281 11.4955 0.000488281 11.1719V8.82827C0.000488281 8.50469 0.262821 8.24236 0.586401 8.24236H3.12649V6.48463C3.12649 6.00293 3.6781 5.72645 4.06395 6.0159L8.75124 9.53137C9.06326 9.76538 9.06373 10.2344 8.75124 10.4688L4.06395 13.9843C3.68099 14.2715 3.12649 14.0008 3.12649 13.5156Z" fill="#1B2934"/>
<path d="M6.05491 3.51611C5.73148 3.51611 5.46899 3.7786 5.46899 4.10203L5.47013 5.60587L9.45433 8.59402C9.89076 8.92135 10.1447 9.45512 10.1563 10.0002C10.1447 10.5453 9.89072 11.0791 9.45433 11.4064L5.47013 14.3946L5.46899 17.0702C5.46899 17.3936 5.73148 17.6561 6.05491 17.6561H10.586V3.51611H6.05491Z" fill="#1B2934"/>
<path d="M19.6745 3.57728L12.6045 0.0618025C12.2158 -0.131314 11.7577 0.151486 11.7577 0.586389V19.4137C11.7577 19.8155 12.1517 20.0948 12.528 19.9699L19.598 17.6263C19.8378 17.5466 19.9995 17.3228 19.9995 17.0701V4.10186C19.9995 3.87961 19.8737 3.6761 19.6745 3.57728ZM15.2732 11.1719C15.2732 11.4953 15.0107 11.7578 14.6873 11.7578C14.3638 11.7578 14.1013 11.4953 14.1013 11.1719V8.82822C14.1013 8.5048 14.3638 8.24231 14.6873 8.24231C15.0107 8.24231 15.2732 8.5048 15.2732 8.82822V11.1719Z" fill="#1B2934"/>
</svg>
