<svg width="14" height="14" viewBox="0 0 14 14" fill="none" xmlns="http://www.w3.org/2000/svg">
<g id="ic_areaanalysis" clip-path="url(#clip0_6386_6730)">
<g id="Map">
<path id="Vector" d="M13.105 4.63043C13.0454 4.74599 12.9795 4.8582 12.9076 4.96655L11.2267 7.31995C11.0862 7.5163 10.9009 7.67633 10.6861 7.7868C10.4714 7.89726 10.2335 7.95497 9.99199 7.95515C9.84275 7.95274 9.6947 7.92807 9.55273 7.88196V12.748L12.4738 13.6657C12.5209 13.6799 12.5699 13.6871 12.6192 13.6871C12.6856 13.6871 12.7514 13.674 12.8127 13.6486C12.8741 13.6232 12.9299 13.5859 12.9768 13.539C13.0238 13.492 13.061 13.4363 13.0864 13.3749C13.1118 13.3135 13.1249 13.2478 13.1249 13.1814V4.75226C13.1233 4.71098 13.1167 4.67006 13.105 4.63043Z" fill="#A5A3AB"/>
<path id="Vector_2" d="M6.52642 3.79633L5.46387 4.08883V13.5665L8.54134 12.7195V7.01733L7.07653 4.96684C6.82388 4.61315 6.6375 4.21655 6.52642 3.79633Z" fill="#A5A3AB"/>
<path id="Vector_3" d="M1.07887 3.22253C1.01558 3.26957 0.964182 3.33078 0.928783 3.40124C0.893383 3.47171 0.874965 3.54948 0.875 3.62834V12.0574C0.87497 12.1662 0.910006 12.272 0.974907 12.3593C1.03981 12.4465 1.13111 12.5105 1.23527 12.5417L4.45257 13.5523V4.06338L1.52611 3.14405C1.45062 3.12129 1.37084 3.11653 1.29317 3.13015C1.2155 3.14378 1.1421 3.17542 1.07887 3.22253Z" fill="#A5A3AB"/>
<path id="Vector_4" d="M9.58061 6.73195C9.6274 6.79747 9.68916 6.85087 9.76074 6.88771C9.83233 6.92456 9.91168 6.94378 9.99219 6.94378C10.0727 6.94378 10.152 6.92456 10.2236 6.88771C10.2952 6.85087 10.357 6.79747 10.4038 6.73195L12.0846 4.37883C12.3592 3.99438 12.5225 3.54172 12.5567 3.07053C12.5909 2.59935 12.4946 2.12785 12.2784 1.7078C12.0623 1.28774 11.7345 0.935364 11.3312 0.689344C10.9279 0.443324 10.4646 0.313171 9.99219 0.313171C9.51976 0.313171 9.05647 0.443324 8.65316 0.689344C8.24985 0.935364 7.92212 1.28774 7.70593 1.7078C7.48974 2.12785 7.39345 2.59935 7.42764 3.07053C7.46183 3.54172 7.62517 3.99438 7.89973 4.37883L9.58061 6.73195ZM9.99219 2.04148C10.1589 2.04148 10.3219 2.09092 10.4605 2.18354C10.5991 2.27616 10.7071 2.4078 10.7709 2.56182C10.8347 2.71584 10.8514 2.88533 10.8189 3.04883C10.7864 3.21234 10.7061 3.36253 10.5882 3.48042C10.4703 3.5983 10.3201 3.67858 10.1566 3.7111C9.99312 3.74363 9.82364 3.72694 9.66962 3.66314C9.5156 3.59934 9.38395 3.4913 9.29133 3.35269C9.19871 3.21407 9.14928 3.0511 9.14928 2.88439C9.14927 2.7737 9.17107 2.66409 9.21343 2.56182C9.25579 2.45955 9.31788 2.36663 9.39615 2.28836C9.47442 2.21008 9.56735 2.148 9.66962 2.10564C9.77188 2.06328 9.88149 2.04148 9.99219 2.04148Z" fill="#A5A3AB"/>
</g>
</g>
<defs>
<clipPath id="clip0_6386_6730">
<rect width="14" height="14" fill="white"/>
</clipPath>
</defs>
</svg>
