<svg width="16" height="16" viewBox="0 0 16 16" fill="none" xmlns="http://www.w3.org/2000/svg">
<path d="M4.25 5.625C2.95772 5.625 1.875 6.67647 1.875 7.96875C1.875 9.26103 2.95772 10.3125 4.25 10.3125C5.54228 10.3125 6.625 9.26103 6.625 7.96875C6.625 6.67647 5.54228 5.625 4.25 5.625Z" fill="#A5A3AB"/>
<path d="M11.7812 0C9.45491 0 7.5625 1.89241 7.5625 4.21875C7.5625 4.94431 7.74791 5.65247 8.09991 6.28053L7.58675 7.82044C7.53228 7.98294 7.57119 8.16147 7.68747 8.28734C7.80678 8.41638 7.98497 8.46422 8.14478 8.42331L9.88566 7.98844C10.4707 8.28278 11.1221 8.4375 11.7812 8.4375C14.1076 8.4375 16 6.54509 16 4.21875C16 1.89241 14.1076 0 11.7812 0ZM11.7812 6.5625C11.5224 6.5625 11.3125 6.35262 11.3125 6.09375C11.3125 5.83488 11.5224 5.625 11.7812 5.625C12.0401 5.625 12.25 5.83488 12.25 6.09375C12.25 6.35262 12.0401 6.5625 11.7812 6.5625ZM12.4354 4.52637C12.3246 4.58497 12.25 4.73513 12.25 4.90037C12.25 5.15947 12.0403 5.36912 11.7812 5.36912C11.5222 5.36912 11.3125 5.15947 11.3125 4.90037C11.3125 4.38034 11.5757 3.91938 11.9987 3.69691C12.1539 3.61541 12.25 3.45613 12.25 3.28125C12.25 3.02262 12.0399 2.8125 11.7812 2.8125C11.5226 2.8125 11.3125 3.02262 11.3125 3.28125C11.3125 3.54034 11.1028 3.75 10.8438 3.75C10.5847 3.75 10.375 3.54034 10.375 3.28125C10.375 2.50581 11.0058 1.875 11.7812 1.875C12.5567 1.875 13.1875 2.50581 13.1875 3.28125C13.1875 3.80538 12.8991 4.28237 12.4354 4.52637Z" fill="#A5A3AB"/>
<path d="M6.70969 10.1553C6.10866 10.8222 5.21622 11.25 4.25 11.25C3.28378 11.25 2.39134 10.8222 1.79031 10.1553C0.710844 10.9201 0 12.173 0 13.5938V15.5313C0 15.7904 0.209656 16 0.46875 16H8.03125C8.29034 16 8.5 15.7904 8.5 15.5313V13.5938C8.5 12.173 7.78916 10.9201 6.70969 10.1553Z" fill="#A5A3AB"/>
</svg>
