<svg width="30" height="30" viewBox="0 0 30 30" fill="none" xmlns="http://www.w3.org/2000/svg">
<path d="M7.5057 18.8217L11.2361 22.7334C11.3165 22.8181 11.4122 22.8852 11.5175 22.931C11.6227 22.9767 11.7356 23.0002 11.8496 23H21.3534C21.8559 23 22.2633 22.5926 22.2633 22.0901C22.2633 21.5876 21.8559 21.1802 21.3534 21.1802H16.2256L22.4924 14.6089C23.1692 13.9001 23.1692 12.7445 22.4924 12.0357L18.1962 7.53169C17.8704 7.19119 17.4292 7 16.9692 7C16.5093 7 16.068 7.19119 15.7423 7.53169L11.6205 11.8528L7.49529 16.2595C7.17596 16.6025 6.99807 17.0635 7.00002 17.5428C7.00196 18.0222 7.18359 18.4816 7.5057 18.8217ZM16.9692 8.81829L21.2645 13.3223L19.0206 15.6753L14.7253 11.1713L16.9692 8.81829ZM12.8536 13.133L13.4983 12.4579L17.7936 16.9619L13.8393 21.1083C13.8182 21.1312 13.7982 21.1552 13.7794 21.1802H12.2088L8.73355 17.5342L12.8536 13.133Z" fill="black"/>
</svg>
