<svg width="41" height="40" viewBox="0 0 41 40" fill="none" xmlns="http://www.w3.org/2000/svg">
<path fill-rule="evenodd" clip-rule="evenodd" d="M7.8125 7C6.81149 7 6 7.83575 6 8.86667C6 9.89759 6.81149 10.7333 7.8125 10.7333V25.6667C7.8125 27.7286 9.43547 29.4 11.4375 29.4H16.1242L13.7809 31.8135C13.073 32.5424 13.073 33.7244 13.7809 34.4533C14.4887 35.1822 15.6363 35.1822 16.3441 34.4533L20.5 30.1732L24.6559 34.4533C25.3637 35.1822 26.5113 35.1822 27.2191 34.4533C27.9269 33.7244 27.9269 32.5424 27.2191 31.8135L24.8757 29.4H29.5625C31.5646 29.4 33.1875 27.7286 33.1875 25.6667V10.7333C34.1885 10.7333 35 9.89759 35 8.86667C35 7.83575 34.1885 7 33.1875 7H7.8125ZM27.5816 17.2603C28.2894 16.5313 28.2894 15.3494 27.5816 14.6204C26.8738 13.8915 25.7262 13.8915 25.0184 14.6204L21.95 17.8198L19.6066 15.4064C18.8988 14.6774 17.7512 14.6774 17.0434 15.4064L13.4184 19.1398C12.7105 19.8687 12.7105 21.0507 13.4184 21.7796C14.1262 22.5085 15.2738 22.5085 15.9816 21.7796L18.325 19.3662L20.6684 21.7796C21.3762 22.5085 22.5238 22.5085 23.2316 21.7796L27.5816 17.2603Z" fill="#3870F3"/>
</svg>
