<svg width="16" height="16" viewBox="0 0 16 16" fill="none" xmlns="http://www.w3.org/2000/svg">
<g id="ic_btn_share">
<path id="Vector" d="M12.1306 10.2848C11.5127 10.2846 10.9194 10.5253 10.4778 10.9554L6.17333 8.54722C6.26179 8.18402 6.26179 7.80505 6.17333 7.44184L10.4765 5.03371C10.8785 5.42281 11.4065 5.65683 11.9661 5.69387C12.5257 5.73091 13.0803 5.56857 13.5305 5.23589C13.9808 4.90322 14.2974 4.42193 14.4236 3.87821C14.5497 3.33448 14.4773 2.76382 14.2193 2.26837C13.9612 1.77293 13.5343 1.38505 13.0151 1.17419C12.4958 0.96333 11.9181 0.943247 11.3854 1.11754C10.8526 1.29183 10.3996 1.64911 10.1074 2.12543C9.8152 2.60175 9.70294 3.16599 9.79069 3.71716L5.38603 6.18254C5.04005 5.89572 4.6191 5.71294 4.17248 5.65562C3.72586 5.5983 3.27208 5.66881 2.86428 5.85888C2.45649 6.04896 2.11158 6.35074 1.86995 6.72885C1.62833 7.10697 1.5 7.54578 1.5 7.99386C1.5 8.44194 1.62833 8.88075 1.86995 9.25886C2.11158 9.63698 2.45649 9.93876 2.86428 10.1288C3.27208 10.3189 3.72586 10.3894 4.17248 10.3321C4.6191 10.2748 5.04005 10.092 5.38603 9.80518L9.79069 12.2719C9.71455 12.7481 9.78695 13.236 9.99814 13.6699C10.2093 14.1039 10.5491 14.463 10.9718 14.6988C11.3944 14.9346 11.8796 15.0358 12.3618 14.9887C12.8441 14.9417 13.3002 14.7487 13.6688 14.4357C14.0373 14.1227 14.3006 13.7048 14.4231 13.2383C14.5455 12.7718 14.5213 12.2791 14.3537 11.8268C14.1861 11.3744 13.8831 10.984 13.4856 10.7083C13.0881 10.4326 12.6152 10.2848 12.1306 10.2848Z" fill="#8E9CCC"/>
</g>
</svg>
