<svg width="16" height="16" viewBox="0 0 16 16" fill="none" xmlns="http://www.w3.org/2000/svg">
<g id="ic_cost">
<path id="Vector" d="M15.6667 6.27364C15.85 6.27364 16 6.12877 16 5.95171V4.87861C16 4.70154 15.85 4.55667 15.6667 4.55667H14.3333L14.85 2.39437C14.8972 2.19316 14.7389 2 14.525 2H13.2444C13.0861 2 12.95 2.10731 12.9194 2.25486L12.5194 4.55667H9.46667L8.91945 2.2495C8.88333 2.10194 8.75 2 8.59444 2H7.37222C7.21667 2 7.08333 2.10194 7.04722 2.2495L6.49167 4.55667H3.47222L2.98611 2.25755C2.95556 2.10731 2.81667 2 2.65833 2H1.48889C1.275 2 1.11667 2.19048 1.16389 2.39168L1.66667 4.55667H0.333333C0.15 4.55667 0 4.70154 0 4.87861V5.95171C0 6.12877 0.15 6.27364 0.333333 6.27364H2.06389L2.26389 7.13213H0.333333C0.15 7.13213 0 7.277 0 7.45406V8.52716C0 8.70423 0.15 8.84909 0.333333 8.84909H2.66389L3.8 13.7478C3.83333 13.8954 3.96944 14 4.125 14H5.70278C5.85833 14 5.99167 13.8954 6.02778 13.7505L7.20278 8.84909H8.73333L9.91111 13.7505C9.94722 13.8954 10.0806 14 10.2361 14H11.8139C11.9694 14 12.1028 13.8954 12.1389 13.7505L13.3083 8.84909H15.6667C15.85 8.84909 16 8.70423 16 8.52716V7.45406C16 7.277 15.85 7.13213 15.6667 7.13213H13.7194L13.925 6.27364H15.6667ZM5.10556 10.2978C4.93333 10.9899 4.91667 11.5641 4.90278 11.5641H4.87222C4.87222 11.5641 4.825 10.9738 4.68333 10.2978L4.37778 8.84909H5.45556L5.10556 10.2978ZM5.86944 7.13213H4.01389L3.83333 6.27364H6.07778L5.86944 7.13213ZM7.61667 7.13213L7.67222 6.90141C7.725 6.68679 7.76944 6.47217 7.80556 6.27364H8.13333C8.16944 6.47217 8.21389 6.68679 8.26667 6.90141L8.32222 7.13213H7.61667ZM11.2528 10.2978C11.1111 10.9738 11.0639 11.5641 11.0639 11.5641H11.0333C11.0167 11.5641 11.0028 10.9899 10.8306 10.2978L10.4861 8.84909H11.5722L11.2528 10.2978ZM11.9528 7.13213H10.0806L9.87778 6.27364H12.1444L11.9528 7.13213Z" fill="#A5A3AB"/>
</g>
</svg>
