<svg width="32" height="32" viewBox="0 0 32 32" fill="none" xmlns="http://www.w3.org/2000/svg">
<g id="(ICON)" clip-path="url(#clip0_6235_13525)">
<g id="Group">
<g id="Group_2">
<path id="Vector" d="M19.7502 0H4.68829C2.10385 0 0.000976562 2.16537 0.000976562 4.74981V10.3746C0.000976562 12.6387 1.6141 14.5319 3.75085 14.9676V19.7493C3.75085 20.5852 4.76479 20.9984 5.3511 20.4121L9.70704 16.1186C10.4807 13.3561 12.9943 11.3121 16.0004 11.3121H24.4375V4.74981C24.4375 2.16537 22.3347 0 19.7502 0ZM14.1255 9.43713H6.56323C6.04504 9.43713 5.62579 9.01781 5.62579 8.49969C5.62579 7.9815 6.0451 7.56225 6.56323 7.56225H14.1255C14.6437 7.56225 15.0629 7.98156 15.0629 8.49969C15.0629 9.01787 14.6436 9.43713 14.1255 9.43713ZM17.8753 5.68731H6.56323C6.04504 5.68731 5.62579 5.268 5.62579 4.74988C5.62579 4.23175 6.0451 3.81244 6.56323 3.81244H17.8753C18.3935 3.81244 18.8127 4.23175 18.8127 4.74988C18.8127 5.268 18.3935 5.68731 17.8753 5.68731Z" fill="white"/>
</g>
</g>
<g id="Group_3">
<g id="Group_4">
<path id="Vector_2" d="M27.3119 13.187H15.9998C13.4154 13.187 11.3125 15.2899 11.3125 17.8743V21.6242C11.3125 24.2086 13.4154 26.3115 15.9998 26.3115H21.2364L26.5866 31.7241C27.1744 32.3119 28.2493 31.8994 28.2493 31.0613V26.2172C30.3861 25.7814 31.9992 23.8881 31.9992 21.6242V17.8743C31.9993 15.2899 29.8963 13.187 27.3119 13.187ZM18.8122 15.9994C19.33 15.9994 19.7497 16.419 19.7497 16.9368C19.7497 17.4546 19.3299 17.8743 18.8122 17.8743C18.2946 17.8743 17.8748 17.4545 17.8748 16.9368C17.8747 16.419 18.2945 15.9994 18.8122 15.9994ZM24.9387 22.1259C24.0544 23.0111 22.877 23.4991 21.6246 23.4991C20.3723 23.4991 19.1949 23.0111 18.3106 22.1259C17.9444 21.7597 17.9444 21.1656 18.3106 20.8003C18.6767 20.4341 19.27 20.4341 19.6362 20.8003C20.6981 21.8622 22.5511 21.8622 23.6131 20.8003C23.9793 20.4341 24.5726 20.4341 24.9388 20.8003C25.3049 21.1655 25.3049 21.7597 24.9387 22.1259ZM24.437 17.8743C23.9192 17.8743 23.4996 17.4546 23.4996 16.9369C23.4996 16.419 23.9193 15.9994 24.437 15.9994C24.9547 15.9994 25.3744 16.4191 25.3744 16.9369C25.3745 17.4546 24.9547 17.8743 24.437 17.8743Z" fill="white"/>
</g>
</g>
</g>
<defs>
<clipPath id="clip0_6235_13525">
<rect width="32" height="32" fill="white"/>
</clipPath>
</defs>
</svg>
