<svg width="24" height="24" viewBox="0 0 24 24" fill="none" xmlns="http://www.w3.org/2000/svg">
<path fill-rule="evenodd" clip-rule="evenodd" d="M6 4C4.89544 4 4 4.89542 4 6V18C4 19.1046 4.89544 20 6 20H18C19.1046 20 20 19.1046 20 18V6C20 4.89542 19.1046 4 18 4H6ZM7 7.75C7 7.33579 7.38376 7 7.85714 7H16.1429C16.6163 7 17 7.33579 17 7.75V8.25C17 8.66421 16.6163 9 16.1429 9H7.85714C7.38376 9 7 8.66421 7 8.25V7.75ZM7 11.75C7 11.3358 7.38376 11 7.85714 11H16.1429C16.6163 11 17 11.3358 17 11.75V12.25C17 12.6642 16.6163 13 16.1429 13H7.85714C7.38376 13 7 12.6642 7 12.25V11.75ZM7 15.75C7 15.3358 7.38376 15 7.85714 15H16.1429C16.6163 15 17 15.3358 17 15.75V16.25C17 16.6642 16.6163 17 16.1429 17H7.85714C7.38376 17 7 16.6642 7 16.25V15.75Z" fill="#8E9CCC"/>
</svg>
