<svg width="14" height="14" viewBox="0 0 14 14" fill="none" xmlns="http://www.w3.org/2000/svg">
<path d="M9.80002 3.39963C9.80002 3.63483 9.99137 3.82618 10.2266 3.82618H11.8266C12.1898 3.82618 12.5297 3.92758 12.8197 4.10352C12.7055 3.8328 12.539 3.58399 12.325 3.36998L10.2562 1.3012C10.0423 1.08724 9.79357 0.920863 9.52295 0.806641C9.69871 1.09648 9.80004 1.43624 9.80004 1.79924L9.80002 3.39963Z" fill="#8E9CCC"/>
<path d="M9.05287 2.30706V1.79998C9.05287 1.15106 8.52767 0.626953 7.87985 0.626953H3.42635C2.77214 0.626953 2.25293 1.15786 2.25293 1.80038V2.22692H8.6263C8.77695 2.22694 8.92067 2.25552 9.05287 2.30706Z" fill="#8E9CCC"/>
<path d="M11.8263 4.5728H10.2263C10.0758 4.5728 9.93205 4.54402 9.79975 4.49219V6.99934C9.79975 7.43975 9.55774 7.82252 9.19976 8.02326V8.82586H10.0263C10.1773 8.82586 10.3135 8.91683 10.3713 9.0564C10.4291 9.19594 10.3972 9.35657 10.2904 9.46337L7.89038 11.8633C7.75133 12.008 7.5013 12.008 7.36226 11.8633L4.96229 9.46337C4.85548 9.35657 4.82354 9.19596 4.88132 9.0564C4.93913 8.91685 5.07531 8.82586 5.22633 8.82586H6.05288V8.17279H2.25293V12.1993C2.25293 12.8535 2.78384 13.3727 3.42635 13.3727H11.8263C12.482 13.3727 12.9997 12.8402 12.9997 12.1993V5.74625C12.9997 5.0992 12.4733 4.5728 11.8263 4.5728Z" fill="#8E9CCC"/>
<path d="M2.3999 4.37891V5.42197C3.0048 5.31771 3.00214 4.48305 2.3999 4.37891Z" fill="#8E9CCC"/>
<path d="M4.7998 4.39258V6.00907C5.66534 5.81155 5.66474 4.58978 4.7998 4.39258Z" fill="#8E9CCC"/>
<path d="M9.05303 7.00114V3.40118C9.05303 3.16598 8.86168 2.97461 8.62649 2.97461H1.42657C1.19135 2.97463 1 3.16598 1 3.40118V7.00114C1 7.23633 1.19135 7.42771 1.42654 7.42771H8.62646C8.86168 7.42771 9.05303 7.23633 9.05303 7.00114ZM2.39998 6.17255V6.40117C2.3816 6.89613 1.6713 6.89575 1.6531 6.40117V4.0012C1.6531 3.79496 1.8203 3.62776 2.02654 3.62776H2.32693C3.97196 3.67976 4.02805 6.03206 2.39998 6.17255ZM4.62652 6.77458H4.42654C4.2203 6.77458 4.0531 6.60738 4.0531 6.40114V4.00117C4.0531 3.79493 4.2203 3.62773 4.42654 3.62773H4.62652C6.71154 3.70707 6.70997 6.69599 4.62652 6.77458ZM8.02647 4.37461H7.39991V5.02771H7.62647C8.12142 5.04608 8.12105 5.75639 7.62647 5.77459H7.39991V6.40114C7.38154 6.8961 6.67123 6.89573 6.65303 6.40114V4.00117C6.65303 3.79493 6.82024 3.62773 7.02647 3.62773H8.02647C8.52143 3.6461 8.52105 4.35641 8.02647 4.37461Z" fill="#8E9CCC"/>
<path d="M6.80029 8.17383V9.20034C6.80029 9.40658 6.63308 9.57378 6.42685 9.57378H6.12842L7.62683 11.0722L9.12525 9.57378H8.82682C8.62058 9.57378 8.45338 9.40658 8.45338 9.20034V8.17383H6.80029Z" fill="#8E9CCC"/>
</svg>
