<svg width="24" height="24" viewBox="0 0 24 24" fill="none" xmlns="http://www.w3.org/2000/svg">
<path d="M12.6232 11.8084C12.4576 11.9314 12.2424 11.9996 12.0194 11.9996C11.7963 11.9996 11.5811 11.9314 11.4155 11.8084L3.77277 6.08781C4.07267 5.91869 4.42768 5.82816 4.7912 5.82812H19.2115C19.575 5.82816 19.93 5.91869 20.2299 6.08781L12.6232 11.8084Z" fill="#8E9CCC"/>
<path d="M20.2299 7.88477V15.9247C20.2299 16.5203 19.9698 17.0915 19.5069 17.5127C19.0439 17.9339 18.416 18.1705 17.7613 18.1705H6.24134C5.58663 18.1705 4.95874 17.9339 4.49579 17.5127C4.03285 17.0915 3.77277 16.5203 3.77277 15.9247V7.88477L10.9152 13.8136C11.2164 14.0517 11.6024 14.182 12.0013 14.1805C12.4053 14.1797 12.7948 14.0438 13.0957 13.7987L20.2299 7.88477Z" fill="#8E9CCC"/>
</svg>
