<svg width="19" height="24" viewBox="0 0 19 24" fill="none" xmlns="http://www.w3.org/2000/svg">
<g clip-path="url(#clip0_8581_20962)">
<path fill-rule="evenodd" clip-rule="evenodd" d="M5.45869 2.29664C5.64624 2.07037 5.75898 1.77979 5.75898 1.46288C5.75898 0.741078 5.17415 0.155945 4.45273 0.155945C3.73132 0.155945 3.14648 0.741078 3.14648 1.46288C3.14648 2.18467 3.73132 2.76981 4.45273 2.76981C4.6412 2.76981 4.82034 2.72987 4.98217 2.658L6.02204 3.73783C3.43995 5.00377 1.66211 7.65926 1.66211 10.7302C1.66211 12.7988 2.46915 14.6793 3.78474 16.0729L2.20319 18.0285L1.81188 18.5123H2.43398H9.32148H9.44023H10.0402L10.0189 18.4912C14.0444 18.195 17.2184 14.8334 17.2184 10.7302C17.2184 8.08266 15.8969 5.74392 13.878 4.33813L14.8958 3.31974C15.0721 3.4233 15.2774 3.48268 15.4965 3.48268C16.1523 3.48268 16.684 2.95073 16.684 2.29456C16.684 1.63838 16.1523 1.10644 15.4965 1.10644C14.8406 1.10644 14.309 1.63838 14.309 2.29456C14.309 2.516 14.3695 2.72329 14.475 2.90076L13.3659 4.01044C12.2136 3.33513 10.8721 2.94802 9.44023 2.94802C8.43827 2.94802 7.48055 3.13758 6.60096 3.4828L5.45869 2.29664ZM2.92231 7.70263C2.49463 8.62276 2.25586 9.64859 2.25586 10.7302C2.25586 12.7306 3.07215 14.5396 4.39036 15.8431L4.58154 16.0321L4.41247 16.2411L3.05609 17.9183H8.60281L8.59034 17.9059L9.3252 17.9174C9.36346 17.918 9.40182 17.9183 9.44023 17.9183C10.8671 17.9183 12.1969 17.5021 13.3148 16.7844C12.682 16.9432 12.0214 17.0272 11.342 17.0272C6.68457 17.0272 2.90898 13.0764 2.90898 8.20294C2.90898 8.03504 2.91346 7.86823 2.92231 7.70263ZM4.75798 5.27817C4.45885 6.11481 4.29522 7.02114 4.29522 7.96764C4.29522 12.1913 7.55361 15.6153 11.573 15.6153C13.1024 15.6153 14.5215 15.1196 15.6929 14.2728C16.2859 13.2272 16.6246 12.0183 16.6246 10.7302C16.6246 6.76032 13.408 3.54208 9.44023 3.54208C7.65153 3.54208 6.01548 4.19611 4.75798 5.27817ZM11.934 7.99753C11.934 8.91618 11.4555 9.6609 10.8652 9.6609C10.275 9.6609 9.79648 8.91618 9.79648 7.99753C9.79648 7.07888 10.275 6.33416 10.8652 6.33416C11.4555 6.33416 11.934 7.07888 11.934 7.99753ZM14.4277 9.89852C14.8868 9.89852 15.259 9.31338 15.259 8.59159C15.259 7.86979 14.8868 7.28466 14.4277 7.28466C13.9686 7.28466 13.5965 7.86979 13.5965 8.59159C13.5965 9.31338 13.9686 9.89852 14.4277 9.89852Z" fill="#2C74F0"/>
<path d="M1.04353 23.4679C1.23195 23.4679 1.36911 23.4361 1.455 23.3723C1.54089 23.3086 1.58384 23.2184 1.58384 23.102C1.58384 23.0327 1.56861 22.9731 1.53812 22.9232C1.51042 22.8733 1.46886 22.829 1.41344 22.7902C1.3608 22.7485 1.29567 22.7111 1.21809 22.6778C1.14051 22.6418 1.05184 22.6072 0.952094 22.5739C0.852344 22.5379 0.755364 22.499 0.661156 22.4575C0.569719 22.4131 0.48798 22.3591 0.415938 22.2953C0.346667 22.2316 0.289864 22.1553 0.245531 22.0666C0.203969 21.9779 0.183187 21.8711 0.183187 21.7464C0.183187 21.4858 0.273239 21.282 0.453344 21.1351C0.633448 20.9854 0.878667 20.9105 1.189 20.9105C1.36911 20.9105 1.52842 20.9313 1.66697 20.9729C1.80828 21.0118 1.91911 21.0548 1.99947 21.1018L1.83738 21.526C1.74317 21.4733 1.63926 21.4332 1.52566 21.4054C1.41483 21.3777 1.29983 21.3638 1.18069 21.3638C1.03937 21.3638 0.928542 21.3929 0.848188 21.4511C0.770605 21.5093 0.731812 21.5912 0.731812 21.6965C0.731812 21.7603 0.744281 21.8158 0.769219 21.8628C0.796927 21.9072 0.834333 21.9474 0.881437 21.9834C0.931313 22.0195 0.988114 22.0528 1.05184 22.0832C1.11834 22.1137 1.19039 22.1428 1.26797 22.1705C1.40374 22.2204 1.52427 22.2718 1.62956 22.3244C1.73763 22.3743 1.82767 22.4354 1.89972 22.5074C1.97453 22.5767 2.03133 22.6599 2.07013 22.7569C2.10892 22.8512 2.12831 22.9662 2.12831 23.102C2.12831 23.3627 2.03549 23.565 1.84984 23.7091C1.66697 23.8505 1.3982 23.9213 1.04353 23.9213C0.924386 23.9213 0.814938 23.913 0.715188 23.8964C0.618208 23.8825 0.530927 23.8644 0.453344 23.8422C0.378531 23.8201 0.313417 23.7979 0.258 23.7757C0.202583 23.7507 0.15825 23.7286 0.125 23.7091L0.278781 23.2808C0.353594 23.3224 0.45473 23.364 0.582188 23.4056C0.709645 23.4472 0.863427 23.4679 1.04353 23.4679ZM3.80345 22.7153C3.80345 22.488 3.77435 22.3244 3.71617 22.2246C3.66075 22.122 3.55545 22.0707 3.40029 22.0707C3.34487 22.0707 3.28392 22.0749 3.21742 22.0832C3.15092 22.0915 3.10104 22.0985 3.06779 22.104V23.8588H2.56488V21.7547C2.66186 21.727 2.78793 21.7006 2.9431 21.6757C3.10104 21.6507 3.26729 21.6382 3.44185 21.6382C3.59148 21.6382 3.71339 21.6577 3.8076 21.6965C3.90458 21.7353 3.98493 21.7866 4.04867 21.8503C4.07914 21.8282 4.11793 21.8046 4.16504 21.7796C4.21214 21.7547 4.26479 21.7326 4.32298 21.7131C4.38117 21.691 4.44212 21.6729 4.50585 21.659C4.57235 21.6453 4.63885 21.6382 4.70535 21.6382C4.87437 21.6382 5.01292 21.6632 5.12098 21.7131C5.23181 21.7603 5.3177 21.8282 5.37867 21.9169C5.44239 22.0029 5.48534 22.1081 5.50751 22.2329C5.53245 22.3549 5.54492 22.4894 5.54492 22.6364V23.8588H5.04201V22.7153C5.04201 22.488 5.01429 22.3244 4.95889 22.2246C4.90346 22.122 4.79679 22.0707 4.63885 22.0707C4.5585 22.0707 4.48229 22.0846 4.41026 22.1123C4.33821 22.1373 4.28418 22.1622 4.24817 22.1872C4.27033 22.2565 4.28557 22.33 4.29388 22.4076C4.3022 22.4853 4.30635 22.5684 4.30635 22.6571V23.8588H3.80345V22.7153ZM6.92577 23.5054C7.08092 23.5054 7.19869 23.4971 7.27905 23.4804V22.9232C7.25133 22.9149 7.21116 22.9066 7.15851 22.8982C7.10586 22.8899 7.04767 22.8858 6.98395 22.8858C6.92853 22.8858 6.87173 22.8899 6.81355 22.8982C6.75813 22.9066 6.70686 22.9219 6.65977 22.944C6.61542 22.9662 6.57941 22.998 6.5517 23.0396C6.52399 23.0785 6.51014 23.1284 6.51014 23.1893C6.51014 23.3086 6.54755 23.3918 6.62236 23.4388C6.69717 23.4833 6.7983 23.5054 6.92577 23.5054ZM6.8842 21.6299C7.05045 21.6299 7.19038 21.6507 7.30398 21.6923C7.41758 21.7339 7.50764 21.7921 7.57414 21.867C7.64341 21.9418 7.69189 22.0333 7.71961 22.1414C7.75008 22.2468 7.76533 22.3632 7.76533 22.4907V23.8089C7.68774 23.8256 7.56998 23.8451 7.41205 23.8673C7.25688 23.8922 7.08092 23.9047 6.8842 23.9047C6.75397 23.9047 6.63483 23.8922 6.52676 23.8673C6.4187 23.8422 6.32588 23.802 6.2483 23.7466C6.17348 23.6912 6.11391 23.6191 6.06958 23.5303C6.02802 23.4417 6.00723 23.3321 6.00723 23.2018C6.00723 23.0771 6.03078 22.9718 6.07789 22.8858C6.12777 22.7999 6.19426 22.7306 6.27739 22.6778C6.36052 22.6225 6.45611 22.5836 6.56417 22.5614C6.675 22.5365 6.78999 22.524 6.90914 22.524C6.96455 22.524 7.02274 22.5281 7.0837 22.5365C7.14466 22.542 7.20977 22.5531 7.27905 22.5697V22.4866C7.27905 22.4283 7.27211 22.373 7.25827 22.3202C7.24441 22.2676 7.21947 22.2219 7.18345 22.183C7.1502 22.1414 7.10448 22.1096 7.0463 22.0874C6.99088 22.0653 6.92022 22.0541 6.83433 22.0541C6.71795 22.0541 6.61127 22.0624 6.5143 22.079C6.41731 22.0957 6.33834 22.1152 6.27739 22.1373L6.21505 21.7297C6.27877 21.7076 6.37159 21.6854 6.49352 21.6633C6.61542 21.6411 6.74566 21.6299 6.8842 21.6299ZM9.61976 22.1373C9.5782 22.1235 9.52001 22.1096 9.4452 22.0957C9.37315 22.079 9.28864 22.0707 9.19167 22.0707C9.13625 22.0707 9.07667 22.0763 9.01295 22.0874C8.95198 22.0985 8.90904 22.1081 8.88411 22.1165V23.8588H8.3812V21.7879C8.47817 21.7519 8.5987 21.7187 8.74279 21.6881C8.88964 21.6549 9.05173 21.6382 9.22907 21.6382C9.26232 21.6382 9.30111 21.6411 9.34545 21.6466C9.38978 21.6494 9.43411 21.6549 9.47845 21.6633C9.52278 21.6688 9.56573 21.6771 9.60729 21.6881C9.64886 21.6965 9.68211 21.7048 9.70704 21.7131L9.61976 22.1373ZM10.0326 21.1101L10.5355 21.027V21.684H11.3085V22.104H10.5355V22.9897C10.5355 23.1644 10.5632 23.2891 10.6186 23.364C10.674 23.4388 10.7682 23.4763 10.9012 23.4763C10.9927 23.4763 11.073 23.4666 11.1423 23.4472C11.2143 23.4278 11.2711 23.4097 11.3127 23.3931L11.3958 23.7923C11.3376 23.8173 11.2614 23.8422 11.1672 23.8673C11.073 23.895 10.9622 23.9089 10.8347 23.9089C10.6795 23.9089 10.5493 23.8881 10.444 23.8464C10.3415 23.8048 10.2598 23.7453 10.1988 23.6676C10.1378 23.5872 10.0949 23.4916 10.07 23.3806C10.045 23.267 10.0326 23.1381 10.0326 22.9939V21.1101ZM12.6883 23.8922C12.5359 23.8922 12.3821 23.8866 12.2269 23.8756C12.0717 23.8673 11.936 23.8478 11.8196 23.8173V21.0186C11.8805 21.0076 11.9457 20.9979 12.015 20.9895C12.0842 20.9785 12.1548 20.9702 12.2269 20.9646C12.299 20.9591 12.3697 20.955 12.4389 20.9521C12.511 20.9494 12.5788 20.9479 12.6426 20.9479C12.8171 20.9479 12.9792 20.9619 13.1288 20.9895C13.2785 21.0145 13.4073 21.0575 13.5154 21.1184C13.6262 21.1795 13.7121 21.2598 13.7731 21.3596C13.834 21.4594 13.8645 21.5829 13.8645 21.7297C13.8645 21.8657 13.8312 21.9821 13.7647 22.079C13.701 22.1761 13.611 22.2537 13.4946 22.3119C13.6691 22.3701 13.798 22.4561 13.8811 22.5697C13.9642 22.6834 14.0058 22.8276 14.0058 23.0022C14.0058 23.2989 13.8977 23.522 13.6816 23.6717C13.4655 23.8187 13.1344 23.8922 12.6883 23.8922ZM12.335 22.5614V23.4388C12.3932 23.4444 12.4555 23.4486 12.522 23.4513C12.5885 23.4542 12.6494 23.4555 12.7049 23.4555C12.813 23.4555 12.9127 23.4486 13.0041 23.4347C13.0983 23.4209 13.1787 23.3973 13.2452 23.364C13.3144 23.328 13.3685 23.2808 13.4073 23.2226C13.4489 23.1644 13.4696 23.0895 13.4696 22.998C13.4696 22.8346 13.41 22.7209 13.2909 22.6571C13.1718 22.5934 13.0069 22.5614 12.7963 22.5614H12.335ZM12.335 22.1497H12.7049C12.9044 22.1497 13.0609 22.122 13.1746 22.0666C13.2882 22.0083 13.345 21.9058 13.345 21.759C13.345 21.6203 13.2853 21.5218 13.1662 21.4636C13.0499 21.4054 12.8975 21.3763 12.7091 21.3763C12.6287 21.3763 12.5567 21.3777 12.4929 21.3804C12.432 21.3833 12.3793 21.3874 12.335 21.3929V22.1497ZM14.4058 22.7818C14.4058 22.5905 14.4334 22.4229 14.4889 22.2786C14.5471 22.1345 14.6233 22.0154 14.7175 21.921C14.8116 21.8241 14.9197 21.7519 15.0417 21.7048C15.1636 21.6549 15.2883 21.6299 15.4157 21.6299C15.715 21.6299 15.9477 21.7228 16.114 21.9085C16.283 22.0944 16.3675 22.3716 16.3675 22.7402C16.3675 22.768 16.3661 22.7999 16.3633 22.8359C16.3633 22.8691 16.3619 22.8997 16.3592 22.9274H14.9253C14.9392 23.102 15.0001 23.2379 15.1082 23.3349C15.219 23.4292 15.3783 23.4763 15.5861 23.4763C15.7081 23.4763 15.8189 23.4652 15.9186 23.443C16.0211 23.4209 16.1015 23.3973 16.1597 23.3723L16.2262 23.784C16.1985 23.7979 16.1597 23.8131 16.1098 23.8297C16.0627 23.8436 16.0073 23.8561 15.9436 23.8673C15.8826 23.8811 15.8161 23.8922 15.7441 23.9005C15.672 23.9089 15.5986 23.913 15.5238 23.913C15.3326 23.913 15.1663 23.8852 15.025 23.8297C14.8837 23.7715 14.7673 23.6925 14.6759 23.5927C14.5845 23.4902 14.5166 23.371 14.4723 23.2351C14.428 23.0965 14.4058 22.9454 14.4058 22.7818ZM15.8646 22.5573C15.8646 22.488 15.8549 22.4229 15.8355 22.3618C15.8161 22.2981 15.7871 22.2441 15.7482 22.1996C15.7122 22.1526 15.6665 22.1165 15.6111 22.0915C15.5585 22.0638 15.4947 22.0499 15.4199 22.0499C15.3423 22.0499 15.2744 22.0653 15.2162 22.0957C15.158 22.1235 15.1082 22.1609 15.0666 22.2079C15.0278 22.2551 14.9974 22.3092 14.9752 22.3701C14.953 22.4312 14.9378 22.4936 14.9294 22.5573H15.8646ZM16.7802 22.7818C16.7802 22.5905 16.8078 22.4229 16.8633 22.2786C16.9215 22.1345 16.9977 22.0154 17.0919 21.921C17.1861 21.8241 17.2941 21.7519 17.4161 21.7048C17.538 21.6549 17.6627 21.6299 17.7901 21.6299C18.0894 21.6299 18.3221 21.7228 18.4884 21.9085C18.6574 22.0944 18.7419 22.3716 18.7419 22.7402C18.7419 22.768 18.7405 22.7999 18.7378 22.8359C18.7378 22.8691 18.7363 22.8997 18.7336 22.9274H17.2997C17.3136 23.102 17.3745 23.2379 17.4826 23.3349C17.5934 23.4292 17.7527 23.4763 17.9605 23.4763C18.0825 23.4763 18.1933 23.4652 18.293 23.443C18.3955 23.4209 18.4759 23.3973 18.5341 23.3723L18.6006 23.784C18.5729 23.7979 18.5341 23.8131 18.4842 23.8297C18.4371 23.8436 18.3817 23.8561 18.318 23.8673C18.2571 23.8811 18.1906 23.8922 18.1185 23.9005C18.0464 23.9089 17.973 23.913 17.8982 23.913C17.707 23.913 17.5408 23.8852 17.3994 23.8297C17.2581 23.7715 17.1418 23.6925 17.0503 23.5927C16.9589 23.4902 16.891 23.371 16.8467 23.2351C16.8024 23.0965 16.7802 22.9454 16.7802 22.7818ZM18.239 22.5573C18.239 22.488 18.2293 22.4229 18.2099 22.3618C18.1906 22.2981 18.1615 22.2441 18.1226 22.1996C18.0866 22.1526 18.0409 22.1165 17.9855 22.0915C17.9329 22.0638 17.8691 22.0499 17.7943 22.0499C17.7167 22.0499 17.6488 22.0653 17.5906 22.0957C17.5324 22.1235 17.4826 22.1609 17.441 22.2079C17.4022 22.2551 17.3718 22.3092 17.3496 22.3701C17.3274 22.4312 17.3122 22.4936 17.3039 22.5573H18.239Z" fill="#377EF9"/>
</g>
<defs>
<clipPath id="clip0_8581_20962">
<rect width="19" height="24" fill="white"/>
</clipPath>
</defs>
</svg>
