<svg width="20" height="20" viewBox="0 0 20 20" fill="none" xmlns="http://www.w3.org/2000/svg">
<rect x="1" y="1" width="18" height="18" rx="9" fill="white"/>
<rect x="1" y="1" width="18" height="18" rx="9" stroke="#3870F3" stroke-width="2"/>
<path fill-rule="evenodd" clip-rule="evenodd" d="M14.4023 14.972C14.7056 15.0843 15.0228 14.8437 14.9987 14.5196L14.8506 12.5313C14.8248 12.1846 14.4338 12.0013 14.154 12.1982C14.1285 12.2145 14.1057 12.2318 14.0883 12.2456C14.0702 12.2599 14.0512 12.2757 14.0352 12.289C14.0329 12.291 14.0306 12.2929 14.0284 12.2948C14.0257 12.297 14.0232 12.2991 14.0207 12.3012L10.9331 7.83762C10.7971 7.64103 10.5311 7.58727 10.3302 7.7158L8.82547 8.67818L6.51947 5.19894C6.37779 4.98516 6.08646 4.93544 5.88254 5.09006L5.17671 5.62534C4.98881 5.76784 4.94413 6.03294 5.07473 6.22973L8.09423 10.7786C8.22718 10.9789 8.49412 11.0372 8.69768 10.9102L10.2196 9.96115L12.6052 13.3774C12.5882 13.3894 12.5692 13.4023 12.5475 13.417C12.526 13.4316 12.5001 13.4491 12.4764 13.4666C12.4581 13.48 12.4339 13.4986 12.4099 13.5212C12.1499 13.7388 12.219 14.1631 12.5415 14.2826L14.4023 14.972Z" fill="#3870F3"/>
</svg>
