<svg width="24" height="24" viewBox="0 0 24 24" fill="none" xmlns="http://www.w3.org/2000/svg">
<g clip-path="url(#clip0_9456_2927)">
<path d="M14.5245 8.46872C13.5813 7.52813 12.3042 7 10.9727 7C9.64127 7 8.36409 7.52813 7.4209 8.46872C6.05039 9.83933 4.21784 17.4542 4.0136 18.3177C3.99285 18.4101 3.99589 18.5062 4.02244 18.5971C4.04899 18.6879 4.09818 18.7705 4.16538 18.8371C4.23313 18.9039 4.3166 18.9525 4.40809 18.9785C4.49957 19.0045 4.59612 19.007 4.68881 18.9857C5.55263 18.7802 13.1574 16.9437 14.529 15.5731C14.9954 15.1064 15.3653 14.5522 15.6177 13.9423C15.8701 13.3325 16 12.6788 16 12.0187C16 11.3586 15.8701 10.7049 15.6177 10.095C15.3653 9.48516 14.9954 8.93102 14.529 8.46425L14.5245 8.46872ZM10.9733 13.6987C10.6422 13.6987 10.3185 13.6005 10.0432 13.4163C9.76791 13.2322 9.55334 12.9705 9.42663 12.6644C9.29993 12.3582 9.26678 12.0213 9.33137 11.6963C9.39596 11.3712 9.5554 11.0727 9.78953 10.8383C10.0237 10.604 10.3219 10.4444 10.6467 10.3798C10.9714 10.3151 11.308 10.3483 11.6139 10.4751C11.9198 10.602 12.1813 10.8167 12.3652 11.0923C12.5492 11.3678 12.6473 11.6918 12.6473 12.0232C12.6473 12.4675 12.471 12.8937 12.157 13.208C11.8431 13.5222 11.4173 13.6987 10.9733 13.6987Z" fill="white"/>
<path d="M19.8397 6.46987L15.5338 2.16217C15.4768 2.10311 15.4069 2.05807 15.3296 2.0306C15.2522 2.00313 15.1696 1.99398 15.0881 2.00386C15.007 2.01368 14.9291 2.04187 14.8605 2.08628C14.7919 2.13069 14.7342 2.19015 14.692 2.26017L13.0773 4.95248C13.0152 5.05556 12.9894 5.17649 13.004 5.29595C13.0186 5.41542 13.0729 5.52653 13.158 5.61156L16.3874 8.84234C16.4724 8.92727 16.5832 8.98135 16.7024 8.99599C16.8216 9.01062 16.9423 8.98497 17.0452 8.92311L19.7364 7.30772C19.8068 7.26595 19.8667 7.20869 19.9116 7.14028C19.9565 7.07187 19.9853 6.99411 19.9957 6.91292C20.006 6.83173 19.9978 6.74924 19.9715 6.67172C19.9452 6.5942 19.9016 6.5237 19.844 6.46556L19.8397 6.46987Z" fill="white"/>
<rect x="3" y="20" width="15" height="2" rx="1" fill="white"/>
</g>
<defs>
<clipPath id="clip0_9456_2927">
<rect width="24" height="24" fill="white"/>
</clipPath>
</defs>
</svg>
