<svg width="14" height="12" viewBox="0 0 14 12" fill="none" xmlns="http://www.w3.org/2000/svg">
<g id="Group">
<path id="Vector" d="M3.9643 7.36294V7.34739C3.96427 6.04255 4.45275 4.81224 5.34303 3.86304H0.600098V9.39715C0.600098 9.55563 0.728574 9.68411 0.88705 9.68411H4.52648C4.1911 9.00408 4.00025 8.22795 3.96495 7.37851L3.9643 7.36294Z" fill="#A5A3AB"/>
<path id="Vector_2" d="M9.06094 2.24562H9.07109C9.40237 2.24562 9.72629 2.27789 10.0402 2.33877V0.610805C10.0402 0.452329 9.91177 0.323853 9.75329 0.323853H0.88705C0.728574 0.323853 0.600098 0.452329 0.600098 0.610805V3.11297H6.22149C7.05572 2.54897 8.03611 2.24562 9.06094 2.24562ZM2.86212 1.72836C2.86212 1.93546 2.69421 2.10337 2.48711 2.10337C2.28001 2.10337 2.11211 1.93546 2.11211 1.72836V1.70606C2.11211 1.49896 2.28001 1.33106 2.48711 1.33106C2.69421 1.33106 2.86212 1.49896 2.86212 1.70606V1.72836ZM4.36213 1.72836C4.36213 1.93546 4.19423 2.10337 3.98712 2.10337C3.78002 2.10337 3.61212 1.93546 3.61212 1.72836V1.70606C3.61212 1.49896 3.78002 1.33106 3.98712 1.33106C4.19423 1.33106 4.36213 1.49896 4.36213 1.70606V1.72836ZM5.86214 1.72836C5.86214 1.93546 5.69424 2.10337 5.48714 2.10337C5.28003 2.10337 5.11213 1.93546 5.11213 1.72836V1.70606C5.11213 1.49896 5.28003 1.33106 5.48714 1.33106C5.69424 1.33106 5.86214 1.49896 5.86214 1.70606V1.72836Z" fill="#A5A3AB"/>
<path id="Vector_3" d="M6.69043 3.70346L9.05322 6.72551L11.4246 3.69246C10.7427 3.25064 9.93176 2.99461 9.06607 2.99561C8.19289 2.99461 7.37571 3.25494 6.69043 3.70346Z" fill="#A5A3AB"/>
<path id="Vector_4" d="M13.4 6.95938C13.3017 5.8511 12.7868 4.86447 12.0166 4.15271L9.82227 6.95938H13.4Z" fill="#A5A3AB"/>
<path id="Vector_5" d="M9.05346 7.70941C9.05339 7.70941 9.05331 7.70938 9.05324 7.70938H9.05319C9.05319 7.70938 9.05316 7.70938 9.05314 7.70938C8.94179 7.70928 8.83166 7.65988 8.75776 7.56538L6.10027 4.16638C5.24983 4.95966 4.71433 6.08972 4.71436 7.34731C4.94921 13.0004 12.8348 13.1124 13.391 7.70938H9.05376C9.05366 7.70938 9.05356 7.70941 9.05346 7.70941Z" fill="#A5A3AB"/>
</g>
</svg>
