<svg width="60" height="60" viewBox="0 0 60 60" fill="none" xmlns="http://www.w3.org/2000/svg">
<path fill-rule="evenodd" clip-rule="evenodd" d="M53.1367 50.676L8.91361 45.2741C7.96597 45.1583 7.41208 44.4437 7.52889 43.4874L11.4225 11.6123C11.5393 10.6561 12.2489 10.0957 13.1966 10.2115L57.4197 15.6134C58.3673 15.7292 58.9212 16.4439 58.8044 17.4001L54.9108 49.2752C54.794 50.2315 54.0844 50.7918 53.1367 50.676ZM55.4509 18.608L14.3866 13.5919L10.8824 42.2795L51.9467 47.2956L55.4509 18.608ZM37.1566 43.7097L12.6759 40.7193L13.9997 29.8818C31.412 31.6852 37.1566 43.7097 37.1566 43.7097ZM29.8348 32.7866C29.8348 32.7866 39.8714 26.7337 52.4698 29.8901L50.5814 45.3495L39.3677 43.9798C39.3677 43.9798 38.076 38.8076 29.8348 32.7866ZM23.3527 28.1127C21.2995 27.8619 19.7763 25.8965 20.0294 23.8247C20.2825 21.7528 22.234 20.2119 24.2872 20.4627C26.3404 20.7135 27.8636 22.6788 27.6105 24.7507C27.3574 26.8226 25.4059 28.3635 23.3527 28.1127Z" fill="#C7CBE2"/>
<path fill-rule="evenodd" clip-rule="evenodd" d="M48.7427 14.5535L47.1757 8.70553C46.9264 7.775 46.1454 7.31937 45.2233 7.56646L28.4144 12.0704L36.9365 13.1114L44.5175 11.0801L45.3367 14.1375L48.7427 14.5535ZM30.9356 47.9641L22.4135 46.9231L12.0376 49.7033L10.9164 45.5187L8.9146 45.2742C7.96697 45.1584 7.41308 44.4438 7.52989 43.4875L8.41987 36.2017L4.55755 21.7873L10.3709 20.2296L10.7907 16.7926L2.18951 19.0973C1.26736 19.3444 0.818812 20.1295 1.06815 21.06L9.37935 52.0779C9.62869 53.0084 10.4097 53.464 11.3318 53.2169L30.9356 47.9641Z" fill="#C7CBE2"/>
</svg>
