<svg width="16" height="16" viewBox="0 0 16 16" fill="none" xmlns="http://www.w3.org/2000/svg">
<path d="M11.7857 6.75H4.21429C4.09643 6.75 4 6.85547 4 6.98438V11.0625C4 11.5801 4.38393 12 4.85714 12H11.1429C11.6161 12 12 11.5801 12 11.0625V6.98438C12 6.85547 11.9036 6.75 11.7857 6.75ZM4 5.89062V5.1875C4 4.66992 4.38393 4.25 4.85714 4.25H5.71429V3.23438C5.71429 3.10547 5.81071 3 5.92857 3H6.64286C6.76071 3 6.85714 3.10547 6.85714 3.23438V4.25H9.14286V3.23438C9.14286 3.10547 9.23929 3 9.35714 3H10.0714C10.1893 3 10.2857 3.10547 10.2857 3.23438V4.25H11.1429C11.6161 4.25 12 4.66992 12 5.1875V5.89062C12 6.01953 11.9036 6.125 11.7857 6.125H4.21429C4.09643 6.125 4 6.01953 4 5.89062Z" fill="#A5A3AB"/>
</svg>
