<svg width="16" height="16" viewBox="0 0 16 16" fill="none" xmlns="http://www.w3.org/2000/svg">
<path d="M6.90938 15.9963C3.29474 15.5444 0.455191 12.7049 0.00377037 9.09114C-0.0316106 8.81194 0.18652 8.56418 0.468943 8.56418H2.36395C2.59287 8.56418 2.7879 8.72946 2.82638 8.95471C3.19081 11.113 4.8862 12.8088 7.04584 13.1737C7.2711 13.2122 7.43638 13.4072 7.43638 13.6361V15.5311C7.43635 15.81 7.19462 16.0303 6.90938 15.9963Z" fill="#8E9CCC"/>
<path d="M2.36419 7.50152H0.469184C0.186605 7.50152 -0.0313388 7.2536 0.00401096 6.97456C0.500314 2.99863 3.89752 0.000244141 7.90545 0.000244141C9.686 0.000244141 11.3741 0.580781 12.7874 1.67915C13.0122 1.85453 13.029 2.18337 12.8314 2.38102L11.4917 3.72113C11.3296 3.88366 11.0751 3.90382 10.8883 3.77148C10.0087 3.14469 8.97723 2.81322 7.90542 2.81322C5.38318 2.81322 3.24688 4.62078 2.82659 7.11099C2.78814 7.33621 2.59311 7.50152 2.36419 7.50152Z" fill="#8E9CCC"/>
<path d="M8.49902 15.5316V13.6366C8.49902 13.4077 8.6643 13.2127 8.88956 13.1742C11.3798 12.7539 13.1873 10.6176 13.1873 8.09538C13.1873 7.02357 12.8559 5.99205 12.2291 5.11253C12.0963 4.92618 12.1174 4.6707 12.2794 4.50908L13.6195 3.16945C13.8146 2.97432 14.1445 2.9867 14.3214 3.21339C15.4198 4.62676 16.0003 6.31483 16.0003 8.09535C16.0003 12.1033 13.0019 15.5005 9.02599 15.9968C8.73766 16.0312 8.49902 15.8072 8.49902 15.5316Z" fill="#8E9CCC"/>
<path d="M6.12361 6.1263C6.12361 5.86738 5.9137 5.65747 5.65478 5.65747H4.71712C4.4582 5.65747 4.24829 5.86738 4.24829 6.1263V9.87694C4.24829 10.1359 4.4582 10.3458 4.71712 10.3458H5.65478C5.9137 10.3458 6.12361 10.1359 6.12361 9.87694V6.1263Z" fill="#8E9CCC"/>
<path d="M8.9366 9.87689V5.18859C8.9366 4.92967 8.72669 4.71976 8.46777 4.71976H7.53011C7.27119 4.71976 7.06128 4.92967 7.06128 5.18859V9.87689C7.06128 10.1358 7.27119 10.3457 7.53011 10.3457H8.46777C8.72672 10.3457 8.9366 10.1358 8.9366 9.87689Z" fill="#8E9CCC"/>
<path d="M11.7496 9.87696V8.00164C11.7496 7.74272 11.5397 7.53281 11.2808 7.53281H10.3431C10.0842 7.53281 9.87427 7.74272 9.87427 8.00164V9.87696C9.87427 10.1359 10.0842 10.3458 10.3431 10.3458H11.2808C11.5397 10.3458 11.7496 10.1359 11.7496 9.87696Z" fill="#8E9CCC"/>
</svg>
