<svg width="16" height="16" viewBox="0 0 16 16" fill="none" xmlns="http://www.w3.org/2000/svg">
<path d="M1.9942 1H14.0058C14.555 1 15 1.44501 15 1.99421V14.0058C15 14.555 14.555 15 14.0058 15H1.9942C1.44501 15 1 14.555 1 14.0058V1.99421C1 1.44501 1.44501 1 1.9942 1ZM3.24213 5.38087C3.24213 5.68668 3.48989 5.93444 3.7957 5.93444H6.1818C6.48761 5.93444 6.73537 6.1822 6.73537 6.48801V12.3264C6.73537 12.6322 6.98313 12.88 7.28894 12.88H8.86297C9.16879 12.88 9.41654 12.6322 9.41654 12.3264C9.41654 12.3264 9.41654 6.79383 9.41654 6.48801C9.41654 6.1822 9.6643 5.93444 9.97012 5.93444H12.3562C12.662 5.93444 12.9098 5.68668 12.9098 5.38087V3.80724C12.9098 3.50142 12.662 3.25366 12.3562 3.25366H3.7965C3.49068 3.25366 3.24293 3.50142 3.24293 3.80724L3.24213 5.38087Z" fill="#8E9CCC"/>
</svg>
