<svg width="28" height="28" viewBox="0 0 28 28" fill="none" xmlns="http://www.w3.org/2000/svg">
<path d="M6.14281 6.55103H3.41051C3.01175 6.55103 2.68848 6.8743 2.68848 7.27305V20.2696H6.14281V6.55103Z" fill="#57555C"/>
<path d="M1.75 21.7136C2.08541 23.3595 3.54405 24.6017 5.28746 24.6017H22.7124C24.4559 24.6017 25.9145 23.3595 26.2499 21.7136H1.75Z" fill="#57555C"/>
<path d="M16.877 9.60303L21.4641 5.01583L23.404 6.95564L18.8168 11.5428L16.877 9.60303Z" fill="#57555C"/>
<path d="M24.4792 5.88204C25.014 5.34716 25.014 4.47683 24.4792 3.94195C23.9442 3.40702 23.0739 3.40707 22.5391 3.94195L22.4951 3.9859L24.4352 5.92599L24.4792 5.88204Z" fill="#57555C"/>
<path d="M20.4137 11.9901C19.7748 12.629 19.3301 13.0737 19.3301 13.0737C19.2399 13.1634 19.1261 13.2292 19.003 13.2615L14.9872 14.316C14.4554 14.4603 13.9559 13.957 14.1097 13.418L15.16 9.41847C15.1922 9.29607 15.257 9.18097 15.3472 9.09202C15.3477 9.09144 19.593 4.8462 21.041 3.39819H8.30894C7.91019 3.39819 7.58691 3.72147 7.58691 4.12022V20.2696H20.4138V11.9901H20.4137ZM11.6438 16.8521H9.7349C8.77692 16.8139 8.77764 15.4458 9.7349 15.408H11.6438C12.6017 15.4461 12.601 16.8143 11.6438 16.8521ZM11.6438 13.988H9.7349C8.77692 13.9498 8.77764 12.5817 9.7349 12.5439H11.6438C12.6017 12.5821 12.601 13.9502 11.6438 13.988ZM12.2471 11.0999H9.73495C8.77696 11.0617 8.77769 9.69362 9.73495 9.65583H12.2471C13.2051 9.69395 13.2043 11.0621 12.2471 11.0999ZM9.73495 8.21177C8.77696 8.1736 8.77769 6.8055 9.73495 6.76771H13.7302C14.6882 6.80588 14.6874 8.17398 13.7302 8.21177H9.73495Z" fill="#57555C"/>
<path d="M15.8154 12.6054L17.4189 12.1843L16.2366 11.002L15.8154 12.6054Z" fill="#57555C"/>
<path d="M21.8574 10.5462V20.2697H25.3117V7.2732C25.3117 7.21732 25.3047 7.16311 25.2927 7.11084L24.9388 7.46478C24.9387 7.46497 23.3456 9.05806 21.8574 10.5462Z" fill="#57555C"/>
</svg>
