<svg width="16" height="16" viewBox="0 0 16 16" fill="none" xmlns="http://www.w3.org/2000/svg">
<g id="(ICON)">
<path id="Vector" fill-rule="evenodd" clip-rule="evenodd" d="M14.9608 14.1633C15.1181 14.5879 14.7812 15.032 14.3275 14.9982L11.5438 14.7909C11.0585 14.7547 10.8019 14.2073 11.0775 13.8155C11.1003 13.7799 11.1245 13.748 11.1438 13.7236C11.1639 13.6983 11.186 13.6717 11.2046 13.6493C11.2074 13.646 11.2101 13.6428 11.2127 13.6397C11.2157 13.636 11.2187 13.6325 11.2216 13.6289L4.97266 9.30632C4.69744 9.11596 4.62217 8.74355 4.80212 8.46224L6.14945 6.35566L1.27851 3.12726C0.979227 2.92891 0.90962 2.52104 1.12608 2.23556L1.87547 1.24739C2.07497 0.984336 2.44612 0.921783 2.72162 1.10462L9.0901 5.33193C9.37044 5.51805 9.45204 5.89177 9.27429 6.17675L7.94561 8.30739L12.7284 11.6473C12.7451 11.6235 12.7632 11.5968 12.7837 11.5665C12.8042 11.5364 12.8287 11.5002 12.8532 11.4669C12.872 11.4413 12.8981 11.4074 12.9297 11.3739C13.2343 11.0099 13.8283 11.1066 13.9956 11.558L14.9608 14.1633Z" fill="#3870F3"/>
</g>
</svg>
