<svg width="20" height="20" viewBox="0 0 20 20" fill="none" xmlns="http://www.w3.org/2000/svg">
<path d="M9.99995 5.44788C8.32048 5.44788 6.9541 6.81425 6.9541 8.49372C6.9541 10.1732 8.32048 11.5396 9.99995 11.5396C11.6794 11.5396 13.0458 10.1732 13.0458 8.49372C13.0458 6.81425 11.6794 5.44788 9.99995 5.44788ZM10.4687 9.99997C10.4687 10.2588 10.2588 10.4687 9.99995 10.4687C9.74107 10.4687 9.5312 10.2588 9.5312 9.99997V8.49372C9.5312 8.23484 9.74107 8.02497 9.99995 8.02497C10.2588 8.02497 10.4687 8.23484 10.4687 8.49372V9.99997ZM9.99995 7.45622C9.74123 7.45622 9.5312 7.24622 9.5312 6.98747C9.5312 6.72872 9.74123 6.51872 9.99995 6.51872C10.2587 6.51872 10.4687 6.72872 10.4687 6.98747C10.4687 7.24619 10.2587 7.45622 9.99995 7.45622Z" fill="#1B2934"/>
<path d="M15.0166 2H4.9833C3.89427 2 3.0083 2.886 3.0083 3.975V15.2829C3.31002 15.0958 3.66543 14.9875 4.0458 14.9875H4.9828H15.0166C16.1267 14.9875 16.9916 14.0834 16.9916 13.0125V3.975C16.9916 2.87216 16.0957 2 15.0166 2ZM9.99996 12.4771C7.80355 12.4771 6.01661 10.6901 6.01661 8.49372C6.01661 6.29731 7.80355 4.51041 9.99996 4.51041C12.1964 4.51041 13.9833 6.29734 13.9833 8.49375C13.9833 10.6902 12.1964 12.4771 9.99996 12.4771Z" fill="#1B2934"/>
<path d="M4.0458 15.925C3.4728 15.925 3.0083 16.3895 3.0083 16.9625C3.0083 17.5355 3.4728 18 4.0458 18H15.0166C16.1267 18 16.9916 17.0959 16.9916 16.025V15.151C16.4721 15.6311 15.7781 15.925 15.0166 15.925H4.0458Z" fill="#1B2934"/>
</svg>
