<svg width="24" height="24" viewBox="0 0 24 24" fill="none" xmlns="http://www.w3.org/2000/svg">
<g id="ic_akschat">
<g id="Group 15">
<path id="Vector" d="M15.9472 17.4668H3.31006V7.98892C3.31006 5.37462 5.43467 3.25 8.04898 3.25H15.9472C18.5615 3.25 20.6861 5.37462 20.6861 7.98892V12.7278C20.6861 15.3421 18.5615 17.4668 15.9472 17.4668Z" fill="#3870F3"/>
<path id="Vector_2" d="M3.31006 19.9558V17.4669H6.92398L3.31006 19.9558Z" fill="#3870F3"/>
</g>
<path id="Union" fill-rule="evenodd" clip-rule="evenodd" d="M11 9.52371C11 8.95091 11.4551 8.5 12 8.5C12.5449 8.5 13 8.95091 13 9.52371C13 10.0965 12.5449 10.5474 12 10.5474C11.7239 10.5474 11.5 10.7713 11.5 11.0474V12V12.5H12.5V12V11.4838C13.3667 11.2586 14 10.4613 14 9.52371C14 8.41346 13.1119 7.5 12 7.5C10.8881 7.5 10 8.41346 10 9.52371V10.0237H11V9.52371ZM12 14C12.2761 14 12.5 13.7761 12.5 13.5C12.5 13.2239 12.2761 13 12 13C11.7239 13 11.5 13.2239 11.5 13.5C11.5 13.7761 11.7239 14 12 14Z" fill="white"/>
</g>
</svg>
