<svg width="30" height="30" viewBox="0 0 30 30" fill="none" xmlns="http://www.w3.org/2000/svg">
<path d="M24.25 21.0713C25.3546 21.0713 26.25 20.1759 26.25 19.0713V5.57129C26.25 4.46672 25.3546 3.57129 24.25 3.57129H18.75C18.0382 3.57531 17.3354 3.73127 16.6887 4.02876C16.042 4.32624 15.4662 4.75839 15 5.29629C14.5338 4.75839 13.958 4.32624 13.3113 4.02876C12.6646 3.73127 11.9618 3.57531 11.25 3.57129H5.75C4.64543 3.57129 3.75 4.46672 3.75 5.57129V19.0713C3.75 20.1759 4.64543 21.0713 5.75 21.0713H8.875C9.0802 22.0719 9.5275 23.0069 10.1778 23.7946C10.828 24.5822 11.6614 25.1985 12.605 25.5895C13.5486 25.9805 14.5736 26.1343 15.5904 26.0374C16.6072 25.9406 17.5847 25.596 18.4375 25.0338L21.9812 28.5775C22.4679 29.0642 23.257 29.0642 23.7437 28.5775C24.2304 28.0908 24.2304 27.3017 23.7437 26.815L20.2 23.2713C20.6468 22.6042 20.9608 21.8572 21.125 21.0713H24.25ZM21.125 18.5713C21.0364 18.1416 20.9024 17.7226 20.725 17.3213H23.75V18.5713H21.125ZM18.75 6.07129H23.75V14.8213H18.75C18.0125 14.257 17.1584 13.8641 16.25 13.6713V8.57129C16.25 7.90825 16.5134 7.27236 16.9822 6.80352C17.4511 6.33468 18.087 6.07129 18.75 6.07129ZM11.25 6.07129C11.913 6.07129 12.5489 6.33468 13.0178 6.80352C13.4866 7.27236 13.75 7.90825 13.75 8.57129V13.6963C12.8437 13.8817 11.9898 14.2659 11.25 14.8213H6.25V6.07129H11.25ZM6.25 17.3213H9.275C9.09764 17.7226 8.96355 18.1416 8.875 18.5713H6.25V17.3213ZM15 23.5713C14.2583 23.5713 13.5333 23.3514 12.9166 22.9393C12.2999 22.5272 11.8193 21.9416 11.5355 21.2564C11.2516 20.5711 11.1774 19.8171 11.3221 19.0897C11.4667 18.3623 11.8239 17.6941 12.3483 17.1696C12.8728 16.6452 13.541 16.288 14.2684 16.1433C14.9958 15.9987 15.7498 16.0729 16.4351 16.3567C17.1203 16.6406 17.706 17.1212 18.118 17.7379C18.5301 18.3546 18.75 19.0796 18.75 19.8213C18.75 20.8159 18.3549 21.7697 17.6516 22.4729C16.9484 23.1762 15.9946 23.5713 15 23.5713Z" fill="#3870F3"/>
<path d="M11.7857 7.5H7.5V9.64286H11.7857V7.5Z" fill="#3870F3"/>
<path d="M11.7857 10.7142H7.5V12.8571H11.7857V10.7142Z" fill="#3870F3"/>
<path d="M22.4996 7.5H18.2139V9.64286H22.4996V7.5Z" fill="#3870F3"/>
<path d="M22.4996 10.7142H18.2139V12.8571H22.4996V10.7142Z" fill="#3870F3"/>
</svg>
