<svg width="16" height="16" viewBox="0 0 16 16" fill="none" xmlns="http://www.w3.org/2000/svg">
<g id="ICON/16/BTN">
<path id="Vector" d="M3.77568 2.52961L3.76853 2.53298L3.76127 2.53612C3.68277 2.57013 3.62344 2.62026 3.57477 2.69711C3.52525 2.77531 3.5 2.85969 3.5 2.96233V13.0377C3.5 13.1403 3.52525 13.2247 3.57477 13.3029C3.62344 13.3797 3.68277 13.4299 3.76127 13.4639L3.76133 13.4637L3.7726 13.469C3.79419 13.479 3.83472 13.4914 3.90625 13.4914C4.01663 13.4914 4.10565 13.4574 4.19635 13.3677L7.63672 9.72981L8 9.34568L8.36328 9.72981L11.804 13.368C11.9052 13.4686 11.9958 13.5 12.0938 13.5C12.1391 13.5 12.181 13.4908 12.2243 13.4704L12.2315 13.467L12.2387 13.4639C12.3172 13.4299 12.3766 13.3797 12.4252 13.3029C12.4748 13.2247 12.5 13.1403 12.5 13.0377V2.96233C12.5 2.85969 12.4748 2.77531 12.4252 2.69711C12.3766 2.62026 12.3172 2.57013 12.2387 2.53612L12.2315 2.53298L12.2243 2.52961C12.181 2.50918 12.1391 2.5 12.0938 2.5H3.90625C3.86088 2.5 3.81903 2.50918 3.77568 2.52961Z" stroke="#A5A3AB"/>
</g>
</svg>
