<svg width="20" height="20" viewBox="0 0 20 20" fill="none" xmlns="http://www.w3.org/2000/svg">
<g clip-path="url(#clip0_6088_1270)">
<path d="M14.3935 4.35168C14.3935 4.7207 14.6937 5.02094 15.0627 5.02094H17.5732C18.143 5.02094 18.6764 5.18004 19.1314 5.45609C18.9522 5.03133 18.691 4.64094 18.3553 4.30516L15.1093 1.05918C14.7736 0.723477 14.3833 0.462422 13.9587 0.283203C14.2345 0.737969 14.3935 1.27105 14.3935 1.84062L14.3935 4.35168Z" fill="white"/>
<path d="M13.2215 2.63613V1.84051C13.2215 0.822344 12.3975 0 11.381 0H4.39338C3.36689 0 2.55225 0.833008 2.55225 1.84113V2.51039H12.5522C12.7886 2.51043 13.0141 2.55527 13.2215 2.63613Z" fill="white"/>
<path d="M17.5731 6.1924H15.0627C14.8266 6.1924 14.601 6.14725 14.3934 6.06592V9.99971C14.3934 10.6907 14.0137 11.2913 13.452 11.6063V12.8656H14.7489C14.9859 12.8656 15.1995 13.0083 15.2902 13.2273C15.3809 13.4462 15.3308 13.6983 15.1632 13.8658L11.3976 17.6315C11.1794 17.8585 10.7871 17.8584 10.5689 17.6315L6.8033 13.8658C6.63572 13.6983 6.58561 13.4463 6.67627 13.2273C6.76697 13.0083 6.98064 12.8656 7.2176 12.8656H8.51447V11.8409H2.55225V18.1586C2.55225 19.1851 3.38525 19.9997 4.39338 19.9997H17.5731C18.6019 19.9997 19.4142 19.1642 19.4142 18.1586V8.03357C19.4142 7.01834 18.5883 6.1924 17.5731 6.1924Z" fill="white"/>
<path d="M2.78271 5.88721V7.52381C3.73182 7.36021 3.72764 6.05061 2.78271 5.88721Z" fill="white"/>
<path d="M6.5481 5.90771V8.44404C7.90614 8.13412 7.90521 6.21713 6.5481 5.90771Z" fill="white"/>
<path d="M13.2214 9.99986V4.35143C13.2214 3.9824 12.9211 3.68213 12.5521 3.68213H1.25523C0.886172 3.68217 0.585938 3.9824 0.585938 4.35143V9.99986C0.585938 10.3689 0.886172 10.6692 1.2552 10.6692H12.5521C12.9211 10.6692 13.2214 10.3689 13.2214 9.99986ZM2.78254 8.69978V9.0585C2.75371 9.8351 1.63922 9.83451 1.61066 9.0585V5.29287C1.61066 4.96928 1.87301 4.70693 2.1966 4.70693H2.66793C5.24902 4.78854 5.33703 8.47935 2.78254 8.69978ZM6.27605 9.64439H5.96227C5.63867 9.64439 5.37633 9.38205 5.37633 9.05846V5.29283C5.37633 4.96924 5.63867 4.70689 5.96227 4.70689H6.27605C9.5475 4.83139 9.54504 9.52107 6.27605 9.64439ZM11.6107 5.87877H10.6276V6.9035H10.983C11.7596 6.93232 11.7591 8.04682 10.983 8.07537H10.6276V9.05846C10.5987 9.83506 9.48426 9.83447 9.4557 9.05846V5.29283C9.4557 4.96924 9.71805 4.70689 10.0416 4.70689H11.6107C12.3873 4.73572 12.3867 5.85021 11.6107 5.87877Z" fill="white"/>
<path d="M9.6865 11.8413V13.4519C9.6865 13.7755 9.42416 14.0379 9.10057 14.0379H8.63232L10.9834 16.389L13.3344 14.0379H12.8662C12.5426 14.0379 12.2803 13.7755 12.2803 13.4519V11.8413H9.6865Z" fill="white"/>
</g>
<defs>
<clipPath id="clip0_6088_1270">
<rect width="20" height="20" fill="white"/>
</clipPath>
</defs>
</svg>
