<svg width="16" height="16" viewBox="0 0 16 16" fill="none" xmlns="http://www.w3.org/2000/svg">
<path d="M4.9643 9.36294V9.34739C4.96427 8.04255 5.45275 6.81224 6.34303 5.86304H1.6001V11.3972C1.6001 11.5556 1.72857 11.6841 1.88705 11.6841H5.52648C5.1911 11.0041 5.00025 10.2279 4.96495 9.37851L4.9643 9.36294Z" fill="#8E9CCC"/>
<path d="M10.0609 4.24556H10.0711C10.4024 4.24556 10.7263 4.27783 11.0402 4.33871V2.61074C11.0402 2.45227 10.9118 2.32379 10.7533 2.32379H1.88705C1.72857 2.32379 1.6001 2.45227 1.6001 2.61074V5.11291H7.22149C8.05572 4.54891 9.03611 4.24556 10.0609 4.24556ZM3.86212 3.7283C3.86212 3.9354 3.69421 4.10331 3.48711 4.10331C3.28001 4.10331 3.11211 3.9354 3.11211 3.7283V3.706C3.11211 3.4989 3.28001 3.331 3.48711 3.331C3.69421 3.331 3.86212 3.4989 3.86212 3.706V3.7283ZM5.36213 3.7283C5.36213 3.9354 5.19423 4.10331 4.98712 4.10331C4.78002 4.10331 4.61212 3.9354 4.61212 3.7283V3.706C4.61212 3.4989 4.78002 3.331 4.98712 3.331C5.19423 3.331 5.36213 3.4989 5.36213 3.706V3.7283ZM6.86214 3.7283C6.86214 3.9354 6.69424 4.10331 6.48714 4.10331C6.28003 4.10331 6.11213 3.9354 6.11213 3.7283V3.706C6.11213 3.4989 6.28003 3.331 6.48714 3.331C6.69424 3.331 6.86214 3.4989 6.86214 3.706V3.7283Z" fill="#8E9CCC"/>
<path d="M7.69043 5.70334L10.0532 8.72539L12.4246 5.69234C11.7427 5.25051 10.9318 4.99449 10.0661 4.99549C9.19289 4.99449 8.37571 5.25481 7.69043 5.70334Z" fill="#8E9CCC"/>
<path d="M14.4 8.95938C14.3017 7.8511 13.7868 6.86447 13.0166 6.15271L10.8223 8.95938H14.4Z" fill="#8E9CCC"/>
<path d="M10.0532 9.70935C10.0531 9.70935 10.0531 9.70932 10.053 9.70932H10.0529C10.0529 9.70932 10.0529 9.70932 10.0529 9.70932C9.94154 9.70922 9.83142 9.65982 9.75752 9.56532L7.10002 6.16632C6.24959 6.9596 5.71409 8.08966 5.71411 9.34724C5.94896 15.0004 13.8345 15.1123 14.3908 9.70932H10.0535C10.0534 9.70932 10.0533 9.70935 10.0532 9.70935Z" fill="#8E9CCC"/>
</svg>
