<svg width="16" height="16" viewBox="0 0 16 16" fill="none" xmlns="http://www.w3.org/2000/svg">
<path d="M2.85714 13.6875C2.85714 14.4121 3.43304 15 4.14286 15H11.8571C12.567 15 13.1429 14.4121 13.1429 13.6875V4.50008H2.85714V13.6875ZM10.1429 6.68756C10.1429 6.44421 10.333 6.25007 10.5714 6.25007C10.8098 6.25007 11 6.44489 11 6.68756V12.8125C11 13.0552 10.8092 13.25 10.5714 13.25C10.3337 13.25 10.1429 13.0552 10.1429 12.8125V6.68756ZM7.57143 6.68756C7.57143 6.44421 7.76161 6.25007 8 6.25007C8.23839 6.25007 8.42857 6.44489 8.42857 6.68756V12.8125C8.42857 13.0552 8.23772 13.25 8 13.25C7.76228 13.25 7.57143 13.0552 7.57143 12.8125V6.68756ZM5 6.68756C5 6.44421 5.19018 6.25007 5.42857 6.25007C5.66696 6.25007 5.85714 6.44489 5.85714 6.68756V12.8125C5.85714 13.0559 5.66696 13.25 5.42857 13.25C5.19018 13.25 5 13.0552 5 12.8125V6.68756ZM13.5714 1.8751H10.5714L10.2613 1.24183C10.1887 1.09362 10.0403 1 9.87795 1H6.12232C5.95997 1 5.81161 1.09362 5.73902 1.24183L5.42857 1.8751H2.42857C2.19189 1.8751 2 2.07094 2 2.3126V3.18759C2 3.4292 2.19189 3.62509 2.42857 3.62509H13.5714C13.8082 3.62509 14 3.4292 14 3.18759V2.3126C14 2.07088 13.8071 1.8751 13.5714 1.8751Z" fill="#8E9CCC"/>
</svg>
