<svg width="58" height="58" viewBox="0 0 58 58" fill="none" xmlns="http://www.w3.org/2000/svg">
<path d="M28.998 54.371C45.9167 54.371 54.371 43.0111 54.371 28.998C54.371 14.9849 45.9167 3.625 28.998 3.625C12.0793 3.625 3.625 14.9849 3.625 28.998C3.625 43.0111 12.0793 54.371 28.998 54.371Z" fill="url(#paint0_radial_8074_34942)"/>
<path d="M28.998 54.371C45.9167 54.371 54.371 43.0111 54.371 28.998C54.371 14.9849 45.9167 3.625 28.998 3.625C12.0793 3.625 3.625 14.9849 3.625 28.998C3.625 43.0111 12.0793 54.371 28.998 54.371Z" fill="url(#paint1_radial_8074_34942)"/>
<path d="M28.998 54.371C45.9167 54.371 54.371 43.0111 54.371 28.998C54.371 14.9849 45.9167 3.625 28.998 3.625C12.0793 3.625 3.625 14.9849 3.625 28.998C3.625 43.0111 12.0793 54.371 28.998 54.371Z" fill="url(#paint2_radial_8074_34942)" fill-opacity="0.6"/>
<path d="M28.998 54.371C45.9167 54.371 54.371 43.0111 54.371 28.998C54.371 14.9849 45.9167 3.625 28.998 3.625C12.0793 3.625 3.625 14.9849 3.625 28.998C3.625 43.0111 12.0793 54.371 28.998 54.371Z" fill="url(#paint3_radial_8074_34942)"/>
<path d="M28.998 54.371C45.9167 54.371 54.371 43.0111 54.371 28.998C54.371 14.9849 45.9167 3.625 28.998 3.625C12.0793 3.625 3.625 14.9849 3.625 28.998C3.625 43.0111 12.0793 54.371 28.998 54.371Z" fill="url(#paint4_radial_8074_34942)"/>
<path d="M28.998 54.371C45.9167 54.371 54.371 43.0111 54.371 28.998C54.371 14.9849 45.9167 3.625 28.998 3.625C12.0793 3.625 3.625 14.9849 3.625 28.998C3.625 43.0111 12.0793 54.371 28.998 54.371Z" fill="url(#paint5_radial_8074_34942)"/>
<path d="M28.998 54.371C45.9167 54.371 54.371 43.0111 54.371 28.998C54.371 14.9849 45.9167 3.625 28.998 3.625C12.0793 3.625 3.625 14.9849 3.625 28.998C3.625 43.0111 12.0793 54.371 28.998 54.371Z" fill="url(#paint6_radial_8074_34942)"/>
<path d="M28.998 54.371C45.9167 54.371 54.371 43.0111 54.371 28.998C54.371 14.9849 45.9167 3.625 28.998 3.625C12.0793 3.625 3.625 14.9849 3.625 28.998C3.625 43.0111 12.0793 54.371 28.998 54.371Z" fill="url(#paint7_radial_8074_34942)"/>
<path d="M28.998 54.371C45.9167 54.371 54.371 43.0111 54.371 28.998C54.371 14.9849 45.9167 3.625 28.998 3.625C12.0793 3.625 3.625 14.9849 3.625 28.998C3.625 43.0111 12.0793 54.371 28.998 54.371Z" fill="url(#paint8_radial_8074_34942)"/>
<path d="M28.998 54.371C45.9167 54.371 54.371 43.0111 54.371 28.998C54.371 14.9849 45.9167 3.625 28.998 3.625C12.0793 3.625 3.625 14.9849 3.625 28.998C3.625 43.0111 12.0793 54.371 28.998 54.371Z" fill="url(#paint9_radial_8074_34942)"/>
<path d="M28.998 54.371C45.9167 54.371 54.371 43.0111 54.371 28.998C54.371 14.9849 45.9167 3.625 28.998 3.625C12.0793 3.625 3.625 14.9849 3.625 28.998C3.625 43.0111 12.0793 54.371 28.998 54.371Z" fill="url(#paint10_radial_8074_34942)"/>
<path d="M28.998 54.371C45.9167 54.371 54.371 43.0111 54.371 28.998C54.371 14.9849 45.9167 3.625 28.998 3.625C12.0793 3.625 3.625 14.9849 3.625 28.998C3.625 43.0111 12.0793 54.371 28.998 54.371Z" fill="url(#paint11_radial_8074_34942)"/>
<path d="M29 47.125C10.875 47.125 10.875 29 10.875 29H47.125C47.125 29 47.125 47.125 29 47.125Z" fill="url(#paint12_radial_8074_34942)"/>
<path d="M12.6875 29.7188V29H45.3125V29.7188C45.3125 30.8233 44.4171 31.7188 43.3125 31.7188H14.6875C13.5829 31.7188 12.6875 30.8233 12.6875 29.7188Z" fill="url(#paint13_linear_8074_34942)"/>
<path d="M17.1231 25.1754C16.2277 25.6231 15.139 25.2602 14.6914 24.3649C14.2437 23.4695 14.6066 22.3808 15.5019 21.9331L19.5012 19.9335L22.6558 19.0312L25.375 19.9335C25.3734 20.6184 24.9859 21.244 24.3731 21.5504L17.1231 25.1754Z" fill="url(#paint14_linear_8074_34942)"/>
<path d="M17.1231 25.1754C16.2277 25.6231 15.139 25.2602 14.6914 24.3649C14.2437 23.4695 14.6066 22.3808 15.5019 21.9331L19.5012 19.9335L22.6558 19.0312L25.375 19.9335C25.3734 20.6184 24.9859 21.244 24.3731 21.5504L17.1231 25.1754Z" fill="url(#paint15_linear_8074_34942)"/>
<path d="M17.1231 25.1754C16.2277 25.6231 15.139 25.2602 14.6914 24.3649C14.2437 23.4695 14.6066 22.3808 15.5019 21.9331L19.5012 19.9335L22.6558 19.0312L25.375 19.9335C25.3734 20.6184 24.9859 21.244 24.3731 21.5504L17.1231 25.1754Z" fill="url(#paint16_radial_8074_34942)"/>
<path d="M17.1231 14.6917C16.2277 14.2441 15.139 14.607 14.6914 15.5023C14.2437 16.3977 14.6066 17.4864 15.5019 17.934L19.5012 19.9337H25.375C25.3734 19.2488 24.9859 18.6231 24.3731 18.3167L17.1231 14.6917Z" fill="url(#paint17_linear_8074_34942)"/>
<path d="M17.1231 14.6917C16.2277 14.2441 15.139 14.607 14.6914 15.5023C14.2437 16.3977 14.6066 17.4864 15.5019 17.934L19.5012 19.9337H25.375C25.3734 19.2488 24.9859 18.6231 24.3731 18.3167L17.1231 14.6917Z" fill="url(#paint18_linear_8074_34942)"/>
<path d="M17.1231 14.6917C16.2277 14.2441 15.139 14.607 14.6914 15.5023C14.2437 16.3977 14.6066 17.4864 15.5019 17.934L19.5012 19.9337H25.375C25.3734 19.2488 24.9859 18.6231 24.3731 18.3167L17.1231 14.6917Z" fill="url(#paint19_radial_8074_34942)"/>
<path d="M40.8496 25.1754C41.7449 25.6231 42.8336 25.2602 43.2813 24.3649C43.729 23.4695 43.3661 22.3808 42.4707 21.9331L38.4714 19.9335L35.3447 19.0312L32.5977 19.9335C32.5992 20.6184 32.9868 21.244 33.5996 21.5504L40.8496 25.1754Z" fill="url(#paint20_linear_8074_34942)"/>
<path d="M40.8496 25.1754C41.7449 25.6231 42.8336 25.2602 43.2813 24.3649C43.729 23.4695 43.3661 22.3808 42.4707 21.9331L38.4714 19.9335L35.3447 19.0312L32.5977 19.9335C32.5992 20.6184 32.9868 21.244 33.5996 21.5504L40.8496 25.1754Z" fill="url(#paint21_linear_8074_34942)"/>
<path d="M40.8496 14.6917C41.7449 14.2441 42.8336 14.607 43.2813 15.5023C43.729 16.3977 43.3661 17.4864 42.4707 17.934L38.4714 19.9337H32.5977C32.5992 19.2488 32.9868 18.6231 33.5996 18.3167L40.8496 14.6917Z" fill="url(#paint22_linear_8074_34942)"/>
<path d="M40.8496 14.6917C41.7449 14.2441 42.8336 14.607 43.2813 15.5023C43.729 16.3977 43.3661 17.4864 42.4707 17.934L38.4714 19.9337H32.5977C32.5992 19.2488 32.9868 18.6231 33.5996 18.3167L40.8496 14.6917Z" fill="url(#paint23_radial_8074_34942)"/>
<path d="M40.8496 14.6917C41.7449 14.2441 42.8336 14.607 43.2813 15.5023C43.729 16.3977 43.3661 17.4864 42.4707 17.934L38.4714 19.9337H32.5977C32.5992 19.2488 32.9868 18.6231 33.5996 18.3167L40.8496 14.6917Z" fill="url(#paint24_radial_8074_34942)"/>
<path d="M40.8496 14.6917C41.7449 14.2441 42.8336 14.607 43.2813 15.5023C43.729 16.3977 43.3661 17.4864 42.4707 17.934L38.4714 19.9337H32.5977C32.5992 19.2488 32.9868 18.6231 33.5996 18.3167L40.8496 14.6917Z" fill="url(#paint25_linear_8074_34942)"/>
<defs>
<radialGradient id="paint0_radial_8074_34942" cx="0" cy="0" r="1" gradientUnits="userSpaceOnUse" gradientTransform="translate(46.2188 16.3125) rotate(131.878) scale(70.5945)">
<stop stop-color="#FFF478"/>
<stop offset="0.474827" stop-color="#FFB02E"/>
<stop offset="1" stop-color="#F70A8D"/>
</radialGradient>
<radialGradient id="paint1_radial_8074_34942" cx="0" cy="0" r="1" gradientUnits="userSpaceOnUse" gradientTransform="translate(29 22.6563) rotate(101.31) scale(32.3469 41.4302)">
<stop offset="0.787821" stop-color="#F59639" stop-opacity="0"/>
<stop offset="0.972509" stop-color="#FF7DCE"/>
</radialGradient>
<radialGradient id="paint2_radial_8074_34942" cx="0" cy="0" r="1" gradientUnits="userSpaceOnUse" gradientTransform="translate(32.625 25.375) rotate(135) scale(74.3346)">
<stop offset="0.314853" stop-opacity="0"/>
<stop offset="1"/>
</radialGradient>
<radialGradient id="paint3_radial_8074_34942" cx="0" cy="0" r="1" gradientUnits="userSpaceOnUse" gradientTransform="translate(29 30.8125) rotate(77.692) scale(51.0163)">
<stop offset="0.507903" stop-color="#7D6133" stop-opacity="0"/>
<stop offset="1" stop-color="#715B32"/>
</radialGradient>
<radialGradient id="paint4_radial_8074_34942" cx="0" cy="0" r="1" gradientUnits="userSpaceOnUse" gradientTransform="translate(29.9063 29.9063) rotate(55.7131) scale(24.1308 17.4912)">
<stop stop-color="#FFB849"/>
<stop offset="1" stop-color="#FFB847" stop-opacity="0"/>
</radialGradient>
<radialGradient id="paint5_radial_8074_34942" cx="0" cy="0" r="1" gradientUnits="userSpaceOnUse" gradientTransform="translate(37.1563 32.625) rotate(9.86581) scale(21.1566)">
<stop stop-color="#FFA64B"/>
<stop offset="0.900412" stop-color="#FFAE46" stop-opacity="0"/>
</radialGradient>
<radialGradient id="paint6_radial_8074_34942" cx="0" cy="0" r="1" gradientUnits="userSpaceOnUse" gradientTransform="translate(31.7187 27.1875) rotate(43.9708) scale(107.033)">
<stop offset="0.185425" stop-opacity="0"/>
<stop offset="1" stop-opacity="0.4"/>
</radialGradient>
<radialGradient id="paint7_radial_8074_34942" cx="0" cy="0" r="1" gradientUnits="userSpaceOnUse" gradientTransform="translate(39.4292 23.3217) rotate(119.867) scale(3.28478 4.99558)">
<stop stop-color="#D07E2D"/>
<stop offset="1" stop-color="#D98833" stop-opacity="0"/>
</radialGradient>
<radialGradient id="paint8_radial_8074_34942" cx="0" cy="0" r="1" gradientUnits="userSpaceOnUse" gradientTransform="translate(35.6073 21.4213) rotate(128.66) scale(3.15034 4.79112)">
<stop stop-color="#D07E2D"/>
<stop offset="1" stop-color="#D98833" stop-opacity="0"/>
</radialGradient>
<radialGradient id="paint9_radial_8074_34942" cx="0" cy="0" r="1" gradientUnits="userSpaceOnUse" gradientTransform="translate(38.8856 18.3819) rotate(65.6376) scale(2.81957 4.28808)">
<stop stop-color="#D07E2D"/>
<stop offset="1" stop-color="#D98833" stop-opacity="0"/>
</radialGradient>
<radialGradient id="paint10_radial_8074_34942" cx="0" cy="0" r="1" gradientUnits="userSpaceOnUse" gradientTransform="translate(17.8082 18.4766) rotate(110.225) scale(2.75966 6.6131)">
<stop stop-color="#D07E2D"/>
<stop offset="1" stop-color="#D98833" stop-opacity="0"/>
</radialGradient>
<radialGradient id="paint11_radial_8074_34942" cx="0" cy="0" r="1" gradientUnits="userSpaceOnUse" gradientTransform="translate(17.3287 23.2366) rotate(70.8664) scale(2.95081 5.43975)">
<stop stop-color="#D07E2D"/>
<stop offset="1" stop-color="#D98833" stop-opacity="0"/>
</radialGradient>
<radialGradient id="paint12_radial_8074_34942" cx="0" cy="0" r="1" gradientUnits="userSpaceOnUse" gradientTransform="translate(29 51.1528) rotate(-90) scale(22.1528 44.3056)">
<stop stop-color="#F70A8D"/>
<stop offset="1" stop-color="#89029C"/>
</radialGradient>
<linearGradient id="paint13_linear_8074_34942" x1="29" y1="29" x2="29" y2="31.7188" gradientUnits="userSpaceOnUse">
<stop stop-color="#ECCDFF"/>
<stop offset="1" stop-color="white"/>
</linearGradient>
<linearGradient id="paint14_linear_8074_34942" x1="18.9804" y1="26.7618" x2="14.4996" y2="17.8542" gradientUnits="userSpaceOnUse">
<stop offset="0.21392" stop-color="#492741"/>
<stop offset="0.331485" stop-color="#503A4A"/>
<stop offset="0.511203" stop-color="#482641"/>
</linearGradient>
<linearGradient id="paint15_linear_8074_34942" x1="18.6691" y1="19.9334" x2="18.8792" y2="20.7949" gradientUnits="userSpaceOnUse">
<stop stop-color="#2D1721"/>
<stop offset="1" stop-color="#2D1721" stop-opacity="0"/>
</linearGradient>
<radialGradient id="paint16_radial_8074_34942" cx="0" cy="0" r="1" gradientUnits="userSpaceOnUse" gradientTransform="translate(22.3261 20.4638) rotate(-148.405) scale(10.2992)">
<stop offset="0.631717" stop-color="#492741" stop-opacity="0"/>
<stop offset="0.798224" stop-color="#492741"/>
</radialGradient>
<linearGradient id="paint17_linear_8074_34942" x1="16.0576" y1="20.1886" x2="19.3732" y2="14.3411" gradientUnits="userSpaceOnUse">
<stop offset="0.162863" stop-color="#22161C"/>
<stop offset="0.435713" stop-color="#482641"/>
<stop offset="0.631598" stop-color="#503A4A"/>
</linearGradient>
<linearGradient id="paint18_linear_8074_34942" x1="18.6691" y1="19.9337" x2="18.8792" y2="19.0722" gradientUnits="userSpaceOnUse">
<stop stop-color="#2D1721"/>
<stop offset="1" stop-color="#2D1721" stop-opacity="0"/>
</linearGradient>
<radialGradient id="paint19_radial_8074_34942" cx="0" cy="0" r="1" gradientUnits="userSpaceOnUse" gradientTransform="translate(22.3261 19.4034) rotate(148.405) scale(10.2992)">
<stop offset="0.631717" stop-color="#492741" stop-opacity="0"/>
<stop offset="0.798224" stop-color="#492741"/>
</radialGradient>
<linearGradient id="paint20_linear_8074_34942" x1="38.7998" y1="26.7021" x2="43.473" y2="17.0165" gradientUnits="userSpaceOnUse">
<stop offset="0.207167" stop-color="#381B32"/>
<stop offset="0.277026" stop-color="#482641"/>
<stop offset="0.390091" stop-color="#503A4A"/>
<stop offset="0.516907" stop-color="#503A4A"/>
<stop offset="0.651166" stop-color="#482641"/>
</linearGradient>
<linearGradient id="paint21_linear_8074_34942" x1="39.3036" y1="19.9334" x2="39.0935" y2="20.7949" gradientUnits="userSpaceOnUse">
<stop stop-color="#2D1721"/>
<stop offset="1" stop-color="#2D1721" stop-opacity="0"/>
</linearGradient>
<linearGradient id="paint22_linear_8074_34942" x1="41.915" y1="20.1886" x2="37.582" y2="11.6925" gradientUnits="userSpaceOnUse">
<stop offset="0.162402" stop-color="#482641"/>
<stop offset="0.296966" stop-color="#503A4A"/>
<stop offset="0.39491" stop-color="#503A4A"/>
<stop offset="0.511203" stop-color="#482641"/>
</linearGradient>
<radialGradient id="paint23_radial_8074_34942" cx="0" cy="0" r="1" gradientUnits="userSpaceOnUse" gradientTransform="translate(34.9885 19.5356) rotate(29.1673) scale(10.8002)">
<stop offset="0.631717" stop-color="#492741" stop-opacity="0"/>
<stop offset="0.798224" stop-color="#492741"/>
</radialGradient>
<radialGradient id="paint24_radial_8074_34942" cx="0" cy="0" r="1" gradientUnits="userSpaceOnUse" gradientTransform="translate(42.6318 15.69) rotate(134.019) scale(1.62849 2.94597)">
<stop stop-color="#5E5051"/>
<stop offset="1" stop-color="#5E5051" stop-opacity="0"/>
</radialGradient>
<linearGradient id="paint25_linear_8074_34942" x1="39.3036" y1="19.9337" x2="39.0935" y2="19.0722" gradientUnits="userSpaceOnUse">
<stop stop-color="#2D1721"/>
<stop offset="1" stop-color="#2D1721" stop-opacity="0"/>
</linearGradient>
</defs>
</svg>
