<svg width="16" height="16" viewBox="0 0 16 16" fill="none" xmlns="http://www.w3.org/2000/svg">
<path d="M11.8129 9.95838C11.2425 9.95822 10.6948 10.1646 10.2872 10.5332L6.31385 8.46905C6.39549 8.15773 6.39549 7.8329 6.31385 7.52158L10.286 5.45747C10.657 5.79098 11.1445 5.99156 11.661 6.02332C12.1776 6.05507 12.6895 5.91591 13.1051 5.63076C13.5207 5.34561 13.8129 4.93309 13.9294 4.46704C14.0459 4.00099 13.9791 3.51184 13.7409 3.08718C13.5026 2.66251 13.1086 2.33005 12.6293 2.14931C12.15 1.96857 11.6167 1.95135 11.125 2.10075C10.6332 2.25014 10.215 2.55638 9.94528 2.96466C9.67557 3.37293 9.57194 3.85657 9.65295 4.32899L5.5871 6.44218C5.26774 6.19633 4.87917 6.03967 4.46691 5.99053C4.05464 5.9414 3.63576 6.00183 3.25934 6.16476C2.88291 6.32768 2.56453 6.58634 2.34149 6.91045C2.11846 7.23455 2 7.61067 2 7.99474C2 8.37881 2.11846 8.75492 2.34149 9.07903C2.56453 9.40313 2.88291 9.66179 3.25934 9.82471C3.63576 9.98764 4.05464 10.0481 4.46691 9.99894C4.87917 9.94981 5.26774 9.79314 5.5871 9.54729L9.65295 11.6616C9.58266 12.0698 9.64949 12.488 9.84444 12.86C10.0394 13.2319 10.3531 13.5397 10.7432 13.7418C11.1333 13.9439 11.5811 14.0307 12.0263 13.9904C12.4714 13.95 12.8925 13.7846 13.2327 13.5163C13.5729 13.248 13.8159 12.8898 13.929 12.4899C14.042 12.0901 14.0197 11.6678 13.865 11.2801C13.7102 10.8923 13.4305 10.5577 13.0636 10.3214C12.6967 10.0851 12.2602 9.95838 11.8129 9.95838Z" fill="#A5A3AB"/>
</svg>
