<svg width="20" height="21" viewBox="0 0 20 21" fill="none" xmlns="http://www.w3.org/2000/svg">
<path d="M16.4696 11.0002C16.0659 11.0002 15.6722 10.9338 15.2949 10.8176V15.2501H4.7027V10.8176C4.32547 10.9338 3.92838 11.0002 3.52633 11.0002C3.34599 11.0002 3.16565 10.9869 2.95552 10.9636C2.84699 10.947 2.72124 10.8939 2.58822 10.8574L2.58855 17.9063C2.58855 18.7865 3.29966 19.5 4.14711 19.5H15.7982C16.6755 19.5 17.3568 18.7865 17.3568 17.9063L17.358 10.8574C17.2208 10.8933 17.0903 10.9473 16.9477 10.9663C16.8303 10.9869 16.6516 11.0002 16.4696 11.0002ZM18.5907 5.94675L16.694 2.93595C16.5251 2.66535 16.2238 2.5 15.9021 2.5H4.09714C3.7756 2.5 3.47438 2.66532 3.30529 2.93595L1.40789 5.94675C0.428741 7.50162 1.29505 9.66211 3.12528 9.91112C3.25698 9.92773 3.39232 9.93769 3.52666 9.93769C4.39165 9.93769 5.15769 9.55984 5.68383 8.97581C6.20831 9.55918 6.97932 9.93769 7.83967 9.93769C8.70465 9.93769 9.4707 9.55984 9.99683 8.97581C10.5233 9.55918 11.291 9.93769 12.1547 9.93769C13.0206 9.93769 13.7857 9.55984 14.3118 8.97581C14.8383 9.55918 15.606 9.93769 16.4663 9.93769C16.6034 9.93769 16.7348 9.92861 16.8664 9.91136C18.7032 9.66543 19.5735 7.50395 18.5907 5.94675Z" fill="#8E9CCC"/>
</svg>
