<svg width="24" height="24" viewBox="0 0 24 24" fill="none" xmlns="http://www.w3.org/2000/svg">
<path fill-rule="evenodd" clip-rule="evenodd" d="M11.6774 2.06139L2.64516 5.47203C2.2645 5.61529 2 6.00407 2 6.43382V17.5661C2.00646 17.7162 2.03224 17.8595 2.09033 17.9891C2.19354 18.2414 2.4 18.4325 2.64516 18.528L11.6774 21.9386C11.8839 22.0205 12.1161 22.0205 12.3226 21.9386L21.3548 18.528C21.7355 18.3847 21.9935 17.9959 22 17.5661V6.43381C22 6.00407 21.7355 5.62208 21.3548 5.47203L12.3226 2.06139C12.1161 1.97954 11.8839 1.97954 11.6774 2.06139ZM20.0645 16.8431L12.9677 19.5239V10.5675L20.0645 7.88676V16.8431ZM7.11338 10.9791C6.95938 10.4601 6.59204 10.0338 6.1841 9.90055C5.77904 9.76823 5.4137 9.95096 5.25784 10.3638L3.47329 15.091C3.3164 15.5066 3.5054 16.064 3.91316 16.1972C4.14397 16.2725 4.35211 16.1683 4.44073 15.9328L4.88731 14.7464L7.27408 15.526L7.71429 17C7.80215 17.2942 8.09809 17.5832 8.32945 17.6588C8.73459 17.7911 9.01058 17.372 8.85764 16.8567L7.11338 10.9791ZM6.87629 14.1857L5.29261 13.6684L6.09571 11.5472L6.87629 14.1857ZM9.96607 11.136C9.65103 11.0331 9.39564 11.2665 9.39564 11.6573V17.2995C9.39564 17.6903 9.65103 18.0905 9.96607 18.1934C10.2811 18.2963 10.5365 18.0629 10.5365 17.6721V12.0299C10.5365 11.6391 10.2811 11.2389 9.96607 11.136Z" fill="white"/>
</svg>
