<svg width="58" height="58" viewBox="0 0 58 58" fill="none" xmlns="http://www.w3.org/2000/svg">
<path d="M28.998 54.371C45.9167 54.371 54.371 43.0111 54.371 28.998C54.371 14.9849 45.9167 3.625 28.998 3.625C12.0793 3.625 3.625 14.9849 3.625 28.998C3.625 43.0111 12.0793 54.371 28.998 54.371Z" fill="url(#paint0_radial_8074_34947)"/>
<path d="M28.998 54.371C45.9167 54.371 54.371 43.0111 54.371 28.998C54.371 14.9849 45.9167 3.625 28.998 3.625C12.0793 3.625 3.625 14.9849 3.625 28.998C3.625 43.0111 12.0793 54.371 28.998 54.371Z" fill="url(#paint1_radial_8074_34947)" fill-opacity="0.6"/>
<path d="M28.998 54.371C45.9167 54.371 54.371 43.0111 54.371 28.998C54.371 14.9849 45.9167 3.625 28.998 3.625C12.0793 3.625 3.625 14.9849 3.625 28.998C3.625 43.0111 12.0793 54.371 28.998 54.371Z" fill="url(#paint2_radial_8074_34947)"/>
<path d="M28.998 54.371C45.9167 54.371 54.371 43.0111 54.371 28.998C54.371 14.9849 45.9167 3.625 28.998 3.625C12.0793 3.625 3.625 14.9849 3.625 28.998C3.625 43.0111 12.0793 54.371 28.998 54.371Z" fill="url(#paint3_radial_8074_34947)"/>
<path d="M28.998 54.371C45.9167 54.371 54.371 43.0111 54.371 28.998C54.371 14.9849 45.9167 3.625 28.998 3.625C12.0793 3.625 3.625 14.9849 3.625 28.998C3.625 43.0111 12.0793 54.371 28.998 54.371Z" fill="url(#paint4_radial_8074_34947)"/>
<path d="M28.998 54.371C45.9167 54.371 54.371 43.0111 54.371 28.998C54.371 14.9849 45.9167 3.625 28.998 3.625C12.0793 3.625 3.625 14.9849 3.625 28.998C3.625 43.0111 12.0793 54.371 28.998 54.371Z" fill="url(#paint5_radial_8074_34947)"/>
<path fill-rule="evenodd" clip-rule="evenodd" d="M13.9508 29.5128C13.2416 28.8231 12.1076 28.8291 11.4059 29.5309C10.698 30.2387 10.698 31.3863 11.4059 32.0941L11.4085 32.0967L11.4112 32.0995L11.4173 32.1055L11.4317 32.1195L11.4691 32.1551C11.4979 32.1822 11.5345 32.2156 11.5789 32.2544C11.6677 32.3321 11.788 32.4318 11.9398 32.5457C12.2434 32.7733 12.6753 33.0594 13.2363 33.3399C14.3642 33.9038 15.9994 34.4375 18.125 34.4375C20.2506 34.4375 21.8858 33.9038 23.0137 33.3399C23.5747 33.0594 24.0066 32.7733 24.3102 32.5457C24.462 32.4318 24.5823 32.3321 24.6711 32.2544C25.4747 31.5513 25.6383 30.325 24.8441 29.5309C24.1424 28.8291 23.0084 28.8231 22.2992 29.5128C22.2964 29.5153 22.2914 29.5199 22.284 29.5263C22.2595 29.5478 22.2098 29.5897 22.1352 29.6457C21.9856 29.7579 21.7378 29.925 21.3925 30.0976C20.7079 30.4399 19.6244 30.8125 18.125 30.8125C16.6256 30.8125 15.5421 30.4399 14.8574 30.0976C14.5122 29.925 14.2644 29.7579 14.1148 29.6457C14.0402 29.5897 13.9905 29.5478 13.966 29.5263C13.9586 29.5199 13.9536 29.5153 13.9508 29.5128Z" fill="url(#paint6_linear_8074_34947)"/>
<path fill-rule="evenodd" clip-rule="evenodd" d="M35.7008 29.5128C34.9916 28.8231 33.8576 28.8291 33.1559 29.5309C32.448 30.2387 32.448 31.3863 33.1559 32.0941L33.1585 32.0967L33.1612 32.0995L33.1673 32.1055L33.1817 32.1195L33.2191 32.1551C33.2479 32.1822 33.2845 32.2156 33.3289 32.2544C33.4177 32.3321 33.538 32.4318 33.6898 32.5457C33.9934 32.7733 34.4253 33.0594 34.9863 33.3399C36.1142 33.9038 37.7494 34.4375 39.875 34.4375C42.0006 34.4375 43.6358 33.9038 44.7637 33.3399C45.3247 33.0594 45.7566 32.7733 46.0602 32.5457C46.212 32.4318 46.3323 32.3321 46.4211 32.2544C46.4712 32.2106 46.5201 32.1654 46.5683 32.1195L46.5827 32.1055L46.5888 32.0995L46.5915 32.0967L46.5929 32.0954C47.3007 31.3876 47.302 30.2387 46.5941 29.5309C45.8924 28.8291 44.7584 28.8231 44.0492 29.5128C44.0464 29.5153 44.0414 29.5199 44.034 29.5263C44.0095 29.5478 43.9598 29.5897 43.8852 29.6457C43.7356 29.7579 43.4878 29.925 43.1426 30.0976C42.4579 30.4399 41.3744 30.8125 39.875 30.8125C38.3756 30.8125 37.2921 30.4399 36.6074 30.0976C36.2622 29.925 36.0144 29.7579 35.8648 29.6457C35.7902 29.5897 35.7405 29.5478 35.716 29.5263C35.7086 29.5199 35.7036 29.5153 35.7008 29.5128Z" fill="url(#paint7_linear_8074_34947)"/>
<path fill-rule="evenodd" clip-rule="evenodd" d="M21.75 45.3125C21.75 44.3115 22.5615 43.5 23.5625 43.5H34.4375C35.4385 43.5 36.25 44.3115 36.25 45.3125C36.25 46.3135 35.4385 47.125 34.4375 47.125H23.5625C22.5615 47.125 21.75 46.3135 21.75 45.3125Z" fill="url(#paint8_linear_8074_34947)"/>
<path d="M17.9146 15.2152L17.9148 15.2143L17.9148 15.2142C18.0203 14.6002 18.6023 14.1862 19.2175 14.2888C19.8291 14.3907 20.2441 14.965 20.1513 15.576C20.1501 15.5844 20.1487 15.5927 20.1472 15.601L20.1462 15.6064L20.1423 15.6284C20.1391 15.6456 20.1347 15.6681 20.1291 15.6953C20.1179 15.7498 20.1016 15.8239 20.0789 15.9146C20.0336 16.0957 19.9626 16.3453 19.856 16.6405C19.6437 17.2284 19.2842 18.0143 18.6914 18.8046C17.4757 20.4256 15.3383 21.9765 11.7813 21.9765C11.1556 21.9765 10.6484 21.4693 10.6484 20.8437C10.6484 20.218 11.1556 19.7109 11.7813 19.7109C14.568 19.7109 16.0555 18.5431 16.8789 17.4452C17.3057 16.8762 17.5692 16.3028 17.7251 15.871C17.8025 15.6565 17.8519 15.4813 17.8809 15.3651C17.8954 15.3071 17.9047 15.2643 17.9099 15.2392L17.9146 15.2152Z" fill="url(#paint9_linear_8074_34947)"/>
<path d="M17.9146 15.2152L17.9148 15.2143L17.9148 15.2142C18.0203 14.6002 18.6023 14.1862 19.2175 14.2888C19.8291 14.3907 20.2441 14.965 20.1513 15.576C20.1501 15.5844 20.1487 15.5927 20.1472 15.601L20.1462 15.6064L20.1423 15.6284C20.1391 15.6456 20.1347 15.6681 20.1291 15.6953C20.1179 15.7498 20.1016 15.8239 20.0789 15.9146C20.0336 16.0957 19.9626 16.3453 19.856 16.6405C19.6437 17.2284 19.2842 18.0143 18.6914 18.8046C17.4757 20.4256 15.3383 21.9765 11.7813 21.9765C11.1556 21.9765 10.6484 21.4693 10.6484 20.8437C10.6484 20.218 11.1556 19.7109 11.7813 19.7109C14.568 19.7109 16.0555 18.5431 16.8789 17.4452C17.3057 16.8762 17.5692 16.3028 17.7251 15.871C17.8025 15.6565 17.8519 15.4813 17.8809 15.3651C17.8954 15.3071 17.9047 15.2643 17.9099 15.2392L17.9146 15.2152Z" fill="url(#paint10_radial_8074_34947)"/>
<path d="M40.0854 15.2142C39.9799 14.6003 39.3979 14.1862 38.7827 14.2888C38.171 14.3907 37.7561 14.965 37.8489 15.576C37.8501 15.5844 37.8515 15.5927 37.853 15.601L37.8539 15.6064L37.8579 15.6284C37.8611 15.6456 37.8654 15.6681 37.871 15.6953C37.8822 15.7498 37.8986 15.8238 37.9213 15.9146C37.9666 16.0957 38.0376 16.3453 38.1442 16.6405C38.3564 17.2284 38.716 18.0143 39.3088 18.8046C40.5245 20.4256 42.6619 21.9765 46.2189 21.9765C46.8446 21.9765 47.3517 21.4693 47.3517 20.8437C47.3517 20.218 46.8446 19.7109 46.2189 19.7109C43.4322 19.7109 41.9446 18.5431 41.1213 17.4452C40.6945 16.8762 40.431 16.3028 40.2751 15.871C40.1977 15.6565 40.1483 15.4813 40.1192 15.3651C40.1048 15.3071 40.0954 15.2643 40.0903 15.2392L40.0854 15.2142Z" fill="url(#paint11_radial_8074_34947)"/>
<defs>
<radialGradient id="paint0_radial_8074_34947" cx="0" cy="0" r="1" gradientUnits="userSpaceOnUse" gradientTransform="translate(46.2188 16.3125) rotate(131.878) scale(70.5945)">
<stop stop-color="#FFF478"/>
<stop offset="0.474827" stop-color="#FFB02E"/>
<stop offset="1" stop-color="#F70A8D"/>
</radialGradient>
<radialGradient id="paint1_radial_8074_34947" cx="0" cy="0" r="1" gradientUnits="userSpaceOnUse" gradientTransform="translate(32.625 25.375) rotate(135) scale(74.3346)">
<stop offset="0.314853" stop-opacity="0"/>
<stop offset="1"/>
</radialGradient>
<radialGradient id="paint2_radial_8074_34947" cx="0" cy="0" r="1" gradientUnits="userSpaceOnUse" gradientTransform="translate(29 30.8125) rotate(77.692) scale(51.0163)">
<stop offset="0.507903" stop-color="#7D6133" stop-opacity="0"/>
<stop offset="1" stop-color="#715B32"/>
</radialGradient>
<radialGradient id="paint3_radial_8074_34947" cx="0" cy="0" r="1" gradientUnits="userSpaceOnUse" gradientTransform="translate(29.9063 29.9063) rotate(55.7131) scale(24.1308 17.4912)">
<stop stop-color="#FFB849"/>
<stop offset="1" stop-color="#FFB847" stop-opacity="0"/>
</radialGradient>
<radialGradient id="paint4_radial_8074_34947" cx="0" cy="0" r="1" gradientUnits="userSpaceOnUse" gradientTransform="translate(37.1563 32.625) rotate(9.86581) scale(21.1566)">
<stop stop-color="#FFA64B"/>
<stop offset="0.900412" stop-color="#FFAE46" stop-opacity="0"/>
</radialGradient>
<radialGradient id="paint5_radial_8074_34947" cx="0" cy="0" r="1" gradientUnits="userSpaceOnUse" gradientTransform="translate(31.7187 27.1875) rotate(43.9708) scale(107.033)">
<stop offset="0.185425" stop-opacity="0"/>
<stop offset="1" stop-opacity="0.4"/>
</radialGradient>
<linearGradient id="paint6_linear_8074_34947" x1="20.3" y1="30.3594" x2="19.8738" y2="32.9165" gradientUnits="userSpaceOnUse">
<stop stop-color="#52383E"/>
<stop offset="1" stop-color="#432A35"/>
</linearGradient>
<linearGradient id="paint7_linear_8074_34947" x1="42.05" y1="30.3594" x2="41.6238" y2="32.9165" gradientUnits="userSpaceOnUse">
<stop stop-color="#52383E"/>
<stop offset="1" stop-color="#432A35"/>
</linearGradient>
<linearGradient id="paint8_linear_8074_34947" x1="29" y1="44.4063" x2="29" y2="46.2188" gradientUnits="userSpaceOnUse">
<stop stop-color="#4F3C43"/>
<stop offset="1" stop-color="#512756"/>
</linearGradient>
<linearGradient id="paint9_linear_8074_34947" x1="17.2188" y1="14.5" x2="17.2188" y2="17.2187" gradientUnits="userSpaceOnUse">
<stop offset="0.0299084" stop-color="#524049"/>
<stop offset="1" stop-color="#4A2C42"/>
</linearGradient>
<radialGradient id="paint10_radial_8074_34947" cx="0" cy="0" r="1" gradientUnits="userSpaceOnUse" gradientTransform="translate(12.6875 14.5) rotate(54.4623) scale(7.79586)">
<stop offset="0.541667" stop-color="#493032"/>
<stop offset="0.806723" stop-color="#5E445A"/>
<stop offset="0.955326" stop-color="#4A2C42"/>
</radialGradient>
<radialGradient id="paint11_radial_8074_34947" cx="0" cy="0" r="1" gradientUnits="userSpaceOnUse" gradientTransform="translate(45.3127 14.5) rotate(125.538) scale(7.79586)">
<stop stop-color="#C2B4B5"/>
<stop offset="0.887405" stop-color="#462B45"/>
<stop offset="1" stop-color="#4A2C42"/>
</radialGradient>
</defs>
</svg>
