<svg width="16" height="16" viewBox="0 0 16 16" fill="none" xmlns="http://www.w3.org/2000/svg">
<path d="M8.00002 2.66699C4.86669 2.66699 2.13336 4.60033 0.800024 7.40033C0.600024 7.80033 0.600024 8.26699 0.800024 8.66699C2.13336 11.4003 4.86669 13.3337 8.00002 13.3337C11.1334 13.3337 13.8667 11.4003 15.2 8.60033C15.4 8.20033 15.4 7.73366 15.2 7.33366C13.8667 4.60033 11.1334 2.66699 8.00002 2.66699ZM8.00002 10.667C6.53336 10.667 5.33336 9.46699 5.33336 8.00033C5.33336 6.53366 6.53336 5.33366 8.00002 5.33366C9.46669 5.33366 10.6667 6.53366 10.6667 8.00033C10.6667 9.46699 9.46669 10.667 8.00002 10.667Z" fill="#A5A3AB"/>
</svg>
