<svg width="24" height="24" viewBox="0 0 24 24" fill="none" xmlns="http://www.w3.org/2000/svg">
<path fill-rule="evenodd" clip-rule="evenodd" d="M12 3C7.03743 3 3 7.03743 3 12C3 16.9626 7.03743 21 12 21C16.9626 21 21 16.9626 21 12C21 7.03743 16.9626 3 12 3ZM10.7143 12C10.7143 11.2899 11.2899 10.7143 12 10.7143C12.7101 10.7143 13.2857 11.2899 13.2857 12V15.8571C13.2857 16.5672 12.7101 17.1429 12 17.1429C11.2899 17.1429 10.7143 16.5672 10.7143 15.8571V12ZM12 6.85714C11.2899 6.85714 10.7143 7.43278 10.7143 8.14286C10.7143 8.85294 11.2899 9.42857 12 9.42857C12.7101 9.42857 13.2857 8.85294 13.2857 8.14286C13.2857 7.43278 12.7101 6.85714 12 6.85714Z" fill="#8E9CCC"/>
</svg>
