<svg width="16" height="16" viewBox="0 0 16 16" fill="none" xmlns="http://www.w3.org/2000/svg">
<path d="M13.9473 3.53868C14.5605 3.75414 15 4.33824 15 5.025V12.025C15 13.668 13.668 15 12.025 15H5.025C4.33824 15 3.75414 14.5605 3.53868 13.9473L5.00677 13.9497L12.025 13.95C13.0882 13.95 13.95 13.0882 13.95 12.025V5.025L13.9472 4.98931L13.9473 3.53868ZM11.6728 1C12.5426 1 13.2478 1.70515 13.2478 2.575V11.6728C13.2478 12.5426 12.5426 13.2478 11.6728 13.2478H2.575C1.70515 13.2478 1 12.5426 1 11.6728V2.575C1 1.70515 1.70515 1 2.575 1H11.6728ZM9.02879 4.82877L6.30681 7.55074L5.62 6.635C5.44603 6.40304 5.11696 6.35603 4.885 6.53C4.65304 6.70395 4.60603 7.03302 4.78 7.265L5.83 8.665C6.02169 8.92057 6.39532 8.94717 6.62121 8.72121L9.77121 5.57123C9.97624 5.36621 9.97624 5.03379 9.77121 4.82877C9.56618 4.62375 9.23382 4.62375 9.02879 4.82877Z" fill="white"/>
</svg>
