<svg width="41" height="40" viewBox="0 0 41 40" fill="none" xmlns="http://www.w3.org/2000/svg">
<path d="M24.7074 14.1146C23.1354 12.547 21.0068 11.6667 18.7877 11.6667C16.5686 11.6667 14.44 12.547 12.868 14.1146C10.5838 16.399 7.52957 29.0905 7.18917 30.5296C7.15458 30.6835 7.15965 30.8437 7.2039 30.9952C7.24815 31.1466 7.33013 31.2843 7.44214 31.3953C7.55505 31.5066 7.69417 31.5877 7.84665 31.6309C7.99912 31.6742 8.16003 31.6783 8.31452 31.6429C9.75422 31.3004 22.4288 28.2397 24.7148 25.9553C25.4921 25.1773 26.1087 24.2538 26.5293 23.2373C26.95 22.2209 27.1665 21.1314 27.1665 20.0312C27.1665 18.931 26.95 17.8416 26.5293 16.8251C26.1087 15.8087 25.4921 14.8851 24.7148 14.1072L24.7074 14.1146ZM18.7886 22.8313C18.2368 22.8313 17.6974 22.6675 17.2385 22.3606C16.7797 22.0538 16.4221 21.6176 16.2109 21.1074C15.9997 20.5971 15.9445 20.0356 16.0521 19.4939C16.1598 18.9521 16.4255 18.4546 16.8157 18.064C17.2059 17.6734 17.7031 17.4075 18.2443 17.2997C18.7855 17.192 19.3465 17.2473 19.8564 17.4586C20.3662 17.67 20.8019 18.0279 21.1085 18.4872C21.4151 18.9464 21.5787 19.4863 21.5787 20.0387C21.5787 20.7793 21.2848 21.4896 20.7615 22.0133C20.2383 22.5371 19.5286 22.8313 18.7886 22.8313Z" fill="#3870F3"/>
<path d="M33.5661 10.783L26.3895 3.60353C26.2945 3.50509 26.178 3.43004 26.0491 3.38426C25.9202 3.33848 25.7825 3.32322 25.6467 3.33968C25.5115 3.35605 25.3817 3.40303 25.2673 3.47705C25.1529 3.55106 25.0569 3.65018 24.9865 3.76686L22.2953 8.25405C22.1918 8.42585 22.1488 8.6274 22.1732 8.8265C22.1976 9.02561 22.2879 9.2108 22.4298 9.35252L27.8123 14.7371C27.9538 14.8787 28.1386 14.9688 28.3372 14.9932C28.5358 15.0176 28.7369 14.9749 28.9085 14.8718L33.3938 12.1794C33.5111 12.1098 33.611 12.0144 33.6858 11.9004C33.7607 11.7864 33.8086 11.6568 33.8259 11.5215C33.8432 11.3861 33.8295 11.2487 33.7857 11.1195C33.7419 10.9903 33.6692 10.8727 33.5732 10.7759L33.5661 10.783Z" fill="#3870F3"/>
<rect x="5.5" y="33.3333" width="25" height="3.33333" rx="1.66667" fill="#3870F3"/>
</svg>
