<svg width="20" height="20" viewBox="0 0 20 20" fill="none" xmlns="http://www.w3.org/2000/svg">
<path d="M4.3873 4.67944H2.43566C2.15083 4.67944 1.91992 4.91036 1.91992 5.19518V14.4784H4.3873V4.67944Z" fill="#8E9CCC"/>
<path d="M1.25 15.5098C1.48958 16.6854 2.53146 17.5727 3.77676 17.5727H16.2232C17.4685 17.5727 18.5104 16.6854 18.75 15.5098H1.25Z" fill="#8E9CCC"/>
<path d="M12.0547 6.85913L15.3313 3.58256L16.7168 4.96814L13.4403 8.24471L12.0547 6.85913Z" fill="#8E9CCC"/>
<path d="M17.4855 4.20139C17.8676 3.81933 17.8676 3.19766 17.4855 2.81561C17.1034 2.43352 16.4818 2.43355 16.0998 2.81561L16.0684 2.847L17.4541 4.23278L17.4855 4.20139Z" fill="#8E9CCC"/>
<path d="M14.5809 8.56432C14.1246 9.02068 13.807 9.3383 13.807 9.3383C13.7425 9.40239 13.6613 9.44936 13.5733 9.47243L10.7049 10.2257C10.325 10.3287 9.96821 9.96922 10.0781 9.58424L10.8283 6.72745C10.8513 6.64001 10.8976 6.5578 10.962 6.49427C10.9624 6.49385 13.9947 3.46154 15.029 2.42725H5.93468C5.64986 2.42725 5.41895 2.65816 5.41895 2.94298V14.4783H14.581V8.56432H14.5809ZM8.31669 12.0371H6.95322C6.26895 12.0099 6.26946 11.0327 6.95322 11.0057H8.31669C9.00097 11.0329 9.00045 12.0102 8.31669 12.0371ZM8.31669 9.9914H6.95322C6.26895 9.96413 6.26946 8.98692 6.95322 8.95993H8.31669C9.00097 8.98716 9.00045 9.96441 8.31669 9.9914ZM8.74764 7.92846H6.95326C6.26898 7.90119 6.2695 6.92398 6.95326 6.89699H8.74764C9.43192 6.92422 9.43137 7.90147 8.74764 7.92846ZM6.95326 5.86552C6.26898 5.83825 6.2695 4.86103 6.95326 4.83404H9.80699C10.4913 4.86131 10.4908 5.83853 9.80699 5.86552H6.95326Z" fill="#8E9CCC"/>
<path d="M11.2969 9.00374L12.4422 8.70297L11.5977 7.8584L11.2969 9.00374Z" fill="#8E9CCC"/>
<path d="M15.6123 7.5329V14.4783H18.0797V5.19507C18.0797 5.15516 18.0747 5.11644 18.0661 5.0791L17.8133 5.33192C17.8132 5.33205 16.6753 6.46997 15.6123 7.5329Z" fill="#8E9CCC"/>
</svg>
