<svg width="17" height="16" viewBox="0 0 17 16" fill="none" xmlns="http://www.w3.org/2000/svg">
<g id="ICON/Menu">
<path id="Vector" d="M0.96875 8.03126C0.96875 11.3913 4.18531 14.125 8.06251 14.125C8.86317 14.125 9.64687 14.0097 10.3958 13.7821L13.5136 15.0291C13.6703 15.0916 13.8493 15.0655 13.9815 14.959C14.1133 14.8528 14.1778 14.6839 14.1499 14.5169L13.6802 11.6984C14.5934 10.6469 15.0938 9.35377 15.0938 8.03126C15.0938 7.32142 14.9439 6.61768 14.6679 5.95521L11.1963 9.4297C11.0947 9.53041 10.973 9.61647 10.8347 9.68556L9.50356 10.3512C9.15334 10.536 8.72963 10.5589 8.31117 10.375H4.25001C3.99097 10.375 3.78126 10.1653 3.78126 9.90627C3.78126 9.64711 3.99097 9.43751 4.25001 9.43751H7.53322C7.4441 9.10255 7.46486 8.75477 7.62672 8.44728L8.28322 7.13404C8.35231 6.99574 8.43837 6.87403 8.53908 6.77235L12.2023 3.1117C11.0059 2.35352 9.56923 1.9375 8.06251 1.9375C4.18531 1.9375 0.96875 4.67127 0.96875 8.03126ZM7.12501 8.50001H4.25001C3.99097 8.50001 3.78126 8.2903 3.78126 8.03126C3.78126 7.77211 3.99097 7.56251 4.25001 7.56251H7.12501C7.38405 7.56251 7.59376 7.77211 7.59376 8.03126C7.59376 8.2903 7.38405 8.50001 7.12501 8.50001ZM7.12501 6.62501H4.25001C3.99097 6.62501 3.78126 6.41529 3.78126 6.15626C3.78126 5.8971 3.99097 5.68751 4.25001 5.68751H7.12501C7.38405 5.68751 7.59376 5.8971 7.59376 6.15626C7.59376 6.41529 7.38405 6.62501 7.12501 6.62501Z" fill="#A5A3AB"/>
<path id="Vector_2" d="M9.12194 7.5531L8.45629 8.88428C8.36266 9.06238 8.40013 9.27808 8.54076 9.4281C8.69066 9.56873 8.90636 9.60621 9.08446 9.51246L10.4158 8.8468C10.4532 8.82801 10.5001 8.79993 10.5376 8.76245L9.20629 7.43115C9.16881 7.46875 9.14073 7.51563 9.12194 7.5531Z" fill="#A5A3AB"/>
<path id="Vector_3" d="M15.1781 4.12183L13.8468 2.79053L9.87183 6.77491L11.1937 8.09681L15.1781 4.12183Z" fill="#A5A3AB"/>
<path id="Vector_4" d="M16.1719 1.14063C15.9844 0.953125 15.6843 0.953125 15.5062 1.14063L14.5125 2.1344L15.8344 3.45618L16.8281 2.46241C17.0156 2.2843 17.0156 1.98438 16.8281 1.79675L16.1719 1.14063Z" fill="#A5A3AB"/>
</g>
</svg>
