<svg width="16" height="17" viewBox="0 0 16 17" fill="none" xmlns="http://www.w3.org/2000/svg">
<path d="M8.00113 3.44531C6.31949 3.44531 4.95135 4.81345 4.95135 6.49509C4.95135 8.17673 6.31949 9.54487 8.00113 9.54487C9.68277 9.54487 11.0509 8.17673 11.0509 6.49509C11.0509 4.81345 9.68277 3.44531 8.00113 3.44531ZM8.47049 8.00329C8.47049 8.2625 8.26034 8.47264 8.00113 8.47264C7.74192 8.47264 7.53178 8.2625 7.53178 8.00329V6.49509C7.53178 6.23588 7.74192 6.02574 8.00113 6.02574C8.26034 6.02574 8.47049 6.23588 8.47049 6.49509V8.00329ZM8.00113 5.45625C7.74208 5.45625 7.53178 5.24598 7.53178 4.9869C7.53178 4.72781 7.74208 4.51754 8.00113 4.51754C8.26019 4.51754 8.47049 4.72781 8.47049 4.9869C8.47049 5.24595 8.26019 5.45625 8.00113 5.45625Z" fill="#8E9CCC"/>
<path d="M12.0224 -0.00976562H3.97871C2.88827 -0.00976562 2.00116 0.877379 2.00116 1.96779V13.2903C2.30327 13.103 2.65913 12.9945 3.04 12.9945H3.97821H12.0224C13.1339 12.9945 14 12.0892 14 11.017V1.96779C14 0.863517 13.1029 -0.00976562 12.0224 -0.00976562ZM8.00056 10.4808C5.80131 10.4808 4.01207 8.69158 4.01207 6.49234C4.01207 4.2931 5.80131 2.50388 8.00056 2.50388C10.1998 2.50388 11.989 4.29313 11.989 6.49237C11.989 8.69162 10.1998 10.4808 8.00056 10.4808Z" fill="#8E9CCC"/>
<path d="M3.04 13.9332C2.46626 13.9332 2.00116 14.3983 2.00116 14.972C2.00116 15.5458 2.46626 16.0109 3.04 16.0109H3.04059H12.0224C13.1339 16.0109 14 15.1056 14 14.0333V13.1582C13.4798 13.6389 12.7849 13.9332 12.0224 13.9332H3.04Z" fill="#8E9CCC"/>
</svg>
