<svg width="16" height="16" viewBox="0 0 16 16" fill="none" xmlns="http://www.w3.org/2000/svg">
<path d="M7.99996 0C3.58854 0 0 3.58854 0 7.99996C0 9.37583 0.351583 10.7187 1.01908 11.9097L0.045985 14.8298C-0.0573033 15.1379 0.0164736 15.4765 0.236976 15.7152C0.463227 15.9599 0.801121 16.0506 1.10417 15.973L4.40537 15.1484C5.51476 15.7065 6.74995 15.9999 7.99996 15.9999C12.4114 15.9999 15.9999 12.4114 15.9999 7.99996C15.9999 3.58854 12.4114 0 7.99996 0ZM7.99996 12.4444C7.50906 12.4444 7.11107 12.0464 7.11107 11.5555C7.11107 11.0646 7.50906 10.6666 7.99996 10.6666C8.49086 10.6666 8.88884 11.0646 8.88884 11.5555C8.88884 12.0464 8.49086 12.4444 7.99996 12.4444ZM9.24042 8.5833C9.03035 8.69441 8.88884 8.97915 8.88884 9.29251C8.88884 9.78383 8.49127 10.1814 7.99996 10.1814C7.50864 10.1814 7.11107 9.78383 7.11107 9.29251C7.11107 8.30638 7.61021 7.43226 8.41228 7.01039C8.70656 6.85584 8.88884 6.5538 8.88884 6.22219C8.88884 5.73176 8.49038 5.3333 7.99996 5.3333C7.50953 5.3333 7.11107 5.73176 7.11107 6.22219C7.11107 6.7135 6.7135 7.11107 6.22219 7.11107C5.73087 7.11107 5.3333 6.7135 5.3333 6.22219C5.3333 4.75174 6.5295 3.55554 7.99996 3.55554C9.47041 3.55554 10.6666 4.75174 10.6666 6.22219C10.6666 7.21608 10.1197 8.12061 9.24042 8.5833Z" fill="#8E9CCC"/>
</svg>
