<svg width="31" height="30" viewBox="0 0 31 30" fill="none" xmlns="http://www.w3.org/2000/svg">
<path d="M4.5 21C4.5 20.4477 4.94772 20 5.5 20H7.5C8.05228 20 8.5 20.4477 8.5 21V25C8.5 25.5523 8.05228 26 7.5 26H5.5C4.94772 26 4.5 25.5523 4.5 25V21Z" fill="#C7CBE2"/>
<path d="M10.5 17C10.5 16.4477 10.9477 16 11.5 16H13.5C14.0523 16 14.5 16.4477 14.5 17V25C14.5 25.5523 14.0523 26 13.5 26H11.5C10.9477 26 10.5 25.5523 10.5 25V17Z" fill="#C7CBE2"/>
<path d="M22.5 8C22.5 7.44771 22.9477 7 23.5 7H25.5C26.0523 7 26.5 7.44772 26.5 8V25C26.5 25.5523 26.0523 26 25.5 26H23.5C22.9477 26 22.5 25.5523 22.5 25V8Z" fill="#C7CBE2"/>
<path d="M16.5 12C16.5 11.4477 16.9477 11 17.5 11H19.5C20.0523 11 20.5 11.4477 20.5 12V25C20.5 25.5523 20.0523 26 19.5 26H17.5C16.9477 26 16.5 25.5523 16.5 25V12Z" fill="#C7CBE2"/>
</svg>
