<svg width="16" height="16" viewBox="0 0 16 16" fill="none" xmlns="http://www.w3.org/2000/svg">
<path fill-rule="evenodd" clip-rule="evenodd" d="M3 2C2.44772 2 2 2.44772 2 3V13C2 13.5523 2.44772 14 3 14H13C13.5523 14 14 13.5523 14 13V9C14 8.44772 13.5523 8 13 8C12.4477 8 12 8.44772 12 9V12H4V4H7C7.55228 4 8 3.55228 8 3C8 2.44772 7.55228 2 7 2H3ZM8.71031 9L13.6992 4.01619C14.0945 3.62316 14.1013 2.98788 13.7128 2.60332L13.3987 2.2863C13.2138 2.10165 12.9678 2 12.7049 2H12.6913C12.4266 2.00339 12.1756 2.11012 11.9855 2.29985L7 7.27858V9H8.71031Z" fill="#242424"/>
</svg>
