<svg width="20" height="20" viewBox="0 0 20 20" fill="none" xmlns="http://www.w3.org/2000/svg">
<path fill-rule="evenodd" clip-rule="evenodd" d="M10 1.25C5.17528 1.25 1.25 5.17528 1.25 10C1.25 14.8247 5.17528 18.75 10 18.75C14.8247 18.75 18.75 14.8247 18.75 10C18.75 5.17528 14.8247 1.25 10 1.25ZM8.75 10C8.75 9.30964 9.30964 8.75 10 8.75C10.6904 8.75 11.25 9.30964 11.25 10V13.75C11.25 14.4404 10.6904 15 10 15C9.30964 15 8.75 14.4404 8.75 13.75V10ZM10 5C9.30964 5 8.75 5.55964 8.75 6.25C8.75 6.94036 9.30964 7.5 10 7.5C10.6904 7.5 11.25 6.94036 11.25 6.25C11.25 5.55964 10.6904 5 10 5Z" fill="#8E9CCC"/>
</svg>
