<svg width="40" height="40" viewBox="0 0 40 40" fill="none" xmlns="http://www.w3.org/2000/svg">
<g id="ICON">
<g id="Group 5">
<g id="Vector">
<path fill-rule="evenodd" clip-rule="evenodd" d="M18.2476 10.4985C13.9693 10.4985 10.501 13.9668 10.501 18.2452C10.501 22.5236 13.9693 25.9919 18.2476 25.9919C22.526 25.9919 25.9943 22.5236 25.9943 18.2452C25.9943 13.9668 22.526 10.4985 18.2476 10.4985ZM5.50098 18.2452C5.50098 11.2054 11.2079 5.49854 18.2476 5.49854C25.2874 5.49854 30.9943 11.2054 30.9943 18.2452C30.9943 25.285 25.2874 30.9919 18.2476 30.9919C11.2079 30.9919 5.50098 25.285 5.50098 18.2452Z" fill="#C7CBE2"/>
<path fill-rule="evenodd" clip-rule="evenodd" d="M33.7687 33.7663C32.7924 34.7426 31.2095 34.7426 30.2332 33.7663L23.8332 27.3663L27.3687 23.8308L33.7687 30.2308C34.7451 31.2071 34.7451 32.79 33.7687 33.7663Z" fill="#C7CBE2"/>
</g>
</g>
</g>
</svg>
