<svg width="24" height="24" viewBox="0 0 24 24" fill="none" xmlns="http://www.w3.org/2000/svg">
<g clip-path="url(#clip0_7412_14834)">
<path fill-rule="evenodd" clip-rule="evenodd" d="M3.25 3C2.55965 3 2 3.56711 2 4.26667C2 4.96622 2.55965 5.53334 3.25 5.53334V15.6667C3.25 17.0659 4.36929 18.2 5.75 18.2H8.98224L7.36611 19.8377C6.87796 20.3323 6.87796 21.1344 7.36611 21.629C7.85428 22.1237 8.64572 22.1237 9.13389 21.629L12 18.7247L14.8661 21.629C15.3542 22.1237 16.1458 22.1237 16.6339 21.629C17.122 21.1344 17.122 20.3323 16.6339 19.8377L15.0177 18.2H18.25C19.6308 18.2 20.75 17.0659 20.75 15.6667V5.53334C21.4404 5.53334 22 4.96622 22 4.26667C22 3.56711 21.4404 3 20.75 3H3.25ZM16.8839 9.96235C17.372 9.46768 17.372 8.66567 16.8839 8.171C16.3958 7.67634 15.6042 7.67634 15.1161 8.171L13 10.342L11.3839 8.70434C10.8957 8.20968 10.1043 8.20968 9.61611 8.70434L7.11611 11.2377C6.62796 11.7323 6.62796 12.5344 7.11611 13.029C7.60428 13.5236 8.39572 13.5236 8.88389 13.029L10.5 11.3913L12.1161 13.029C12.6043 13.5236 13.3958 13.5236 13.8839 13.029L16.8839 9.96235Z" fill="#3870F3"/>
</g>
<defs>
<clipPath id="clip0_7412_14834">
<rect width="24" height="24" fill="white"/>
</clipPath>
</defs>
</svg>
