<svg width="40" height="40" viewBox="0 0 40 40" fill="none" xmlns="http://www.w3.org/2000/svg">
<g id="ICON_Empty">
<path id="Vector" fill-rule="evenodd" clip-rule="evenodd" d="M6 10.1989C6 7.8799 7.88041 6 10.2 6H29.8C32.1197 6 34 7.8799 34 10.1989V31.1932C34 32.7392 32.7464 33.9924 31.2 33.9924H14.6068C14.5385 33.9975 14.4696 34 14.4 34H8.8C7.2536 34 6 32.7466 6 31.2008V10.1989ZM10.2 8.79924H29.8C30.5732 8.79924 31.2 9.42587 31.2 10.1989V22.7955H25.6C24.0536 22.7955 22.8 24.0487 22.8 25.5947V26.9943H17.2V25.6023C17.2 24.0562 15.9464 22.803 14.4 22.803H8.8V10.1989C8.8 9.42588 9.42679 8.79924 10.2 8.79924Z" fill="#C7CBE2"/>
</g>
</svg>
