<svg width="24" height="24" viewBox="0 0 24 24" fill="none" xmlns="http://www.w3.org/2000/svg">
<g id="(ICON)">
<rect width="24" height="24" rx="12" fill="#8E9CCC"/>
<path id="Union" fill-rule="evenodd" clip-rule="evenodd" d="M10 8.99976C10 7.89519 10.8954 6.99976 12 6.99976C13.1046 6.99976 14 7.89519 14 8.99976C14 10.1043 13.1046 10.9998 12 10.9998C11.4477 10.9998 11 11.4475 11 11.9998V13.8753V14.8753H13V13.8753V12.8737C14.7252 12.4297 16 10.8636 16 8.99976C16 6.79062 14.2091 4.99976 12 4.99976C9.79086 4.99976 8 6.79062 8 8.99976V9.99976H10V8.99976ZM12 18.9999C12.8284 18.9999 13.5 18.3283 13.5 17.4999C13.5 16.6714 12.8284 15.9999 12 15.9999C11.1716 15.9999 10.5 16.6714 10.5 17.4999C10.5 18.3283 11.1716 18.9999 12 18.9999Z" fill="white"/>
</g>
</svg>
