<svg width="37" height="36" viewBox="0 0 37 36" fill="none" xmlns="http://www.w3.org/2000/svg">
<path fill-rule="evenodd" clip-rule="evenodd" d="M18 3.09516L4 8.38165C3.40997 8.6037 3 9.20631 3 9.87242V27.1275C3.01001 27.3602 3.04998 27.5822 3.14001 27.783C3.29999 28.1742 3.62 28.4703 4 28.6184L18 33.9048C18.32 34.0317 18.68 34.0317 19 33.9048L33 28.6184C33.59 28.3963 33.99 27.7936 34 27.1275V9.87241C34 9.20631 33.59 8.61422 33 8.38165L19 3.09516C18.68 2.96828 18.32 2.96828 18 3.09516ZM31 26.0068L20 30.162V16.2797L31 12.1245V26.0068ZM10.9257 16.9175C10.687 16.1132 10.1177 15.4524 9.48535 15.2459C8.85751 15.0408 8.29123 15.324 8.04965 15.9639L5.28361 23.291C5.04041 23.9352 5.33338 24.7991 5.96539 25.0056C6.32315 25.1225 6.64577 24.9608 6.78313 24.5959L7.47533 22.7569L11.1748 23.9654L11.8571 26.25C11.9933 26.706 12.452 27.154 12.8106 27.2711C13.4386 27.4763 13.8664 26.8266 13.6293 26.0278L10.9257 16.9175ZM10.5582 21.8879L8.10355 21.086L9.34835 17.7982L10.5582 21.8879ZM15.3474 17.1608C14.8591 17.0013 14.4632 17.363 14.4632 17.9688V26.7142C14.4632 27.3199 14.8591 27.9403 15.3474 28.0998C15.8357 28.2593 16.2316 27.8976 16.2316 27.2918V18.5464C16.2316 17.9407 15.8357 17.3203 15.3474 17.1608Z" fill="url(#paint0_linear_7405_16469)"/>
<defs>
<linearGradient id="paint0_linear_7405_16469" x1="3" y1="3" x2="34.5443" y2="33.4359" gradientUnits="userSpaceOnUse">
<stop stop-color="#396FF9"/>
<stop offset="1" stop-color="#95FFDF"/>
</linearGradient>
</defs>
</svg>
