<svg width="16" height="16" viewBox="0 0 16 16" fill="none" xmlns="http://www.w3.org/2000/svg">
<g id="Group">
<path id="Vector" d="M1.49449 9.09045C0.671509 9.09045 0.00439453 9.7576 0.00439453 10.5806C0.082873 12.5572 2.90641 12.5566 2.98461 10.5806C2.98461 9.7576 2.31747 9.09045 1.49449 9.09045Z" fill="#A5A3AB"/>
<path id="Vector_2" d="M8.34753 4.39087C6.84312 4.39087 5.62354 5.61045 5.62354 7.11487C5.76701 10.7282 10.9286 10.7272 11.0715 7.11484C11.0715 5.61045 9.85195 4.39087 8.34753 4.39087Z" fill="#A5A3AB"/>
<path id="Vector_3" d="M14.5321 0.00878906C13.7238 0.00878906 13.0686 0.664014 13.0686 1.4723C13.1457 3.4136 15.9188 3.41304 15.9956 1.4723C15.9956 0.664014 15.3404 0.00878906 14.5321 0.00878906Z" fill="#A5A3AB"/>
<path id="Vector_4" d="M15.9956 10.1425C15.9956 9.5798 15.5395 9.12366 14.9768 9.12366C13.6254 9.17733 13.6258 11.1078 14.9768 11.1613C15.5395 11.1613 15.9956 10.7051 15.9956 10.1425Z" fill="#A5A3AB"/>
<path id="Vector_5" d="M10.9774 4.48505C11.1143 4.62197 11.2391 4.76779 11.3515 4.92104L13.0711 3.44851C12.8025 3.24943 12.5762 2.99677 12.407 2.70679L10.6606 4.20225C10.7706 4.28993 10.8765 4.38411 10.9774 4.48505Z" fill="#A5A3AB"/>
<path id="Vector_6" d="M2.52734 2.87808L5.1972 5.13539C5.34414 4.90255 5.51804 4.68443 5.7175 4.48497C5.7562 4.44628 5.79573 4.40868 5.8358 4.37192L3.14703 2.09863C3.0029 2.40412 2.78952 2.67054 2.52734 2.87808Z" fill="#A5A3AB"/>
<path id="Vector_7" d="M7.4303 10.7208L7.35107 12.6009C7.67469 12.5405 8.0331 12.5592 8.34521 12.6497L8.42175 10.8333C8.08531 10.8405 7.74936 10.8015 7.4303 10.7208Z" fill="#A5A3AB"/>
<path id="Vector_8" d="M13.4741 8.80335L11.9417 8.07654C11.856 8.39922 11.727 8.70802 11.5576 8.99591L13.0152 9.68727C13.0927 9.35332 13.2532 9.05098 13.4741 8.80335Z" fill="#A5A3AB"/>
<path id="Vector_9" d="M0.00708008 1.17568C0.00708008 1.82498 0.533432 2.35136 1.18276 2.35136C2.74228 2.28942 2.74181 0.0616906 1.18276 0C0.533463 0 0.00708008 0.526352 0.00708008 1.17568Z" fill="#A5A3AB"/>
<path id="Vector_10" d="M4.79433 8.21924L3.41772 9.00811C3.6276 9.26436 3.7869 9.56329 3.88148 9.8895L5.21661 9.12438C5.03482 8.84239 4.89306 8.53833 4.79433 8.21924Z" fill="#A5A3AB"/>
<path id="Vector_11" d="M6.52271 14.7805C6.52271 15.454 7.06872 16 7.74226 16C9.35998 15.9358 9.35951 13.6249 7.74226 13.5609C7.06872 13.5609 6.52271 14.1069 6.52271 14.7805Z" fill="#A5A3AB"/>
</g>
</svg>
