<svg width="16" height="16" viewBox="0 0 16 16" fill="none" xmlns="http://www.w3.org/2000/svg">
<g clip-path="url(#clip0_7682_17574)">
<path d="M11.2727 12.2857H9.02273C9.40221 11.955 9.75904 11.6001 10.0909 11.2232C11.3409 9.81696 12 8.33036 12 6.92857C12 5.88665 11.5786 4.8874 10.8284 4.15065C10.0783 3.4139 9.06087 3 8 3C6.93913 3 5.92172 3.4139 5.17157 4.15065C4.42143 4.8874 4 5.88665 4 6.92857C4 8.33036 4.65909 9.81696 5.90909 11.2232C6.24096 11.6001 6.59779 11.955 6.97727 12.2857H4.72727C4.63083 12.2857 4.53834 12.3233 4.47014 12.3903C4.40195 12.4573 4.36364 12.5481 4.36364 12.6429C4.36364 12.7376 4.40195 12.8284 4.47014 12.8954C4.53834 12.9624 4.63083 13 4.72727 13H11.2727C11.3692 13 11.4617 12.9624 11.5299 12.8954C11.5981 12.8284 11.6364 12.7376 11.6364 12.6429C11.6364 12.5481 11.5981 12.4573 11.5299 12.3903C11.4617 12.3233 11.3692 12.2857 11.2727 12.2857ZM8 5.5C8.28768 5.5 8.5689 5.58378 8.8081 5.74076C9.0473 5.89773 9.23373 6.12084 9.34382 6.38188C9.45392 6.64292 9.48272 6.93016 9.4266 7.20727C9.37047 7.48439 9.23194 7.73893 9.02852 7.93872C8.8251 8.13851 8.56592 8.27457 8.28377 8.32969C8.00161 8.38482 7.70915 8.35652 7.44337 8.2484C7.17759 8.14027 6.95042 7.95717 6.79059 7.72224C6.63076 7.48732 6.54545 7.21112 6.54545 6.92857C6.54545 6.54969 6.6987 6.18633 6.97148 5.91842C7.24426 5.65051 7.61423 5.5 8 5.5Z" fill="#A5A3AB"/>
</g>
<defs>
<clipPath id="clip0_7682_17574">
<rect width="16" height="16" fill="white"/>
</clipPath>
</defs>
</svg>
