<svg width="16" height="16" viewBox="0 0 16 16" fill="none" xmlns="http://www.w3.org/2000/svg">
<path d="M15.5342 5.5235H15.0319C14.4104 5.54657 14.4108 6.43849 15.0319 6.46134H15.5342C16.1557 6.4383 16.1552 5.54635 15.5342 5.5235Z" fill="#8E9CCC"/>
<path d="M13.1935 0.135955L12.6407 0.688721C12.4576 0.871851 12.4576 1.16874 12.6407 1.35187C12.8238 1.53494 13.1207 1.53503 13.3039 1.35187L13.8566 0.799105C14.0397 0.615976 14.0397 0.319085 13.8566 0.135955C13.6735 -0.0471745 13.3766 -0.0472058 13.1935 0.135955Z" fill="#8E9CCC"/>
<path d="M13.3039 10.6331C13.1208 10.45 12.8239 10.4499 12.6408 10.6331C12.4576 10.8162 12.4576 11.1131 12.6408 11.2962L13.1935 11.849C13.3766 12.032 13.6735 12.0321 13.8567 11.849C14.0398 11.6658 14.0398 11.369 13.8567 11.1858L13.3039 10.6331Z" fill="#8E9CCC"/>
<path d="M0.968235 5.5235H0.465957C-0.155553 5.54657 -0.155084 6.43849 0.465957 6.46134H0.968235C1.58974 6.4383 1.58928 5.54635 0.968235 5.5235Z" fill="#8E9CCC"/>
<path d="M2.69615 1.35185C2.87932 1.53501 3.17621 1.53492 3.3593 1.35185C3.54243 1.16872 3.54243 0.871827 3.3593 0.688698L2.8066 0.135932C2.6235 -0.047198 2.32658 -0.0471667 2.14345 0.135932C1.96032 0.319062 1.96032 0.615952 2.14345 0.799082L2.69615 1.35185Z" fill="#8E9CCC"/>
<path d="M2.69616 10.6331L2.14343 11.1858C1.96033 11.369 1.96033 11.6658 2.14343 11.849C2.32662 12.0321 2.62351 12.032 2.80658 11.849L3.35931 11.2962C3.54241 11.1131 3.54241 10.8162 3.35931 10.6331C3.17618 10.45 2.87932 10.4499 2.69616 10.6331Z" fill="#8E9CCC"/>
<path d="M6.52657 4.95459C6.22974 4.95459 5.99097 5.19515 5.99097 5.49019V6.02583H7.0622V5.49019C7.06217 5.19399 6.8223 4.95459 6.52657 4.95459Z" fill="#8E9CCC"/>
<path d="M6.02417 14.0288C6.02417 14.8521 6.69288 15.5022 7.49762 15.5022H7.53097V15.5356C7.55405 16.1571 8.44597 16.1566 8.46882 15.5356V15.5022H8.50218C9.3176 15.5022 9.97562 14.8425 9.97562 14.0288V12.9909H6.02417V14.0288Z" fill="#8E9CCC"/>
<path d="M7.99991 0.500916C4.97183 0.500916 2.5083 2.96445 2.5083 5.99253C2.5083 8.30072 3.90972 9.81878 4.93297 10.9272C5.30449 11.3296 5.66221 11.7172 5.86169 12.0531H10.1382C10.3376 11.7173 10.6953 11.3296 11.0669 10.9272C12.0901 9.81875 13.4916 8.30072 13.4916 5.99253C13.4915 2.96445 11.028 0.500916 7.99991 0.500916ZM7.99991 7.49933C7.97684 8.12084 7.08492 8.12037 7.06207 7.49933V6.9637H5.99083V7.4993C5.96776 8.12081 5.07584 8.12034 5.05299 7.4993V5.49022C5.1293 3.52825 7.93292 3.54763 7.99991 5.49022V7.49933ZM10.5113 7.03041C11.1328 7.05348 11.1323 7.9454 10.5113 7.96826H9.00447C8.38296 7.94519 8.38343 7.05326 9.00447 7.03041H9.28895V4.95465H9.00447C8.38296 4.93158 8.38343 4.03965 9.00447 4.0168H10.5113C11.1328 4.03987 11.1323 4.9318 10.5113 4.95465H10.2268V7.03041H10.5113Z" fill="#8E9CCC"/>
</svg>
