<svg width="16" height="16" viewBox="0 0 16 16" fill="none" xmlns="http://www.w3.org/2000/svg">
<path fill-rule="evenodd" clip-rule="evenodd" d="M7.1001 1H9.2501C9.52624 1 9.7501 1.22386 9.7501 1.5V6.33331H12.2732L8.15333 10.9704L4.03418 6.33331H6.6001V1.5C6.6001 1.22386 6.82396 1 7.1001 1ZM13.05 8.69696C12.7739 8.69696 12.55 8.92082 12.55 9.19696V12.2424H3.45V9.19696C3.45 8.92082 3.22614 8.69696 2.95 8.69696H1.5C1.22386 8.69696 1 8.92082 1 9.19696V14.5C1 14.7761 1.22386 15 1.5 15H14.5C14.7761 15 15 14.7761 15 14.5V9.19696C15 8.92082 14.7761 8.69696 14.5 8.69696H13.05Z" fill="#8E9CCC"/>
</svg>
