<svg width="16" height="16" viewBox="0 0 16 16" fill="none" xmlns="http://www.w3.org/2000/svg">
<path d="M9.99645 8.00006C9.4502 8.42262 8.75549 8.67613 8.00009 8.67613C7.2447 8.67613 6.54998 8.42262 6.00362 8C4.80693 8.66258 4 9.90135 4 11.3172V12.703C4 12.867 4.13889 13 4.31029 13H11.6898C11.8612 13 12 12.867 12 12.703V11.3172C12 9.90141 11.1931 8.66264 9.99645 8.00006Z" fill="#A5A3AB"/>
<path d="M10.5 5.5C10.5 4.12152 9.37855 3 8 3C6.62152 3 5.5 4.12152 5.5 5.5C5.5 6.87848 6.62152 8 8 8C9.37855 8 10.5 6.87848 10.5 5.5Z" fill="#A5A3AB"/>
</svg>
