<svg width="28" height="10" viewBox="0 0 28 10" fill="none" xmlns="http://www.w3.org/2000/svg">
<path d="M26.4374 4.5741H23.1611V1.94137C23.1611 1.21517 23.712 0.625 24.3897 0.625H26.4374C27.1152 0.625 27.666 1.21517 27.666 1.94137V3.25773C27.666 3.98393 27.1152 4.5741 26.4374 4.5741Z" fill="white"/>
<path d="M23.1611 5.26546V4.5741H24.0981L23.1611 5.26546Z" fill="white"/>
<path d="M6.09311 3.75165H5.53204C5.3969 3.75165 5.26994 3.82405 5.19418 3.94252L3.41064 6.75077L1.62097 3.94252C1.5452 3.82185 1.41825 3.75165 1.2831 3.75165H0.722037C0.496791 3.75165 0.3125 3.9491 0.3125 4.19044V9.56121C0.3125 9.80255 0.496791 10 0.722037 10H1.52473C1.74997 10 1.93426 9.80255 1.93426 9.56121V7.05573L2.76153 8.33699C2.83729 8.45547 2.96425 8.52567 3.09735 8.52567H3.7178C3.8509 8.52567 3.97785 8.45547 4.05362 8.33699L4.88088 7.0645V9.56121C4.88088 9.80255 5.06517 10 5.29042 10H6.09311C6.31835 10 6.50264 9.80255 6.50264 9.56121V4.19044C6.50264 3.9491 6.31835 3.75165 6.09311 3.75165Z" fill="white"/>
<path d="M11.071 4.03686C11.0116 3.86573 10.858 3.75165 10.688 3.75165H9.5823C9.41234 3.75165 9.26082 3.86354 9.19939 4.03467L7.29095 9.40544C7.18856 9.69285 7.38719 10 7.67386 10H8.45608C8.63218 10 8.7878 9.87934 8.84514 9.70163L10.1229 6.07723L11.3699 9.69724C11.4252 9.87714 11.5829 10 11.759 10H12.574C12.8606 10 13.0572 9.69285 12.9569 9.40764L11.071 4.03686Z" fill="white"/>
<path d="M9.82318 8.69262L9.57414 8.95945C9.4086 9.1368 9.4086 9.42435 9.57414 9.60171L9.82318 9.86854C9.98871 10.0459 10.2571 10.0459 10.4226 9.86854L10.6717 9.60171C10.8372 9.42435 10.8372 9.13681 10.6717 8.95945L10.4226 8.69262C10.2571 8.51526 9.98871 8.51526 9.82318 8.69262Z" fill="white"/>
<path d="M19.5247 3.75165H18.9637C18.8285 3.75165 18.7016 3.82405 18.6258 3.94252L16.8423 6.75077L15.0526 3.94252C14.9768 3.82185 14.8499 3.75165 14.7147 3.75165H14.1537C13.9284 3.75165 13.7441 3.9491 13.7441 4.19044V9.56121C13.7441 9.80255 13.9284 10 14.1537 10H14.9564C15.1816 10 15.3659 9.80255 15.3659 9.56121V7.05573L16.1932 8.33699C16.2689 8.45547 16.3959 8.52567 16.529 8.52567H17.1494C17.2825 8.52567 17.4095 8.45547 17.4853 8.33699L18.3125 7.06451V9.56121C18.3125 9.80255 18.4968 10 18.7221 10H19.5247C19.75 10 19.9343 9.80255 19.9343 9.56121V4.19044C19.9343 3.9491 19.75 3.75165 19.5247 3.75165Z" fill="white"/>
<path d="M24.7195 6.14744H22.4506V4.19044C22.4506 3.9491 22.2664 3.75165 22.0411 3.75165H21.222C20.9968 3.75165 20.8125 3.9491 20.8125 4.19044V9.56121C20.8125 9.80255 20.9968 10 21.222 10H22.0411C22.2664 10 22.4506 9.80255 22.4506 9.56121V7.60422H24.7195C24.9447 7.60422 25.129 7.40676 25.129 7.16543V6.58623C25.129 6.34489 24.9447 6.14744 24.7195 6.14744Z" fill="white"/>
</svg>
