<svg width="24" height="24" viewBox="0 0 24 24" fill="none" xmlns="http://www.w3.org/2000/svg">
<g clip-path="url(#clip0_7466_425)">
<path d="M20.8985 6.63369C20.9654 6.72819 21.0008 6.84094 21 6.95629C21.0008 7.07164 20.9654 7.18439 20.8985 7.27889C20.8317 7.37339 20.7368 7.44496 20.627 7.48365L18.3572 8.29929L17.5331 10.5458C17.4927 10.6535 17.42 10.7463 17.3248 10.8119C17.2295 10.8774 17.1163 10.9126 17.0002 10.9126C16.8842 10.9126 16.771 10.8774 16.6757 10.8119C16.5805 10.7463 16.5078 10.6535 16.4674 10.5458L15.6433 8.29929L13.3735 7.48365C13.2647 7.44369 13.1709 7.37174 13.1047 7.27747C13.0384 7.1832 13.0029 7.07112 13.0029 6.95629C13.0029 6.84146 13.0384 6.72939 13.1047 6.63512C13.1709 6.54084 13.2647 6.4689 13.3735 6.42894L15.6433 5.6133L16.4674 3.36677C16.5078 3.25911 16.5805 3.16627 16.6757 3.10071C16.771 3.03514 16.8842 3 17.0002 3C17.1163 3 17.2295 3.03514 17.3248 3.10071C17.42 3.16627 17.4927 3.25911 17.5331 3.36677L18.3572 5.6133L20.627 6.42894C20.7368 6.46763 20.8317 6.53919 20.8985 6.63369Z" fill="white"/>
<path d="M4.81871 8.39974C4.81871 7.40561 5.63298 6.5997 6.63742 6.5997H11.1842C11.6864 6.5997 12.0936 6.19675 12.0936 5.69969C12.0936 5.20262 11.6864 4.79967 11.1842 4.79967H6.63742C4.62853 4.79967 3 6.41148 3 8.39974V17.3999C3 19.3882 4.62853 21 6.63742 21H15.731C17.7399 21 19.3684 19.3882 19.3684 17.3999V12.8998C19.3684 12.4028 18.9613 11.9998 18.459 11.9998C17.9568 11.9998 17.5497 12.4028 17.5497 12.8998V15.8074L14.5635 11.7151C14.019 10.969 12.8963 10.969 12.3519 11.7151L10.2214 14.6347L9.049 13.2433C8.50369 12.5961 7.49919 12.5961 6.95388 13.2433L4.81871 15.7773V8.39974Z" fill="white"/>
</g>
<defs>
<clipPath id="clip0_7466_425">
<rect width="24" height="24" fill="white"/>
</clipPath>
</defs>
</svg>
