<svg width="20" height="20" viewBox="0 0 20 20" fill="none" xmlns="http://www.w3.org/2000/svg">
<path d="M8.35138 4.54448L9.22724 5.71472H16.6909V3.13843C16.6909 2.85528 16.4614 2.62573 16.1782 2.62573H9.22724L8.35138 1.45549C8.25459 1.32615 8.10249 1.25 7.94092 1.25H3.82227C3.53912 1.25 3.30957 1.47955 3.30957 1.7627V4.33899H7.94092C8.10249 4.33899 8.25459 4.41514 8.35138 4.54448Z" fill="#8E9CCC"/>
<path d="M16.6909 6.73999H8.97058C8.80901 6.73999 8.65691 6.66384 8.56012 6.5345L7.68426 5.36426H3.30957V9.48718H16.6909V6.73999Z" fill="#8E9CCC"/>
<path d="M2.21582 11.0254V18.2373C2.21582 18.5204 2.44537 18.75 2.72852 18.75H17.2722C17.5553 18.75 17.7849 18.5204 17.7849 18.2373V11.0254C17.7849 10.7422 17.5553 10.5127 17.2722 10.5127H2.72852C2.44537 10.5127 2.21582 10.7422 2.21582 11.0254ZM15.1487 16.6907H13.0893C12.8062 16.6907 12.5766 16.4611 12.5766 16.178C12.5766 15.8948 12.8062 15.6653 13.0893 15.6653H15.1487C15.4318 15.6653 15.6614 15.8948 15.6614 16.178C15.6614 16.4611 15.4318 16.6907 15.1487 16.6907Z" fill="#8E9CCC"/>
</svg>
