<svg width="18" height="22" viewBox="0 0 18 22" fill="none" xmlns="http://www.w3.org/2000/svg">
<g clip-path="url(#clip0_8581_20973)">
<path fill-rule="evenodd" clip-rule="evenodd" d="M4.39299 2.6017C4.61001 2.33139 4.74046 1.98426 4.74046 1.60566C4.74046 0.743386 4.06375 0.0443726 3.22901 0.0443726C2.39426 0.0443726 1.71756 0.743386 1.71756 1.60566C1.71756 2.46794 2.39426 3.16695 3.22901 3.16695C3.44708 3.16695 3.65436 3.11925 3.84161 3.03339L5.04484 4.32337C2.05712 5.83569 0 9.00801 0 12.6766C0 15.1478 0.933817 17.3944 2.45608 19.0591L0.626088 21.3954L0.173297 21.9733H0.89313H8.8626H9H9.69417L9.66955 21.9481C14.3275 21.5942 18 17.5784 18 12.6766C18 9.51381 16.471 6.7199 14.1349 5.04052L15.3126 3.82392C15.5165 3.94763 15.7541 4.01857 16.0076 4.01857C16.7665 4.01857 17.3817 3.38309 17.3817 2.59921C17.3817 1.81533 16.7665 1.17986 16.0076 1.17986C15.2487 1.17986 14.6336 1.81533 14.6336 2.59921C14.6336 2.86375 14.7037 3.11139 14.8257 3.32339L13.5423 4.64904C12.209 3.8423 10.6568 3.37986 9 3.37986C7.84063 3.37986 6.73247 3.6063 5.7147 4.01871L4.39299 2.6017ZM1.45816 9.05982C0.963302 10.159 0.687023 11.3845 0.687023 12.6766C0.687023 15.0663 1.63154 17.2274 3.15683 18.7846L3.37805 19.0104L3.18241 19.2601L1.61296 21.2637H8.03102L8.01659 21.2489L8.8669 21.2627C8.91117 21.2634 8.95555 21.2637 9 21.2637C10.6511 21.2637 12.1897 20.7665 13.4833 19.9092C12.751 20.0988 11.9866 20.1991 11.2005 20.1991C5.81144 20.1991 1.44275 15.4795 1.44275 9.65751C1.44275 9.45692 1.44793 9.25765 1.45816 9.05982ZM3.58221 6.16351C3.23608 7.16298 3.04675 8.2457 3.04675 9.3764C3.04675 14.4221 6.817 18.5125 11.4678 18.5125C13.2374 18.5125 14.8795 17.9204 16.2349 16.9086C16.9211 15.6596 17.313 14.2154 17.313 12.6766C17.313 7.93411 13.5911 4.08953 9 4.08953C6.9303 4.08953 5.03725 4.87085 3.58221 6.16351ZM11.8855 9.41211C11.8855 10.5096 11.3318 11.3992 10.6489 11.3992C9.96587 11.3992 9.41221 10.5096 9.41221 9.41211C9.41221 8.31467 9.96587 7.42502 10.6489 7.42502C11.3318 7.42502 11.8855 8.31467 11.8855 9.41211ZM14.771 11.6831C15.3022 11.6831 15.7328 10.9841 15.7328 10.1218C15.7328 9.25952 15.3022 8.5605 14.771 8.5605C14.2398 8.5605 13.8092 9.25952 13.8092 10.1218C13.8092 10.9841 14.2398 11.6831 14.771 11.6831Z" fill="white"/>
</g>
<defs>
<clipPath id="clip0_8581_20973">
<rect width="18" height="22" fill="white"/>
</clipPath>
</defs>
</svg>
