<svg width="24" height="24" viewBox="0 0 24 24" fill="none" xmlns="http://www.w3.org/2000/svg">
<path d="M15.9477 17.4668H3.31055V7.98892C3.31055 5.37462 5.43516 3.25 8.04947 3.25H15.9477C18.562 3.25 20.6866 5.37462 20.6866 7.98892V12.7278C20.6866 15.3421 18.562 17.4668 15.9477 17.4668Z" fill="#8E9CCC"/>
<path d="M3.31055 19.9557V17.4668H6.92447L3.31055 19.9557Z" fill="#8E9CCC"/>
<path fill-rule="evenodd" clip-rule="evenodd" d="M9 10C9 10.5523 8.55228 11 8 11C7.44772 11 7 10.5523 7 10C7 9.44772 7.44772 9 8 9C8.55228 9 9 9.44772 9 10ZM13 10C13 10.5523 12.5523 11 12 11C11.4477 11 11 10.5523 11 10C11 9.44772 11.4477 9 12 9C12.5523 9 13 9.44772 13 10ZM16 11C16.5523 11 17 10.5523 17 10C17 9.44772 16.5523 9 16 9C15.4477 9 15 9.44772 15 10C15 10.5523 15.4477 11 16 11Z" fill="white"/>
</svg>
