<svg width="16" height="14" viewBox="0 0 16 14" fill="none" xmlns="http://www.w3.org/2000/svg">
<path fill-rule="evenodd" clip-rule="evenodd" d="M13.6179 10.3448L16 6.40395L14.6653 6.41883C14.4271 2.79454 11.5512 0 7.9851 0C6.30638 0 4.76959 0.639331 3.59271 1.69416L5.105 3.35415C5.88507 2.68 6.89011 2.27371 7.9851 2.27371C10.3111 2.27371 12.2132 4.06969 12.4479 6.41524L10.8576 6.41883L13.6179 10.3448ZM8.0149 11.5194C9.17196 11.5194 10.2286 11.0658 11.0255 10.3218L12.4978 12.0164C11.3097 13.1203 9.73699 13.7931 8.0149 13.7931C4.44883 13.7931 1.57285 10.9986 1.33465 7.3743L0 7.38918L2.38205 3.44829L5.14243 7.3743L3.55206 7.37789C3.78676 9.72344 5.6889 11.5194 8.0149 11.5194Z" fill="#3870F3"/>
</svg>
