<svg width="24" height="24" viewBox="0 0 24 24" fill="none" xmlns="http://www.w3.org/2000/svg">
<path d="M18.2 4H5.8C5.32261 4 4.86477 4.1873 4.52721 4.5207C4.18964 4.8541 4 5.30628 4 5.77778V18.2222C4 18.6937 4.18964 19.1459 4.52721 19.4793C4.86477 19.8127 5.32261 20 5.8 20H18.2C18.6774 20 19.1352 19.8127 19.4728 19.4793C19.8104 19.1459 20 18.6937 20 18.2222V5.77778C20 5.30628 19.8104 4.8541 19.4728 4.5207C19.1352 4.1873 18.6774 4 18.2 4ZM11.1 16.4444H6.7V14.6667H11.1V16.4444ZM17.3 12.8889H6.7V11.1111H17.3V12.8889ZM17.3 9.33333H6.7V7.55556H17.3V9.33333Z" fill="#8E9CCC"/>
</svg>
