<svg width="16" height="16" viewBox="0 0 16 16" fill="none" xmlns="http://www.w3.org/2000/svg">
<path fill-rule="evenodd" clip-rule="evenodd" d="M13.25 1H2.75C2.63508 0.999935 2.52126 1.02252 2.41508 1.06647C2.30889 1.11042 2.2124 1.17487 2.13114 1.25614C2.04987 1.3374 1.98542 1.43389 1.94147 1.54008C1.89752 1.64626 1.87494 1.76008 1.875 1.875V14.125C1.87494 14.2399 1.89752 14.3537 1.94147 14.4599C1.98542 14.5661 2.04987 14.6626 2.13114 14.7439C2.2124 14.8251 2.30889 14.8896 2.41508 14.9335C2.52126 14.9775 2.63508 15.0001 2.75 15H13.25C13.3649 15.0001 13.4787 14.9775 13.5849 14.9335C13.6911 14.8896 13.7876 14.8251 13.8689 14.7439C13.9501 14.6626 14.0146 14.5661 14.0585 14.4599C14.1025 14.3537 14.1251 14.2399 14.125 14.125V1.875C14.1251 1.76008 14.1025 1.64626 14.0585 1.54008C14.0146 1.43389 13.9501 1.3374 13.8689 1.25614C13.7876 1.17487 13.6911 1.11042 13.5849 1.06647C13.4787 1.02252 13.3649 0.999935 13.25 1ZM6.25 6.25H9.75C9.98206 6.25 10.2046 6.15781 10.3687 5.99372C10.5328 5.82962 10.625 5.60706 10.625 5.375C10.625 5.14294 10.5328 4.92038 10.3687 4.75628C10.2046 4.59219 9.98206 4.5 9.75 4.5H6.25C6.01794 4.5 5.79538 4.59219 5.63128 4.75628C5.46719 4.92038 5.375 5.14294 5.375 5.375C5.375 5.60706 5.46719 5.82962 5.63128 5.99372C5.79538 6.15781 6.01794 6.25 6.25 6.25ZM9.75 9.75H6.25C6.01794 9.75 5.79538 9.65781 5.63128 9.49372C5.46719 9.32962 5.375 9.10706 5.375 8.875C5.375 8.64294 5.46719 8.42038 5.63128 8.25628C5.79538 8.09219 6.01794 8 6.25 8H9.75C9.98206 8 10.2046 8.09219 10.3687 8.25628C10.5328 8.42038 10.625 8.64294 10.625 8.875C10.625 9.10706 10.5328 9.32962 10.3687 9.49372C10.2046 9.65781 9.98206 9.75 9.75 9.75Z" fill="#3870F3"/>
</svg>
