<svg width="32" height="32" viewBox="0 0 32 32" fill="none" xmlns="http://www.w3.org/2000/svg">
<path d="M13.0983 2.11669C14.8272 0.855506 17.1728 0.855506 18.9017 2.11669C19.747 2.73325 20.7666 3.06456 21.8129 3.06257C23.9529 3.05849 25.8505 4.4372 26.508 6.47376C26.8294 7.46939 27.4596 8.33676 28.3071 8.9501C30.0409 10.2047 30.7657 12.4355 30.1005 14.4695C29.7753 15.4639 29.7753 16.5361 30.1005 17.5305C30.7657 19.5645 30.0409 21.7953 28.3071 23.0499C27.4595 23.6632 26.8294 24.5306 26.508 25.5262C25.8505 27.5628 23.9529 28.9415 21.8129 28.9374C20.7666 28.9354 19.747 29.2667 18.9017 29.8833C17.1728 31.1445 14.8272 31.1445 13.0983 29.8833C12.253 29.2667 11.2334 28.9354 10.1871 28.9374C8.04711 28.9415 6.14947 27.5628 5.49204 25.5262C5.17063 24.5306 4.54045 23.6632 3.69287 23.0499C1.95915 21.7953 1.23431 19.5645 1.8995 17.5305C2.22469 16.5361 2.22469 15.4639 1.8995 14.4695C1.23431 12.4355 1.95915 10.2047 3.69287 8.9501C4.54045 8.33676 5.17063 7.46939 5.49204 6.47376C6.14947 4.4372 8.04711 3.05849 10.1872 3.06257C11.2334 3.06456 12.253 2.73325 13.0983 2.11669Z" fill="#0DDD9F"/>
<mask id="mask0_8154_27882" style="mask-type:alpha" maskUnits="userSpaceOnUse" x="0" y="0" width="32" height="32">
<path d="M12.9169 1.24898C14.7539 -0.0910252 17.2461 -0.0910251 19.0831 1.24898C19.9812 1.90408 21.0645 2.25609 22.1762 2.25398C24.45 2.24965 26.4662 3.71453 27.1647 5.87837C27.5062 6.93623 28.1758 7.85781 29.0763 8.50949C30.9184 9.84249 31.6885 12.2127 30.9818 14.3739C30.6363 15.4304 30.6363 16.5696 30.9818 17.6261C31.6885 19.7873 30.9184 22.1575 29.0763 23.4905C28.1758 24.1422 27.5062 25.0638 27.1647 26.1216C26.4662 28.2855 24.4499 29.7504 22.1762 29.746C21.0645 29.7439 19.9812 30.0959 19.0831 30.751C17.2461 32.091 14.7539 32.091 12.9169 30.751C12.0188 30.0959 10.9355 29.7439 9.82385 29.746C7.55005 29.7504 5.53382 28.2855 4.83529 26.1216C4.4938 25.0638 3.82423 24.1422 2.92368 23.4905C1.08159 22.1575 0.311459 19.7873 1.01822 17.6261C1.36374 16.5696 1.36374 15.4304 1.01822 14.3739C0.311459 12.2127 1.08159 9.84249 2.92368 8.50949C3.82423 7.85781 4.4938 6.93623 4.83529 5.87837C5.53382 3.71453 7.55005 2.24965 9.82385 2.25398C10.9355 2.25609 12.0188 1.90408 12.9169 1.24898Z" fill="#A5A3AB"/>
</mask>
<g mask="url(#mask0_8154_27882)">
<path d="M11.2025 12.0332L10.2042 19.9665H8.5766L6.20405 14.6811L5.53897 19.9665H4.10059L5.09887 12.0332H6.72652L9.09775 17.3291L9.76415 12.0332H11.2025Z" fill="white"/>
<path d="M17.3257 12.0332L17.1545 13.3938H13.7005L13.4727 15.2044H16.4251L16.2539 16.565H13.3014L13.0446 18.6059H16.4986L16.3274 19.9665H11.435L12.4333 12.0332H17.3257Z" fill="white"/>
<path d="M27.9006 12.0332L25.0286 19.9665H23.789L22.8088 14.6707L20.6851 19.9665H19.4454L18.1158 12.0332H19.6299L20.4308 17.0988L22.3445 12.0437H23.9153L24.6324 17.0988L26.3865 12.0332H27.9006Z" fill="white"/>
</g>
<path d="M13.2116 1.65293C14.873 0.440992 17.127 0.440992 18.7884 1.65293C19.7723 2.37064 20.9593 2.75629 22.1771 2.75397C24.2336 2.75006 26.0571 4.07494 26.6889 6.03198C27.063 7.19093 27.7966 8.2006 28.7832 8.91455C30.4492 10.1202 31.1458 12.2638 30.5065 14.2185C30.128 15.376 30.128 16.624 30.5065 17.7815C31.1458 19.7361 30.4492 21.8798 28.7832 23.0854C27.7966 23.7994 27.063 24.8091 26.6889 25.968C26.0571 27.9251 24.2336 29.2499 22.1771 29.246C20.9593 29.2437 19.7723 29.6294 18.7884 30.3471C17.127 31.559 14.873 31.559 13.2116 30.3471C12.2277 29.6294 11.0407 29.2437 9.8229 29.246C7.76641 29.2499 5.94288 27.9251 5.31111 25.968C4.93698 24.8091 4.20342 23.7994 3.2168 23.0854C1.55077 21.8798 0.85424 19.7361 1.49345 17.7815C1.87199 16.624 1.87199 15.376 1.49345 14.2185C0.85424 12.2639 1.55077 10.1202 3.2168 8.91455C4.20342 8.2006 4.93698 7.19093 5.31111 6.03198C5.94288 4.07494 7.76641 2.75006 9.82289 2.75397C11.0407 2.75629 12.2277 2.37064 13.2116 1.65293Z" stroke="#01A977"/>
</svg>
