<svg width="20" height="20" viewBox="0 0 20 20" fill="none" xmlns="http://www.w3.org/2000/svg">
<path d="M17.3645 10.9143L16.4461 9.57925C16.1757 9.18584 16.0647 8.70938 16.1337 8.23701C16.3265 6.91459 16.1002 5.68927 15.461 4.59586C14.1222 2.30434 11.2148 1.10127 8.52286 1.26472C6.89453 1.36384 5.45932 1.9367 4.37274 2.92176C2.31272 4.78833 1.85334 8.0699 3.30428 10.5544C3.72954 11.2791 4.62806 12.6796 4.62806 14.8867V18.2373C4.62806 18.5203 4.85741 18.75 5.14076 18.75H11.3355C11.5864 18.75 11.8004 18.5685 11.8414 18.321L12.0256 17.2088C12.0536 17.0393 12.1159 16.8684 12.5305 16.8028C12.9235 16.7406 13.4437 16.8103 13.8618 16.866C14.2722 16.9215 15.0298 17.0815 15.6774 16.4128C16.0322 16.046 16.201 15.5453 16.1405 15.0387L15.8907 12.9388L16.9957 12.3727C17.5319 12.0982 17.7071 11.4127 17.3645 10.9143ZM12.6969 8.67109C12.6969 8.8543 12.5988 9.02349 12.4402 9.11509C12.4402 9.11509 9.58329 10.7629 9.58278 10.7632C9.42624 10.8535 9.2283 10.8524 9.07042 10.7632L6.19487 9.10518C6.03627 9.01358 5.93818 8.84439 5.93818 8.66118C5.93818 8.66118 5.93818 5.36152 5.93818 5.36012C5.93818 5.18358 6.03648 5.00086 6.19487 4.91613L9.05231 3.26831C9.2109 3.17705 9.40607 3.17705 9.56467 3.26831C9.56467 3.26831 12.4375 4.92477 12.4406 4.92672C12.5955 5.02331 12.6969 5.1857 12.6969 5.37072V8.67109Z" fill="#8E9CCC"/>
<path d="M8.81401 7.31452V9.43161L6.96387 8.36486V6.2478L7.01855 6.27925L8.81401 7.31452Z" fill="#8E9CCC"/>
<path d="M11.6712 6.25806V8.37477L9.83887 9.43161V7.31452L11.6712 6.25806Z" fill="#8E9CCC"/>
<path d="M11.158 5.37061L9.32666 6.42642L7.47754 5.36001L9.30889 4.3042L11.158 5.37061Z" fill="#8E9CCC"/>
</svg>
