<svg width="24" height="20" viewBox="0 0 24 20" fill="none" xmlns="http://www.w3.org/2000/svg">
<rect x="0.5" y="0.5" width="23" height="19" rx="3.5" fill="#1B2934" fill-opacity="0.1"/>
<rect x="0.5" y="0.5" width="23" height="19" rx="3.5" stroke="#57555C"/>
<path d="M10.1181 9.59856C11.3501 9.59856 12.3524 8.59624 12.3524 7.36426C12.2401 4.40422 7.99568 4.40502 7.88379 7.36429C7.88379 8.59624 8.88609 9.59856 10.1181 9.59856Z" fill="#57555C"/>
<path d="M11.3221 13.7665V11.8837C11.3221 11.1917 11.6006 10.5536 12.0595 10.0871C9.39248 8.60521 5.95857 10.6496 6.00038 13.7165C6.00033 13.7165 6.00033 14.8961 6.00033 14.8961C6.00033 15.4974 6.4866 16.0008 7.10498 16.0008H12.3548C11.7233 15.4616 11.3221 14.6601 11.3221 13.7665Z" fill="#57555C"/>
<path d="M16.493 10.0592V5.48218C16.493 5.38893 16.456 5.29952 16.39 5.23361L15.2604 4.10396C15.1945 4.03803 15.105 4.00098 15.0118 4.00098C14.9186 4.00098 14.8292 4.03801 14.7632 4.10396L13.6336 5.23361C13.4963 5.37088 13.4963 5.59348 13.6336 5.73078L13.9498 6.04701L13.6335 6.36327C13.4963 6.50056 13.4963 6.72314 13.6335 6.86043L13.9498 7.17666L13.6336 7.49287C13.4963 7.63014 13.4963 7.85272 13.6336 7.99004L13.9498 8.30629L13.6336 8.62253C13.5677 8.68843 13.5306 8.77786 13.5306 8.8711V10.0591C12.6738 10.2239 12.0244 10.9793 12.0244 11.8835V13.7663C12.0244 14.9983 13.0267 16.0006 14.2587 16.0006H15.7649C16.9969 16.0006 17.9992 14.9983 17.9992 13.7663V11.8835C17.9992 10.9793 17.3499 10.2239 16.493 10.0592ZM15.0118 14.1679C14.5828 14.1679 14.2337 13.8188 14.2337 13.3897C14.2728 12.3589 15.751 12.3592 15.7899 13.3897C15.7899 13.8188 15.4408 14.1679 15.0118 14.1679Z" fill="#57555C"/>
</svg>
