<svg width="20" height="20" viewBox="0 0 20 20" fill="none" xmlns="http://www.w3.org/2000/svg">
<rect x="0.25" y="0.25" width="19.5" height="19.5" rx="9.75" stroke="#A5A3AB" stroke-width="0.5"/>
<path d="M12.2222 10.4286C12.2222 10.6648 12.0352 10.8571 11.8056 10.8571C11.5759 10.8571 11.3889 10.6648 11.3889 10.4286C11.3889 10.1923 11.5764 10 11.8056 10C12.0347 10 12.2222 10.1929 12.2222 10.4286ZM8.24306 10.4286H8.97917L8.61111 9.67321L8.24306 10.4286ZM15 7.14286V12.8571C15 13.4884 14.5026 14 13.8889 14H6.11111C5.4974 14 5 13.4884 5 12.8571V7.14286C5 6.51161 5.4974 6 6.11111 6H13.8889C14.5017 6 15 6.51161 15 7.14286ZM10.2344 11.0946L8.98438 8.52321C8.84332 8.23304 8.38003 8.23304 8.23889 8.52321L6.98889 11.0946C6.8858 11.3064 6.96936 11.5638 7.17552 11.6696C7.38177 11.7762 7.63177 11.6897 7.73438 11.478L7.89583 11.1429H9.32639L9.48901 11.4773C9.5625 11.6268 9.70833 11.7143 9.86111 11.7143C9.92351 11.7143 9.98698 11.6998 10.0467 11.6691C10.2535 11.5625 10.3368 11.3054 10.2344 11.0946ZM13.0556 8.71429C13.0556 8.47768 12.8689 8.30179 12.6389 8.30179C12.4089 8.30179 12.2222 8.47857 12.2222 8.71429V9.22161C12.092 9.17321 11.9531 9.14286 11.8056 9.14286C11.1146 9.14286 10.5556 9.71786 10.5556 10.4286C10.5556 11.1393 11.1146 11.7143 11.8056 11.7143C11.9984 11.7143 12.179 11.6656 12.342 11.5853C12.4176 11.6646 12.5224 11.7143 12.6389 11.7143C12.8689 11.7143 13.0556 11.5223 13.0556 11.2857V8.71429Z" fill="black"/>
</svg>
