<svg width="16" height="16" viewBox="0 0 16 16" fill="none" xmlns="http://www.w3.org/2000/svg">
<g clip-path="url(#clip0_7938_147)">
<path d="M13.4095 11.75L16 7.46429L14.5486 7.48047C14.2895 3.53906 11.1619 0.5 7.28381 0.5C3.26857 0.5 0 3.86328 0 8C0 12.1367 3.26857 15.5 7.28381 15.5C8.92572 15.5 10.4762 14.9492 11.7676 13.9102L12.0533 13.6797L10.4076 11.875L10.1714 12.0547C9.32952 12.6914 8.33143 13.0273 7.28381 13.0273C4.59429 13.0273 2.40381 10.7734 2.40381 8C2.40381 5.22656 4.59429 2.97266 7.28381 2.97266C9.81333 2.97266 11.8819 4.92578 12.1371 7.47656L10.4076 7.48047L13.4095 11.75Z" fill="#3870F3"/>
</g>
<defs>
<clipPath id="clip0_7938_147">
<rect width="16" height="16" fill="white"/>
</clipPath>
</defs>
</svg>
