<svg width="16" height="16" viewBox="0 0 16 16" fill="none" xmlns="http://www.w3.org/2000/svg">
<path fill-rule="evenodd" clip-rule="evenodd" d="M9.2 15C9.64187 15 10 14.5896 10 14.0833V1.91667C10 1.41042 9.64181 1 9.2 1H6.8C6.35819 1 6 1.41042 6 1.91667V14.0833C6 14.5896 6.35819 15 6.8 15H9.2ZM8.3 3C8.41046 3 8.5 3.08954 8.5 3.2V5.79747C8.5 5.90891 8.40892 5.99886 8.29749 5.99746L8.04792 5.99433C7.93845 5.99295 7.85043 5.90382 7.85043 5.79434V3.63587L7.3966 3.8119C7.29333 3.85196 7.17718 3.80045 7.13753 3.69703L7.07083 3.52305C7.03159 3.4207 7.08204 3.30584 7.18396 3.2655L7.81923 3.01404C7.84267 3.00476 7.86764 3 7.89284 3H8.3ZM4.2 3C4.64181 3 5 3.40296 5 3.9V14.1C5 14.597 4.64181 15 4.2 15H1.8C1.35819 15 1 14.597 1 14.1V3.9C1 3.40296 1.35819 3 1.8 3H4.2ZM2.18139 7.40075C2.13957 7.4411 2.11846 7.49818 2.12265 7.55613L2.14132 7.81442C2.14888 7.91901 2.23594 8 2.3408 8H3.8C3.91046 8 4 7.91046 4 7.8V7.66487C4 7.55441 3.91046 7.46487 3.8 7.46487H3.00193C3.47002 7.07973 3.96132 6.64189 3.96132 6.04189C3.96132 5.42973 3.55513 5 2.97872 5C2.63655 5 2.29157 5.20235 2.09136 5.50727C2.03225 5.59729 2.07718 5.71339 2.1746 5.7593L2.31156 5.82383C2.414 5.8721 2.53471 5.82211 2.61342 5.74069C2.71212 5.6386 2.84542 5.57568 2.97872 5.57568C3.21083 5.57568 3.37331 5.76622 3.37331 6.04189C3.37331 6.35881 3.03561 6.64959 2.63454 6.99495L2.63452 6.99496L2.63449 6.99499C2.48747 7.12159 2.33193 7.25551 2.18139 7.40075ZM15 6.83333V14.1667C15 14.6269 14.6419 15 14.2 15H11.8C11.3582 15 11 14.6269 11 14.1667V6.83333C11 6.37311 11.3582 6 11.8 6H14.2C14.6418 6 15 6.37311 15 6.83333ZM14 10.1434C14 9.89008 13.8189 9.60054 13.5623 9.44772C13.7925 9.30295 13.9547 9.03351 13.9547 8.80027C13.9547 8.32976 13.5698 8 13.0264 8C12.5507 8 12.1988 8.2638 12.1116 8.662C12.0879 8.76989 12.1801 8.86059 12.2906 8.86059H12.4642C12.5746 8.86059 12.6582 8.76188 12.7246 8.67362C12.7877 8.58985 12.8954 8.53887 13.0264 8.53887C13.2528 8.53887 13.4113 8.67158 13.4113 8.86059C13.4113 9.06568 13.2491 9.21046 13.0151 9.21046C12.9067 9.21046 12.8189 9.29831 12.8189 9.40668V9.50435C12.8189 9.60855 12.9033 9.69303 13.0075 9.69303C13.2679 9.69303 13.4528 9.85389 13.4528 10.0831C13.4528 10.3043 13.2642 10.4611 13 10.4611C12.8312 10.4611 12.6953 10.3891 12.6253 10.2738C12.5679 10.1793 12.484 10.0831 12.3736 10.0831H12.2C12.0895 10.0831 11.9975 10.1736 12.0198 10.2818C12.1083 10.7126 12.4867 11 13 11C13.5887 11 14 10.6461 14 10.1434Z" fill="#8E9CCC"/>
</svg>
