<svg width="16" height="16" viewBox="0 0 16 16" fill="none" xmlns="http://www.w3.org/2000/svg">
<path fill-rule="evenodd" clip-rule="evenodd" d="M4 0C1.79086 0 0 1.79086 0 4V12C0 14.2091 1.79086 16 4 16H12C14.2091 16 16 14.2091 16 12V4C16 1.79086 14.2091 0 12 0H4ZM8.00001 13.2522C8.68845 13.2522 9.24659 12.6941 9.24659 12.0057V8.00001C9.24659 7.31156 8.68845 6.75343 8.00001 6.75343C7.31157 6.75343 6.75344 7.31156 6.75344 8.00001V12.0057C6.75344 12.6941 7.31157 13.2522 8.00001 13.2522ZM6.75344 3.99434C6.75344 4.68245 7.31199 5.24092 8.00001 5.24092C8.68804 5.24092 9.24659 4.68237 9.24659 3.99434C9.24659 3.30623 8.68804 2.74777 8.00001 2.74777C7.31199 2.74777 6.75344 3.30623 6.75344 3.99434Z" fill="#8E9CCC"/>
</svg>
