<svg width="20" height="20" viewBox="0 0 20 20" fill="none" xmlns="http://www.w3.org/2000/svg">
<path d="M9.99996 2C5.58854 2 2 5.58854 2 9.99996C2 11.3758 2.35158 12.7187 3.01908 13.9097L2.04598 16.8298C1.9427 17.1379 2.01647 17.4765 2.23698 17.7152C2.46323 17.9599 2.80112 18.0506 3.10417 17.973L6.40537 17.1484C7.51476 17.7065 8.74995 17.9999 9.99996 17.9999C14.4114 17.9999 17.9999 14.4114 17.9999 9.99996C17.9999 5.58854 14.4114 2 9.99996 2ZM9.99996 14.4444C9.50906 14.4444 9.11107 14.0464 9.11107 13.5555C9.11107 13.0646 9.50906 12.6666 9.99996 12.6666C10.4909 12.6666 10.8888 13.0646 10.8888 13.5555C10.8888 14.0464 10.4909 14.4444 9.99996 14.4444ZM11.2404 10.5833C11.0304 10.6944 10.8888 10.9791 10.8888 11.2925C10.8888 11.7838 10.4913 12.1814 9.99996 12.1814C9.50864 12.1814 9.11107 11.7838 9.11107 11.2925C9.11107 10.3064 9.61021 9.43226 10.4123 9.01039C10.7066 8.85584 10.8888 8.5538 10.8888 8.22219C10.8888 7.73176 10.4904 7.3333 9.99996 7.3333C9.50953 7.3333 9.11107 7.73176 9.11107 8.22219C9.11107 8.7135 8.7135 9.11107 8.22219 9.11107C7.73087 9.11107 7.3333 8.7135 7.3333 8.22219C7.3333 6.75174 8.5295 5.55554 9.99996 5.55554C11.4704 5.55554 12.6666 6.75174 12.6666 8.22219C12.6666 9.21608 12.1197 10.1206 11.2404 10.5833Z" fill="#1B2934"/>
</svg>
