<svg width="16" height="16" viewBox="0 0 16 16" fill="none" xmlns="http://www.w3.org/2000/svg">
<path d="M3.90625 2C3.78646 2 3.67188 2.02578 3.5625 2.07733C3.39062 2.1518 3.25391 2.26922 3.15234 2.42961C3.05078 2.59 3 2.76757 3 2.96233V13.0377C3 13.2324 3.05078 13.41 3.15234 13.5704C3.25391 13.7308 3.39062 13.8482 3.5625 13.9227C3.66146 13.9685 3.77604 13.9914 3.90625 13.9914C4.15625 13.9914 4.3724 13.8998 4.55469 13.7165L8 10.0734L11.4453 13.7165C11.6328 13.9055 11.849 14 12.0938 14C12.2135 14 12.3281 13.9742 12.4375 13.9227C12.6094 13.8482 12.7461 13.7308 12.8477 13.5704C12.9492 13.41 13 13.2324 13 13.0377V2.96233C13 2.76757 12.9492 2.59 12.8477 2.42961C12.7461 2.26922 12.6094 2.1518 12.4375 2.07733C12.3281 2.02578 12.2135 2 12.0938 2H3.90625Z" fill="#8E9CCC"/>
</svg>
