<svg width="20" height="20" viewBox="0 0 20 20" fill="none" xmlns="http://www.w3.org/2000/svg">
<path d="M18.2373 7.74243H17.1436C16.8604 7.74243 16.6309 7.97198 16.6309 8.25513V15.7747C16.6309 16.0578 16.8604 16.2874 17.1436 16.2874H18.2373C18.5204 16.2874 18.75 16.0578 18.75 15.7747V8.25513C18.75 7.97198 18.5204 7.74243 18.2373 7.74243Z" fill="#8E9CCC"/>
<path d="M11.1637 4.50676L12.0182 3.02674C12.207 2.69978 12.0949 2.28169 11.768 2.09292L11.176 1.75112C10.849 1.56235 10.4309 1.67439 10.2422 2.00135L9.3877 3.48137L11.1637 4.50676Z" fill="#8E9CCC"/>
<path d="M1.85899 13.2573C2.15194 13.4243 2.52577 13.3153 2.69437 13.0232L6.88415 5.76633C6.49331 5.67347 6.07618 5.75608 5.74795 6.00224L4.29644 7.09086C3.87405 7.40767 3.52309 7.8099 3.26647 8.27133L1.40221 11.6235C1.08219 12.199 1.28292 12.9248 1.85314 13.254C1.85509 13.2551 1.85704 13.2562 1.85899 13.2573Z" fill="#8E9CCC"/>
<path d="M4.89942 11.5072H7.12219L10.6512 5.39478L8.87513 4.36938L4.75098 11.5127C4.80009 11.5094 4.84948 11.5072 4.89942 11.5072Z" fill="#8E9CCC"/>
<path d="M2.9058 14.7083L2.37536 15.627C2.35041 15.6702 2.33192 15.7168 2.32043 15.7654L1.83129 17.8344C1.73767 18.2303 2.2156 18.5063 2.51174 18.2272L4.05898 16.7692C4.09528 16.7349 4.12642 16.6956 4.15137 16.6524L4.57076 15.926C3.83859 15.817 3.22213 15.3495 2.9058 14.7083Z" fill="#8E9CCC"/>
<path d="M8.97879 15.9504H5.74017L5.06348 17.1225C5.28106 17.348 5.58619 17.4885 5.92429 17.4885C6.58499 17.4885 7.12058 16.9529 7.12058 16.2922C7.12058 16.9529 7.65618 17.4885 8.31687 17.4885C8.97756 17.4885 9.51316 16.9529 9.51316 16.2922V16.2141C9.38905 16.1573 9.10485 16.013 8.97879 15.9504Z" fill="#8E9CCC"/>
<path d="M11.0195 6.80762L8.30617 11.5072H9.11172C9.39486 11.5072 9.62441 11.7367 9.62441 12.0198C9.62441 12.303 9.39493 12.5325 9.11179 12.5325H4.89941C4.23872 12.5325 3.70312 13.0681 3.70312 13.7288C3.70312 14.3895 4.23872 14.9251 4.89941 14.9251H9.22137L9.78841 15.2084C10.7588 15.6936 11.8457 15.9505 12.9317 15.9505C13.8314 15.9505 14.7615 15.7737 15.6059 15.4373V8.77268H14.7979L11.0195 6.80762Z" fill="#8E9CCC"/>
</svg>
