<svg width="17" height="16" viewBox="0 0 17 16" fill="none" xmlns="http://www.w3.org/2000/svg">
<g clip-path="url(#clip0_8074_34859)">
<path fill-rule="evenodd" clip-rule="evenodd" d="M14.1179 11.3448L16.5 7.40395L15.1653 7.41883C14.9271 3.79454 12.0512 1 8.4851 1C6.80638 1 5.26959 1.63933 4.09271 2.69416L5.605 4.35415C6.38508 3.68 7.39011 3.27371 8.4851 3.27371C10.8111 3.27371 12.7132 5.06969 12.9479 7.41524L11.3576 7.41883L14.1179 11.3448ZM8.5149 12.5194C9.67196 12.5194 10.7286 12.0658 11.5255 11.3218L12.9978 13.0164C11.8097 14.1203 10.237 14.7931 8.5149 14.7931C4.94883 14.7931 2.07285 11.9986 1.83465 8.3743L0.5 8.38918L2.88205 4.44829L5.64243 8.3743L4.05206 8.37789C4.28676 10.7234 6.1889 12.5194 8.5149 12.5194Z" fill="white"/>
</g>
<defs>
<clipPath id="clip0_8074_34859">
<rect width="16" height="16" fill="white" transform="translate(0.5)"/>
</clipPath>
</defs>
</svg>
