<svg width="24" height="20" viewBox="0 0 24 20" fill="none" xmlns="http://www.w3.org/2000/svg">
<rect x="0.5" y="0.5" width="23" height="19" rx="3.5" fill="#382BB4" fill-opacity="0.1"/>
<rect x="0.5" y="0.5" width="23" height="19" rx="3.5" stroke="#382BB4"/>
<path d="M14.4956 10.0001C13.8128 10.5071 12.9444 10.8114 12.0001 10.8114C11.0559 10.8114 10.1875 10.5071 9.50452 10C8.00867 10.7951 7 12.2816 7 13.9806V15.6436C7 15.8404 7.17362 16 7.38786 16H16.6123C16.8265 16 17 15.8404 17 15.6436V13.9806C17 12.2817 15.9914 10.7952 14.4956 10.0001Z" fill="#382BB4"/>
<path d="M15 7C15 5.34582 13.6543 4 12 4C10.3458 4 9 5.34582 9 7C9 8.65418 10.3458 10 12 10C13.6543 10 15 8.65418 15 7Z" fill="#382BB4"/>
</svg>
