<svg width="12" height="12" viewBox="0 0 12 12" fill="none" xmlns="http://www.w3.org/2000/svg">
<path fill-rule="evenodd" clip-rule="evenodd" d="M7.35998 3.61364C7.20402 3.90607 7.41593 4.25923 7.74734 4.25923H10.366C10.998 4.25923 11.5104 4.7716 11.5104 5.40362C11.5104 5.50108 11.4979 5.59816 11.4733 5.69248L10.471 9.53472C10.3227 10.1033 9.80918 10.5 9.2216 10.5H5.65696C4.70615 10.5 3.93537 9.72922 3.93537 8.77841V4.97234C3.93537 4.51575 4.11676 4.07786 4.4396 3.755L6.94183 1.25278C7.08368 1.11094 7.27605 1.03125 7.47666 1.03125C8.04765 1.03125 8.41273 1.63972 8.14403 2.14355L7.35998 3.61364ZM0.922585 4.25923H2.21378C2.45149 4.25923 2.64418 4.45192 2.64418 4.68963V10.0696C2.64418 10.3073 2.45149 10.5 2.21378 10.5H0.922585C0.684877 10.5 0.492188 10.3073 0.492188 10.0696V4.68963C0.492188 4.45192 0.684877 4.25923 0.922585 4.25923Z" fill="#3870F3"/>
</svg>
