<svg width="28" height="28" viewBox="0 0 28 28" fill="none" xmlns="http://www.w3.org/2000/svg">
<path d="M25.5322 10.8391H24.001C23.6046 10.8391 23.2832 11.1605 23.2832 11.5569V22.0842C23.2832 22.4806 23.6046 22.802 24.001 22.802H25.5322C25.9286 22.802 26.25 22.4806 26.25 22.0842V11.5569C26.25 11.1605 25.9286 10.8391 25.5322 10.8391Z" fill="#3870F3"/>
<path d="M15.629 6.30926L16.8253 4.23724C17.0896 3.77949 16.9327 3.19417 16.475 2.92989L15.6462 2.45137C15.1884 2.18709 14.6031 2.34395 14.3389 2.8017L13.1426 4.87372L15.629 6.30926Z" fill="#3870F3"/>
<path d="M2.60258 18.5603C3.01272 18.7941 3.53607 18.6414 3.77212 18.2326L9.63782 8.07291C9.09063 7.9429 8.50665 8.05856 8.04713 8.40318L6.01502 9.92726C5.42367 10.3708 4.93233 10.9339 4.57306 11.5799L1.96309 16.273C1.51506 17.0786 1.79609 18.0947 2.5944 18.5556C2.59713 18.5572 2.59986 18.5587 2.60258 18.5603Z" fill="#3870F3"/>
<path d="M6.85821 16.1098H9.97009L14.9107 7.55249L12.4242 6.11694L6.65039 16.1176C6.71915 16.113 6.7883 16.1098 6.85821 16.1098Z" fill="#3870F3"/>
<path d="M4.06792 20.5916L3.32531 21.8778C3.29038 21.9383 3.26449 22.0036 3.24841 22.0716L2.56361 24.9681C2.43254 25.5225 3.10165 25.9088 3.51624 25.5181L5.68238 23.4768C5.7332 23.4289 5.77679 23.3738 5.81172 23.3133L6.39886 22.2964C5.37384 22.1438 4.51078 21.4892 4.06792 20.5916Z" fill="#3870F3"/>
<path d="M12.5703 22.3306H8.03623L7.08887 23.9714C7.39349 24.2871 7.82066 24.4838 8.29401 24.4838C9.21898 24.4838 9.96881 23.734 9.96881 22.809C9.96881 23.734 10.7186 24.4838 11.6436 24.4838C12.5686 24.4838 13.3184 23.734 13.3184 22.809V22.6997C13.1447 22.6202 12.7468 22.4181 12.5703 22.3306Z" fill="#3870F3"/>
<path d="M15.4265 9.53052L11.6279 16.1099H12.7556C13.152 16.1099 13.4734 16.4312 13.4734 16.8276C13.4734 17.224 13.1521 17.5454 12.7557 17.5454H6.8584C5.93343 17.5454 5.18359 18.2952 5.18359 19.2202C5.18359 20.1452 5.93343 20.895 6.8584 20.895H12.9091L13.703 21.2916C15.0615 21.9709 16.5832 22.3305 18.1036 22.3305C19.3632 22.3305 20.6653 22.083 21.8475 21.612V12.2816H20.7162L15.4265 9.53052Z" fill="#3870F3"/>
</svg>
