<svg width="20" height="20" viewBox="0 0 20 20" fill="none" xmlns="http://www.w3.org/2000/svg">
<rect x="0.25" y="0.25" width="19.5" height="19.5" rx="9.75" stroke="#A5A3AB" stroke-width="0.5"/>
<path d="M10.3033 9.90671C10.2228 9.96652 10.1182 9.99963 10.0097 9.99963C9.9013 9.99963 9.79671 9.96652 9.7162 9.90671L6.00098 7.12587C6.14676 7.04366 6.31934 6.99965 6.49605 6.99963H13.5059C13.6826 6.99965 13.8552 7.04366 14.001 7.12587L10.3033 9.90671Z" fill="#242424"/>
<path d="M14.001 7.99963V11.9079C14.001 12.1975 13.8745 12.4751 13.6495 12.6799C13.4245 12.8846 13.1192 12.9996 12.801 12.9996H7.20098C6.88272 12.9996 6.57749 12.8846 6.35245 12.6799C6.1274 12.4751 6.00098 12.1975 6.00098 11.9079V7.99963L9.47298 10.8817C9.6194 10.9974 9.80704 11.0608 10.001 11.06C10.1973 11.0597 10.3867 10.9936 10.533 10.8745L14.001 7.99963Z" fill="#242424"/>
</svg>
