<svg width="16" height="16" viewBox="0 0 16 16" fill="none" xmlns="http://www.w3.org/2000/svg">
<path fill-rule="evenodd" clip-rule="evenodd" d="M0 8C2.32967e-08 8.50495 0.40934 8.91429 0.914287 8.91429L7.08572 8.91428L7.08572 15.0857C7.08572 15.5907 7.49506 16 8.00001 16C8.50496 16 8.9143 15.5907 8.9143 15.0857L8.91429 7.08571L0.914286 7.08571C0.40934 7.08571 -4.02951e-09 7.49505 0 8Z" fill="#3870F3"/>
<path fill-rule="evenodd" clip-rule="evenodd" d="M16 8C16 7.49505 15.5907 7.08571 15.0857 7.08571L8.91429 7.08571L8.91428 0.914285C8.91428 0.40934 8.50494 -2.6974e-07 7.99999 0C7.49505 -3.85342e-07 7.08571 0.409339 7.08571 0.914286L7.08572 8.91428L15.0857 8.91429C15.5907 8.91429 16 8.50495 16 8Z" fill="#3870F3"/>
</svg>
