<svg width="36" height="36" viewBox="0 0 36 36" fill="none" xmlns="http://www.w3.org/2000/svg">
<g id="(ICON)">
<g id="Group">
<path id="Exclude" fill-rule="evenodd" clip-rule="evenodd" d="M8.77227 1.12445H27.2278C31.4442 1.12445 34.8751 4.54328 34.875 8.74503V21.1697C34.875 24.8503 32.2432 27.9284 28.7571 28.6369V33.3484C28.7571 34.7109 27.0034 35.3816 26.0444 34.426L20.5345 28.7902H8.77227C4.55581 28.7902 1.125 25.3714 1.125 21.1697V8.74503C1.125 4.54328 4.55581 1.12445 8.77227 1.12445ZM17.3224 20.4105C16.7701 20.4105 16.3224 20.8582 16.3224 21.4105V22.6245C16.3224 23.1767 16.7701 23.6245 17.3224 23.6245H18.5673C19.1196 23.6245 19.5673 23.1767 19.5673 22.6244V21.4105C19.5673 20.8582 19.1196 20.4105 18.5673 20.4105H17.3224ZM19.5673 18.3035V17.767C20.5313 17.4825 21.4016 16.9495 22.0894 16.2225C22.7773 15.4956 23.2578 14.6008 23.4821 13.6296C23.7063 12.6584 23.6661 11.6457 23.3657 10.6949C23.0652 9.7441 22.5152 8.8894 21.7719 8.21815C21.0287 7.54691 20.1188 7.08318 19.1352 6.87439C18.1517 6.6656 17.1298 6.71923 16.1741 7.02979C15.2184 7.34036 14.363 7.89672 13.6955 8.64201C13.253 9.13611 12.9036 9.7015 12.6608 10.3111C12.456 10.8255 12.8162 11.3592 13.3593 11.467L14.5806 11.7093C15.121 11.8165 15.6324 11.4447 15.9501 10.9945C16.0203 10.8951 16.0983 10.8007 16.1835 10.7122C16.5016 10.3818 16.9078 10.1477 17.355 10.0371C17.8022 9.92643 18.2718 9.94385 18.7094 10.0873C19.147 10.2307 19.5344 10.4943 19.8266 10.8473C20.1189 11.2003 20.3039 11.6282 20.3602 12.0813C20.4165 12.5344 20.3417 12.994 20.1445 13.4067C19.9474 13.8193 19.636 14.168 19.2466 14.4122C18.8572 14.6564 18.4058 14.7861 17.9449 14.7861C17.5146 14.7861 17.1019 14.9554 16.7976 15.2568C16.4934 15.5582 16.3224 15.9669 16.3224 16.3931V18.3035C16.3224 18.5797 16.5463 18.8035 16.8224 18.8035H19.0673C19.3435 18.8035 19.5673 18.5797 19.5673 18.3035Z" fill="white"/>
</g>
</g>
</svg>
