<svg width="36" height="36" viewBox="0 0 36 36" fill="none" xmlns="http://www.w3.org/2000/svg">
<path d="M28.5 3.5C28.1664 3.5 28 3.5 27.5792 3.81597L18.5874 7.8892C18.2297 8.05121 18 8.40749 18 8.8001V22.1999C18 22.5925 18.2297 22.9488 18.5874 23.1108L27.5792 27.1841C27.8424 27.3889 28.1664 27.5 28.5 27.5H31.5C32.3284 27.5 33 26.8284 33 26V5C33 4.17158 32.3284 3.5 31.5 3.5H28.5Z" fill="white"/>
<path d="M15 22.25C15.5523 22.25 16 21.8023 16 21.25V9.75C16 9.19772 15.5523 8.75 15 8.75H9C5.68629 8.75 3 11.4363 3 14.75V16.25C3 19.5637 5.68629 22.25 9 22.25H15Z" fill="white"/>
<path d="M9.62495 25.4061C9.33105 24.7449 9.8151 24 10.5388 24H14.3501C14.7453 24 15.1034 24.2327 15.2639 24.5939L17.2867 29.1452C18.0925 30.958 16.7654 33 14.7816 33C13.6982 33 12.7164 32.362 12.2764 31.372L9.62495 25.4061Z" fill="white"/>
</svg>
