<svg width="100" height="100" viewBox="0 0 100 100" fill="none" xmlns="http://www.w3.org/2000/svg">
<path d="M44.66 50.3151L14.1565 66.4034C11.2261 67.9491 11.2261 72.1458 14.1565 73.6915L44.66 89.7798C48.0019 91.5424 51.9982 91.5424 55.3401 89.7798L85.8435 73.6915C88.7739 72.1458 88.7739 67.9491 85.8435 66.4034L55.3401 50.3151C51.9982 48.5525 48.0017 48.5525 44.66 50.3151Z" fill="url(#paint0_linear_7837_30205)"/>
<path d="M85.8434 66.4035L72.5923 59.4146L29.8399 81.9635L44.6599 89.7799C48.0018 91.5425 51.9981 91.5425 55.34 89.7799L85.8434 73.6916C88.7738 72.1459 88.7738 67.9492 85.8434 66.4035Z" fill="url(#paint1_linear_7837_30205)"/>
<path d="M14.1565 66.4035L27.4077 59.4146L70.1601 81.9635L55.3401 89.7799C51.9982 91.5425 48.0019 91.5425 44.66 89.7799L14.1565 73.6916C11.2261 72.1459 11.2261 67.9492 14.1565 66.4035Z" fill="url(#paint2_linear_7837_30205)"/>
<path d="M44.66 50.3151L14.1565 66.4034C11.2261 67.9491 11.2261 72.1458 14.1565 73.6915L44.66 89.7798C48.0019 91.5424 51.9982 91.5424 55.3401 89.7798L85.8435 73.6915C88.7739 72.1458 88.7739 67.9491 85.8435 66.4034L55.3401 50.3151C51.9982 48.5525 48.0017 48.5525 44.66 50.3151Z" fill="url(#paint3_linear_7837_30205)"/>
<path d="M44.66 30.2667L14.1565 46.3553C11.2261 47.901 11.2261 52.0976 14.1565 53.6433L44.66 69.7317C48.0019 71.4942 51.9982 71.4942 55.3401 69.7317L85.8435 53.6433C88.7739 52.0976 88.7739 47.901 85.8435 46.3553L55.3401 30.2669C51.9982 28.5042 48.0017 28.5042 44.66 30.2667Z" fill="url(#paint4_linear_7837_30205)"/>
<path d="M85.8434 46.3552L72.5923 39.3662L29.8399 61.9152L44.6599 69.7316C48.0018 71.4941 51.9981 71.4941 55.34 69.7316L85.8434 53.6432C88.7738 52.0975 88.7738 47.9007 85.8434 46.3552Z" fill="url(#paint5_linear_7837_30205)"/>
<path d="M14.1565 46.3552L27.4077 39.3662L70.1601 61.9152L55.3401 69.7316C51.9982 71.4941 48.0019 71.4941 44.66 69.7316L14.1565 53.643C11.2261 52.0975 11.2261 47.9007 14.1565 46.3552Z" fill="url(#paint6_linear_7837_30205)"/>
<path d="M44.66 30.2667L14.1565 46.3553C11.2261 47.901 11.2261 52.0976 14.1565 53.6433L44.66 69.7317C48.0019 71.4942 51.9982 71.4942 55.3401 69.7317L85.8435 53.6433C88.7739 52.0976 88.7739 47.901 85.8435 46.3553L55.3401 30.2669C51.9982 28.5042 48.0017 28.5042 44.66 30.2667Z" fill="url(#paint7_linear_7837_30205)"/>
<path d="M44.6603 50.3152L26.2533 60.0236L44.6603 69.732C48.0022 71.4946 51.9985 71.4946 55.3404 69.732L73.7476 60.0236L55.3404 50.3152C51.9985 48.5525 48.002 48.5525 44.6603 50.3152Z" fill="url(#paint8_linear_7837_30205)"/>
<path d="M44.6599 10.2195L14.1565 26.3079C11.2261 27.8536 11.2261 32.0502 14.1565 33.5959L44.6599 49.6843C48.0018 51.4468 51.9981 51.4468 55.3401 49.6843L85.8435 33.5959C88.7739 32.0502 88.7739 27.8536 85.8435 26.3079L55.3399 10.2195C51.9981 8.45678 48.0017 8.45678 44.6599 10.2195Z" fill="url(#paint9_linear_7837_30205)"/>
<path d="M85.8434 26.3078L72.5922 19.3188L29.8398 41.8678L44.6598 49.6842C48.0017 51.4468 51.998 51.4468 55.34 49.6842L85.8434 33.5959C88.7738 32.0502 88.7738 27.8535 85.8434 26.3078Z" fill="url(#paint10_linear_7837_30205)"/>
<path d="M14.1565 26.3078L27.4077 19.3188L70.1601 41.8678L55.3401 49.6842C51.9982 51.4468 48.0019 51.4468 44.66 49.6842L14.1565 33.5959C11.2261 32.0502 11.2261 27.8535 14.1565 26.3078Z" fill="url(#paint11_linear_7837_30205)"/>
<path d="M44.6603 30.2667L26.2533 39.9751L44.6603 49.6835C48.0022 51.4461 51.9985 51.4461 55.3404 49.6835L73.7476 39.9751L55.3404 30.2667C51.9985 28.5042 48.002 28.5042 44.6603 30.2667Z" fill="url(#paint12_linear_7837_30205)"/>
<path d="M5.83374 52.9409C5.02159 52.9409 4.36316 53.5993 4.36316 54.4115V60.2938C4.36316 61.106 5.02159 61.7644 5.83374 61.7644C6.6459 61.7644 7.30433 61.106 7.30433 60.2938V54.4115C7.30433 53.5993 6.6459 52.9409 5.83374 52.9409Z" fill="url(#paint13_linear_7837_30205)"/>
<path d="M5.83374 67.647C5.02159 67.647 4.36316 68.3054 4.36316 69.1176V74.9999C4.36316 75.812 5.02159 76.4705 5.83374 76.4705C6.6459 76.4705 7.30433 75.812 7.30433 74.9999V69.1176C7.30433 68.3054 6.6459 67.647 5.83374 67.647Z" fill="url(#paint14_linear_7837_30205)"/>
<path d="M5.8338 8.82373C5.02165 8.82373 4.36322 9.48216 4.36322 10.2943V16.1766C4.36322 16.9888 5.02165 17.6472 5.8338 17.6472C6.64596 17.6472 7.30439 16.9888 7.30439 16.1766V10.2943C7.30439 9.48216 6.64596 8.82373 5.8338 8.82373Z" fill="url(#paint15_linear_7837_30205)"/>
<path d="M5.83374 82.353C5.02159 82.353 4.36316 83.0115 4.36316 83.8236V89.7059C4.36316 90.5181 5.02159 91.1765 5.83374 91.1765C6.6459 91.1765 7.30433 90.5181 7.30433 89.7059V83.8236C7.30433 83.0115 6.6459 82.353 5.83374 82.353Z" fill="url(#paint16_linear_7837_30205)"/>
<path d="M5.8338 23.5293C5.02165 23.5293 4.36322 24.1877 4.36322 24.9999V30.8822C4.36322 31.6944 5.02165 32.3528 5.8338 32.3528C6.64596 32.3528 7.30439 31.6944 7.30439 30.8822V24.9999C7.30439 24.1877 6.64596 23.5293 5.8338 23.5293Z" fill="url(#paint17_linear_7837_30205)"/>
<path d="M5.8338 38.2349C5.02165 38.2349 4.36322 38.8933 4.36322 39.7054V45.5878C4.36322 46.3999 5.02165 47.0584 5.8338 47.0584C6.64596 47.0584 7.30439 46.3999 7.30439 45.5878V39.7054C7.30439 38.8933 6.64596 38.2349 5.8338 38.2349Z" fill="url(#paint18_linear_7837_30205)"/>
<path d="M94.1665 82.353C93.3544 82.353 92.6959 83.0115 92.6959 83.8236V89.7059C92.6959 90.5181 93.3544 91.1765 94.1665 91.1765C94.9787 91.1765 95.6371 90.5181 95.6371 89.7059V83.8236C95.6371 83.0115 94.9787 82.353 94.1665 82.353Z" fill="url(#paint19_linear_7837_30205)"/>
<path d="M94.1665 23.5293C93.3544 23.5293 92.6959 24.1877 92.6959 24.9999V30.8822C92.6959 31.6944 93.3544 32.3528 94.1665 32.3528C94.9787 32.3528 95.6371 31.6944 95.6371 30.8822V24.9999C95.6371 24.1877 94.9787 23.5293 94.1665 23.5293Z" fill="url(#paint20_linear_7837_30205)"/>
<path d="M94.1665 8.82373C93.3544 8.82373 92.6959 9.48216 92.6959 10.2943V16.1766C92.6959 16.9888 93.3544 17.6472 94.1665 17.6472C94.9787 17.6472 95.6371 16.9888 95.6371 16.1766V10.2943C95.6371 9.48216 94.9787 8.82373 94.1665 8.82373Z" fill="url(#paint21_linear_7837_30205)"/>
<path d="M94.1665 38.2349C93.3544 38.2349 92.6959 38.8933 92.6959 39.7054V45.5878C92.6959 46.3999 93.3544 47.0584 94.1665 47.0584C94.9787 47.0584 95.6371 46.3999 95.6371 45.5878V39.7054C95.6371 38.8933 94.9787 38.2349 94.1665 38.2349Z" fill="url(#paint22_linear_7837_30205)"/>
<path d="M94.1665 67.647C93.3544 67.647 92.6959 68.3054 92.6959 69.1176V74.9999C92.6959 75.812 93.3544 76.4705 94.1665 76.4705C94.9787 76.4705 95.6371 75.812 95.6371 74.9999V69.1176C95.6371 68.3054 94.9787 67.647 94.1665 67.647Z" fill="url(#paint23_linear_7837_30205)"/>
<path d="M94.1665 52.9409C93.3544 52.9409 92.6959 53.5993 92.6959 54.4115V60.2938C92.6959 61.106 93.3544 61.7644 94.1665 61.7644C94.9787 61.7644 95.6371 61.106 95.6371 60.2938V54.4115C95.6371 53.5993 94.9787 52.9409 94.1665 52.9409Z" fill="url(#paint24_linear_7837_30205)"/>
<path d="M16.1764 92.6963H10.2941C9.48192 92.6963 8.82349 93.3547 8.82349 94.1669C8.82349 94.979 9.48192 95.6375 10.2941 95.6375H16.1764C16.9886 95.6375 17.647 94.979 17.647 94.1669C17.647 93.3547 16.9886 92.6963 16.1764 92.6963Z" fill="url(#paint25_linear_7837_30205)"/>
<path d="M30.8824 92.6963H25.0001C24.1879 92.6963 23.5295 93.3547 23.5295 94.1669C23.5295 94.979 24.1879 95.6375 25.0001 95.6375H30.8824C31.6945 95.6375 32.353 94.979 32.353 94.1669C32.353 93.3547 31.6945 92.6963 30.8824 92.6963Z" fill="url(#paint26_linear_7837_30205)"/>
<path d="M75.0001 92.6963H69.1177C68.3056 92.6963 67.6472 93.3547 67.6472 94.1669C67.6472 94.979 68.3056 95.6375 69.1177 95.6375H75.0001C75.8122 95.6375 76.4707 94.979 76.4707 94.1669C76.4707 93.3547 75.8122 92.6963 75.0001 92.6963Z" fill="url(#paint27_linear_7837_30205)"/>
<path d="M45.5889 92.6963H39.7065C38.8944 92.6963 38.236 93.3547 38.236 94.1669C38.236 94.979 38.8944 95.6375 39.7065 95.6375H45.5889C46.401 95.6375 47.0595 94.979 47.0595 94.1669C47.0595 93.3547 46.401 92.6963 45.5889 92.6963Z" fill="url(#paint28_linear_7837_30205)"/>
<path d="M89.7056 92.6963H83.8233C83.0112 92.6963 82.3527 93.3547 82.3527 94.1669C82.3527 94.979 83.0112 95.6375 83.8233 95.6375H89.7056C90.5178 95.6375 91.1762 94.979 91.1762 94.1669C91.1762 93.3547 90.5178 92.6963 89.7056 92.6963Z" fill="url(#paint29_linear_7837_30205)"/>
<path d="M60.294 92.6963H54.4116C53.5995 92.6963 52.941 93.3547 52.941 94.1669C52.941 94.979 53.5995 95.6375 54.4116 95.6375H60.294C61.1061 95.6375 61.7645 94.979 61.7645 94.1669C61.7645 93.3547 61.1061 92.6963 60.294 92.6963Z" fill="url(#paint30_linear_7837_30205)"/>
<path d="M16.1763 4.36279H10.2939C9.48179 4.36279 8.82336 5.02122 8.82336 5.83338C8.82336 6.64553 9.48179 7.30396 10.2939 7.30396H16.1763C16.9884 7.30396 17.6469 6.64553 17.6469 5.83338C17.6469 5.02122 16.9884 4.36279 16.1763 4.36279Z" fill="url(#paint31_linear_7837_30205)"/>
<path d="M89.7057 4.36279H83.8234C83.0112 4.36279 82.3528 5.02122 82.3528 5.83338C82.3528 6.64553 83.0112 7.30396 83.8234 7.30396H89.7057C90.5179 7.30396 91.1763 6.64553 91.1763 5.83338C91.1763 5.02122 90.5179 4.36279 89.7057 4.36279Z" fill="url(#paint32_linear_7837_30205)"/>
<path d="M75.0001 4.36279H69.1178C68.3056 4.36279 67.6472 5.02122 67.6472 5.83338C67.6472 6.64553 68.3056 7.30396 69.1178 7.30396H75.0001C75.8123 7.30396 76.4707 6.64553 76.4707 5.83338C76.4707 5.02122 75.8123 4.36279 75.0001 4.36279Z" fill="url(#paint33_linear_7837_30205)"/>
<path d="M60.294 4.36279H54.4117C53.5995 4.36279 52.9411 5.02122 52.9411 5.83338C52.9411 6.64553 53.5995 7.30396 54.4117 7.30396H60.294C61.1062 7.30396 61.7646 6.64553 61.7646 5.83338C61.7646 5.02122 61.1062 4.36279 60.294 4.36279Z" fill="url(#paint34_linear_7837_30205)"/>
<path d="M30.8823 4.36279H24.9999C24.1878 4.36279 23.5294 5.02122 23.5294 5.83338C23.5294 6.64553 24.1878 7.30396 24.9999 7.30396H30.8823C31.6944 7.30396 32.3529 6.64553 32.3529 5.83338C32.3529 5.02122 31.6944 4.36279 30.8823 4.36279Z" fill="url(#paint35_linear_7837_30205)"/>
<path d="M45.5889 4.36279H39.7066C38.8945 4.36279 38.236 5.02122 38.236 5.83338C38.236 6.64553 38.8945 7.30396 39.7066 7.30396H45.5889C46.4011 7.30396 47.0595 6.64553 47.0595 5.83338C47.0595 5.02122 46.4011 4.36279 45.5889 4.36279Z" fill="url(#paint36_linear_7837_30205)"/>
<path d="M10.2653 11.6666H1.40137C0.627449 11.6666 0 11.0392 0 10.2653V1.40137C0 0.627449 0.627449 0 1.40137 0H10.2651C11.0392 0 11.6666 0.627449 11.6666 1.40137V10.2651C11.6666 11.0392 11.0392 11.6666 10.2653 11.6666Z" fill="url(#paint37_linear_7837_30205)"/>
<path d="M98.5986 11.6666H89.7349C88.9609 11.6666 88.3335 11.0392 88.3335 10.2653V1.40137C88.3333 0.627449 88.9607 0 89.7347 0H98.5984C99.3725 0 99.9999 0.627449 99.9999 1.40137V10.2651C99.9999 11.0392 99.3725 11.6666 98.5986 11.6666Z" fill="url(#paint38_linear_7837_30205)"/>
<path d="M10.2653 99.9999H1.40137C0.627449 99.9999 0 99.3725 0 98.5986V89.7349C0 88.9609 0.627449 88.3335 1.40137 88.3335H10.2651C11.039 88.3335 11.6664 88.9609 11.6664 89.7349V98.5986C11.6666 99.3725 11.0392 99.9999 10.2653 99.9999Z" fill="url(#paint39_linear_7837_30205)"/>
<path d="M98.5986 99.9999H89.7349C88.9609 99.9999 88.3335 99.3725 88.3335 98.5986V89.7349C88.3335 88.9609 88.9609 88.3335 89.7349 88.3335H98.5986C99.3725 88.3335 99.9999 88.9609 99.9999 89.7349V98.5986C99.9999 99.3725 99.3725 99.9999 98.5986 99.9999Z" fill="url(#paint40_linear_7837_30205)"/>
<defs>
<linearGradient id="paint0_linear_7837_30205" x1="39.9398" y1="55.9633" x2="67.8795" y2="95.0788" gradientUnits="userSpaceOnUse">
<stop stop-color="#D9B1EE"/>
<stop offset="0.1228" stop-color="#DBA3E3"/>
<stop offset="0.3507" stop-color="#E381C8"/>
<stop offset="0.6587" stop-color="#EF499B"/>
<stop offset="1" stop-color="#FE0364"/>
</linearGradient>
<linearGradient id="paint1_linear_7837_30205" x1="61.4218" y1="80.0864" x2="64.1668" y2="85.1845" gradientUnits="userSpaceOnUse">
<stop stop-color="#A82975" stop-opacity="0"/>
<stop offset="1" stop-color="#A82975"/>
</linearGradient>
<linearGradient id="paint2_linear_7837_30205" x1="38.5782" y1="80.0864" x2="35.8331" y2="85.1845" gradientUnits="userSpaceOnUse">
<stop stop-color="#A82975" stop-opacity="0"/>
<stop offset="1" stop-color="#A82975"/>
</linearGradient>
<linearGradient id="paint3_linear_7837_30205" x1="49.9999" y1="67.7685" x2="49.9999" y2="57.5707" gradientUnits="userSpaceOnUse">
<stop stop-color="#A82975" stop-opacity="0"/>
<stop offset="1" stop-color="#A82975"/>
</linearGradient>
<linearGradient id="paint4_linear_7837_30205" x1="50.0057" y1="35.5345" x2="50.0057" y2="61.8641" gradientUnits="userSpaceOnUse">
<stop stop-color="#3870F3"/>
<stop offset="1" stop-color="#9F79DF"/>
</linearGradient>
<linearGradient id="paint5_linear_7837_30205" x1="61.4218" y1="60.0379" x2="64.1668" y2="65.1359" gradientUnits="userSpaceOnUse">
<stop stop-color="#9F79DF" stop-opacity="0"/>
<stop offset="1" stop-color="#574477"/>
</linearGradient>
<linearGradient id="paint6_linear_7837_30205" x1="38.5782" y1="60.0379" x2="35.8331" y2="65.1359" gradientUnits="userSpaceOnUse">
<stop stop-color="#9F79DF" stop-opacity="0"/>
<stop offset="1" stop-color="#574477"/>
</linearGradient>
<linearGradient id="paint7_linear_7837_30205" x1="49.9999" y1="47.3761" x2="49.9999" y2="38.1584" gradientUnits="userSpaceOnUse">
<stop stop-color="#3A5CAC" stop-opacity="0"/>
<stop offset="1" stop-color="#3870F3"/>
</linearGradient>
<linearGradient id="paint8_linear_7837_30205" x1="48.3471" y1="63.405" x2="65.602" y2="28.111" gradientUnits="userSpaceOnUse">
<stop stop-color="#A82975" stop-opacity="0"/>
<stop offset="1" stop-color="#A82975"/>
</linearGradient>
<linearGradient id="paint9_linear_7837_30205" x1="39.9397" y1="15.8677" x2="67.8794" y2="54.9833" gradientUnits="userSpaceOnUse">
<stop stop-color="#FEF48B"/>
<stop offset="1" stop-color="#FFBF51"/>
</linearGradient>
<linearGradient id="paint10_linear_7837_30205" x1="61.4217" y1="39.9907" x2="64.1668" y2="45.0888" gradientUnits="userSpaceOnUse">
<stop stop-color="#FE9738" stop-opacity="0"/>
<stop offset="1" stop-color="#FE9738"/>
</linearGradient>
<linearGradient id="paint11_linear_7837_30205" x1="38.5782" y1="39.9907" x2="35.8331" y2="45.0888" gradientUnits="userSpaceOnUse">
<stop stop-color="#FE9738" stop-opacity="0"/>
<stop offset="1" stop-color="#FE9738"/>
</linearGradient>
<linearGradient id="paint12_linear_7837_30205" x1="45.3993" y1="56.3276" x2="59.9091" y2="4.75917" gradientUnits="userSpaceOnUse">
<stop stop-color="#016A74" stop-opacity="0"/>
<stop offset="1" stop-color="#016A74"/>
</linearGradient>
<linearGradient id="paint13_linear_7837_30205" x1="-0.0542764" y1="51.4646" x2="98.2699" y2="149.789" gradientUnits="userSpaceOnUse">
<stop stop-color="#B3C9FF"/>
<stop offset="1" stop-color="#02C7DD"/>
</linearGradient>
<linearGradient id="paint14_linear_7837_30205" x1="-0.0542764" y1="66.1707" x2="98.2699" y2="164.495" gradientUnits="userSpaceOnUse">
<stop stop-color="#B3C9FF"/>
<stop offset="1" stop-color="#02C7DD"/>
</linearGradient>
<linearGradient id="paint15_linear_7837_30205" x1="-0.0542153" y1="7.34746" x2="98.27" y2="105.672" gradientUnits="userSpaceOnUse">
<stop stop-color="#B3C9FF"/>
<stop offset="1" stop-color="#02C7DD"/>
</linearGradient>
<linearGradient id="paint16_linear_7837_30205" x1="-0.0542764" y1="80.8768" x2="98.2699" y2="179.201" gradientUnits="userSpaceOnUse">
<stop stop-color="#B3C9FF"/>
<stop offset="1" stop-color="#02C7DD"/>
</linearGradient>
<linearGradient id="paint17_linear_7837_30205" x1="-0.0542153" y1="22.053" x2="98.27" y2="120.377" gradientUnits="userSpaceOnUse">
<stop stop-color="#B3C9FF"/>
<stop offset="1" stop-color="#02C7DD"/>
</linearGradient>
<linearGradient id="paint18_linear_7837_30205" x1="-0.0542153" y1="36.7586" x2="98.27" y2="135.083" gradientUnits="userSpaceOnUse">
<stop stop-color="#B3C9FF"/>
<stop offset="1" stop-color="#02C7DD"/>
</linearGradient>
<linearGradient id="paint19_linear_7837_30205" x1="88.2785" y1="80.8768" x2="186.603" y2="179.201" gradientUnits="userSpaceOnUse">
<stop stop-color="#B3C9FF"/>
<stop offset="1" stop-color="#02C7DD"/>
</linearGradient>
<linearGradient id="paint20_linear_7837_30205" x1="88.2785" y1="22.053" x2="186.603" y2="120.377" gradientUnits="userSpaceOnUse">
<stop stop-color="#B3C9FF"/>
<stop offset="1" stop-color="#02C7DD"/>
</linearGradient>
<linearGradient id="paint21_linear_7837_30205" x1="88.2785" y1="7.34746" x2="186.603" y2="105.672" gradientUnits="userSpaceOnUse">
<stop stop-color="#B3C9FF"/>
<stop offset="1" stop-color="#02C7DD"/>
</linearGradient>
<linearGradient id="paint22_linear_7837_30205" x1="88.2785" y1="36.7586" x2="186.603" y2="135.083" gradientUnits="userSpaceOnUse">
<stop stop-color="#B3C9FF"/>
<stop offset="1" stop-color="#02C7DD"/>
</linearGradient>
<linearGradient id="paint23_linear_7837_30205" x1="88.2785" y1="66.1707" x2="186.603" y2="164.495" gradientUnits="userSpaceOnUse">
<stop stop-color="#B3C9FF"/>
<stop offset="1" stop-color="#02C7DD"/>
</linearGradient>
<linearGradient id="paint24_linear_7837_30205" x1="88.2785" y1="51.4646" x2="186.603" y2="149.789" gradientUnits="userSpaceOnUse">
<stop stop-color="#B3C9FF"/>
<stop offset="1" stop-color="#02C7DD"/>
</linearGradient>
<linearGradient id="paint25_linear_7837_30205" x1="-4.42882" y1="92.2042" x2="2.76563" y2="156.954" gradientUnits="userSpaceOnUse">
<stop stop-color="#B3C9FF"/>
<stop offset="1" stop-color="#02C7DD"/>
</linearGradient>
<linearGradient id="paint26_linear_7837_30205" x1="10.2772" y1="92.2042" x2="17.4716" y2="156.954" gradientUnits="userSpaceOnUse">
<stop stop-color="#B3C9FF"/>
<stop offset="1" stop-color="#02C7DD"/>
</linearGradient>
<linearGradient id="paint27_linear_7837_30205" x1="54.3948" y1="92.2042" x2="61.5893" y2="156.954" gradientUnits="userSpaceOnUse">
<stop stop-color="#B3C9FF"/>
<stop offset="1" stop-color="#02C7DD"/>
</linearGradient>
<linearGradient id="paint28_linear_7837_30205" x1="24.9837" y1="92.2042" x2="32.1781" y2="156.954" gradientUnits="userSpaceOnUse">
<stop stop-color="#B3C9FF"/>
<stop offset="1" stop-color="#02C7DD"/>
</linearGradient>
<linearGradient id="paint29_linear_7837_30205" x1="69.1004" y1="92.2042" x2="76.2949" y2="156.954" gradientUnits="userSpaceOnUse">
<stop stop-color="#B3C9FF"/>
<stop offset="1" stop-color="#02C7DD"/>
</linearGradient>
<linearGradient id="paint30_linear_7837_30205" x1="39.6887" y1="92.2042" x2="46.8832" y2="156.954" gradientUnits="userSpaceOnUse">
<stop stop-color="#B3C9FF"/>
<stop offset="1" stop-color="#02C7DD"/>
</linearGradient>
<linearGradient id="paint31_linear_7837_30205" x1="-4.42894" y1="3.8707" x2="2.76551" y2="68.6208" gradientUnits="userSpaceOnUse">
<stop stop-color="#B3C9FF"/>
<stop offset="1" stop-color="#02C7DD"/>
</linearGradient>
<linearGradient id="paint32_linear_7837_30205" x1="69.1005" y1="3.8707" x2="76.2949" y2="68.6208" gradientUnits="userSpaceOnUse">
<stop stop-color="#B3C9FF"/>
<stop offset="1" stop-color="#02C7DD"/>
</linearGradient>
<linearGradient id="paint33_linear_7837_30205" x1="54.3949" y1="3.8707" x2="61.5894" y2="68.6208" gradientUnits="userSpaceOnUse">
<stop stop-color="#B3C9FF"/>
<stop offset="1" stop-color="#02C7DD"/>
</linearGradient>
<linearGradient id="paint34_linear_7837_30205" x1="39.6888" y1="3.8707" x2="46.8832" y2="68.6208" gradientUnits="userSpaceOnUse">
<stop stop-color="#B3C9FF"/>
<stop offset="1" stop-color="#02C7DD"/>
</linearGradient>
<linearGradient id="paint35_linear_7837_30205" x1="10.2771" y1="3.8707" x2="17.4715" y2="68.6208" gradientUnits="userSpaceOnUse">
<stop stop-color="#B3C9FF"/>
<stop offset="1" stop-color="#02C7DD"/>
</linearGradient>
<linearGradient id="paint36_linear_7837_30205" x1="24.9837" y1="3.8707" x2="32.1782" y2="68.6208" gradientUnits="userSpaceOnUse">
<stop stop-color="#B3C9FF"/>
<stop offset="1" stop-color="#02C7DD"/>
</linearGradient>
<linearGradient id="paint37_linear_7837_30205" x1="5.83418" y1="1.82572" x2="5.83418" y2="9.12059" gradientUnits="userSpaceOnUse">
<stop stop-color="#3870F3"/>
<stop offset="1" stop-color="#9F79DF"/>
</linearGradient>
<linearGradient id="paint38_linear_7837_30205" x1="94.1676" y1="1.82572" x2="94.1676" y2="9.12059" gradientUnits="userSpaceOnUse">
<stop stop-color="#3870F3"/>
<stop offset="1" stop-color="#9F79DF"/>
</linearGradient>
<linearGradient id="paint39_linear_7837_30205" x1="5.83409" y1="90.1592" x2="5.83409" y2="97.4539" gradientUnits="userSpaceOnUse">
<stop stop-color="#3870F3"/>
<stop offset="1" stop-color="#9F79DF"/>
</linearGradient>
<linearGradient id="paint40_linear_7837_30205" x1="94.1676" y1="90.1592" x2="94.1676" y2="97.4539" gradientUnits="userSpaceOnUse">
<stop stop-color="#3870F3"/>
<stop offset="1" stop-color="#9F79DF"/>
</linearGradient>
</defs>
</svg>
