<svg width="28" height="28" viewBox="0 0 28 28" fill="none" xmlns="http://www.w3.org/2000/svg">
<g id="(ICON)">
<g id="Group">
<path id="Vector" d="M22.25 3H5.75C4.23122 3 3 4.23122 3 5.75V22.25C3 23.7688 4.23122 25 5.75 25H22.25C23.7688 25 25 23.7688 25 22.25V5.75C25 4.23122 23.7688 3 22.25 3Z" fill="#D0CFD3"/>
<path id="Vector_2" d="M9.875 13.3125C11.7735 13.3125 13.3125 11.7735 13.3125 9.875C13.3125 7.97652 11.7735 6.4375 9.875 6.4375C7.97652 6.4375 6.4375 7.97652 6.4375 9.875C6.4375 11.7735 7.97652 13.3125 9.875 13.3125Z" fill="#9A989E"/>
<path id="Vector_3" d="M24.9997 22.2498V14.4026L22.0483 11.4512C21.9822 11.3849 21.9031 11.3328 21.816 11.2981C21.729 11.2635 21.6357 11.247 21.5421 11.2498C21.4484 11.2526 21.3563 11.2745 21.2715 11.3142C21.1866 11.3539 21.1107 11.4106 21.0486 11.4807L15.5486 17.6682C15.432 17.7992 15.3699 17.9698 15.375 18.145C15.3802 18.3203 15.4521 18.4869 15.5761 18.6109L21.9651 24.9998H22.2497C22.9789 24.9991 23.6779 24.7091 24.1935 24.1936C24.7091 23.678 24.999 22.9789 24.9997 22.2498Z" fill="#57555C"/>
<path id="Vector_4" d="M13.7989 14.889C13.7327 14.8203 13.6524 14.7667 13.5635 14.7321C13.4746 14.6974 13.3792 14.6824 13.284 14.6882C13.1889 14.6922 13.0958 14.7158 13.0104 14.7577C12.925 14.7995 12.8492 14.8586 12.7878 14.9313L4.52344 24.6981C4.90299 24.8938 5.32334 24.9972 5.75035 25H22.2503C22.71 24.9969 23.1613 24.8772 23.562 24.652L13.7989 14.889Z" fill="#9A989E"/>
</g>
</g>
</svg>
