<svg width="20" height="20" viewBox="0 0 20 20" fill="none" xmlns="http://www.w3.org/2000/svg">
<path d="M8 5H9V6H8V5Z" fill="#3870F3"/>
<path d="M11 5H12V6H11V5Z" fill="#3870F3"/>
<path d="M8 2H9V3H8V2Z" fill="#3870F3"/>
<path d="M11 2H12V3H11V2Z" fill="#3870F3"/>
<path d="M5 8H6V9H5V8Z" fill="#3870F3"/>
<path d="M5 5H6V6H5V5Z" fill="#3870F3"/>
<path d="M8 8H9V9H8V8Z" fill="#3870F3"/>
<path d="M11 8H12V9H11V8Z" fill="#3870F3"/>
<path d="M5 11H6V12H5V11Z" fill="#3870F3"/>
<path d="M2 8H3V9H2V8Z" fill="#3870F3"/>
<path d="M2 11H3V12H2V11Z" fill="#3870F3"/>
<path d="M5 14H6V15H5V14Z" fill="#3870F3"/>
<path d="M8 11H9V12H8V11Z" fill="#3870F3"/>
<path d="M11 11H12V12H11V11Z" fill="#3870F3"/>
<path d="M14 8H15V9H14V8Z" fill="#3870F3"/>
<path d="M14 5H15V6H14V5Z" fill="#3870F3"/>
<path d="M14 11H15V12H14V11Z" fill="#3870F3"/>
<path d="M17 8H18V9H17V8Z" fill="#3870F3"/>
<path d="M17 11H18V12H17V11Z" fill="#3870F3"/>
<path d="M14 14H15V15H14V14Z" fill="#3870F3"/>
<path d="M8 14H9V15H8V14Z" fill="#3870F3"/>
<path d="M11 14H12V15H11V14Z" fill="#3870F3"/>
<path d="M8 17H9V18H8V17Z" fill="#3870F3"/>
<path d="M11 17H12V18H11V17Z" fill="#3870F3"/>
</svg>
