<svg width="20" height="20" viewBox="0 0 20 20" fill="none" xmlns="http://www.w3.org/2000/svg">
<path d="M9.56265 4.11828C10.5415 4.46986 11.8274 4.66347 13.1836 4.66347C14.5398 4.66347 15.8258 4.46986 16.8046 4.11828C18.3032 3.58 18.6178 2.84966 18.6178 2.33173C18.6178 1.81381 18.3032 1.08347 16.8046 0.545191C15.8259 0.193613 14.5399 0 13.1836 0C11.8274 0 10.5415 0.193613 9.56265 0.545191C8.06406 1.08347 7.74951 1.81381 7.74951 2.33173C7.74951 2.84966 8.06406 3.58 9.56265 4.11828Z" fill="#3870F3"/>
<path d="M13.1838 5.84912C11.978 5.84912 10.8123 5.70586 9.82617 5.44087L14.3801 7.8273C14.6532 7.97041 14.8855 8.1839 15.0521 8.44474C15.2335 8.72901 15.333 9.06518 15.333 9.40257V15.947C15.8722 15.8564 16.3709 15.7313 16.8075 15.5745C18.3038 15.037 18.6179 14.3058 18.6179 13.787V4.50256C18.2606 4.76984 17.7996 5.02076 17.2055 5.23414C16.1014 5.63073 14.6731 5.84912 13.1838 5.84912Z" fill="#3870F3"/>
<path d="M8.03998 5.84336C7.86763 5.75306 7.662 5.75306 7.48961 5.84336C7.48961 5.84336 3.08227 8.15297 1.9585 8.74187L7.76507 11.7683L13.5774 8.74515L8.03998 5.84336Z" fill="#3870F3"/>
<path d="M8.35742 20L13.8302 17.1234C14.0252 17.021 14.1472 16.8189 14.1472 16.5987C14.1472 16.5987 14.1472 11.2737 14.1472 9.7851L8.35742 12.7965V20Z" fill="#3870F3"/>
<path d="M1.38208 16.5987C1.38208 16.8189 1.50416 17.021 1.69908 17.1234L7.1719 20V12.7961L1.38208 9.77844V16.5987Z" fill="#3870F3"/>
</svg>
