<svg width="28" height="28" viewBox="0 0 28 28" fill="none" xmlns="http://www.w3.org/2000/svg">
<g id="(ICON)">
<g id="Group">
<path id="Vector" d="M25.7722 7.83224C25.7028 7.78871 25.6234 7.76389 25.5416 7.76019C25.4597 7.75649 25.3784 7.77404 25.3053 7.81112L19.5453 10.6911C19.4656 10.731 19.3986 10.7923 19.3517 10.8682C19.3049 10.944 19.28 11.0314 19.28 11.1205V16.8805C19.28 16.9697 19.3049 17.057 19.3517 17.1329C19.3986 17.2087 19.4656 17.27 19.5453 17.3099L25.3053 20.1899C25.3785 20.2264 25.4599 20.2437 25.5416 20.24C25.6233 20.2363 25.7027 20.2118 25.7723 20.1687C25.8419 20.1257 25.8993 20.0657 25.9392 19.9942C25.9791 19.9228 26 19.8423 26 19.7605V8.24052C26 8.1587 25.979 8.07824 25.9392 8.00678C25.8993 7.93533 25.8418 7.87525 25.7722 7.83224Z" fill="#4294FF"/>
<path id="Vector_2" d="M17.84 6.79999H4.4C3.07452 6.79999 2 7.8745 2 9.19999V18.8C2 20.1255 3.07452 21.2 4.4 21.2H17.84C19.1655 21.2 20.24 20.1255 20.24 18.8V9.19999C20.24 7.8745 19.1655 6.79999 17.84 6.79999Z" fill="#EEF4FF"/>
<path id="Vector_3" d="M14.247 13.5886L9.447 10.7086C9.37417 10.6648 9.29103 10.6412 9.20608 10.6401C9.12113 10.639 9.03741 10.6605 8.96347 10.7024C8.88954 10.7442 8.82804 10.8049 8.78526 10.8783C8.74248 10.9517 8.71995 11.0352 8.71997 11.1201V16.8801C8.71997 16.9651 8.74251 17.0485 8.7853 17.1219C8.82809 17.1953 8.88958 17.256 8.96351 17.2979C9.03743 17.3397 9.12114 17.3612 9.20608 17.3601C9.29103 17.359 9.37416 17.3354 9.447 17.2917L14.247 14.4117C14.3181 14.369 14.3769 14.3087 14.4177 14.2366C14.4585 14.1645 14.48 14.083 14.48 14.0001C14.48 13.9173 14.4585 13.8358 14.4177 13.7637C14.3769 13.6915 14.3181 13.6312 14.247 13.5886Z" fill="#3870F3"/>
</g>
</g>
</svg>
