<svg width="16" height="16" viewBox="0 0 16 16" fill="none" xmlns="http://www.w3.org/2000/svg">
<path d="M1.49449 9.09033C0.671509 9.09033 0.00439453 9.75748 0.00439453 10.5805C0.082873 12.5571 2.90641 12.5565 2.98461 10.5805C2.98461 9.75748 2.31747 9.09033 1.49449 9.09033Z" fill="#8E9CCC"/>
<path d="M8.34753 4.39087C6.84312 4.39087 5.62354 5.61045 5.62354 7.11487C5.76701 10.7282 10.9286 10.7272 11.0715 7.11484C11.0715 5.61045 9.85195 4.39087 8.34753 4.39087Z" fill="#8E9CCC"/>
<path d="M14.5322 0.00878906C13.724 0.00878906 13.0687 0.664014 13.0687 1.4723C13.1458 3.4136 15.9189 3.41304 15.9957 1.4723C15.9957 0.664014 15.3405 0.00878906 14.5322 0.00878906Z" fill="#8E9CCC"/>
<path d="M15.9956 10.1426C15.9956 9.57992 15.5395 9.12378 14.9768 9.12378C13.6254 9.17745 13.6258 11.1079 14.9768 11.1614C15.5395 11.1614 15.9956 10.7052 15.9956 10.1426Z" fill="#8E9CCC"/>
<path d="M10.9775 4.48505C11.1144 4.62197 11.2392 4.76779 11.3516 4.92104L13.0712 3.44851C12.8026 3.24943 12.5763 2.99677 12.4071 2.70679L10.6608 4.20225C10.7707 4.28993 10.8766 4.38411 10.9775 4.48505Z" fill="#8E9CCC"/>
<path d="M2.52747 2.87808L5.19733 5.13539C5.34427 4.90255 5.51817 4.68443 5.71762 4.48497C5.75632 4.44628 5.79585 4.40868 5.83592 4.37192L3.14715 2.09863C3.00302 2.40412 2.78964 2.67054 2.52747 2.87808Z" fill="#8E9CCC"/>
<path d="M7.43018 10.7207L7.35095 12.6008C7.67457 12.5404 8.03298 12.5591 8.34509 12.6496L8.42163 10.8332C8.08519 10.8404 7.74924 10.8013 7.43018 10.7207Z" fill="#8E9CCC"/>
<path d="M13.4741 8.80347L11.9417 8.07666C11.856 8.39934 11.727 8.70814 11.5576 8.99603L13.0152 9.68739C13.0927 9.35344 13.2532 9.0511 13.4741 8.80347Z" fill="#8E9CCC"/>
<path d="M0.00695801 1.17568C0.00695801 1.82498 0.53331 2.35136 1.18264 2.35136C2.74216 2.28942 2.74169 0.0616906 1.18264 0C0.533341 0 0.00695801 0.526352 0.00695801 1.17568Z" fill="#8E9CCC"/>
<path d="M4.79433 8.21924L3.41772 9.00811C3.6276 9.26436 3.7869 9.56329 3.88148 9.8895L5.21661 9.12438C5.03482 8.84239 4.89306 8.53833 4.79433 8.21924Z" fill="#8E9CCC"/>
<path d="M6.52271 14.7803C6.52271 15.4539 7.06872 15.9999 7.74226 15.9999C9.35998 15.9356 9.35951 13.6248 7.74226 13.5608C7.06872 13.5608 6.52271 14.1068 6.52271 14.7803Z" fill="#8E9CCC"/>
</svg>
