<svg width="20" height="20" viewBox="0 0 20 20" fill="none" xmlns="http://www.w3.org/2000/svg">
<path d="M5.57869 5.86133L4.01924 5.98181C3.58531 6.01535 3.19884 6.24277 2.95886 6.60576L1.16039 9.32584C0.978388 9.60112 0.949454 9.94561 1.08294 10.2474C1.21646 10.5492 1.49086 10.7595 1.81693 10.81L3.24479 11.0311C3.5788 9.25856 4.37839 7.49035 5.57869 5.86133Z" fill="#3870F3"/>
<path d="M8.96924 16.7548L9.1904 18.1827C9.24092 18.5087 9.45123 18.7831 9.75297 18.9166C9.87851 18.9722 10.0114 18.9996 10.1436 18.9996C10.3294 18.9996 10.5138 18.9455 10.6745 18.8392L13.3947 17.0407C13.7577 16.8007 13.9851 16.4142 14.0186 15.9803L14.1391 14.4209C12.51 15.6212 10.7418 16.4208 8.96924 16.7548Z" fill="#3870F3"/>
<path d="M8.4321 15.7654C8.48167 15.7654 8.53153 15.7614 8.58127 15.7531C9.32391 15.6289 10.0397 15.4197 10.7225 15.1459L4.85389 9.27734C4.5801 9.96011 4.37092 10.6759 4.24675 11.4186C4.19781 11.7113 4.296 12.0095 4.50585 12.2194L7.78042 15.494C7.95465 15.6682 8.18981 15.7654 8.4321 15.7654Z" fill="#3870F3"/>
<path d="M17.5649 8.98051C19.001 6.2041 19.0542 3.27013 18.9791 1.89412C18.9534 1.42265 18.5775 1.04676 18.106 1.02106C17.882 1.00882 17.6164 1 17.3171 1C15.7785 1 13.3439 1.23305 11.0196 2.43528C9.17245 3.39071 6.75031 5.49448 5.32129 8.25922C5.33816 8.2724 5.35465 8.28639 5.37019 8.30193L11.6983 14.63C11.7138 14.6455 11.7278 14.662 11.7409 14.6789C14.5057 13.2498 16.6095 10.8277 17.5649 8.98051ZM11.466 4.80528C12.494 3.77729 14.1668 3.77718 15.1948 4.80528C15.6929 5.30327 15.9671 5.96543 15.9671 6.66971C15.9671 7.37399 15.6929 8.03615 15.1948 8.53414C14.6809 9.04808 14.0056 9.30511 13.3305 9.30518C12.6551 9.30521 11.9801 9.04822 11.466 8.53414C10.968 8.03615 10.6937 7.37399 10.6937 6.66971C10.6937 5.96543 10.968 5.30327 11.466 4.80528Z" fill="#3870F3"/>
<path d="M12.2114 7.7888C12.8282 8.40561 13.8319 8.40565 14.4488 7.7888C14.7475 7.48997 14.9121 7.0927 14.9121 6.67013C14.9121 6.24755 14.7475 5.85028 14.4488 5.55149C14.1404 5.24306 13.7352 5.08887 13.3301 5.08887C12.925 5.08887 12.5198 5.24306 12.2114 5.55149C11.9126 5.85028 11.748 6.24755 11.748 6.67013C11.748 7.0927 11.9126 7.49 12.2114 7.7888Z" fill="#3870F3"/>
<path d="M1.5381 15.834C1.67307 15.834 1.80803 15.7826 1.91097 15.6796L3.63268 13.9578C3.83862 13.7519 3.83862 13.418 3.63268 13.2121C3.42677 13.0061 3.09285 13.0061 2.88691 13.2121L1.1652 14.9338C0.959256 15.1397 0.959256 15.4736 1.1652 15.6796C1.26817 15.7825 1.40314 15.834 1.5381 15.834Z" fill="#3870F3"/>
<path d="M5.21037 14.7892C5.00445 14.5833 4.67054 14.5833 4.4646 14.7892L1.15446 18.0994C0.948514 18.3053 0.948514 18.6392 1.15446 18.8451C1.25743 18.9481 1.3924 18.9996 1.52736 18.9996C1.66233 18.9996 1.79729 18.9481 1.90023 18.8451L5.21033 15.535C5.41631 15.329 5.41631 14.9952 5.21037 14.7892Z" fill="#3870F3"/>
<path d="M6.04264 16.3673L4.32096 18.0891C4.11502 18.295 4.11502 18.6289 4.32096 18.8348C4.42394 18.9378 4.5589 18.9893 4.69383 18.9893C4.82876 18.9893 4.96376 18.9378 5.0667 18.8348L6.7884 17.1131C6.99435 16.9072 6.99435 16.5733 6.7884 16.3673C6.58249 16.1614 6.24858 16.1614 6.04264 16.3673Z" fill="#3870F3"/>
</svg>
