<svg width="20" height="20" viewBox="0 0 20 20" fill="none" xmlns="http://www.w3.org/2000/svg">
<path d="M8.23633 12.7252V13.3203H7.67969V13.877C7.67969 15.4116 8.92823 16.6602 10.4629 16.6602C11.9975 16.6602 13.2461 15.4116 13.2461 13.877V13.3203H12.6895V12.7252C13.4537 12.3461 14.1076 11.7794 14.5953 11.0692C15.1692 10.2334 15.4727 9.25379 15.4727 8.23633V6.00977C15.4727 3.24738 13.2253 1 10.4629 1C7.70051 1 5.45312 3.24738 5.45312 6.00977V8.23633C5.45312 9.25379 5.75653 10.2334 6.3305 11.0693C6.81819 11.7794 7.47206 12.3462 8.23633 12.7252ZM10.4629 9.90625C10.1555 9.90625 9.90625 9.65702 9.90625 9.34961C9.90625 9.0422 10.1555 8.79297 10.4629 8.79297C10.7703 8.79297 11.0195 9.0422 11.0195 9.34961C11.0195 9.65702 10.7703 9.90625 10.4629 9.90625ZM10.4629 3.22656C11.3837 3.22656 12.1328 3.97569 12.1328 4.89648C12.1328 5.41895 11.8832 5.91833 11.4651 6.23235C11.1861 6.44187 11.0195 6.77481 11.0195 7.12305C11.0195 7.43046 10.7703 7.67969 10.4629 7.67969C10.1555 7.67969 9.90625 7.43046 9.90625 7.12305C9.90625 6.42654 10.239 5.76076 10.7965 5.34217C10.9383 5.2357 11.0195 5.07327 11.0195 4.89648C11.0195 4.58955 10.7698 4.33984 10.4629 4.33984C10.156 4.33984 9.90625 4.58955 9.90625 4.89648C9.90625 5.2039 9.65702 5.45312 9.34961 5.45312C9.0422 5.45312 8.79297 5.2039 8.79297 4.89648C8.79297 3.97569 9.5421 3.22656 10.4629 3.22656Z" fill="#3870F3"/>
<path d="M14.3594 13.3459V13.877C14.3594 16.0255 12.6114 17.7734 10.4629 17.7734C8.31437 17.7734 6.56641 16.0255 6.56641 13.877V13.3459C3.45007 13.6281 1 16.2547 1 19.4434C1 19.7508 1.24923 20 1.55664 20H19.3691C19.6766 20 19.9258 19.7508 19.9258 19.4434C19.9258 16.2547 17.4757 13.6281 14.3594 13.3459Z" fill="#3870F3"/>
</svg>
