<svg width="16" height="16" viewBox="0 0 16 16" fill="none" xmlns="http://www.w3.org/2000/svg">
<path d="M10.971 1C9.02179 1 7.44165 2.58011 7.44165 4.52929V5.9458H9.20631V4.52929C9.20631 3.5547 9.99638 2.76463 10.971 2.76463C11.9455 2.76463 12.7356 3.5547 12.7356 4.52929V5.00146C12.7356 5.22797 12.9193 5.41161 13.1458 5.41161H14.0901C14.3166 5.41161 14.5003 5.22797 14.5003 5.00146V4.52929C14.5002 2.58011 12.9201 1 10.971 1Z" fill="#8E9CCC"/>
<path d="M1.49976 8V13.7661C1.49976 14.4465 2.05328 15 2.73364 15H9.32349C10.0039 15 10.5574 14.4465 10.5574 13.7661V8C10.5574 7.31963 10.0039 6.76611 9.32349 6.76611H2.73364C2.05328 6.76611 1.49976 7.31963 1.49976 8ZM6.02856 9.2373C6.70893 9.2373 7.26245 9.79082 7.26245 10.4712C7.26245 11.0078 6.91803 11.4652 6.43872 11.6347V12.1187C6.43872 12.3452 6.25508 12.5288 6.02856 12.5288C5.80205 12.5288 5.61841 12.3452 5.61841 12.1187V11.6347C5.1391 11.4652 4.79468 11.0078 4.79468 10.4712C4.79468 9.79082 5.3482 9.2373 6.02856 9.2373Z" fill="#8E9CCC"/>
<path d="M6.02856 10.8848C6.25698 10.8848 6.44214 10.6996 6.44214 10.4712C6.44214 10.2428 6.25698 10.0576 6.02856 10.0576C5.80015 10.0576 5.61499 10.2428 5.61499 10.4712C5.61499 10.6996 5.80015 10.8848 6.02856 10.8848Z" fill="#8E9CCC"/>
</svg>
