<svg width="16" height="16" viewBox="0 0 16 16" fill="none" xmlns="http://www.w3.org/2000/svg">
<path d="M15.5312 2.79309C15.7901 2.79309 16 2.58322 16 2.32434V0.46875C16 0.209875 15.7901 0 15.5312 0H13.6757C13.4168 0 13.2069 0.209875 13.2069 0.46875V0.942094H9.39653V0.46875C9.39653 0.209875 9.18666 0 8.92778 0H7.07219C6.81331 0 6.60344 0.209875 6.60344 0.46875V0.942094H2.79309V0.46875C2.79309 0.209875 2.58322 0 2.32434 0H0.46875C0.209875 0 0 0.209875 0 0.46875V2.32434C0 2.58322 0.209875 2.79309 0.46875 2.79309H0.927781V6.60347H0.46875C0.209875 6.60347 0 6.81334 0 7.07222V8.92781C0 9.18669 0.209875 9.39656 0.46875 9.39656H0.927781V13.2069H0.46875C0.209875 13.2069 0 13.4168 0 13.6757V15.5312C0 15.7901 0.209875 16 0.46875 16H2.32434C2.58322 16 2.79309 15.7901 2.79309 15.5312V15.0768H6.60347V15.5312C6.60347 15.7901 6.81334 16 7.07222 16H8.92781C9.18669 16 9.39656 15.7901 9.39656 15.5312V15.0768H13.2069V15.5312C13.2069 15.7901 13.4168 16 13.6757 16H15.5312C15.7901 16 16 15.7901 16 15.5312V13.6757C16 13.4168 15.7901 13.2069 15.5312 13.2069H15.0625V9.39653H15.5312C15.7901 9.39653 16 9.18666 16 8.92778V7.07219C16 6.81331 15.7901 6.60344 15.5312 6.60344H15.0625V2.79309H15.5312ZM14.125 6.60347H13.6757C13.4168 6.60347 13.2069 6.81334 13.2069 7.07222V8.92781C13.2069 9.18669 13.4168 9.39656 13.6757 9.39656H14.125V13.2069H13.6757C13.4168 13.2069 13.2069 13.4168 13.2069 13.6757V14.1393H9.39653V13.6757C9.39653 13.4168 9.18666 13.2069 8.92778 13.2069H7.07219C6.81331 13.2069 6.60344 13.4168 6.60344 13.6757V14.1393H2.79309V13.6757C2.79309 13.4168 2.58322 13.2069 2.32434 13.2069H1.86528V9.39653H2.32431C2.58319 9.39653 2.79306 9.18666 2.79306 8.92778V7.07219C2.79306 6.81331 2.58319 6.60344 2.32431 6.60344H1.86528V2.79309H2.32431C2.58319 2.79309 2.79306 2.58322 2.79306 2.32434V1.87959H6.60344V2.32431C6.60344 2.58319 6.81331 2.79306 7.07219 2.79306H8.92778C9.18666 2.79306 9.39653 2.58319 9.39653 2.32431V1.87959H13.2069V2.32431C13.2069 2.58319 13.4168 2.79306 13.6757 2.79306H14.125V6.60347Z" fill="#8E9CCC"/>
<path d="M9.40779 6.13464C9.57257 6.13464 9.73451 6.14698 9.89282 6.17055V4.70898C9.89282 4.45011 9.68294 4.24023 9.42407 4.24023H4.71716C4.45829 4.24023 4.24841 4.45011 4.24841 4.70898V9.41589C4.24841 9.67477 4.45829 9.88464 4.71716 9.88464H6.16016C6.13816 9.73148 6.12654 9.57505 6.12654 9.41589C6.12654 7.60658 7.59851 6.13464 9.40779 6.13464Z" fill="#8E9CCC"/>
<path d="M9.40784 11.7598C10.7023 11.7598 11.7516 10.7104 11.7516 9.41602C11.7516 8.1216 10.7023 7.07227 9.40784 7.07227C8.11342 7.07227 7.06409 8.1216 7.06409 9.41602C7.06409 10.7104 8.11342 11.7598 9.40784 11.7598Z" fill="#8E9CCC"/>
</svg>
