<svg width="20" height="20" viewBox="0 0 20 20" fill="none" xmlns="http://www.w3.org/2000/svg">
<path d="M0.199766 4.94997C0.0728125 5.06122 0 5.22184 0 5.39063V13.9844C0 14.1532 0.0728125 14.3138 0.199766 14.425C0.326719 14.5363 0.495547 14.5874 0.662852 14.5652L5.3125 13.9453V5.42969L0.662891 4.80977C0.495352 4.78758 0.326719 4.83872 0.199766 4.94997Z" fill="#3870F3"/>
<path d="M19.8002 4.94994C19.6733 4.83869 19.5046 4.78763 19.3371 4.80974L14.6875 5.42967V13.9453L19.3371 14.5652C19.3628 14.5686 19.3885 14.5703 19.4141 14.5703C19.5552 14.5703 19.6927 14.5192 19.8002 14.425C19.9272 14.3138 20 14.1531 20 13.9844V5.3906C20 5.22181 19.9272 5.06119 19.8002 4.94994Z" fill="#3870F3"/>
<path d="M6.48438 13.7891H13.5156V5.58594H6.48438V13.7891ZM10 11.4453C10.3236 11.4453 10.5859 11.7077 10.5859 12.0312C10.5859 12.3548 10.3236 12.6172 10 12.6172C9.67641 12.6172 9.41406 12.3548 9.41406 12.0312C9.41406 11.7077 9.67641 11.4453 10 11.4453Z" fill="#3870F3"/>
</svg>
