<svg width="32" height="32" viewBox="0 0 32 32" fill="none" xmlns="http://www.w3.org/2000/svg">
<rect x="0.5" y="0.5" width="31" height="31" rx="15.5" fill="white"/>
<rect x="0.5" y="0.5" width="31" height="31" rx="15.5" stroke="#3870F3"/>
<path d="M20.9876 13.6531H19.0587V11.6692C19.0587 10.5746 18.1813 9.65993 17.103 9.63042C16.5548 9.61536 16.0367 9.81743 15.6442 10.1994C15.2514 10.5814 15.0352 11.0935 15.0352 11.6414V12.8242C15.0352 13.4443 14.716 14.0063 14.193 14.3237H9V22.3706H13.0235V21.0294H14.0976C15.062 21.8965 16.2958 22.3706 17.6024 22.3706H20.5609C21.6082 22.3706 22.4695 21.5841 22.5644 20.541L22.9911 15.8469C23.0437 15.268 22.8625 14.719 22.4809 14.3011C22.0994 13.8832 21.569 13.6531 20.9876 13.6531ZM11.6823 21.0294H10.3412V15.6648H11.6823V21.0294ZM21.6555 15.7255L21.2287 20.4196C21.1971 20.7672 20.91 21.0294 20.5609 21.0294H17.6025C16.5585 21.0294 15.577 20.6229 14.8388 19.8847L14.6424 19.6883H13.0235V15.6648H14.5229L14.6645 15.5941C15.7204 15.0661 16.3764 14.0048 16.3764 12.8242V11.6414C16.3764 11.4588 16.4485 11.288 16.5794 11.1606C16.7102 11.0334 16.8825 10.9662 17.0663 10.971C17.4254 10.9809 17.7175 11.2941 17.7175 11.6692V14.9942H20.9876C21.1876 14.9942 21.3662 15.0693 21.4906 15.2055C21.615 15.3417 21.6736 15.5264 21.6555 15.7255Z" fill="#3870F3"/>
</svg>
