<svg width="48" height="48" viewBox="0 0 48 48" fill="none" xmlns="http://www.w3.org/2000/svg">
<rect x="0.5" y="0.5" width="47" height="47" rx="23.5" fill="white"/>
<rect x="0.5" y="0.5" width="47" height="47" rx="23.5" stroke="#E0DFE7"/>
<path d="M14.4137 31.0534C10.5 31.0534 8 27.55 8 24.6204C8 21.2826 10.3724 18.4964 13.5227 17.8619C13.5171 17.8178 13.5171 17.7681 13.5171 17.724C13.5171 13.4593 16.9764 10 21.2412 10C24.3694 10 27.0617 11.8593 28.2755 14.5351C28.9541 14.1103 29.7596 13.862 30.6203 13.862C32.9651 13.862 34.8795 15.6882 35.023 17.9943C37.8974 18.8274 39.9994 21.4812 39.9994 24.6204C39.9994 27.55 37.5 31.0534 33.5857 31.0534H14.4137Z" fill="#3870F3"/>
<path d="M15.0005 29.0522V22.421C15.0005 21.6361 15.5761 21 16.2862 21H20.8963C21.2375 21 21.5645 21.1497 21.8053 21.4163L22.3381 22.0051C22.5793 22.2718 22.9063 22.4214 23.2471 22.4214H31.7143C32.4245 22.4214 33.0001 23.0576 33.0001 23.8424V29.0522H15.0005Z" fill="#EEF4FF"/>
<path d="M16.8 28.158V24.9768C16.8 24.7573 16.9898 24.5791 17.2236 24.5791H30.7765C31.0103 24.5791 31.2 24.7573 31.2 24.9768V28.158H16.8Z" fill="#4294FF"/>
<path d="M33 36.707V27.6605C33 26.9467 32.4244 26.3682 31.7143 26.3682H27.1041C26.763 26.3682 26.436 26.5043 26.1951 26.7468L25.6624 27.2823C25.4211 27.5248 25.0941 27.6609 24.7534 27.6609H16.2857C15.5756 27.6609 15 28.2395 15 28.9533V36.7074C15 37.4212 15.5756 37.9997 16.2857 37.9997H31.7143C32.4244 37.9997 33 37.4208 33 36.707Z" fill="#8DD1FE"/>
</svg>
