<svg width="25" height="24" viewBox="0 0 25 24" fill="none" xmlns="http://www.w3.org/2000/svg">
<g id="(ICON)" opacity="0.2">
<g id="Group 628051">
<path id="Vector" d="M9.39297 13.4546L11.1821 10.1831L14.4529 8.39374C14.6409 8.29105 14.7577 8.0939 14.7577 7.87967C14.7577 7.66559 14.6409 7.46844 14.4529 7.3656L11.1821 5.57635L9.39297 2.30487C9.29013 2.11688 9.09299 2 8.87891 2C8.66467 2 8.46753 2.11688 8.36484 2.30487L6.57574 5.57635L3.30472 7.36575C3.11688 7.46844 3 7.66559 3 7.87982C3 8.0939 3.11688 8.29105 3.30472 8.39389L6.57574 10.1831L8.36484 13.4546C8.46753 13.6426 8.66467 13.7595 8.87891 13.7595C9.09314 13.7595 9.29013 13.6426 9.39297 13.4546Z" fill="#242424"/>
<path id="Vector_2" d="M22.695 13.0594L20.5166 11.8678L19.3252 9.68915C19.2225 9.50116 19.0254 9.38428 18.8112 9.38428C18.5969 9.38428 18.3998 9.50116 18.2971 9.68915L17.1057 11.8678L14.9273 13.0594C14.7393 13.1622 14.6226 13.3593 14.6226 13.5734C14.6226 13.7877 14.7393 13.9848 14.9273 14.0875L17.1057 15.2791L18.2971 17.4579C18.3998 17.6457 18.5969 17.7626 18.8112 17.7626C19.0254 17.7626 19.2225 17.6457 19.3252 17.4579L20.5166 15.2791L22.695 14.0875C22.8828 13.9848 22.9997 13.7877 22.9997 13.5734C22.9997 13.3593 22.8828 13.1622 22.695 13.0594Z" fill="#242424"/>
<path id="Vector_3" d="M14.472 18.5454L13.1009 17.7955L12.3509 16.424C12.2482 16.236 12.0511 16.1191 11.8368 16.1191C11.6226 16.1191 11.4254 16.236 11.3228 16.424L10.5728 17.7955L9.20163 18.5454C9.01379 18.6483 8.89691 18.8454 8.89691 19.0595C8.89691 19.2737 9.01379 19.4707 9.20163 19.5736L10.5728 20.3237L11.3228 21.695C11.4254 21.883 11.6226 21.9999 11.8368 21.9999C12.0511 21.9999 12.2482 21.883 12.3509 21.695L13.1009 20.3237L14.472 19.5736C14.6599 19.4707 14.7767 19.2737 14.7767 19.0595C14.7767 18.8454 14.6599 18.6483 14.472 18.5454Z" fill="#242424"/>
</g>
</g>
</svg>
