<svg width="20" height="20" viewBox="0 0 20 20" fill="none" xmlns="http://www.w3.org/2000/svg">
<path d="M17.0312 0C14.1616 0 8.29176 0 2.96875 0C2.64488 0 2.38281 0.26207 2.38281 0.585938C2.38281 0.909805 2.64488 1.17188 2.96875 1.17188H3.55469V14.7266C3.55469 15.0504 3.81676 15.3125 4.14062 15.3125H9.41406V15.6558L6.24176 18.8281H5.3125C4.98863 18.8281 4.72656 19.0902 4.72656 19.4141C4.72656 19.7379 4.98863 20 5.3125 20H6.48438C6.64 20 6.78879 19.9382 6.89863 19.8283L9.41406 17.3129V19.4141C9.41406 19.7379 9.67613 20 10 20C10.3239 20 10.5859 19.7379 10.5859 19.4141V17.3129L13.1014 19.8284C13.2112 19.9382 13.36 20 13.5156 20H14.6875C15.0114 20 15.2734 19.7379 15.2734 19.4141C15.2734 19.0902 15.0114 18.8281 14.6875 18.8281H13.7582L10.5859 15.6558V15.3125H15.8594C16.1832 15.3125 16.4453 15.0504 16.4453 14.7266V1.17188H17.0312C17.3551 1.17188 17.6172 0.909805 17.6172 0.585938C17.6172 0.26207 17.3551 0 17.0312 0ZM13.5156 12.8906H6.48438C6.16051 12.8906 5.89844 12.6286 5.89844 12.3047C5.89844 11.9808 6.16051 11.7188 6.48438 11.7188H13.5156C13.8395 11.7188 14.1016 11.9808 14.1016 12.3047C14.1016 12.6286 13.8395 12.8906 13.5156 12.8906ZM14.1016 9.96094C14.1016 10.2738 13.8062 10.5469 13.5156 10.5469H6.48438C6.22078 10.5469 5.94035 10.3353 5.90953 10.0161C5.88863 9.80168 5.90305 6.45656 5.89844 2.92969C5.89844 2.60582 6.16051 2.34375 6.48438 2.34375H13.5156C13.8395 2.34375 14.1016 2.60582 14.1016 2.92969V9.96094Z" fill="#8E9CCC"/>
<path d="M7.07031 8.02574L8.34063 6.12031C8.43789 5.97441 8.59582 5.87941 8.77094 5.86227C8.93457 5.84453 9.11883 5.90633 9.24242 6.03105L10 6.78863L10.7576 6.03102C10.8812 5.90629 11.062 5.84391 11.2291 5.86223C11.4042 5.87937 11.5621 5.97438 11.6594 6.12027L12.9297 8.02574V3.51562H7.07031V8.02574Z" fill="#8E9CCC"/>
<path d="M10.4143 8.03147C10.1854 8.26034 9.81462 8.26034 9.58575 8.03147L8.9197 7.36487L7.57935 9.37502H12.4208L11.0804 7.36487L10.4143 8.03147Z" fill="#8E9CCC"/>
</svg>
