<svg width="28" height="28" viewBox="0 0 28 28" fill="none" xmlns="http://www.w3.org/2000/svg">
<rect x="0.5" y="0.5" width="27" height="27" rx="13.5" fill="#242424"/>
<rect x="0.5" y="0.5" width="27" height="27" rx="13.5" stroke="white"/>
<path d="M8.85714 19.6875C8.85714 20.4121 9.43304 21 10.1429 21H17.8571C18.567 21 19.1429 20.4121 19.1429 19.6875V10.5001H8.85714V19.6875ZM16.1429 12.6876C16.1429 12.4442 16.333 12.2501 16.5714 12.2501C16.8098 12.2501 17 12.4449 17 12.6876V18.8125C17 19.0552 16.8092 19.25 16.5714 19.25C16.3337 19.25 16.1429 19.0552 16.1429 18.8125V12.6876ZM13.5714 12.6876C13.5714 12.4442 13.7616 12.2501 14 12.2501C14.2384 12.2501 14.4286 12.4449 14.4286 12.6876V18.8125C14.4286 19.0552 14.2377 19.25 14 19.25C13.7623 19.25 13.5714 19.0552 13.5714 18.8125V12.6876ZM11 12.6876C11 12.4442 11.1902 12.2501 11.4286 12.2501C11.667 12.2501 11.8571 12.4449 11.8571 12.6876V18.8125C11.8571 19.0559 11.667 19.25 11.4286 19.25C11.1902 19.25 11 19.0552 11 18.8125V12.6876ZM19.5714 7.8751H16.5714L16.2613 7.24183C16.1887 7.09362 16.0403 7 15.8779 7H12.1223C11.96 7 11.8116 7.09362 11.739 7.24183L11.4286 7.8751H8.42857C8.19189 7.8751 8 8.07094 8 8.3126V9.18759C8 9.4292 8.19189 9.62509 8.42857 9.62509H19.5714C19.8082 9.62509 20 9.4292 20 9.18759V8.3126C20 8.07088 19.8071 7.8751 19.5714 7.8751Z" fill="white"/>
</svg>
