<svg width="28" height="28" viewBox="0 0 28 28" fill="none" xmlns="http://www.w3.org/2000/svg">
<path d="M22.25 3H5.75C4.23122 3 3 4.23122 3 5.75V22.25C3 23.7688 4.23122 25 5.75 25H22.25C23.7688 25 25 23.7688 25 22.25V5.75C25 4.23122 23.7688 3 22.25 3Z" fill="#EEF4FF"/>
<path d="M9.875 13.3125C11.7735 13.3125 13.3125 11.7735 13.3125 9.875C13.3125 7.97652 11.7735 6.4375 9.875 6.4375C7.97652 6.4375 6.4375 7.97652 6.4375 9.875C6.4375 11.7735 7.97652 13.3125 9.875 13.3125Z" fill="#4294FF"/>
<path d="M24.9998 22.2497V14.4025L22.0484 11.4512C21.9822 11.3848 21.9032 11.3327 21.8161 11.2981C21.7291 11.2634 21.6358 11.247 21.5422 11.2497C21.4485 11.2525 21.3564 11.2744 21.2715 11.3141C21.1867 11.3539 21.1108 11.4105 21.0487 11.4807L15.5487 17.6682C15.4321 17.7991 15.37 17.9697 15.3751 18.1449C15.3803 18.3202 15.4522 18.4869 15.5762 18.6108L21.9651 24.9997H22.2498C22.979 24.999 23.678 24.7091 24.1936 24.1935C24.7092 23.6779 24.9991 22.9789 24.9998 22.2497Z" fill="#8E9CCC"/>
<path d="M13.7989 14.8889C13.7327 14.8202 13.6524 14.7666 13.5635 14.732C13.4746 14.6973 13.3792 14.6824 13.284 14.6882C13.1889 14.6921 13.0958 14.7158 13.0104 14.7576C12.925 14.7994 12.8492 14.8585 12.7878 14.9312L4.52344 24.6981C4.90299 24.8938 5.32334 24.9972 5.75035 25H22.2503C22.71 24.9968 23.1613 24.8771 23.562 24.652L13.7989 14.8889Z" fill="#4294FF"/>
</svg>
