<svg width="20" height="20" viewBox="0 0 20 20" fill="none" xmlns="http://www.w3.org/2000/svg">
<path d="M7 3H8V17H7V3Z" fill="#3870F3"/>
<path d="M12 3H13V17H12V3Z" fill="#3870F3"/>
<path d="M17 7L17 8L3 8L3 7L17 7Z" fill="#3870F3"/>
<path d="M17 12L17 13L3 13L3 12L17 12Z" fill="#3870F3"/>
<path d="M4.35355 4.35355L6.20711 2.5H10H13.7929L15.6464 4.35355L17.5 6.20711V10V13.7929L15.6464 15.6464L13.7929 17.5H10H6.20711L4.35355 15.6464L2.5 13.7929V10V6.20711L4.35355 4.35355Z" stroke="#3870F3"/>
</svg>
