<svg width="36" height="36" viewBox="0 0 36 36" fill="none" xmlns="http://www.w3.org/2000/svg">
<path d="M31.8612 32.6201H7.29278C6.11153 32.6201 5.15396 31.6625 5.15396 30.4812L5.15396 10.1063C5.15396 8.92509 6.11153 7.96753 7.29278 7.96753L31.8612 7.96753C33.0424 7.96753 34 8.92509 34 10.1063V30.4812C34 31.6625 33.0424 32.6201 31.8612 32.6201Z" fill="url(#paint0_linear_7661_11284)"/>
<path d="M29.8581 30.6104H9.29534C8.30672 30.6104 7.50525 29.8089 7.50525 28.8203L7.50525 11.7674C7.50525 10.7788 8.30672 9.97729 9.29534 9.97729L29.8581 9.97729C30.8467 9.97729 31.6482 10.7788 31.6482 11.7674V28.8203C31.6482 29.8089 30.8467 30.6104 29.8581 30.6104Z" fill="url(#paint1_linear_7661_11284)"/>
<path d="M21.0083 30.6102H9.29563C8.30683 30.6102 7.50497 29.809 7.50497 28.8203V26.0248L10.4767 22.4127C11.4574 21.2195 13.2829 21.2195 14.2643 22.4127L16.1147 24.6622L21.0083 30.6102Z" fill="url(#paint2_linear_7661_11284)"/>
<path d="M31.6484 24.3253V28.8204C31.6484 29.8092 30.8466 30.6103 29.8578 30.6103H11.221L16.1147 24.6623L22.1264 17.3543C23.1072 16.1619 24.9334 16.1619 25.9141 17.3543L31.6484 24.3253Z" fill="url(#paint3_linear_7661_11284)"/>
<path d="M13.7599 16.8388C15.1619 16.8388 16.2984 15.7023 16.2984 14.3003C16.2984 12.8983 15.1619 11.7617 13.7599 11.7617C12.3579 11.7617 11.2213 12.8983 11.2213 14.3003C11.2213 15.7023 12.3579 16.8388 13.7599 16.8388Z" fill="url(#paint4_linear_7661_11284)"/>
<path d="M2.97616 5.95245C3.51532 5.95245 3.95239 5.51538 3.95239 4.97622C3.95239 4.43707 3.51532 4 2.97616 4C2.43701 4 1.99994 4.43707 1.99994 4.97622C1.99994 5.51538 2.43701 5.95245 2.97616 5.95245Z" fill="url(#paint5_linear_7661_11284)"/>
<path d="M2.97616 8.10211C3.51532 8.10211 3.95239 7.66504 3.95239 7.12588C3.95239 6.58673 3.51532 6.14966 2.97616 6.14966C2.43701 6.14966 1.99994 6.58673 1.99994 7.12588C1.99994 7.66504 2.43701 8.10211 2.97616 8.10211Z" fill="url(#paint6_linear_7661_11284)"/>
<path d="M2.97616 10.252C3.51532 10.252 3.95239 9.81494 3.95239 9.27578C3.95239 8.73663 3.51532 8.29956 2.97616 8.29956C2.43701 8.29956 1.99994 8.73663 1.99994 9.27578C1.99994 9.81494 2.43701 10.252 2.97616 10.252Z" fill="url(#paint7_linear_7661_11284)"/>
<path d="M2.97616 12.4017C3.51532 12.4017 3.95239 11.9646 3.95239 11.4254C3.95239 10.8863 3.51532 10.4492 2.97616 10.4492C2.43701 10.4492 1.99994 10.8863 1.99994 11.4254C1.99994 11.9646 2.43701 12.4017 2.97616 12.4017Z" fill="url(#paint8_linear_7661_11284)"/>
<path d="M2.97616 14.5516C3.51532 14.5516 3.95239 14.1145 3.95239 13.5753C3.95239 13.0362 3.51532 12.5991 2.97616 12.5991C2.43701 12.5991 1.99994 13.0362 1.99994 13.5753C1.99994 14.1145 2.43701 14.5516 2.97616 14.5516Z" fill="url(#paint9_linear_7661_11284)"/>
<path d="M2.97616 16.7012C3.51532 16.7012 3.95239 16.2642 3.95239 15.725C3.95239 15.1858 3.51532 14.7488 2.97616 14.7488C2.43701 14.7488 1.99994 15.1858 1.99994 15.725C1.99994 16.2642 2.43701 16.7012 2.97616 16.7012Z" fill="url(#paint10_linear_7661_11284)"/>
<path d="M2.97616 18.8511C3.51532 18.8511 3.95239 18.4141 3.95239 17.8749C3.95239 17.3358 3.51532 16.8987 2.97616 16.8987C2.43701 16.8987 1.99994 17.3358 1.99994 17.8749C1.99994 18.4141 2.43701 18.8511 2.97616 18.8511Z" fill="url(#paint11_linear_7661_11284)"/>
<path d="M2.97616 21.0008C3.51532 21.0008 3.95239 20.5637 3.95239 20.0246C3.95239 19.4854 3.51532 19.0483 2.97616 19.0483C2.43701 19.0483 1.99994 19.4854 1.99994 20.0246C1.99994 20.5637 2.43701 21.0008 2.97616 21.0008Z" fill="url(#paint12_linear_7661_11284)"/>
<path d="M2.97616 23.1507C3.51532 23.1507 3.95239 22.7136 3.95239 22.1745C3.95239 21.6353 3.51532 21.1982 2.97616 21.1982C2.43701 21.1982 1.99994 21.6353 1.99994 22.1745C1.99994 22.7136 2.43701 23.1507 2.97616 23.1507Z" fill="url(#paint13_linear_7661_11284)"/>
<path d="M2.97616 25.3003C3.51532 25.3003 3.95239 24.8633 3.95239 24.3241C3.95239 23.785 3.51532 23.3479 2.97616 23.3479C2.43701 23.3479 1.99994 23.785 1.99994 24.3241C1.99994 24.8633 2.43701 25.3003 2.97616 25.3003Z" fill="url(#paint14_linear_7661_11284)"/>
<path d="M2.97616 27.4503C3.51532 27.4503 3.95239 27.0132 3.95239 26.474C3.95239 25.9349 3.51532 25.4978 2.97616 25.4978C2.43701 25.4978 1.99994 25.9349 1.99994 26.474C1.99994 27.0132 2.43701 27.4503 2.97616 27.4503Z" fill="url(#paint15_linear_7661_11284)"/>
<path d="M2.97616 29.5999C3.51532 29.5999 3.95239 29.1628 3.95239 28.6237C3.95239 28.0845 3.51532 27.6475 2.97616 27.6475C2.43701 27.6475 1.99994 28.0845 1.99994 28.6237C1.99994 29.1628 2.43701 29.5999 2.97616 29.5999Z" fill="url(#paint16_linear_7661_11284)"/>
<path d="M4.97163 4.05615C4.46348 4.05615 4.05151 4.46812 4.05151 4.97627C4.05151 5.48442 4.46348 5.89638 4.97163 5.89638C5.47978 5.89638 5.89175 5.48442 5.89175 4.97627C5.89175 4.46812 5.47978 4.05615 4.97163 4.05615Z" fill="url(#paint17_linear_7661_11284)"/>
<path d="M4.97163 6.20581C4.46348 6.20581 4.05151 6.61778 4.05151 7.12593C4.05151 7.63408 4.46348 8.04604 4.97163 8.04604C5.47978 8.04604 5.89175 7.63408 5.89175 7.12593C5.89167 6.61778 5.47978 6.20581 4.97163 6.20581Z" fill="url(#paint18_linear_7661_11284)"/>
<path d="M4.97163 8.35571C4.46348 8.35571 4.05151 8.76768 4.05151 9.27583C4.05151 9.78398 4.46348 10.1959 4.97163 10.1959C5.47978 10.1959 5.89175 9.78398 5.89175 9.27583C5.89167 8.7676 5.47978 8.35571 4.97163 8.35571Z" fill="url(#paint19_linear_7661_11284)"/>
<path d="M4.97163 10.5054C4.46348 10.5054 4.05151 10.9173 4.05151 11.4255C4.05151 11.9336 4.46348 12.3456 4.97163 12.3456C5.47978 12.3456 5.89175 11.9336 5.89175 11.4255C5.89167 10.9173 5.47978 10.5054 4.97163 10.5054Z" fill="url(#paint20_linear_7661_11284)"/>
<path d="M4.97163 12.6553C4.46348 12.6553 4.05151 13.0672 4.05151 13.5754C4.05151 14.0835 4.46348 14.4955 4.97163 14.4955C5.47978 14.4955 5.89175 14.0835 5.89175 13.5754C5.89167 13.0672 5.47978 12.6553 4.97163 12.6553Z" fill="url(#paint21_linear_7661_11284)"/>
<path d="M4.97163 14.8049C4.46348 14.8049 4.05151 15.2169 4.05151 15.725C4.05151 16.2332 4.46348 16.6452 4.97163 16.6452C5.47978 16.6452 5.89175 16.2332 5.89175 15.725C5.89167 15.2169 5.47978 14.8049 4.97163 14.8049Z" fill="url(#paint22_linear_7661_11284)"/>
<path d="M4.97163 16.9548C4.46348 16.9548 4.05151 17.3668 4.05151 17.8749C4.05151 18.3831 4.46348 18.7951 4.97163 18.7951C5.47978 18.7951 5.89175 18.3831 5.89175 17.8749C5.89167 17.3668 5.47978 16.9548 4.97163 16.9548Z" fill="url(#paint23_linear_7661_11284)"/>
<path d="M4.97163 19.1045C4.46348 19.1045 4.05151 19.5165 4.05151 20.0246C4.05151 20.5328 4.46348 20.9447 4.97163 20.9447C5.47978 20.9447 5.89175 20.5328 5.89175 20.0246C5.89167 19.5164 5.47978 19.1045 4.97163 19.1045Z" fill="url(#paint24_linear_7661_11284)"/>
<path d="M4.97163 21.2542C4.46348 21.2542 4.05151 21.6661 4.05151 22.1743C4.05151 22.6824 4.46348 23.0944 4.97163 23.0944C5.47978 23.0944 5.89175 22.6824 5.89175 22.1743C5.89167 21.6661 5.47978 21.2542 4.97163 21.2542Z" fill="url(#paint25_linear_7661_11284)"/>
<path d="M4.97163 23.4041C4.46348 23.4041 4.05151 23.816 4.05151 24.3242C4.05151 24.8323 4.46348 25.2443 4.97163 25.2443C5.47978 25.2443 5.89175 24.8323 5.89175 24.3242C5.89167 23.8159 5.47978 23.4041 4.97163 23.4041Z" fill="url(#paint26_linear_7661_11284)"/>
<path d="M4.97163 25.554C4.46348 25.554 4.05151 25.9659 4.05151 26.4741C4.05151 26.9822 4.46348 27.3942 4.97163 27.3942C5.47978 27.3942 5.89175 26.9822 5.89175 26.4741C5.89175 25.9659 5.47978 25.554 4.97163 25.554Z" fill="url(#paint27_linear_7661_11284)"/>
<path d="M4.97163 27.7036C4.46348 27.7036 4.05151 28.1156 4.05151 28.6237C4.05151 29.1319 4.46348 29.5438 4.97163 29.5438C5.47978 29.5438 5.89175 29.1319 5.89175 28.6237C5.89167 28.1155 5.47978 27.7036 4.97163 27.7036Z" fill="url(#paint28_linear_7661_11284)"/>
<path d="M6.96819 5.84032C7.44537 5.84032 7.8322 5.45349 7.8322 4.97631C7.8322 4.49913 7.44537 4.1123 6.96819 4.1123C6.49102 4.1123 6.10419 4.49913 6.10419 4.97631C6.10419 5.45349 6.49102 5.84032 6.96819 5.84032Z" fill="url(#paint29_linear_7661_11284)"/>
<path d="M6.96819 7.98998C7.44537 7.98998 7.8322 7.60315 7.8322 7.12597C7.8322 6.64879 7.44537 6.26196 6.96819 6.26196C6.49102 6.26196 6.10419 6.64879 6.10419 7.12597C6.10419 7.60315 6.49102 7.98998 6.96819 7.98998Z" fill="url(#paint30_linear_7661_11284)"/>
<path d="M6.96819 10.1396C7.44537 10.1396 7.8322 9.75281 7.8322 9.27563C7.8322 8.79845 7.44537 8.41162 6.96819 8.41162C6.49102 8.41162 6.10419 8.79845 6.10419 9.27563C6.10419 9.75281 6.49102 10.1396 6.96819 10.1396Z" fill="url(#paint31_linear_7661_11284)"/>
<path d="M6.96819 12.2895C7.44537 12.2895 7.8322 11.9027 7.8322 11.4255C7.8322 10.9484 7.44537 10.5615 6.96819 10.5615C6.49102 10.5615 6.10419 10.9484 6.10419 11.4255C6.10419 11.9027 6.49102 12.2895 6.96819 12.2895Z" fill="url(#paint32_linear_7661_11284)"/>
<path d="M6.96819 14.4392C7.44537 14.4392 7.8322 14.0524 7.8322 13.5752C7.8322 13.098 7.44537 12.7112 6.96819 12.7112C6.49102 12.7112 6.10419 13.098 6.10419 13.5752C6.10419 14.0524 6.49102 14.4392 6.96819 14.4392Z" fill="url(#paint33_linear_7661_11284)"/>
<path d="M6.96819 16.5891C7.44537 16.5891 7.8322 16.2023 7.8322 15.7251C7.8322 15.2479 7.44537 14.8611 6.96819 14.8611C6.49102 14.8611 6.10419 15.2479 6.10419 15.7251C6.10419 16.2023 6.49102 16.5891 6.96819 16.5891Z" fill="url(#paint34_linear_7661_11284)"/>
<path d="M6.96819 18.7388C7.44537 18.7388 7.8322 18.3519 7.8322 17.8747C7.8322 17.3976 7.44537 17.0107 6.96819 17.0107C6.49102 17.0107 6.10419 17.3976 6.10419 17.8747C6.10419 18.3519 6.49102 18.7388 6.96819 18.7388Z" fill="url(#paint35_linear_7661_11284)"/>
<path d="M6.96819 20.8887C7.44537 20.8887 7.8322 20.5018 7.8322 20.0247C7.8322 19.5475 7.44537 19.1606 6.96819 19.1606C6.49102 19.1606 6.10419 19.5475 6.10419 20.0247C6.10419 20.5018 6.49102 20.8887 6.96819 20.8887Z" fill="url(#paint36_linear_7661_11284)"/>
<path d="M6.96819 23.0383C7.44537 23.0383 7.8322 22.6515 7.8322 22.1743C7.8322 21.6971 7.44537 21.3103 6.96819 21.3103C6.49102 21.3103 6.10419 21.6971 6.10419 22.1743C6.10419 22.6515 6.49102 23.0383 6.96819 23.0383Z" fill="url(#paint37_linear_7661_11284)"/>
<path d="M6.96819 25.1882C7.44537 25.1882 7.8322 24.8014 7.8322 24.3242C7.8322 23.847 7.44537 23.4602 6.96819 23.4602C6.49102 23.4602 6.10419 23.847 6.10419 24.3242C6.10419 24.8014 6.49102 25.1882 6.96819 25.1882Z" fill="url(#paint38_linear_7661_11284)"/>
<path d="M6.96819 27.3379C7.44537 27.3379 7.8322 26.951 7.8322 26.4739C7.8322 25.9967 7.44537 25.6099 6.96819 25.6099C6.49102 25.6099 6.10419 25.9967 6.10419 26.4739C6.10419 26.951 6.49102 27.3379 6.96819 27.3379Z" fill="url(#paint39_linear_7661_11284)"/>
<path d="M6.96819 29.4878C7.44537 29.4878 7.8322 29.101 7.8322 28.6238C7.8322 28.1466 7.44537 27.7598 6.96819 27.7598C6.49102 27.7598 6.10419 28.1466 6.10419 28.6238C6.10419 29.101 6.49102 29.4878 6.96819 29.4878Z" fill="url(#paint40_linear_7661_11284)"/>
<path d="M8.96361 5.7841C9.40976 5.7841 9.77143 5.42242 9.77143 4.97628C9.77143 4.53013 9.40976 4.16846 8.96361 4.16846C8.51746 4.16846 8.15579 4.53013 8.15579 4.97628C8.15579 5.42242 8.51746 5.7841 8.96361 5.7841Z" fill="url(#paint41_linear_7661_11284)"/>
<path d="M8.96361 7.93375C9.40976 7.93375 9.77143 7.57208 9.77143 7.12593C9.77143 6.67979 9.40976 6.31812 8.96361 6.31812C8.51746 6.31812 8.15579 6.67979 8.15579 7.12593C8.15579 7.57208 8.51746 7.93375 8.96361 7.93375Z" fill="url(#paint42_linear_7661_11284)"/>
<path d="M8.96361 10.0834C9.40976 10.0834 9.77143 9.72174 9.77143 9.27559C9.77143 8.82945 9.40976 8.46777 8.96361 8.46777C8.51746 8.46777 8.15579 8.82945 8.15579 9.27559C8.15579 9.72174 8.51746 10.0834 8.96361 10.0834Z" fill="url(#paint43_linear_7661_11284)"/>
<path d="M8.96361 12.2333C9.40976 12.2333 9.77143 11.8716 9.77143 11.4255C9.77143 10.9793 9.40976 10.6177 8.96361 10.6177C8.51746 10.6177 8.15579 10.9793 8.15579 11.4255C8.15579 11.8716 8.51746 12.2333 8.96361 12.2333Z" fill="url(#paint44_linear_7661_11284)"/>
<path d="M8.96361 14.383C9.40976 14.383 9.77143 14.0213 9.77143 13.5752C9.77143 13.129 9.40976 12.7673 8.96361 12.7673C8.51746 12.7673 8.15579 13.129 8.15579 13.5752C8.15579 14.0213 8.51746 14.383 8.96361 14.383Z" fill="url(#paint45_linear_7661_11284)"/>
<path d="M8.96361 16.5329C9.40976 16.5329 9.77143 16.1712 9.77143 15.7251C9.77143 15.2789 9.40976 14.9172 8.96361 14.9172C8.51746 14.9172 8.15579 15.2789 8.15579 15.7251C8.15579 16.1712 8.51746 16.5329 8.96361 16.5329Z" fill="url(#paint46_linear_7661_11284)"/>
<path d="M8.96361 18.6825C9.40976 18.6825 9.77143 18.3209 9.77143 17.8747C9.77143 17.4286 9.40976 17.0669 8.96361 17.0669C8.51746 17.0669 8.15579 17.4286 8.15579 17.8747C8.15579 18.3209 8.51746 18.6825 8.96361 18.6825Z" fill="url(#paint47_linear_7661_11284)"/>
<path d="M8.96361 20.8324C9.40976 20.8324 9.77143 20.4708 9.77143 20.0246C9.77143 19.5785 9.40976 19.2168 8.96361 19.2168C8.51746 19.2168 8.15579 19.5785 8.15579 20.0246C8.15579 20.4708 8.51746 20.8324 8.96361 20.8324Z" fill="url(#paint48_linear_7661_11284)"/>
<path d="M8.96361 22.9821C9.40976 22.9821 9.77143 22.6204 9.77143 22.1743C9.77143 21.7281 9.40976 21.3665 8.96361 21.3665C8.51746 21.3665 8.15579 21.7281 8.15579 22.1743C8.15579 22.6204 8.51746 22.9821 8.96361 22.9821Z" fill="url(#paint49_linear_7661_11284)"/>
<path d="M8.96361 25.132C9.40976 25.132 9.77143 24.7703 9.77143 24.3242C9.77143 23.878 9.40976 23.5164 8.96361 23.5164C8.51746 23.5164 8.15579 23.878 8.15579 24.3242C8.15579 24.7703 8.51746 25.132 8.96361 25.132Z" fill="url(#paint50_linear_7661_11284)"/>
<path d="M8.96361 27.2819C9.40976 27.2819 9.77143 26.9202 9.77143 26.4741C9.77143 26.0279 9.40976 25.6663 8.96361 25.6663C8.51746 25.6663 8.15579 26.0279 8.15579 26.4741C8.15579 26.9202 8.51746 27.2819 8.96361 27.2819Z" fill="url(#paint51_linear_7661_11284)"/>
<path d="M8.96361 29.4316C9.40976 29.4316 9.77143 29.0699 9.77143 28.6237C9.77143 28.1776 9.40976 27.8159 8.96361 27.8159C8.51746 27.8159 8.15579 28.1776 8.15579 28.6237C8.15579 29.0699 8.51746 29.4316 8.96361 29.4316Z" fill="url(#paint52_linear_7661_11284)"/>
<path d="M10.9594 5.72779C11.3745 5.72779 11.7111 5.39124 11.7111 4.97608C11.7111 4.56092 11.3745 4.22437 10.9594 4.22437C10.5442 4.22437 10.2076 4.56092 10.2076 4.97608C10.2076 5.39124 10.5442 5.72779 10.9594 5.72779Z" fill="url(#paint53_linear_7661_11284)"/>
<path d="M10.9594 6.37427C10.5442 6.37427 10.2076 6.71084 10.2076 7.12598C10.2076 7.54112 10.5442 7.87769 10.9594 7.87769C11.3745 7.87769 11.7111 7.54112 11.7111 7.12598C11.7111 6.71084 11.3745 6.37427 10.9594 6.37427Z" fill="url(#paint54_linear_7661_11284)"/>
<path d="M10.9594 10.0273C11.3745 10.0273 11.7111 9.6908 11.7111 9.27564C11.7111 8.86048 11.3745 8.52393 10.9594 8.52393C10.5442 8.52393 10.2076 8.86048 10.2076 9.27564C10.2076 9.6908 10.5442 10.0273 10.9594 10.0273Z" fill="url(#paint55_linear_7661_11284)"/>
<path d="M10.9594 10.6738C10.5442 10.6738 10.2076 11.0104 10.2076 11.4255C10.2076 11.8407 10.5442 12.1772 10.9594 12.1772C11.3745 12.1772 11.7111 11.8407 11.7111 11.4255C11.7111 11.0104 11.3745 10.6738 10.9594 10.6738Z" fill="url(#paint56_linear_7661_11284)"/>
<path d="M10.9594 14.3269C11.3745 14.3269 11.7111 13.9904 11.7111 13.5752C11.7111 13.16 11.3745 12.8235 10.9594 12.8235C10.5442 12.8235 10.2076 13.16 10.2076 13.5752C10.2076 13.9904 10.5442 14.3269 10.9594 14.3269Z" fill="url(#paint57_linear_7661_11284)"/>
<path d="M10.9594 16.4768C11.3745 16.4768 11.7111 16.1403 11.7111 15.7251C11.7111 15.3099 11.3745 14.9734 10.9594 14.9734C10.5442 14.9734 10.2076 15.3099 10.2076 15.7251C10.2076 16.1403 10.5442 16.4768 10.9594 16.4768Z" fill="url(#paint58_linear_7661_11284)"/>
<path d="M10.9594 17.123C10.5442 17.123 10.2076 17.4596 10.2076 17.8748C10.2076 18.2899 10.5442 18.6265 10.9594 18.6265C11.3745 18.6265 11.7111 18.2899 11.7111 17.8748C11.7111 17.4596 11.3745 17.123 10.9594 17.123Z" fill="url(#paint59_linear_7661_11284)"/>
<path d="M10.9594 20.7764C11.3745 20.7764 11.7111 20.4398 11.7111 20.0247C11.7111 19.6095 11.3745 19.2729 10.9594 19.2729C10.5442 19.2729 10.2076 19.6095 10.2076 20.0247C10.2076 20.4398 10.5442 20.7764 10.9594 20.7764Z" fill="url(#paint60_linear_7661_11284)"/>
<path d="M10.9594 22.926C11.3745 22.926 11.7111 22.5895 11.7111 22.1743C11.7111 21.7592 11.3745 21.4226 10.9594 21.4226C10.5442 21.4226 10.2076 21.7592 10.2076 22.1743C10.2076 22.5895 10.5442 22.926 10.9594 22.926Z" fill="url(#paint61_linear_7661_11284)"/>
<path d="M10.9594 23.5725C10.5442 23.5725 10.2076 23.9091 10.2076 24.3242C10.2076 24.7394 10.5442 25.0759 10.9594 25.0759C11.3745 25.0759 11.7111 24.7394 11.7111 24.3242C11.7111 23.909 11.3745 23.5725 10.9594 23.5725Z" fill="url(#paint62_linear_7661_11284)"/>
<path d="M10.9594 27.2256C11.3745 27.2256 11.7111 26.889 11.7111 26.4739C11.7111 26.0587 11.3745 25.7222 10.9594 25.7222C10.5442 25.7222 10.2076 26.0587 10.2076 26.4739C10.2076 26.889 10.5442 27.2256 10.9594 27.2256Z" fill="url(#paint63_linear_7661_11284)"/>
<path d="M10.9594 27.8721C10.5442 27.8721 10.2076 28.2086 10.2076 28.6238C10.2076 29.0389 10.5442 29.3755 10.9594 29.3755C11.3745 29.3755 11.7111 29.0389 11.7111 28.6238C11.7111 28.2086 11.3745 27.8721 10.9594 27.8721Z" fill="url(#paint64_linear_7661_11284)"/>
<path d="M12.9556 5.67172C13.3398 5.67172 13.6512 5.36029 13.6512 4.97612C13.6512 4.59195 13.3398 4.28052 12.9556 4.28052C12.5715 4.28052 12.26 4.59195 12.26 4.97612C12.26 5.36029 12.5715 5.67172 12.9556 5.67172Z" fill="url(#paint65_linear_7661_11284)"/>
<path d="M12.9556 7.82162C13.3398 7.82162 13.6512 7.51019 13.6512 7.12602C13.6512 6.74185 13.3398 6.43042 12.9556 6.43042C12.5715 6.43042 12.26 6.74185 12.26 7.12602C12.26 7.51019 12.5715 7.82162 12.9556 7.82162Z" fill="url(#paint66_linear_7661_11284)"/>
<path d="M12.9556 9.97128C13.3398 9.97128 13.6512 9.65985 13.6512 9.27568C13.6512 8.89151 13.3398 8.58008 12.9556 8.58008C12.5715 8.58008 12.26 8.89151 12.26 9.27568C12.26 9.65985 12.5715 9.97128 12.9556 9.97128Z" fill="url(#paint67_linear_7661_11284)"/>
<path d="M12.9556 12.1212C13.3398 12.1212 13.6512 11.8098 13.6512 11.4256C13.6512 11.0414 13.3398 10.73 12.9556 10.73C12.5715 10.73 12.26 11.0414 12.26 11.4256C12.26 11.8098 12.5715 12.1212 12.9556 12.1212Z" fill="url(#paint68_linear_7661_11284)"/>
<path d="M12.9556 14.2708C13.3398 14.2708 13.6512 13.9594 13.6512 13.5752C13.6512 13.1911 13.3398 12.8796 12.9556 12.8796C12.5715 12.8796 12.26 13.1911 12.26 13.5752C12.26 13.9594 12.5715 14.2708 12.9556 14.2708Z" fill="url(#paint69_linear_7661_11284)"/>
<path d="M12.9556 16.4207C13.3398 16.4207 13.6512 16.1093 13.6512 15.7251C13.6512 15.341 13.3398 15.0295 12.9556 15.0295C12.5715 15.0295 12.26 15.341 12.26 15.7251C12.26 16.1093 12.5715 16.4207 12.9556 16.4207Z" fill="url(#paint70_linear_7661_11284)"/>
<path d="M12.9556 18.5704C13.3398 18.5704 13.6512 18.259 13.6512 17.8748C13.6512 17.4906 13.3398 17.1792 12.9556 17.1792C12.5715 17.1792 12.26 17.4906 12.26 17.8748C12.26 18.259 12.5715 18.5704 12.9556 18.5704Z" fill="url(#paint71_linear_7661_11284)"/>
<path d="M12.9556 20.7203C13.3398 20.7203 13.6512 20.4089 13.6512 20.0247C13.6512 19.6405 13.3398 19.3291 12.9556 19.3291C12.5715 19.3291 12.26 19.6405 12.26 20.0247C12.26 20.4089 12.5715 20.7203 12.9556 20.7203Z" fill="url(#paint72_linear_7661_11284)"/>
<path d="M12.9556 22.87C13.3398 22.87 13.6512 22.5585 13.6512 22.1744C13.6512 21.7902 13.3398 21.4788 12.9556 21.4788C12.5715 21.4788 12.26 21.7902 12.26 22.1744C12.26 22.5585 12.5715 22.87 12.9556 22.87Z" fill="url(#paint73_linear_7661_11284)"/>
<path d="M12.9556 25.0196C13.3398 25.0196 13.6512 24.7082 13.6512 24.324C13.6512 23.9399 13.3398 23.6284 12.9556 23.6284C12.5715 23.6284 12.26 23.9399 12.26 24.324C12.26 24.7082 12.5715 25.0196 12.9556 25.0196Z" fill="url(#paint74_linear_7661_11284)"/>
<path d="M12.9556 27.1695C13.3398 27.1695 13.6512 26.8581 13.6512 26.4739C13.6512 26.0898 13.3398 25.7783 12.9556 25.7783C12.5715 25.7783 12.26 26.0898 12.26 26.4739C12.26 26.8581 12.5715 27.1695 12.9556 27.1695Z" fill="url(#paint75_linear_7661_11284)"/>
<path d="M12.9556 29.3194C13.3398 29.3194 13.6512 29.008 13.6512 28.6238C13.6512 28.2397 13.3398 27.9282 12.9556 27.9282C12.5715 27.9282 12.26 28.2397 12.26 28.6238C12.26 29.008 12.5715 29.3194 12.9556 29.3194Z" fill="url(#paint76_linear_7661_11284)"/>
<path d="M14.9516 5.61574C15.3047 5.61574 15.591 5.32947 15.591 4.97633C15.591 4.62319 15.3047 4.33691 14.9516 4.33691C14.5985 4.33691 14.3122 4.62319 14.3122 4.97633C14.3122 5.32947 14.5985 5.61574 14.9516 5.61574Z" fill="url(#paint77_linear_7661_11284)"/>
<path d="M14.9516 7.7654C15.3047 7.7654 15.591 7.47913 15.591 7.12599C15.591 6.77285 15.3047 6.48657 14.9516 6.48657C14.5985 6.48657 14.3122 6.77285 14.3122 7.12599C14.3122 7.47913 14.5985 7.7654 14.9516 7.7654Z" fill="url(#paint78_linear_7661_11284)"/>
<path d="M14.9516 9.91506C15.3047 9.91506 15.591 9.62878 15.591 9.27565C15.591 8.92251 15.3047 8.63623 14.9516 8.63623C14.5985 8.63623 14.3122 8.92251 14.3122 9.27565C14.3122 9.62878 14.5985 9.91506 14.9516 9.91506Z" fill="url(#paint79_linear_7661_11284)"/>
<path d="M14.9516 12.065C15.3047 12.065 15.591 11.7787 15.591 11.4255C15.591 11.0724 15.3047 10.7861 14.9516 10.7861C14.5985 10.7861 14.3122 11.0724 14.3122 11.4255C14.3122 11.7787 14.5985 12.065 14.9516 12.065Z" fill="url(#paint80_linear_7661_11284)"/>
<path d="M14.9516 14.2146C15.3047 14.2146 15.591 13.9283 15.591 13.5752C15.591 13.2221 15.3047 12.9358 14.9516 12.9358C14.5985 12.9358 14.3122 13.2221 14.3122 13.5752C14.3122 13.9283 14.5985 14.2146 14.9516 14.2146Z" fill="url(#paint81_linear_7661_11284)"/>
<path d="M14.9516 16.3645C15.3047 16.3645 15.591 16.0782 15.591 15.7251C15.591 15.372 15.3047 15.0857 14.9516 15.0857C14.5985 15.0857 14.3122 15.372 14.3122 15.7251C14.3122 16.0782 14.5985 16.3645 14.9516 16.3645Z" fill="url(#paint82_linear_7661_11284)"/>
<path d="M14.9516 18.5142C15.3047 18.5142 15.591 18.2279 15.591 17.8748C15.591 17.5216 15.3047 17.2354 14.9516 17.2354C14.5985 17.2354 14.3122 17.5216 14.3122 17.8748C14.3122 18.2279 14.5985 18.5142 14.9516 18.5142Z" fill="url(#paint83_linear_7661_11284)"/>
<path d="M14.9516 20.6641C15.3047 20.6641 15.591 20.3778 15.591 20.0247C15.591 19.6715 15.3047 19.3853 14.9516 19.3853C14.5985 19.3853 14.3122 19.6715 14.3122 20.0247C14.3122 20.3778 14.5985 20.6641 14.9516 20.6641Z" fill="url(#paint84_linear_7661_11284)"/>
<path d="M14.9516 22.8137C15.3047 22.8137 15.591 22.5275 15.591 22.1743C15.591 21.8212 15.3047 21.5349 14.9516 21.5349C14.5985 21.5349 14.3122 21.8212 14.3122 22.1743C14.3122 22.5275 14.5985 22.8137 14.9516 22.8137Z" fill="url(#paint85_linear_7661_11284)"/>
<path d="M14.9516 24.9636C15.3047 24.9636 15.591 24.6774 15.591 24.3242C15.591 23.9711 15.3047 23.6848 14.9516 23.6848C14.5985 23.6848 14.3122 23.9711 14.3122 24.3242C14.3122 24.6774 14.5985 24.9636 14.9516 24.9636Z" fill="url(#paint86_linear_7661_11284)"/>
<path d="M14.9516 27.1133C15.3047 27.1133 15.591 26.827 15.591 26.4739C15.591 26.1207 15.3047 25.8345 14.9516 25.8345C14.5985 25.8345 14.3122 26.1207 14.3122 26.4739C14.3122 26.827 14.5985 27.1133 14.9516 27.1133Z" fill="url(#paint87_linear_7661_11284)"/>
<path d="M14.9516 29.2632C15.3047 29.2632 15.591 28.9769 15.591 28.6238C15.591 28.2707 15.3047 27.9844 14.9516 27.9844C14.5985 27.9844 14.3122 28.2707 14.3122 28.6238C14.3122 28.9769 14.5985 29.2632 14.9516 29.2632Z" fill="url(#paint88_linear_7661_11284)"/>
<path d="M16.9468 5.55943C17.269 5.55943 17.5301 5.29828 17.5301 4.97613C17.5301 4.65398 17.269 4.39282 16.9468 4.39282C16.6247 4.39282 16.3635 4.65398 16.3635 4.97613C16.3635 5.29828 16.6247 5.55943 16.9468 5.55943Z" fill="url(#paint89_linear_7661_11284)"/>
<path d="M16.9468 7.70934C17.269 7.70934 17.5301 7.44818 17.5301 7.12603C17.5301 6.80388 17.269 6.54272 16.9468 6.54272C16.6247 6.54272 16.3635 6.80388 16.3635 7.12603C16.3635 7.44818 16.6247 7.70934 16.9468 7.70934Z" fill="url(#paint90_linear_7661_11284)"/>
<path d="M16.9468 9.85899C17.269 9.85899 17.5301 9.59784 17.5301 9.27569C17.5301 8.95354 17.269 8.69238 16.9468 8.69238C16.6247 8.69238 16.3635 8.95354 16.3635 9.27569C16.3635 9.59784 16.6247 9.85899 16.9468 9.85899Z" fill="url(#paint91_linear_7661_11284)"/>
<path d="M16.9468 10.8423C16.6247 10.8423 16.3635 11.1035 16.3635 11.4256C16.3635 11.7477 16.6247 12.0089 16.9468 12.0089C17.2689 12.0089 17.5301 11.7477 17.5301 11.4256C17.5301 11.1034 17.2689 10.8423 16.9468 10.8423Z" fill="url(#paint92_linear_7661_11284)"/>
<path d="M16.9468 14.1586C17.269 14.1586 17.5301 13.8974 17.5301 13.5752C17.5301 13.2531 17.269 12.9919 16.9468 12.9919C16.6247 12.9919 16.3635 13.2531 16.3635 13.5752C16.3635 13.8974 16.6247 14.1586 16.9468 14.1586Z" fill="url(#paint93_linear_7661_11284)"/>
<path d="M16.9468 16.3085C17.269 16.3085 17.5301 16.0473 17.5301 15.7252C17.5301 15.403 17.269 15.1418 16.9468 15.1418C16.6247 15.1418 16.3635 15.403 16.3635 15.7252C16.3635 16.0473 16.6247 16.3085 16.9468 16.3085Z" fill="url(#paint94_linear_7661_11284)"/>
<path d="M16.9468 18.4581C17.269 18.4581 17.5301 18.197 17.5301 17.8748C17.5301 17.5527 17.269 17.2915 16.9468 17.2915C16.6247 17.2915 16.3635 17.5527 16.3635 17.8748C16.3635 18.197 16.6247 18.4581 16.9468 18.4581Z" fill="url(#paint95_linear_7661_11284)"/>
<path d="M16.9468 20.608C17.269 20.608 17.5301 20.3469 17.5301 20.0247C17.5301 19.7026 17.269 19.4414 16.9468 19.4414C16.6247 19.4414 16.3635 19.7026 16.3635 20.0247C16.3635 20.3469 16.6247 20.608 16.9468 20.608Z" fill="url(#paint96_linear_7661_11284)"/>
<path d="M16.9468 22.7577C17.269 22.7577 17.5301 22.4965 17.5301 22.1744C17.5301 21.8522 17.269 21.5911 16.9468 21.5911C16.6247 21.5911 16.3635 21.8522 16.3635 22.1744C16.3635 22.4965 16.6247 22.7577 16.9468 22.7577Z" fill="url(#paint97_linear_7661_11284)"/>
<path d="M16.9468 24.9073C17.269 24.9073 17.5301 24.6462 17.5301 24.324C17.5301 24.0019 17.269 23.7407 16.9468 23.7407C16.6247 23.7407 16.3635 24.0019 16.3635 24.324C16.3635 24.6462 16.6247 24.9073 16.9468 24.9073Z" fill="url(#paint98_linear_7661_11284)"/>
<path d="M16.9468 27.0572C17.269 27.0572 17.5301 26.7961 17.5301 26.4739C17.5301 26.1518 17.269 25.8906 16.9468 25.8906C16.6247 25.8906 16.3635 26.1518 16.3635 26.4739C16.3635 26.7961 16.6247 27.0572 16.9468 27.0572Z" fill="url(#paint99_linear_7661_11284)"/>
<path d="M16.9468 29.2069C17.269 29.2069 17.5301 28.9457 17.5301 28.6236C17.5301 28.3014 17.269 28.0403 16.9468 28.0403C16.6247 28.0403 16.3635 28.3014 16.3635 28.6236C16.3635 28.9457 16.6247 29.2069 16.9468 29.2069Z" fill="url(#paint100_linear_7661_11284)"/>
<path d="M18.9434 5.50337C19.2345 5.50337 19.4706 5.26734 19.4706 4.97617C19.4706 4.68501 19.2345 4.44897 18.9434 4.44897C18.6522 4.44897 18.4162 4.68501 18.4162 4.97617C18.4162 5.26734 18.6522 5.50337 18.9434 5.50337Z" fill="url(#paint101_linear_7661_11284)"/>
<path d="M18.9434 7.65327C19.2345 7.65327 19.4706 7.41724 19.4706 7.12607C19.4706 6.83491 19.2345 6.59888 18.9434 6.59888C18.6522 6.59888 18.4162 6.83491 18.4162 7.12607C18.4162 7.41724 18.6522 7.65327 18.9434 7.65327Z" fill="url(#paint102_linear_7661_11284)"/>
<path d="M18.9434 9.80293C19.2345 9.80293 19.4706 9.5669 19.4706 9.27573C19.4706 8.98457 19.2345 8.74854 18.9434 8.74854C18.6522 8.74854 18.4162 8.98457 18.4162 9.27573C18.4162 9.5669 18.6522 9.80293 18.9434 9.80293Z" fill="url(#paint103_linear_7661_11284)"/>
<path d="M18.9434 11.9528C19.2345 11.9528 19.4706 11.7168 19.4706 11.4256C19.4706 11.1345 19.2345 10.8984 18.9434 10.8984C18.6522 10.8984 18.4162 11.1345 18.4162 11.4256C18.4162 11.7168 18.6522 11.9528 18.9434 11.9528Z" fill="url(#paint104_linear_7661_11284)"/>
<path d="M18.9434 14.1025C19.2345 14.1025 19.4706 13.8665 19.4706 13.5753C19.4706 13.2841 19.2345 13.0481 18.9434 13.0481C18.6522 13.0481 18.4162 13.2841 18.4162 13.5753C18.4162 13.8665 18.6522 14.1025 18.9434 14.1025Z" fill="url(#paint105_linear_7661_11284)"/>
<path d="M18.9434 16.2524C19.2345 16.2524 19.4706 16.0164 19.4706 15.7252C19.4706 15.434 19.2345 15.198 18.9434 15.198C18.6522 15.198 18.4162 15.434 18.4162 15.7252C18.4162 16.0164 18.6522 16.2524 18.9434 16.2524Z" fill="url(#paint106_linear_7661_11284)"/>
<path d="M18.9434 18.4021C19.2345 18.4021 19.4706 18.166 19.4706 17.8749C19.4706 17.5837 19.2345 17.3477 18.9434 17.3477C18.6522 17.3477 18.4162 17.5837 18.4162 17.8749C18.4162 18.166 18.6522 18.4021 18.9434 18.4021Z" fill="url(#paint107_linear_7661_11284)"/>
<path d="M18.9434 20.552C19.2345 20.552 19.4706 20.3159 19.4706 20.0248C19.4706 19.7336 19.2345 19.4976 18.9434 19.4976C18.6522 19.4976 18.4162 19.7336 18.4162 20.0248C18.4162 20.3159 18.6522 20.552 18.9434 20.552Z" fill="url(#paint108_linear_7661_11284)"/>
<path d="M18.9434 22.7016C19.2345 22.7016 19.4706 22.4656 19.4706 22.1744C19.4706 21.8833 19.2345 21.6472 18.9434 21.6472C18.6522 21.6472 18.4162 21.8833 18.4162 22.1744C18.4162 22.4656 18.6522 22.7016 18.9434 22.7016Z" fill="url(#paint109_linear_7661_11284)"/>
<path d="M18.9434 24.8513C19.2345 24.8513 19.4706 24.6152 19.4706 24.3241C19.4706 24.0329 19.2345 23.7969 18.9434 23.7969C18.6522 23.7969 18.4162 24.0329 18.4162 24.3241C18.4162 24.6152 18.6522 24.8513 18.9434 24.8513Z" fill="url(#paint110_linear_7661_11284)"/>
<path d="M18.9434 27.0012C19.2345 27.0012 19.4706 26.7651 19.4706 26.474C19.4706 26.1828 19.2345 25.9468 18.9434 25.9468C18.6522 25.9468 18.4162 26.1828 18.4162 26.474C18.4162 26.7651 18.6522 27.0012 18.9434 27.0012Z" fill="url(#paint111_linear_7661_11284)"/>
<path d="M18.9434 29.1508C19.2345 29.1508 19.4706 28.9148 19.4706 28.6236C19.4706 28.3325 19.2345 28.0964 18.9434 28.0964C18.6522 28.0964 18.4162 28.3325 18.4162 28.6236C18.4162 28.9148 18.6522 29.1508 18.9434 29.1508Z" fill="url(#paint112_linear_7661_11284)"/>
<path d="M20.9391 5.44731C21.1993 5.44731 21.4102 5.23639 21.4102 4.97622C21.4102 4.71604 21.1993 4.50513 20.9391 4.50513C20.679 4.50513 20.468 4.71604 20.468 4.97622C20.468 5.23639 20.679 5.44731 20.9391 5.44731Z" fill="url(#paint113_linear_7661_11284)"/>
<path d="M20.9391 6.65479C20.679 6.65479 20.468 6.86565 20.468 7.12587C20.468 7.38602 20.679 7.59696 20.9391 7.59696C21.1993 7.59696 21.4102 7.38602 21.4102 7.12587C21.4102 6.86573 21.1993 6.65479 20.9391 6.65479Z" fill="url(#paint114_linear_7661_11284)"/>
<path d="M20.9391 9.74687C21.1993 9.74687 21.4102 9.53595 21.4102 9.27578C21.4102 9.0156 21.1993 8.80469 20.9391 8.80469C20.679 8.80469 20.468 9.0156 20.468 9.27578C20.468 9.53595 20.679 9.74687 20.9391 9.74687Z" fill="url(#paint115_linear_7661_11284)"/>
<path d="M20.9391 10.9543C20.679 10.9543 20.468 11.1652 20.468 11.4254C20.468 11.6856 20.679 11.8965 20.9391 11.8965C21.1993 11.8965 21.4102 11.6856 21.4102 11.4254C21.4102 11.1653 21.1993 10.9543 20.9391 10.9543Z" fill="url(#paint116_linear_7661_11284)"/>
<path d="M20.9391 13.1042C20.679 13.1042 20.468 13.3152 20.468 13.5753C20.468 13.8355 20.679 14.0464 20.9391 14.0464C21.1993 14.0464 21.4102 13.8355 21.4102 13.5753C21.4102 13.3151 21.1993 13.1042 20.9391 13.1042Z" fill="url(#paint117_linear_7661_11284)"/>
<path d="M20.9391 16.1961C21.1993 16.1961 21.4102 15.9852 21.4102 15.725C21.4102 15.4648 21.1993 15.2539 20.9391 15.2539C20.679 15.2539 20.468 15.4648 20.468 15.725C20.468 15.9852 20.679 16.1961 20.9391 16.1961Z" fill="url(#paint118_linear_7661_11284)"/>
<path d="M20.9391 17.4038C20.679 17.4038 20.468 17.6148 20.468 17.8749C20.468 18.135 20.679 18.346 20.9391 18.346C21.1993 18.346 21.4102 18.135 21.4102 17.8749C21.4102 17.6148 21.1993 17.4038 20.9391 17.4038Z" fill="url(#paint119_linear_7661_11284)"/>
<path d="M20.9391 20.4956C21.1993 20.4956 21.4102 20.2847 21.4102 20.0246C21.4102 19.7644 21.1993 19.5535 20.9391 19.5535C20.679 19.5535 20.468 19.7644 20.468 20.0246C20.468 20.2847 20.679 20.4956 20.9391 20.4956Z" fill="url(#paint120_linear_7661_11284)"/>
<path d="M20.9391 21.7034C20.679 21.7034 20.468 21.9142 20.468 22.1745C20.468 22.4346 20.679 22.6455 20.9391 22.6455C21.1993 22.6455 21.4102 22.4346 21.4102 22.1745C21.4102 21.9143 21.1993 21.7034 20.9391 21.7034Z" fill="url(#paint121_linear_7661_11284)"/>
<path d="M20.9391 23.853C20.679 23.853 20.468 24.064 20.468 24.3241C20.468 24.5843 20.679 24.7952 20.9391 24.7952C21.1993 24.7952 21.4102 24.5843 21.4102 24.3241C21.4102 24.0639 21.1993 23.853 20.9391 23.853Z" fill="url(#paint122_linear_7661_11284)"/>
<path d="M20.9391 26.9451C21.1993 26.9451 21.4102 26.7342 21.4102 26.474C21.4102 26.2138 21.1993 26.0029 20.9391 26.0029C20.679 26.0029 20.468 26.2138 20.468 26.474C20.468 26.7342 20.679 26.9451 20.9391 26.9451Z" fill="url(#paint123_linear_7661_11284)"/>
<path d="M20.9391 28.1526C20.679 28.1526 20.468 28.3635 20.468 28.6237C20.468 28.8838 20.679 29.0948 20.9391 29.0948C21.1993 29.0948 21.4102 28.8838 21.4102 28.6237C21.4102 28.3634 21.1993 28.1526 20.9391 28.1526Z" fill="url(#paint124_linear_7661_11284)"/>
<path d="M22.9342 5.39108C23.1634 5.39108 23.3492 5.20532 23.3492 4.97618C23.3492 4.74704 23.1634 4.56128 22.9342 4.56128C22.7051 4.56128 22.5193 4.74704 22.5193 4.97618C22.5193 5.20532 22.7051 5.39108 22.9342 5.39108Z" fill="url(#paint125_linear_7661_11284)"/>
<path d="M22.9342 7.54098C23.1634 7.54098 23.3492 7.35523 23.3492 7.12608C23.3492 6.89694 23.1634 6.71118 22.9342 6.71118C22.7051 6.71118 22.5193 6.89694 22.5193 7.12608C22.5193 7.35523 22.7051 7.54098 22.9342 7.54098Z" fill="url(#paint126_linear_7661_11284)"/>
<path d="M22.9342 9.69064C23.1634 9.69064 23.3492 9.50488 23.3492 9.27574C23.3492 9.0466 23.1634 8.86084 22.9342 8.86084C22.7051 8.86084 22.5193 9.0466 22.5193 9.27574C22.5193 9.50488 22.7051 9.69064 22.9342 9.69064Z" fill="url(#paint127_linear_7661_11284)"/>
<path d="M22.9342 11.0105C22.7051 11.0105 22.5193 11.1963 22.5193 11.4255C22.5193 11.6547 22.7051 11.8404 22.9342 11.8404C23.1634 11.8404 23.3492 11.6546 23.3492 11.4255C23.3492 11.1963 23.1634 11.0105 22.9342 11.0105Z" fill="url(#paint128_linear_7661_11284)"/>
<path d="M22.9342 13.9902C23.1634 13.9902 23.3492 13.8044 23.3492 13.5753C23.3492 13.3462 23.1634 13.1604 22.9342 13.1604C22.7051 13.1604 22.5193 13.3462 22.5193 13.5753C22.5193 13.8044 22.7051 13.9902 22.9342 13.9902Z" fill="url(#paint129_linear_7661_11284)"/>
<path d="M22.9342 16.1401C23.1634 16.1401 23.3492 15.9543 23.3492 15.7252C23.3492 15.4961 23.1634 15.3103 22.9342 15.3103C22.7051 15.3103 22.5193 15.4961 22.5193 15.7252C22.5193 15.9543 22.7051 16.1401 22.9342 16.1401Z" fill="url(#paint130_linear_7661_11284)"/>
<path d="M22.9342 17.46C22.7051 17.46 22.5193 17.6457 22.5193 17.8749C22.5193 18.1041 22.7051 18.2898 22.9342 18.2898C23.1634 18.2898 23.3492 18.1041 23.3492 17.8749C23.3492 17.6457 23.1634 17.46 22.9342 17.46Z" fill="url(#paint131_linear_7661_11284)"/>
<path d="M22.9342 20.4397C23.1634 20.4397 23.3492 20.2539 23.3492 20.0248C23.3492 19.7956 23.1634 19.6099 22.9342 19.6099C22.7051 19.6099 22.5193 19.7956 22.5193 20.0248C22.5193 20.2539 22.7051 20.4397 22.9342 20.4397Z" fill="url(#paint132_linear_7661_11284)"/>
<path d="M22.9342 22.5893C23.1634 22.5893 23.3492 22.4036 23.3492 22.1744C23.3492 21.9453 23.1634 21.7595 22.9342 21.7595C22.7051 21.7595 22.5193 21.9453 22.5193 22.1744C22.5193 22.4036 22.7051 22.5893 22.9342 22.5893Z" fill="url(#paint133_linear_7661_11284)"/>
<path d="M22.9342 23.9092C22.7051 23.9092 22.5193 24.095 22.5193 24.3241C22.5193 24.5533 22.7051 24.739 22.9342 24.739C23.1634 24.739 23.3492 24.5532 23.3492 24.3241C23.3492 24.095 23.1634 23.9092 22.9342 23.9092Z" fill="url(#paint134_linear_7661_11284)"/>
<path d="M22.9342 26.8889C23.1634 26.8889 23.3492 26.7031 23.3492 26.474C23.3492 26.2448 23.1634 26.0591 22.9342 26.0591C22.7051 26.0591 22.5193 26.2448 22.5193 26.474C22.5193 26.7031 22.7051 26.8889 22.9342 26.8889Z" fill="url(#paint135_linear_7661_11284)"/>
<path d="M22.9342 29.0385C23.1634 29.0385 23.3492 28.8528 23.3492 28.6236C23.3492 28.3945 23.1634 28.2087 22.9342 28.2087C22.7051 28.2087 22.5193 28.3945 22.5193 28.6236C22.5193 28.8528 22.7051 29.0385 22.9342 29.0385Z" fill="url(#paint136_linear_7661_11284)"/>
<path d="M24.9311 5.33502C25.1293 5.33502 25.2899 5.17439 25.2899 4.97622C25.2899 4.77806 25.1293 4.61743 24.9311 4.61743C24.7329 4.61743 24.5723 4.77806 24.5723 4.97622C24.5723 5.17431 24.7329 5.33502 24.9311 5.33502Z" fill="url(#paint137_linear_7661_11284)"/>
<path d="M24.9311 6.76709C24.7329 6.76709 24.5723 6.92772 24.5723 7.12588C24.5723 7.32405 24.7329 7.48468 24.9311 7.48468C25.1293 7.48468 25.2899 7.32405 25.2899 7.12588C25.2899 6.92772 25.1293 6.76709 24.9311 6.76709Z" fill="url(#paint138_linear_7661_11284)"/>
<path d="M24.9311 8.91699C24.7329 8.91699 24.5723 9.07762 24.5723 9.27578C24.5723 9.47395 24.7329 9.63458 24.9311 9.63458C25.1293 9.63458 25.2899 9.47395 25.2899 9.27578C25.2899 9.07762 25.1293 8.91699 24.9311 8.91699Z" fill="url(#paint139_linear_7661_11284)"/>
<path d="M24.9311 11.0667C24.7329 11.0667 24.5723 11.2273 24.5723 11.4254C24.5723 11.6236 24.7329 11.7842 24.9311 11.7842C25.1293 11.7842 25.2899 11.6236 25.2899 11.4254C25.2899 11.2273 25.1293 11.0667 24.9311 11.0667Z" fill="url(#paint140_linear_7661_11284)"/>
<path d="M24.9311 13.2166C24.7329 13.2166 24.5723 13.3772 24.5723 13.5753C24.5723 13.7735 24.7329 13.9341 24.9311 13.9341C25.1293 13.9341 25.2899 13.7735 25.2899 13.5753C25.2899 13.3772 25.1293 13.2166 24.9311 13.2166Z" fill="url(#paint141_linear_7661_11284)"/>
<path d="M24.9311 15.3662C24.7329 15.3662 24.5723 15.5268 24.5723 15.725C24.5723 15.9232 24.7329 16.0838 24.9311 16.0838C25.1293 16.0838 25.2899 15.9232 25.2899 15.725C25.2899 15.5268 25.1293 15.3662 24.9311 15.3662Z" fill="url(#paint142_linear_7661_11284)"/>
<path d="M24.9311 17.5161C24.7329 17.5161 24.5723 17.6767 24.5723 17.8749C24.5723 18.0731 24.7329 18.2337 24.9311 18.2337C25.1293 18.2337 25.2899 18.0731 25.2899 17.8749C25.2899 17.6767 25.1293 17.5161 24.9311 17.5161Z" fill="url(#paint143_linear_7661_11284)"/>
<path d="M24.9311 19.6658C24.7329 19.6658 24.5723 19.8264 24.5723 20.0246C24.5723 20.2227 24.7329 20.3834 24.9311 20.3834C25.1293 20.3834 25.2899 20.2227 25.2899 20.0246C25.2899 19.8265 25.1293 19.6658 24.9311 19.6658Z" fill="url(#paint144_linear_7661_11284)"/>
<path d="M24.9311 21.8157C24.7329 21.8157 24.5723 21.9763 24.5723 22.1745C24.5723 22.3726 24.7329 22.5333 24.9311 22.5333C25.1293 22.5333 25.2899 22.3726 25.2899 22.1745C25.2899 21.9763 25.1293 21.8157 24.9311 21.8157Z" fill="url(#paint145_linear_7661_11284)"/>
<path d="M24.9311 23.9653C24.7329 23.9653 24.5723 24.126 24.5723 24.3241C24.5723 24.5223 24.7329 24.6829 24.9311 24.6829C25.1293 24.6829 25.2899 24.5223 25.2899 24.3241C25.2899 24.126 25.1293 23.9653 24.9311 23.9653Z" fill="url(#paint146_linear_7661_11284)"/>
<path d="M24.9311 26.1152C24.7329 26.1152 24.5723 26.2759 24.5723 26.474C24.5723 26.6722 24.7329 26.8328 24.9311 26.8328C25.1293 26.8328 25.2899 26.6722 25.2899 26.474C25.2899 26.2759 25.1293 26.1152 24.9311 26.1152Z" fill="url(#paint147_linear_7661_11284)"/>
<path d="M24.9311 28.321C24.7329 28.321 24.5723 28.4817 24.5723 28.6798C24.5723 28.878 24.7329 29.0386 24.9311 29.0386C25.1293 29.0386 25.2899 28.878 25.2899 28.6798C25.2899 28.4817 25.1293 28.321 24.9311 28.321Z" fill="url(#paint148_linear_7661_11284)"/>
<defs>
<linearGradient id="paint0_linear_7661_11284" x1="10.6695" y1="11.3863" x2="31.2061" y2="31.9229" gradientUnits="userSpaceOnUse">
<stop stop-color="#5B6A6A"/>
<stop offset="1" stop-color="#303033"/>
</linearGradient>
<linearGradient id="paint1_linear_7661_11284" x1="19.5785" y1="13.2062" x2="19.5785" y2="26.1076" gradientUnits="userSpaceOnUse">
<stop stop-color="#3870F3"/>
<stop offset="1" stop-color="#9F79DF"/>
</linearGradient>
<linearGradient id="paint2_linear_7661_11284" x1="9.86912" y1="24.3113" x2="18.6443" y2="35.7279" gradientUnits="userSpaceOnUse">
<stop stop-color="#CDEC7A"/>
<stop offset="0.9985" stop-color="#65E0DB" stop-opacity="0"/>
</linearGradient>
<linearGradient id="paint3_linear_7661_11284" x1="17.6475" y1="22.5406" x2="28.231" y2="36.3096" gradientUnits="userSpaceOnUse">
<stop stop-color="#CDEC7A"/>
<stop offset="1" stop-color="#65E0DB"/>
</linearGradient>
<linearGradient id="paint4_linear_7661_11284" x1="12.4986" y1="12.6594" x2="15.9307" y2="17.1246" gradientUnits="userSpaceOnUse">
<stop stop-color="#FFD945"/>
<stop offset="0.3043" stop-color="#FFCD3E"/>
<stop offset="0.8558" stop-color="#FFAD2B"/>
<stop offset="1" stop-color="#FFA325"/>
</linearGradient>
<linearGradient id="paint5_linear_7661_11284" x1="5.11217" y1="4.97614" x2="1.99994" y2="4.97614" gradientUnits="userSpaceOnUse">
<stop stop-color="#3870F3"/>
<stop offset="1" stop-color="#9F79DF"/>
</linearGradient>
<linearGradient id="paint6_linear_7661_11284" x1="5.11217" y1="7.1258" x2="1.99994" y2="7.1258" gradientUnits="userSpaceOnUse">
<stop stop-color="#3870F3"/>
<stop offset="1" stop-color="#9F79DF"/>
</linearGradient>
<linearGradient id="paint7_linear_7661_11284" x1="5.11217" y1="9.2757" x2="1.99994" y2="9.2757" gradientUnits="userSpaceOnUse">
<stop stop-color="#3870F3"/>
<stop offset="1" stop-color="#9F79DF"/>
</linearGradient>
<linearGradient id="paint8_linear_7661_11284" x1="5.11217" y1="11.4254" x2="1.99994" y2="11.4254" gradientUnits="userSpaceOnUse">
<stop stop-color="#3870F3"/>
<stop offset="1" stop-color="#9F79DF"/>
</linearGradient>
<linearGradient id="paint9_linear_7661_11284" x1="5.11217" y1="13.5753" x2="1.99994" y2="13.5753" gradientUnits="userSpaceOnUse">
<stop stop-color="#3870F3"/>
<stop offset="1" stop-color="#9F79DF"/>
</linearGradient>
<linearGradient id="paint10_linear_7661_11284" x1="5.11217" y1="15.7249" x2="1.99994" y2="15.7249" gradientUnits="userSpaceOnUse">
<stop stop-color="#3870F3"/>
<stop offset="1" stop-color="#9F79DF"/>
</linearGradient>
<linearGradient id="paint11_linear_7661_11284" x1="5.11217" y1="17.8748" x2="1.99994" y2="17.8748" gradientUnits="userSpaceOnUse">
<stop stop-color="#3870F3"/>
<stop offset="1" stop-color="#9F79DF"/>
</linearGradient>
<linearGradient id="paint12_linear_7661_11284" x1="5.11217" y1="20.0245" x2="1.99994" y2="20.0245" gradientUnits="userSpaceOnUse">
<stop stop-color="#3870F3"/>
<stop offset="1" stop-color="#9F79DF"/>
</linearGradient>
<linearGradient id="paint13_linear_7661_11284" x1="5.11217" y1="22.1744" x2="1.99994" y2="22.1744" gradientUnits="userSpaceOnUse">
<stop stop-color="#3870F3"/>
<stop offset="1" stop-color="#9F79DF"/>
</linearGradient>
<linearGradient id="paint14_linear_7661_11284" x1="5.11217" y1="24.324" x2="1.99994" y2="24.324" gradientUnits="userSpaceOnUse">
<stop stop-color="#3870F3"/>
<stop offset="1" stop-color="#9F79DF"/>
</linearGradient>
<linearGradient id="paint15_linear_7661_11284" x1="5.11217" y1="26.4739" x2="1.99994" y2="26.4739" gradientUnits="userSpaceOnUse">
<stop stop-color="#3870F3"/>
<stop offset="1" stop-color="#9F79DF"/>
</linearGradient>
<linearGradient id="paint16_linear_7661_11284" x1="5.11217" y1="28.6236" x2="1.99994" y2="28.6236" gradientUnits="userSpaceOnUse">
<stop stop-color="#3870F3"/>
<stop offset="1" stop-color="#9F79DF"/>
</linearGradient>
<linearGradient id="paint17_linear_7661_11284" x1="6.98487" y1="4.97619" x2="4.05151" y2="4.97619" gradientUnits="userSpaceOnUse">
<stop stop-color="#3870F3"/>
<stop offset="1" stop-color="#9F79DF"/>
</linearGradient>
<linearGradient id="paint18_linear_7661_11284" x1="6.98487" y1="7.12585" x2="4.05151" y2="7.12585" gradientUnits="userSpaceOnUse">
<stop stop-color="#3870F3"/>
<stop offset="1" stop-color="#9F79DF"/>
</linearGradient>
<linearGradient id="paint19_linear_7661_11284" x1="6.98487" y1="9.27575" x2="4.05151" y2="9.27575" gradientUnits="userSpaceOnUse">
<stop stop-color="#3870F3"/>
<stop offset="1" stop-color="#9F79DF"/>
</linearGradient>
<linearGradient id="paint20_linear_7661_11284" x1="6.98487" y1="11.4254" x2="4.05151" y2="11.4254" gradientUnits="userSpaceOnUse">
<stop stop-color="#3870F3"/>
<stop offset="1" stop-color="#9F79DF"/>
</linearGradient>
<linearGradient id="paint21_linear_7661_11284" x1="6.98487" y1="13.5753" x2="4.05151" y2="13.5753" gradientUnits="userSpaceOnUse">
<stop stop-color="#3870F3"/>
<stop offset="1" stop-color="#9F79DF"/>
</linearGradient>
<linearGradient id="paint22_linear_7661_11284" x1="6.98487" y1="15.725" x2="4.05151" y2="15.725" gradientUnits="userSpaceOnUse">
<stop stop-color="#3870F3"/>
<stop offset="1" stop-color="#9F79DF"/>
</linearGradient>
<linearGradient id="paint23_linear_7661_11284" x1="6.98487" y1="17.8749" x2="4.05151" y2="17.8749" gradientUnits="userSpaceOnUse">
<stop stop-color="#3870F3"/>
<stop offset="1" stop-color="#9F79DF"/>
</linearGradient>
<linearGradient id="paint24_linear_7661_11284" x1="6.98487" y1="20.0245" x2="4.05151" y2="20.0245" gradientUnits="userSpaceOnUse">
<stop stop-color="#3870F3"/>
<stop offset="1" stop-color="#9F79DF"/>
</linearGradient>
<linearGradient id="paint25_linear_7661_11284" x1="6.98487" y1="22.1742" x2="4.05151" y2="22.1742" gradientUnits="userSpaceOnUse">
<stop stop-color="#3870F3"/>
<stop offset="1" stop-color="#9F79DF"/>
</linearGradient>
<linearGradient id="paint26_linear_7661_11284" x1="6.98487" y1="24.3241" x2="4.05151" y2="24.3241" gradientUnits="userSpaceOnUse">
<stop stop-color="#3870F3"/>
<stop offset="1" stop-color="#9F79DF"/>
</linearGradient>
<linearGradient id="paint27_linear_7661_11284" x1="6.98487" y1="26.474" x2="4.05151" y2="26.474" gradientUnits="userSpaceOnUse">
<stop stop-color="#3870F3"/>
<stop offset="1" stop-color="#9F79DF"/>
</linearGradient>
<linearGradient id="paint28_linear_7661_11284" x1="6.98487" y1="28.6236" x2="4.05151" y2="28.6236" gradientUnits="userSpaceOnUse">
<stop stop-color="#3870F3"/>
<stop offset="1" stop-color="#9F79DF"/>
</linearGradient>
<linearGradient id="paint29_linear_7661_11284" x1="8.85866" y1="4.97624" x2="6.10419" y2="4.97624" gradientUnits="userSpaceOnUse">
<stop stop-color="#3870F3"/>
<stop offset="1" stop-color="#9F79DF"/>
</linearGradient>
<linearGradient id="paint30_linear_7661_11284" x1="8.85866" y1="7.12589" x2="6.10419" y2="7.12589" gradientUnits="userSpaceOnUse">
<stop stop-color="#3870F3"/>
<stop offset="1" stop-color="#9F79DF"/>
</linearGradient>
<linearGradient id="paint31_linear_7661_11284" x1="8.85866" y1="9.27555" x2="6.10419" y2="9.27555" gradientUnits="userSpaceOnUse">
<stop stop-color="#3870F3"/>
<stop offset="1" stop-color="#9F79DF"/>
</linearGradient>
<linearGradient id="paint32_linear_7661_11284" x1="8.85866" y1="11.4255" x2="6.10419" y2="11.4255" gradientUnits="userSpaceOnUse">
<stop stop-color="#3870F3"/>
<stop offset="1" stop-color="#9F79DF"/>
</linearGradient>
<linearGradient id="paint33_linear_7661_11284" x1="8.85866" y1="13.5751" x2="6.10419" y2="13.5751" gradientUnits="userSpaceOnUse">
<stop stop-color="#3870F3"/>
<stop offset="1" stop-color="#9F79DF"/>
</linearGradient>
<linearGradient id="paint34_linear_7661_11284" x1="8.85866" y1="15.725" x2="6.10419" y2="15.725" gradientUnits="userSpaceOnUse">
<stop stop-color="#3870F3"/>
<stop offset="1" stop-color="#9F79DF"/>
</linearGradient>
<linearGradient id="paint35_linear_7661_11284" x1="8.85866" y1="17.8747" x2="6.10419" y2="17.8747" gradientUnits="userSpaceOnUse">
<stop stop-color="#3870F3"/>
<stop offset="1" stop-color="#9F79DF"/>
</linearGradient>
<linearGradient id="paint36_linear_7661_11284" x1="8.85866" y1="20.0246" x2="6.10419" y2="20.0246" gradientUnits="userSpaceOnUse">
<stop stop-color="#3870F3"/>
<stop offset="1" stop-color="#9F79DF"/>
</linearGradient>
<linearGradient id="paint37_linear_7661_11284" x1="8.85866" y1="22.1742" x2="6.10419" y2="22.1742" gradientUnits="userSpaceOnUse">
<stop stop-color="#3870F3"/>
<stop offset="1" stop-color="#9F79DF"/>
</linearGradient>
<linearGradient id="paint38_linear_7661_11284" x1="8.85866" y1="24.3241" x2="6.10419" y2="24.3241" gradientUnits="userSpaceOnUse">
<stop stop-color="#3870F3"/>
<stop offset="1" stop-color="#9F79DF"/>
</linearGradient>
<linearGradient id="paint39_linear_7661_11284" x1="8.85866" y1="26.4738" x2="6.10419" y2="26.4738" gradientUnits="userSpaceOnUse">
<stop stop-color="#3870F3"/>
<stop offset="1" stop-color="#9F79DF"/>
</linearGradient>
<linearGradient id="paint40_linear_7661_11284" x1="8.85866" y1="28.6237" x2="6.10419" y2="28.6237" gradientUnits="userSpaceOnUse">
<stop stop-color="#3870F3"/>
<stop offset="1" stop-color="#9F79DF"/>
</linearGradient>
<linearGradient id="paint41_linear_7661_11284" x1="10.7311" y1="4.9762" x2="8.15579" y2="4.9762" gradientUnits="userSpaceOnUse">
<stop stop-color="#3870F3"/>
<stop offset="1" stop-color="#9F79DF"/>
</linearGradient>
<linearGradient id="paint42_linear_7661_11284" x1="10.7311" y1="7.12586" x2="8.15579" y2="7.12586" gradientUnits="userSpaceOnUse">
<stop stop-color="#3870F3"/>
<stop offset="1" stop-color="#9F79DF"/>
</linearGradient>
<linearGradient id="paint43_linear_7661_11284" x1="10.7311" y1="9.27552" x2="8.15579" y2="9.27552" gradientUnits="userSpaceOnUse">
<stop stop-color="#3870F3"/>
<stop offset="1" stop-color="#9F79DF"/>
</linearGradient>
<linearGradient id="paint44_linear_7661_11284" x1="10.7311" y1="11.4254" x2="8.15579" y2="11.4254" gradientUnits="userSpaceOnUse">
<stop stop-color="#3870F3"/>
<stop offset="1" stop-color="#9F79DF"/>
</linearGradient>
<linearGradient id="paint45_linear_7661_11284" x1="10.7311" y1="13.5751" x2="8.15579" y2="13.5751" gradientUnits="userSpaceOnUse">
<stop stop-color="#3870F3"/>
<stop offset="1" stop-color="#9F79DF"/>
</linearGradient>
<linearGradient id="paint46_linear_7661_11284" x1="10.7311" y1="15.725" x2="8.15579" y2="15.725" gradientUnits="userSpaceOnUse">
<stop stop-color="#3870F3"/>
<stop offset="1" stop-color="#9F79DF"/>
</linearGradient>
<linearGradient id="paint47_linear_7661_11284" x1="10.7311" y1="17.8746" x2="8.15579" y2="17.8746" gradientUnits="userSpaceOnUse">
<stop stop-color="#3870F3"/>
<stop offset="1" stop-color="#9F79DF"/>
</linearGradient>
<linearGradient id="paint48_linear_7661_11284" x1="10.7311" y1="20.0245" x2="8.15579" y2="20.0245" gradientUnits="userSpaceOnUse">
<stop stop-color="#3870F3"/>
<stop offset="1" stop-color="#9F79DF"/>
</linearGradient>
<linearGradient id="paint49_linear_7661_11284" x1="10.7311" y1="22.1742" x2="8.15579" y2="22.1742" gradientUnits="userSpaceOnUse">
<stop stop-color="#3870F3"/>
<stop offset="1" stop-color="#9F79DF"/>
</linearGradient>
<linearGradient id="paint50_linear_7661_11284" x1="10.7311" y1="24.3241" x2="8.15579" y2="24.3241" gradientUnits="userSpaceOnUse">
<stop stop-color="#3870F3"/>
<stop offset="1" stop-color="#9F79DF"/>
</linearGradient>
<linearGradient id="paint51_linear_7661_11284" x1="10.7311" y1="26.474" x2="8.15579" y2="26.474" gradientUnits="userSpaceOnUse">
<stop stop-color="#3870F3"/>
<stop offset="1" stop-color="#9F79DF"/>
</linearGradient>
<linearGradient id="paint52_linear_7661_11284" x1="10.7311" y1="28.6237" x2="8.15579" y2="28.6237" gradientUnits="userSpaceOnUse">
<stop stop-color="#3870F3"/>
<stop offset="1" stop-color="#9F79DF"/>
</linearGradient>
<linearGradient id="paint53_linear_7661_11284" x1="12.6041" y1="4.97601" x2="10.2076" y2="4.97601" gradientUnits="userSpaceOnUse">
<stop stop-color="#3870F3"/>
<stop offset="1" stop-color="#9F79DF"/>
</linearGradient>
<linearGradient id="paint54_linear_7661_11284" x1="12.6041" y1="7.12591" x2="10.2076" y2="7.12591" gradientUnits="userSpaceOnUse">
<stop stop-color="#3870F3"/>
<stop offset="1" stop-color="#9F79DF"/>
</linearGradient>
<linearGradient id="paint55_linear_7661_11284" x1="12.6041" y1="9.27557" x2="10.2076" y2="9.27557" gradientUnits="userSpaceOnUse">
<stop stop-color="#3870F3"/>
<stop offset="1" stop-color="#9F79DF"/>
</linearGradient>
<linearGradient id="paint56_linear_7661_11284" x1="12.6041" y1="11.4255" x2="10.2076" y2="11.4255" gradientUnits="userSpaceOnUse">
<stop stop-color="#3870F3"/>
<stop offset="1" stop-color="#9F79DF"/>
</linearGradient>
<linearGradient id="paint57_linear_7661_11284" x1="12.6041" y1="13.5751" x2="10.2076" y2="13.5751" gradientUnits="userSpaceOnUse">
<stop stop-color="#3870F3"/>
<stop offset="1" stop-color="#9F79DF"/>
</linearGradient>
<linearGradient id="paint58_linear_7661_11284" x1="12.6041" y1="15.725" x2="10.2076" y2="15.725" gradientUnits="userSpaceOnUse">
<stop stop-color="#3870F3"/>
<stop offset="1" stop-color="#9F79DF"/>
</linearGradient>
<linearGradient id="paint59_linear_7661_11284" x1="12.6041" y1="17.8747" x2="10.2076" y2="17.8747" gradientUnits="userSpaceOnUse">
<stop stop-color="#3870F3"/>
<stop offset="1" stop-color="#9F79DF"/>
</linearGradient>
<linearGradient id="paint60_linear_7661_11284" x1="12.6041" y1="20.0246" x2="10.2076" y2="20.0246" gradientUnits="userSpaceOnUse">
<stop stop-color="#3870F3"/>
<stop offset="1" stop-color="#9F79DF"/>
</linearGradient>
<linearGradient id="paint61_linear_7661_11284" x1="12.6041" y1="22.1743" x2="10.2076" y2="22.1743" gradientUnits="userSpaceOnUse">
<stop stop-color="#3870F3"/>
<stop offset="1" stop-color="#9F79DF"/>
</linearGradient>
<linearGradient id="paint62_linear_7661_11284" x1="12.6041" y1="24.3242" x2="10.2076" y2="24.3242" gradientUnits="userSpaceOnUse">
<stop stop-color="#3870F3"/>
<stop offset="1" stop-color="#9F79DF"/>
</linearGradient>
<linearGradient id="paint63_linear_7661_11284" x1="12.6041" y1="26.4738" x2="10.2076" y2="26.4738" gradientUnits="userSpaceOnUse">
<stop stop-color="#3870F3"/>
<stop offset="1" stop-color="#9F79DF"/>
</linearGradient>
<linearGradient id="paint64_linear_7661_11284" x1="12.6041" y1="28.6237" x2="10.2076" y2="28.6237" gradientUnits="userSpaceOnUse">
<stop stop-color="#3870F3"/>
<stop offset="1" stop-color="#9F79DF"/>
</linearGradient>
<linearGradient id="paint65_linear_7661_11284" x1="14.4776" y1="4.97606" x2="12.26" y2="4.97606" gradientUnits="userSpaceOnUse">
<stop stop-color="#3870F3"/>
<stop offset="1" stop-color="#9F79DF"/>
</linearGradient>
<linearGradient id="paint66_linear_7661_11284" x1="14.4776" y1="7.12596" x2="12.26" y2="7.12596" gradientUnits="userSpaceOnUse">
<stop stop-color="#3870F3"/>
<stop offset="1" stop-color="#9F79DF"/>
</linearGradient>
<linearGradient id="paint67_linear_7661_11284" x1="14.4776" y1="9.27562" x2="12.26" y2="9.27562" gradientUnits="userSpaceOnUse">
<stop stop-color="#3870F3"/>
<stop offset="1" stop-color="#9F79DF"/>
</linearGradient>
<linearGradient id="paint68_linear_7661_11284" x1="14.4776" y1="11.4255" x2="12.26" y2="11.4255" gradientUnits="userSpaceOnUse">
<stop stop-color="#3870F3"/>
<stop offset="1" stop-color="#9F79DF"/>
</linearGradient>
<linearGradient id="paint69_linear_7661_11284" x1="14.4776" y1="13.5752" x2="12.26" y2="13.5752" gradientUnits="userSpaceOnUse">
<stop stop-color="#3870F3"/>
<stop offset="1" stop-color="#9F79DF"/>
</linearGradient>
<linearGradient id="paint70_linear_7661_11284" x1="14.4776" y1="15.7251" x2="12.26" y2="15.7251" gradientUnits="userSpaceOnUse">
<stop stop-color="#3870F3"/>
<stop offset="1" stop-color="#9F79DF"/>
</linearGradient>
<linearGradient id="paint71_linear_7661_11284" x1="14.4776" y1="17.8747" x2="12.26" y2="17.8747" gradientUnits="userSpaceOnUse">
<stop stop-color="#3870F3"/>
<stop offset="1" stop-color="#9F79DF"/>
</linearGradient>
<linearGradient id="paint72_linear_7661_11284" x1="14.4776" y1="20.0246" x2="12.26" y2="20.0246" gradientUnits="userSpaceOnUse">
<stop stop-color="#3870F3"/>
<stop offset="1" stop-color="#9F79DF"/>
</linearGradient>
<linearGradient id="paint73_linear_7661_11284" x1="14.4776" y1="22.1743" x2="12.26" y2="22.1743" gradientUnits="userSpaceOnUse">
<stop stop-color="#3870F3"/>
<stop offset="1" stop-color="#9F79DF"/>
</linearGradient>
<linearGradient id="paint74_linear_7661_11284" x1="14.4776" y1="24.324" x2="12.26" y2="24.324" gradientUnits="userSpaceOnUse">
<stop stop-color="#3870F3"/>
<stop offset="1" stop-color="#9F79DF"/>
</linearGradient>
<linearGradient id="paint75_linear_7661_11284" x1="14.4776" y1="26.4739" x2="12.26" y2="26.4739" gradientUnits="userSpaceOnUse">
<stop stop-color="#3870F3"/>
<stop offset="1" stop-color="#9F79DF"/>
</linearGradient>
<linearGradient id="paint76_linear_7661_11284" x1="14.4776" y1="28.6238" x2="12.26" y2="28.6238" gradientUnits="userSpaceOnUse">
<stop stop-color="#3870F3"/>
<stop offset="1" stop-color="#9F79DF"/>
</linearGradient>
<linearGradient id="paint77_linear_7661_11284" x1="16.3507" y1="4.97627" x2="14.3122" y2="4.97627" gradientUnits="userSpaceOnUse">
<stop stop-color="#3870F3"/>
<stop offset="1" stop-color="#9F79DF"/>
</linearGradient>
<linearGradient id="paint78_linear_7661_11284" x1="16.3507" y1="7.12593" x2="14.3122" y2="7.12593" gradientUnits="userSpaceOnUse">
<stop stop-color="#3870F3"/>
<stop offset="1" stop-color="#9F79DF"/>
</linearGradient>
<linearGradient id="paint79_linear_7661_11284" x1="16.3507" y1="9.27559" x2="14.3122" y2="9.27559" gradientUnits="userSpaceOnUse">
<stop stop-color="#3870F3"/>
<stop offset="1" stop-color="#9F79DF"/>
</linearGradient>
<linearGradient id="paint80_linear_7661_11284" x1="16.3507" y1="11.4255" x2="14.3122" y2="11.4255" gradientUnits="userSpaceOnUse">
<stop stop-color="#3870F3"/>
<stop offset="1" stop-color="#9F79DF"/>
</linearGradient>
<linearGradient id="paint81_linear_7661_11284" x1="16.3507" y1="13.5751" x2="14.3122" y2="13.5751" gradientUnits="userSpaceOnUse">
<stop stop-color="#3870F3"/>
<stop offset="1" stop-color="#9F79DF"/>
</linearGradient>
<linearGradient id="paint82_linear_7661_11284" x1="16.3507" y1="15.7251" x2="14.3122" y2="15.7251" gradientUnits="userSpaceOnUse">
<stop stop-color="#3870F3"/>
<stop offset="1" stop-color="#9F79DF"/>
</linearGradient>
<linearGradient id="paint83_linear_7661_11284" x1="16.3507" y1="17.8747" x2="14.3122" y2="17.8747" gradientUnits="userSpaceOnUse">
<stop stop-color="#3870F3"/>
<stop offset="1" stop-color="#9F79DF"/>
</linearGradient>
<linearGradient id="paint84_linear_7661_11284" x1="16.3507" y1="20.0246" x2="14.3122" y2="20.0246" gradientUnits="userSpaceOnUse">
<stop stop-color="#3870F3"/>
<stop offset="1" stop-color="#9F79DF"/>
</linearGradient>
<linearGradient id="paint85_linear_7661_11284" x1="16.3507" y1="22.1743" x2="14.3122" y2="22.1743" gradientUnits="userSpaceOnUse">
<stop stop-color="#3870F3"/>
<stop offset="1" stop-color="#9F79DF"/>
</linearGradient>
<linearGradient id="paint86_linear_7661_11284" x1="16.3507" y1="24.3242" x2="14.3122" y2="24.3242" gradientUnits="userSpaceOnUse">
<stop stop-color="#3870F3"/>
<stop offset="1" stop-color="#9F79DF"/>
</linearGradient>
<linearGradient id="paint87_linear_7661_11284" x1="16.3507" y1="26.4738" x2="14.3122" y2="26.4738" gradientUnits="userSpaceOnUse">
<stop stop-color="#3870F3"/>
<stop offset="1" stop-color="#9F79DF"/>
</linearGradient>
<linearGradient id="paint88_linear_7661_11284" x1="16.3507" y1="28.6237" x2="14.3122" y2="28.6237" gradientUnits="userSpaceOnUse">
<stop stop-color="#3870F3"/>
<stop offset="1" stop-color="#9F79DF"/>
</linearGradient>
<linearGradient id="paint89_linear_7661_11284" x1="18.2231" y1="4.97608" x2="16.3635" y2="4.97608" gradientUnits="userSpaceOnUse">
<stop stop-color="#3870F3"/>
<stop offset="1" stop-color="#9F79DF"/>
</linearGradient>
<linearGradient id="paint90_linear_7661_11284" x1="18.2231" y1="7.12598" x2="16.3635" y2="7.12598" gradientUnits="userSpaceOnUse">
<stop stop-color="#3870F3"/>
<stop offset="1" stop-color="#9F79DF"/>
</linearGradient>
<linearGradient id="paint91_linear_7661_11284" x1="18.2231" y1="9.27564" x2="16.3635" y2="9.27564" gradientUnits="userSpaceOnUse">
<stop stop-color="#3870F3"/>
<stop offset="1" stop-color="#9F79DF"/>
</linearGradient>
<linearGradient id="paint92_linear_7661_11284" x1="18.2231" y1="11.4255" x2="16.3635" y2="11.4255" gradientUnits="userSpaceOnUse">
<stop stop-color="#3870F3"/>
<stop offset="1" stop-color="#9F79DF"/>
</linearGradient>
<linearGradient id="paint93_linear_7661_11284" x1="18.2231" y1="13.5752" x2="16.3635" y2="13.5752" gradientUnits="userSpaceOnUse">
<stop stop-color="#3870F3"/>
<stop offset="1" stop-color="#9F79DF"/>
</linearGradient>
<linearGradient id="paint94_linear_7661_11284" x1="18.2231" y1="15.7251" x2="16.3635" y2="15.7251" gradientUnits="userSpaceOnUse">
<stop stop-color="#3870F3"/>
<stop offset="1" stop-color="#9F79DF"/>
</linearGradient>
<linearGradient id="paint95_linear_7661_11284" x1="18.2231" y1="17.8748" x2="16.3635" y2="17.8748" gradientUnits="userSpaceOnUse">
<stop stop-color="#3870F3"/>
<stop offset="1" stop-color="#9F79DF"/>
</linearGradient>
<linearGradient id="paint96_linear_7661_11284" x1="18.2231" y1="20.0247" x2="16.3635" y2="20.0247" gradientUnits="userSpaceOnUse">
<stop stop-color="#3870F3"/>
<stop offset="1" stop-color="#9F79DF"/>
</linearGradient>
<linearGradient id="paint97_linear_7661_11284" x1="18.2231" y1="22.1743" x2="16.3635" y2="22.1743" gradientUnits="userSpaceOnUse">
<stop stop-color="#3870F3"/>
<stop offset="1" stop-color="#9F79DF"/>
</linearGradient>
<linearGradient id="paint98_linear_7661_11284" x1="18.2231" y1="24.324" x2="16.3635" y2="24.324" gradientUnits="userSpaceOnUse">
<stop stop-color="#3870F3"/>
<stop offset="1" stop-color="#9F79DF"/>
</linearGradient>
<linearGradient id="paint99_linear_7661_11284" x1="18.2231" y1="26.4739" x2="16.3635" y2="26.4739" gradientUnits="userSpaceOnUse">
<stop stop-color="#3870F3"/>
<stop offset="1" stop-color="#9F79DF"/>
</linearGradient>
<linearGradient id="paint100_linear_7661_11284" x1="18.2231" y1="28.6235" x2="16.3635" y2="28.6235" gradientUnits="userSpaceOnUse">
<stop stop-color="#3870F3"/>
<stop offset="1" stop-color="#9F79DF"/>
</linearGradient>
<linearGradient id="paint101_linear_7661_11284" x1="20.0969" y1="4.97613" x2="18.4162" y2="4.97613" gradientUnits="userSpaceOnUse">
<stop stop-color="#3870F3"/>
<stop offset="1" stop-color="#9F79DF"/>
</linearGradient>
<linearGradient id="paint102_linear_7661_11284" x1="20.0969" y1="7.12603" x2="18.4162" y2="7.12603" gradientUnits="userSpaceOnUse">
<stop stop-color="#3870F3"/>
<stop offset="1" stop-color="#9F79DF"/>
</linearGradient>
<linearGradient id="paint103_linear_7661_11284" x1="20.0969" y1="9.27569" x2="18.4162" y2="9.27569" gradientUnits="userSpaceOnUse">
<stop stop-color="#3870F3"/>
<stop offset="1" stop-color="#9F79DF"/>
</linearGradient>
<linearGradient id="paint104_linear_7661_11284" x1="20.0969" y1="11.4256" x2="18.4162" y2="11.4256" gradientUnits="userSpaceOnUse">
<stop stop-color="#3870F3"/>
<stop offset="1" stop-color="#9F79DF"/>
</linearGradient>
<linearGradient id="paint105_linear_7661_11284" x1="20.0969" y1="13.5752" x2="18.4162" y2="13.5752" gradientUnits="userSpaceOnUse">
<stop stop-color="#3870F3"/>
<stop offset="1" stop-color="#9F79DF"/>
</linearGradient>
<linearGradient id="paint106_linear_7661_11284" x1="20.0969" y1="15.7251" x2="18.4162" y2="15.7251" gradientUnits="userSpaceOnUse">
<stop stop-color="#3870F3"/>
<stop offset="1" stop-color="#9F79DF"/>
</linearGradient>
<linearGradient id="paint107_linear_7661_11284" x1="20.0969" y1="17.8748" x2="18.4162" y2="17.8748" gradientUnits="userSpaceOnUse">
<stop stop-color="#3870F3"/>
<stop offset="1" stop-color="#9F79DF"/>
</linearGradient>
<linearGradient id="paint108_linear_7661_11284" x1="20.0969" y1="20.0247" x2="18.4162" y2="20.0247" gradientUnits="userSpaceOnUse">
<stop stop-color="#3870F3"/>
<stop offset="1" stop-color="#9F79DF"/>
</linearGradient>
<linearGradient id="paint109_linear_7661_11284" x1="20.0969" y1="22.1744" x2="18.4162" y2="22.1744" gradientUnits="userSpaceOnUse">
<stop stop-color="#3870F3"/>
<stop offset="1" stop-color="#9F79DF"/>
</linearGradient>
<linearGradient id="paint110_linear_7661_11284" x1="20.0969" y1="24.324" x2="18.4162" y2="24.324" gradientUnits="userSpaceOnUse">
<stop stop-color="#3870F3"/>
<stop offset="1" stop-color="#9F79DF"/>
</linearGradient>
<linearGradient id="paint111_linear_7661_11284" x1="20.0969" y1="26.4739" x2="18.4162" y2="26.4739" gradientUnits="userSpaceOnUse">
<stop stop-color="#3870F3"/>
<stop offset="1" stop-color="#9F79DF"/>
</linearGradient>
<linearGradient id="paint112_linear_7661_11284" x1="20.0969" y1="28.6236" x2="18.4162" y2="28.6236" gradientUnits="userSpaceOnUse">
<stop stop-color="#3870F3"/>
<stop offset="1" stop-color="#9F79DF"/>
</linearGradient>
<linearGradient id="paint113_linear_7661_11284" x1="21.9699" y1="4.97617" x2="20.468" y2="4.97617" gradientUnits="userSpaceOnUse">
<stop stop-color="#3870F3"/>
<stop offset="1" stop-color="#9F79DF"/>
</linearGradient>
<linearGradient id="paint114_linear_7661_11284" x1="21.9699" y1="7.12583" x2="20.468" y2="7.12583" gradientUnits="userSpaceOnUse">
<stop stop-color="#3870F3"/>
<stop offset="1" stop-color="#9F79DF"/>
</linearGradient>
<linearGradient id="paint115_linear_7661_11284" x1="21.9699" y1="9.27574" x2="20.468" y2="9.27574" gradientUnits="userSpaceOnUse">
<stop stop-color="#3870F3"/>
<stop offset="1" stop-color="#9F79DF"/>
</linearGradient>
<linearGradient id="paint116_linear_7661_11284" x1="21.9699" y1="11.4254" x2="20.468" y2="11.4254" gradientUnits="userSpaceOnUse">
<stop stop-color="#3870F3"/>
<stop offset="1" stop-color="#9F79DF"/>
</linearGradient>
<linearGradient id="paint117_linear_7661_11284" x1="21.9699" y1="13.5753" x2="20.468" y2="13.5753" gradientUnits="userSpaceOnUse">
<stop stop-color="#3870F3"/>
<stop offset="1" stop-color="#9F79DF"/>
</linearGradient>
<linearGradient id="paint118_linear_7661_11284" x1="21.9699" y1="15.725" x2="20.468" y2="15.725" gradientUnits="userSpaceOnUse">
<stop stop-color="#3870F3"/>
<stop offset="1" stop-color="#9F79DF"/>
</linearGradient>
<linearGradient id="paint119_linear_7661_11284" x1="21.9699" y1="17.8749" x2="20.468" y2="17.8749" gradientUnits="userSpaceOnUse">
<stop stop-color="#3870F3"/>
<stop offset="1" stop-color="#9F79DF"/>
</linearGradient>
<linearGradient id="paint120_linear_7661_11284" x1="21.9699" y1="20.0245" x2="20.468" y2="20.0245" gradientUnits="userSpaceOnUse">
<stop stop-color="#3870F3"/>
<stop offset="1" stop-color="#9F79DF"/>
</linearGradient>
<linearGradient id="paint121_linear_7661_11284" x1="21.9699" y1="22.1744" x2="20.468" y2="22.1744" gradientUnits="userSpaceOnUse">
<stop stop-color="#3870F3"/>
<stop offset="1" stop-color="#9F79DF"/>
</linearGradient>
<linearGradient id="paint122_linear_7661_11284" x1="21.9699" y1="24.3241" x2="20.468" y2="24.3241" gradientUnits="userSpaceOnUse">
<stop stop-color="#3870F3"/>
<stop offset="1" stop-color="#9F79DF"/>
</linearGradient>
<linearGradient id="paint123_linear_7661_11284" x1="21.9699" y1="26.474" x2="20.468" y2="26.474" gradientUnits="userSpaceOnUse">
<stop stop-color="#3870F3"/>
<stop offset="1" stop-color="#9F79DF"/>
</linearGradient>
<linearGradient id="paint124_linear_7661_11284" x1="21.9699" y1="28.6236" x2="20.468" y2="28.6236" gradientUnits="userSpaceOnUse">
<stop stop-color="#3870F3"/>
<stop offset="1" stop-color="#9F79DF"/>
</linearGradient>
<linearGradient id="paint125_linear_7661_11284" x1="23.8421" y1="4.97614" x2="22.5193" y2="4.97614" gradientUnits="userSpaceOnUse">
<stop stop-color="#3870F3"/>
<stop offset="1" stop-color="#9F79DF"/>
</linearGradient>
<linearGradient id="paint126_linear_7661_11284" x1="23.8421" y1="7.12605" x2="22.5193" y2="7.12605" gradientUnits="userSpaceOnUse">
<stop stop-color="#3870F3"/>
<stop offset="1" stop-color="#9F79DF"/>
</linearGradient>
<linearGradient id="paint127_linear_7661_11284" x1="23.8421" y1="9.2757" x2="22.5193" y2="9.2757" gradientUnits="userSpaceOnUse">
<stop stop-color="#3870F3"/>
<stop offset="1" stop-color="#9F79DF"/>
</linearGradient>
<linearGradient id="paint128_linear_7661_11284" x1="23.8421" y1="11.4254" x2="22.5193" y2="11.4254" gradientUnits="userSpaceOnUse">
<stop stop-color="#3870F3"/>
<stop offset="1" stop-color="#9F79DF"/>
</linearGradient>
<linearGradient id="paint129_linear_7661_11284" x1="23.8421" y1="13.5753" x2="22.5193" y2="13.5753" gradientUnits="userSpaceOnUse">
<stop stop-color="#3870F3"/>
<stop offset="1" stop-color="#9F79DF"/>
</linearGradient>
<linearGradient id="paint130_linear_7661_11284" x1="23.8421" y1="15.7252" x2="22.5193" y2="15.7252" gradientUnits="userSpaceOnUse">
<stop stop-color="#3870F3"/>
<stop offset="1" stop-color="#9F79DF"/>
</linearGradient>
<linearGradient id="paint131_linear_7661_11284" x1="23.8421" y1="17.8749" x2="22.5193" y2="17.8749" gradientUnits="userSpaceOnUse">
<stop stop-color="#3870F3"/>
<stop offset="1" stop-color="#9F79DF"/>
</linearGradient>
<linearGradient id="paint132_linear_7661_11284" x1="23.8421" y1="20.0247" x2="22.5193" y2="20.0247" gradientUnits="userSpaceOnUse">
<stop stop-color="#3870F3"/>
<stop offset="1" stop-color="#9F79DF"/>
</linearGradient>
<linearGradient id="paint133_linear_7661_11284" x1="23.8421" y1="22.1744" x2="22.5193" y2="22.1744" gradientUnits="userSpaceOnUse">
<stop stop-color="#3870F3"/>
<stop offset="1" stop-color="#9F79DF"/>
</linearGradient>
<linearGradient id="paint134_linear_7661_11284" x1="23.8421" y1="24.324" x2="22.5193" y2="24.324" gradientUnits="userSpaceOnUse">
<stop stop-color="#3870F3"/>
<stop offset="1" stop-color="#9F79DF"/>
</linearGradient>
<linearGradient id="paint135_linear_7661_11284" x1="23.8421" y1="26.4739" x2="22.5193" y2="26.4739" gradientUnits="userSpaceOnUse">
<stop stop-color="#3870F3"/>
<stop offset="1" stop-color="#9F79DF"/>
</linearGradient>
<linearGradient id="paint136_linear_7661_11284" x1="23.8421" y1="28.6236" x2="22.5193" y2="28.6236" gradientUnits="userSpaceOnUse">
<stop stop-color="#3870F3"/>
<stop offset="1" stop-color="#9F79DF"/>
</linearGradient>
<linearGradient id="paint137_linear_7661_11284" x1="25.7161" y1="4.97619" x2="24.5723" y2="4.97619" gradientUnits="userSpaceOnUse">
<stop stop-color="#3870F3"/>
<stop offset="1" stop-color="#9F79DF"/>
</linearGradient>
<linearGradient id="paint138_linear_7661_11284" x1="25.7161" y1="7.12585" x2="24.5723" y2="7.12585" gradientUnits="userSpaceOnUse">
<stop stop-color="#3870F3"/>
<stop offset="1" stop-color="#9F79DF"/>
</linearGradient>
<linearGradient id="paint139_linear_7661_11284" x1="25.7161" y1="9.27575" x2="24.5723" y2="9.27575" gradientUnits="userSpaceOnUse">
<stop stop-color="#3870F3"/>
<stop offset="1" stop-color="#9F79DF"/>
</linearGradient>
<linearGradient id="paint140_linear_7661_11284" x1="25.7161" y1="11.4254" x2="24.5723" y2="11.4254" gradientUnits="userSpaceOnUse">
<stop stop-color="#3870F3"/>
<stop offset="1" stop-color="#9F79DF"/>
</linearGradient>
<linearGradient id="paint141_linear_7661_11284" x1="25.7161" y1="13.5753" x2="24.5723" y2="13.5753" gradientUnits="userSpaceOnUse">
<stop stop-color="#3870F3"/>
<stop offset="1" stop-color="#9F79DF"/>
</linearGradient>
<linearGradient id="paint142_linear_7661_11284" x1="25.7161" y1="15.725" x2="24.5723" y2="15.725" gradientUnits="userSpaceOnUse">
<stop stop-color="#3870F3"/>
<stop offset="1" stop-color="#9F79DF"/>
</linearGradient>
<linearGradient id="paint143_linear_7661_11284" x1="25.7161" y1="17.8749" x2="24.5723" y2="17.8749" gradientUnits="userSpaceOnUse">
<stop stop-color="#3870F3"/>
<stop offset="1" stop-color="#9F79DF"/>
</linearGradient>
<linearGradient id="paint144_linear_7661_11284" x1="25.7161" y1="20.0245" x2="24.5723" y2="20.0245" gradientUnits="userSpaceOnUse">
<stop stop-color="#3870F3"/>
<stop offset="1" stop-color="#9F79DF"/>
</linearGradient>
<linearGradient id="paint145_linear_7661_11284" x1="25.7161" y1="22.1744" x2="24.5723" y2="22.1744" gradientUnits="userSpaceOnUse">
<stop stop-color="#3870F3"/>
<stop offset="1" stop-color="#9F79DF"/>
</linearGradient>
<linearGradient id="paint146_linear_7661_11284" x1="25.7161" y1="24.3241" x2="24.5723" y2="24.3241" gradientUnits="userSpaceOnUse">
<stop stop-color="#3870F3"/>
<stop offset="1" stop-color="#9F79DF"/>
</linearGradient>
<linearGradient id="paint147_linear_7661_11284" x1="25.7161" y1="26.474" x2="24.5723" y2="26.474" gradientUnits="userSpaceOnUse">
<stop stop-color="#3870F3"/>
<stop offset="1" stop-color="#9F79DF"/>
</linearGradient>
<linearGradient id="paint148_linear_7661_11284" x1="25.7161" y1="28.6798" x2="24.5723" y2="28.6798" gradientUnits="userSpaceOnUse">
<stop stop-color="#3870F3"/>
<stop offset="1" stop-color="#9F79DF"/>
</linearGradient>
</defs>
</svg>
