<svg width="32" height="32" viewBox="0 0 32 32" fill="none" xmlns="http://www.w3.org/2000/svg">
<rect width="32" height="32" rx="16" fill="#3870F3"/>
<path d="M19.0587 18.3469H20.9876C21.569 18.3469 22.0994 18.1168 22.4809 17.6989C22.8625 17.281 23.0437 16.732 22.9911 16.1531L22.5644 11.459C22.4695 10.4159 21.6082 9.6294 20.5609 9.6294H17.6024C16.2958 9.6294 15.062 10.1035 14.0976 10.9706H13.0235V9.6294H9V17.6763H14.193C14.716 17.9937 15.0352 18.5557 15.0352 19.1758V20.3586C15.0352 20.9065 15.2514 21.4186 15.6442 21.8006C16.0367 22.1826 16.5548 22.3846 17.103 22.3696C18.1813 22.3401 19.0587 21.4254 19.0587 20.3308V18.3469Z" fill="white"/>
</svg>
