<svg width="25" height="24" viewBox="0 0 25 24" fill="none" xmlns="http://www.w3.org/2000/svg">
<path d="M8.89297 13.4546L10.6821 10.1831L13.9529 8.39374C14.1409 8.29105 14.2577 8.0939 14.2577 7.87967C14.2577 7.66559 14.1409 7.46844 13.9529 7.3656L10.6821 5.57635L8.89297 2.30487C8.79013 2.11688 8.59299 2 8.37891 2C8.16467 2 7.96753 2.11688 7.86484 2.30487L6.07574 5.57635L2.80472 7.36575C2.61688 7.46844 2.5 7.66559 2.5 7.87982C2.5 8.0939 2.61688 8.29105 2.80472 8.39389L6.07574 10.1831L7.86484 13.4546C7.96753 13.6426 8.16467 13.7595 8.37891 13.7595C8.59314 13.7595 8.79013 13.6426 8.89297 13.4546Z" fill="white"/>
<path d="M22.1949 13.0594L20.0166 11.8678L18.8252 9.68915C18.7225 9.50116 18.5253 9.38428 18.3111 9.38428C18.0969 9.38428 17.8997 9.50116 17.797 9.68915L16.6056 11.8678L14.4273 13.0594C14.2393 13.1622 14.1226 13.3593 14.1226 13.5734C14.1226 13.7877 14.2393 13.9848 14.4273 14.0875L16.6056 15.2791L17.797 17.4579C17.8997 17.6457 18.0969 17.7626 18.3111 17.7626C18.5253 17.7626 18.7225 17.6457 18.8252 17.4579L20.0166 15.2791L22.1949 14.0875C22.3828 13.9848 22.4996 13.7877 22.4996 13.5734C22.4996 13.3593 22.3828 13.1622 22.1949 13.0594Z" fill="white"/>
<path d="M13.9721 18.5454L12.6009 17.7955L11.851 16.424C11.7483 16.236 11.5511 16.1191 11.3369 16.1191C11.1227 16.1191 10.9255 16.236 10.8228 16.424L10.0728 17.7955L8.70169 18.5454C8.51385 18.6483 8.39697 18.8454 8.39697 19.0595C8.39697 19.2737 8.51385 19.4707 8.70169 19.5736L10.0728 20.3237L10.8228 21.695C10.9255 21.883 11.1227 21.9999 11.3369 21.9999C11.5511 21.9999 11.7483 21.883 11.851 21.695L12.6009 20.3237L13.9721 19.5736C14.1599 19.4707 14.2768 19.2737 14.2768 19.0595C14.2768 18.8454 14.1599 18.6483 13.9721 18.5454Z" fill="white"/>
</svg>
