<svg width="19" height="19" viewBox="0 0 19 19" fill="none" xmlns="http://www.w3.org/2000/svg">
<g id="Group">
<path id="Vector" d="M7.23633 11.7252V12.3203H6.67969V12.877C6.67969 14.4116 7.92823 15.6602 9.46289 15.6602C10.9975 15.6602 12.2461 14.4116 12.2461 12.877V12.3203H11.6895V11.7252C12.4537 11.3461 13.1076 10.7794 13.5953 10.0692C14.1692 9.23337 14.4727 8.25379 14.4727 7.23633V5.00977C14.4727 2.24738 12.2253 0 9.46289 0C6.70051 0 4.45312 2.24738 4.45312 5.00977V7.23633C4.45312 8.25379 4.75653 9.23337 5.3305 10.0693C5.81819 10.7794 6.47206 11.3462 7.23633 11.7252ZM9.46289 8.90625C9.15548 8.90625 8.90625 8.65702 8.90625 8.34961C8.90625 8.0422 9.15548 7.79297 9.46289 7.79297C9.7703 7.79297 10.0195 8.0422 10.0195 8.34961C10.0195 8.65702 9.7703 8.90625 9.46289 8.90625ZM9.46289 2.22656C10.3837 2.22656 11.1328 2.97569 11.1328 3.89648C11.1328 4.41895 10.8832 4.91833 10.4651 5.23235C10.1861 5.44187 10.0195 5.77481 10.0195 6.12305C10.0195 6.43046 9.7703 6.67969 9.46289 6.67969C9.15548 6.67969 8.90625 6.43046 8.90625 6.12305C8.90625 5.42654 9.23905 4.76076 9.79654 4.34217C9.93826 4.2357 10.0195 4.07327 10.0195 3.89648C10.0195 3.58955 9.76982 3.33984 9.46289 3.33984C9.15596 3.33984 8.90625 3.58955 8.90625 3.89648C8.90625 4.2039 8.65702 4.45312 8.34961 4.45312C8.0422 4.45312 7.79297 4.2039 7.79297 3.89648C7.79297 2.97569 8.5421 2.22656 9.46289 2.22656Z" fill="#8E9CCC"/>
<path id="Vector_2" d="M13.3594 12.3459V12.877C13.3594 15.0255 11.6114 16.7735 9.46289 16.7735C7.31437 16.7735 5.56641 15.0255 5.56641 12.877V12.3459C2.45007 12.6281 0 15.2548 0 18.4434C0 18.7508 0.249227 19.0001 0.556641 19.0001H18.3691C18.6766 19.0001 18.9258 18.7508 18.9258 18.4434C18.9258 15.2548 16.4757 12.6281 13.3594 12.3459Z" fill="#8E9CCC"/>
</g>
</svg>
