<svg width="16" height="16" viewBox="0 0 16 16" fill="none" xmlns="http://www.w3.org/2000/svg">
<path fill-rule="evenodd" clip-rule="evenodd" d="M1 2C1 1.44772 1.44772 1 2 1H12C12.5523 1 13 1.44772 13 2V7.875C13 6.83972 12.1603 6 11.125 6C10.0897 6 9.25 6.83972 9.25 7.875V9.25H7.875C6.83972 9.25 6 10.0897 6 11.125C6 12.1603 6.83972 13 7.875 13H2C1.44772 13 1 12.5523 1 12V2ZM11.125 7C11.608 7 12 7.392 12 7.875V10.25H13H14.375C14.858 10.25 15.25 10.642 15.25 11.125C15.25 11.608 14.858 12 14.375 12H13H12V13V14.375C12 14.858 11.608 15.25 11.125 15.25C10.642 15.25 10.25 14.858 10.25 14.375V13V12H7.875C7.392 12 7 11.608 7 11.125C7 10.642 7.392 10.25 7.875 10.25H10.25V7.875C10.25 7.392 10.642 7 11.125 7Z" fill="#8E9CCC"/>
</svg>
