<svg width="32" height="32" viewBox="0 0 32 32" fill="none" xmlns="http://www.w3.org/2000/svg">
<rect x="0.5" y="0.5" width="31" height="31" rx="15.5" fill="white"/>
<rect x="0.5" y="0.5" width="31" height="31" rx="15.5" stroke="#3870F3"/>
<path d="M20.9876 18.3469H19.0587V20.3308C19.0587 21.4254 18.1813 22.3401 17.103 22.3696C16.5548 22.3846 16.0367 22.1826 15.6442 21.8006C15.2514 21.4186 15.0352 20.9065 15.0352 20.3586V19.1758C15.0352 18.5557 14.716 17.9937 14.193 17.6763H9V9.6294H13.0235V10.9706H14.0976C15.062 10.1035 16.2958 9.6294 17.6024 9.6294H20.5609C21.6082 9.6294 22.4695 10.4159 22.5644 11.459L22.9911 16.1531C23.0437 16.732 22.8625 17.281 22.4809 17.6989C22.0994 18.1168 21.569 18.3469 20.9876 18.3469ZM11.6823 10.9706H10.3412V16.3352H11.6823V10.9706ZM21.6555 16.2745L21.2287 11.5804C21.1971 11.2328 20.91 10.9706 20.5609 10.9706H17.6025C16.5585 10.9706 15.577 11.3771 14.8388 12.1153L14.6424 12.3117H13.0235V16.3352H14.5229L14.6645 16.4059C15.7204 16.9339 16.3764 17.9952 16.3764 19.1758V20.3586C16.3764 20.5412 16.4485 20.712 16.5794 20.8394C16.7102 20.9666 16.8825 21.0338 17.0663 21.029C17.4254 21.0191 17.7175 20.7059 17.7175 20.3308V17.0058H20.9876C21.1876 17.0058 21.3662 16.9307 21.4906 16.7945C21.615 16.6583 21.6736 16.4736 21.6555 16.2745Z" fill="#3870F3"/>
</svg>
