<svg width="25" height="24" viewBox="0 0 25 24" fill="none" xmlns="http://www.w3.org/2000/svg">
<path d="M15.8218 6H16.7574V6.93567H15.8218V6Z" fill="white"/>
<path d="M17.6929 7.87134H18.6283V8.80704H17.6929V7.87134Z" fill="white"/>
<path d="M15.8218 7.87134H16.7572V8.80701H15.8218V7.87134Z" fill="white"/>
<path d="M17.6929 9.74268H18.6285V10.6783H17.6929V9.74268Z" fill="white"/>
<path d="M13.9502 6H14.8859V6.93567H13.9502V6Z" fill="white"/>
<path d="M20.0323 6H19.5645V6.9357H20.5001V6.46784C20.5001 6.20947 20.2907 6 20.0323 6Z" fill="white"/>
<path d="M17.6929 6H18.6285V6.93567H17.6929V6Z" fill="white"/>
<path d="M18.6286 13.0176V11.6141H17.2251C16.9667 11.6141 16.7573 11.4046 16.7573 11.1462V9.74272H15.3538C15.0954 9.74272 14.886 9.53326 14.886 9.27488V7.87135H13.4824C13.2241 7.87135 13.0146 7.66188 13.0146 7.40351V6H4.96784C4.70947 6 4.5 6.20947 4.5 6.46784V18.3355C4.5 18.5939 4.70947 18.8034 4.96784 18.8034H20.0322C20.2905 18.8034 20.5 18.5939 20.5 18.3355V13.4854H19.0965C18.8381 13.4854 18.6286 13.2759 18.6286 13.0176Z" fill="white"/>
<path d="M19.5645 11.614H20.5002V12.5496H19.5645V11.614Z" fill="white"/>
<path d="M19.5645 7.87134H20.5002V8.80701H19.5645V7.87134Z" fill="white"/>
<path d="M19.5645 9.74268H20.5001V10.6783H19.5645V9.74268Z" fill="white"/>
</svg>
