<svg width="20" height="20" viewBox="0 0 20 20" fill="none" xmlns="http://www.w3.org/2000/svg">
<path d="M9.76419 14.4751L1 10.093V18.4726C1 18.7639 1.23611 19 1.52734 19H18.4727C18.7639 19 19 18.7639 19 18.4726V10.093L10.2358 14.4751C10.0874 14.5493 9.91265 14.5493 9.76419 14.4751Z" fill="#3870F3"/>
<path d="M1.29105 9.05928L3.33438 10.0833V7.09473L1.29151 8.11617C0.905908 8.30376 0.905767 8.87136 1.29105 9.05928Z" fill="#3870F3"/>
<path d="M11.2375 8.47258C11.275 8.49666 11.314 8.49546 11.3502 8.46917C11.3863 8.44301 11.3994 8.40641 11.388 8.36296L11.1017 7.26818C11.0495 7.06884 11.1182 6.85734 11.2775 6.72673L12.1528 6.00915C12.1872 5.98096 12.1982 5.94366 12.1844 5.90133C12.1705 5.85875 12.1397 5.83485 12.0952 5.83228L10.9655 5.7665C10.7598 5.75451 10.5799 5.62384 10.5049 5.43192L10.0927 4.37725C10.0653 4.29291 9.93417 4.29302 9.90699 4.37813L9.49538 5.43192C9.42039 5.62384 9.24049 5.75451 9.03479 5.7665L7.90482 5.83228C7.86028 5.83488 7.82945 5.85875 7.8156 5.90129C7.80182 5.94366 7.81275 5.98096 7.84752 6.0094L8.72274 6.72673C8.88211 6.85734 8.9508 7.06881 8.8986 7.26815L8.61214 8.36373C8.60089 8.40662 8.61397 8.44315 8.65 8.46931C8.68604 8.49546 8.72482 8.49662 8.76289 8.47215L9.71532 7.86155C9.88882 7.75035 10.1111 7.75035 10.2846 7.86159L11.2375 8.47258Z" fill="#3870F3"/>
<path d="M10.0001 13.3516C10.0809 13.3516 10.1617 13.333 10.2359 13.2959L15.6111 10.6119V1.52734C15.6111 1.23611 15.3749 1 15.0837 1H4.9165C4.62527 1 4.38916 1.23611 4.38916 1.52734V10.6119L9.76428 13.2959C9.83849 13.333 9.91928 13.3516 10.0001 13.3516ZM8.0303 9.32241C7.64295 9.04127 7.47068 8.55994 7.59169 8.0963L7.79282 7.32814L7.17909 6.82516C6.80841 6.52158 6.66455 6.03087 6.81277 5.5751C6.96095 5.11955 7.36556 4.80722 7.84365 4.77937L8.63611 4.73325L8.92468 3.9944C9.29811 3.01952 10.7024 3.01994 11.0755 3.9944L11.3641 4.73325L12.1566 4.77937C12.6347 4.80722 13.0393 5.11955 13.1874 5.5751C13.3357 6.03083 13.1918 6.52155 12.8211 6.82516L12.2074 7.32814L12.4085 8.0963C12.5295 8.55994 12.3573 9.04127 11.9699 9.32241C11.5824 9.60402 11.0713 9.61892 10.6681 9.36028L10.0001 8.93193L9.33214 9.36028C8.92889 9.61892 8.4179 9.60402 8.0303 9.32241Z" fill="#3870F3"/>
<path d="M17.5787 2.56399L18.7084 1.99913C18.9689 1.86891 19.0745 1.55215 18.9443 1.29164C18.814 1.03113 18.4973 0.925553 18.2368 1.05577L17.1071 1.62063C16.8465 1.75085 16.741 2.06761 16.8712 2.32812C17.002 2.58965 17.3192 2.69368 17.5787 2.56399Z" fill="#3870F3"/>
<path d="M1.29163 1.99906L2.42135 2.56392C3.05789 2.85323 3.50635 1.95603 2.89301 1.62057L1.76329 1.0557C1.50292 0.925625 1.18605 1.03109 1.0558 1.29157C0.92554 1.55208 1.03112 1.86881 1.29163 1.99906Z" fill="#3870F3"/>
<path d="M17.1071 5.38805L18.2368 5.95291C18.8733 6.24222 19.3218 5.34502 18.7084 5.00956L17.5787 4.4447C17.3183 4.31458 17.0015 4.42009 16.8712 4.68056C16.741 4.94107 16.8465 5.25783 17.1071 5.38805Z" fill="#3870F3"/>
<path d="M1.76329 5.95297L2.89301 5.38811C3.15352 5.25789 3.25909 4.94113 3.12884 4.68062C2.99862 4.4201 2.68186 4.31453 2.42135 4.44475L1.29163 5.00961C1.03112 5.13983 0.92554 5.45659 1.0558 5.7171C1.18654 5.97863 1.5038 6.08266 1.76329 5.95297Z" fill="#3870F3"/>
<path d="M19.0002 8.58758C19.0001 8.38789 18.8872 8.20543 18.7087 8.11617L16.6658 7.09473V10.0833L18.7091 9.05928C18.8876 8.9698 19.0003 8.78724 19.0002 8.58758Z" fill="#3870F3"/>
</svg>
