<svg width="48" height="48" viewBox="0 0 48 48" fill="none" xmlns="http://www.w3.org/2000/svg">
<rect x="0.5" y="0.5" width="47" height="47" rx="23.5" fill="white"/>
<rect x="0.5" y="0.5" width="47" height="47" rx="23.5" stroke="#E0DFE7"/>
<path d="M9.65518 12.4136H11.8621V35.586H9.65518V12.4136Z" fill="#8DD1FE"/>
<path d="M12.4138 36.1377H35.5862V38.3446H12.4138V36.1377Z" fill="#8DD1FE"/>
<path d="M36.1379 12.4136H38.3448V35.586H36.1379V12.4136Z" fill="#8DD1FE"/>
<path d="M12.4138 9.65527H35.5862V11.8622H12.4138V9.65527Z" fill="#8DD1FE"/>
<path d="M12.4138 8H9.10345C8.49403 8 8 8.49403 8 9.10345V12.4138C8 13.0232 8.49403 13.5172 9.10345 13.5172H12.4138C13.0232 13.5172 13.5172 13.0232 13.5172 12.4138V9.10345C13.5172 8.49403 13.0232 8 12.4138 8Z" fill="#3870F3"/>
<path d="M38.8966 8H35.5862C34.9768 8 34.4828 8.49403 34.4828 9.10345V12.4138C34.4828 13.0232 34.9768 13.5172 35.5862 13.5172H38.8966C39.506 13.5172 40 13.0232 40 12.4138V9.10345C40 8.49403 39.506 8 38.8966 8Z" fill="#3870F3"/>
<path d="M12.4138 34.4829H9.10345C8.49403 34.4829 8 34.9769 8 35.5864V38.8967C8 39.5061 8.49403 40.0002 9.10345 40.0002H12.4138C13.0232 40.0002 13.5172 39.5061 13.5172 38.8967V35.5864C13.5172 34.9769 13.0232 34.4829 12.4138 34.4829Z" fill="#3870F3"/>
<path d="M38.8966 34.4829H35.5862C34.9768 34.4829 34.4828 34.9769 34.4828 35.5864V38.8967C34.4828 39.5061 34.9768 40.0002 35.5862 40.0002H38.8966C39.506 40.0002 40 39.5061 40 38.8967V35.5864C40 34.9769 39.506 34.4829 38.8966 34.4829Z" fill="#3870F3"/>
<path d="M29.2574 25.9312L33.0196 27.338C33.1255 27.3788 33.2165 27.4507 33.2808 27.5443C33.345 27.6379 33.3794 27.7487 33.3794 27.8622C33.3794 27.9757 33.345 28.0865 33.2808 28.1801C33.2165 28.2736 33.1255 28.3455 33.0196 28.3863L24.1876 31.6912C24.0664 31.7353 23.9336 31.7353 23.8124 31.6912L14.9804 28.3863C14.8745 28.3455 14.7834 28.2736 14.7192 28.1801C14.655 28.0865 14.6206 27.9757 14.6206 27.8622C14.6206 27.7487 14.655 27.6379 14.7192 27.5443C14.7834 27.4507 14.8745 27.3788 14.9804 27.338L18.7426 25.9312H29.2574Z" fill="#8DD1FE"/>
<path d="M29.2574 22.0688L33.0196 23.4757C33.1255 23.5165 33.2165 23.5884 33.2808 23.682C33.345 23.7756 33.3794 23.8864 33.3794 23.9999C33.3794 24.1134 33.345 24.2242 33.2808 24.3178C33.2165 24.4113 33.1255 24.4832 33.0196 24.524L24.1876 27.8288C24.0664 27.873 23.9336 27.873 23.8124 27.8288L14.9804 24.524C14.8745 24.4832 14.7834 24.4113 14.7192 24.3178C14.655 24.2242 14.6206 24.1134 14.6206 23.9999C14.6206 23.8864 14.655 23.7756 14.7192 23.682C14.7834 23.5884 14.8745 23.5165 14.9804 23.4757L18.7426 22.0688H29.2574Z" fill="#4294FF"/>
<path d="M33.019 20.6606L24.1914 23.966C24.0694 24.0117 23.935 24.0117 23.813 23.966L14.9854 20.6606C14.8798 20.6199 14.7891 20.5482 14.7251 20.4549C14.6611 20.3616 14.6269 20.2512 14.6269 20.1381C14.6269 20.025 14.6611 19.9145 14.7251 19.8213C14.7891 19.728 14.8798 19.6563 14.9854 19.6156L23.813 16.3102C23.935 16.2644 24.0694 16.2644 24.1914 16.3102L33.019 19.6156C33.1245 19.6563 33.2153 19.728 33.2793 19.8213C33.3433 19.9145 33.3775 20.025 33.3775 20.1381C33.3775 20.2512 33.3433 20.3616 33.2793 20.4549C33.2153 20.5482 33.1245 20.6199 33.019 20.6606Z" fill="#3870F3"/>
</svg>
