<svg width="32" height="32" viewBox="0 0 32 32" fill="none" xmlns="http://www.w3.org/2000/svg">
<rect width="32" height="32" rx="16" fill="#3870F3"/>
<path d="M19.0587 13.6531H20.9876C21.569 13.6531 22.0994 13.8832 22.4809 14.3011C22.8625 14.719 23.0437 15.268 22.9911 15.8469L22.5644 20.541C22.4695 21.5841 21.6082 22.3706 20.5609 22.3706H17.6024C16.2958 22.3706 15.062 21.8965 14.0976 21.0294H13.0235V22.3706H9V14.3237H14.193C14.716 14.0063 15.0352 13.4443 15.0352 12.8242V11.6414C15.0352 11.0935 15.2514 10.5814 15.6442 10.1994C16.0367 9.81743 16.5548 9.61536 17.103 9.63042C18.1813 9.65993 19.0587 10.5746 19.0587 11.6692V13.6531Z" fill="white"/>
</svg>
