<svg width="20" height="20" viewBox="0 0 20 20" fill="none" xmlns="http://www.w3.org/2000/svg">
<path d="M11.3351 5.10529C9.77619 5.10529 8.47557 6.22704 8.19873 7.70419H11.3355C11.6591 7.70419 11.9214 7.967 11.9214 8.29114V11.4447C13.4021 11.1681 14.5268 9.86482 14.5268 8.30255C14.5268 6.53954 13.095 5.10529 11.3351 5.10529Z" fill="#3870F3"/>
<path d="M5.36133 14.2757H10.7494V12.0935C10.7494 12.0912 10.7491 12.089 10.7491 12.0867C10.7491 12.0844 10.7494 12.0822 10.7494 12.0799V8.87811H5.36133V14.2757Z" fill="#3870F3"/>
<path d="M19.5682 1.88477H0.431758C0.193281 1.88477 0 2.07844 0 2.3173V17.0675C0 17.3064 0.193281 17.5 0.431758 17.5H19.5682C19.8067 17.5 20 17.3064 20 17.0675V2.3173C20 2.07844 19.8067 1.88477 19.5682 1.88477ZM4.87277 5.00445C5.21547 5.00445 5.49328 5.28277 5.49328 5.62605C5.49328 5.96934 5.21547 6.24766 4.87277 6.24766C4.53008 6.24766 4.25227 5.96934 4.25227 5.62605C4.25227 5.28277 4.53008 5.00445 4.87277 5.00445ZM11.9213 14.8626C11.9213 15.1868 11.659 15.4496 11.3354 15.4496H4.77547C4.45187 15.4496 4.18953 15.1868 4.18953 14.8626V8.29113C4.18953 7.96695 4.45187 7.70418 4.77547 7.70418H7.01125C7.29906 5.57676 9.12824 3.93137 11.3351 3.93137C13.7411 3.93137 15.6986 5.89227 15.6986 8.30254C15.6986 10.5136 14.0511 12.3463 11.9214 12.6341V14.8626H11.9213ZM16.4711 13.1669L14.3724 15.2693C14.258 15.3839 14.108 15.4412 13.9581 15.4412C13.8082 15.4412 13.6582 15.3839 13.5438 15.2693C13.315 15.04 13.315 14.6684 13.5438 14.4392L15.6425 12.3368C15.8714 12.1075 16.2424 12.1075 16.4712 12.3368C16.7 12.566 16.7 12.9377 16.4711 13.1669Z" fill="#3870F3"/>
</svg>
