<svg width="20" height="17" viewBox="0 0 20 17" fill="none" xmlns="http://www.w3.org/2000/svg">
<g id="Group">
<path id="Vector" d="M11.3351 4.10522C9.77619 4.10522 8.47557 5.22698 8.19873 6.70413H11.3355C11.6591 6.70413 11.9214 6.96694 11.9214 7.29108V10.4447C13.4021 10.168 14.5268 8.86476 14.5268 7.30249C14.5268 5.53948 13.095 4.10522 11.3351 4.10522Z" fill="#8E9CCC"/>
<path id="Vector_2" d="M5.36133 13.2757H10.7494V11.0936C10.7494 11.0913 10.7491 11.0891 10.7491 11.0868C10.7491 11.0845 10.7494 11.0822 10.7494 11.08V7.87817H5.36133V13.2757Z" fill="#8E9CCC"/>
<path id="Vector_3" d="M19.5682 0.884766H0.431758C0.193281 0.884766 0 1.07844 0 1.3173V16.0675C0 16.3064 0.193281 16.5 0.431758 16.5H19.5682C19.8067 16.5 20 16.3064 20 16.0675V1.3173C20 1.07844 19.8067 0.884766 19.5682 0.884766ZM4.87277 4.00445C5.21547 4.00445 5.49328 4.28277 5.49328 4.62605C5.49328 4.96934 5.21547 5.24766 4.87277 5.24766C4.53008 5.24766 4.25227 4.96934 4.25227 4.62605C4.25227 4.28277 4.53008 4.00445 4.87277 4.00445ZM11.9213 13.8626C11.9213 14.1868 11.659 14.4496 11.3354 14.4496H4.77547C4.45187 14.4496 4.18953 14.1868 4.18953 13.8626V7.29113C4.18953 6.96695 4.45187 6.70418 4.77547 6.70418H7.01125C7.29906 4.57676 9.12824 2.93137 11.3351 2.93137C13.7411 2.93137 15.6986 4.89227 15.6986 7.30254C15.6986 9.51363 14.0511 11.3463 11.9214 11.6341V13.8626H11.9213ZM16.4711 12.1669L14.3724 14.2693C14.258 14.3839 14.108 14.4412 13.9581 14.4412C13.8082 14.4412 13.6582 14.3839 13.5438 14.2693C13.315 14.04 13.315 13.6684 13.5438 13.4392L15.6425 11.3368C15.8714 11.1075 16.2424 11.1075 16.4712 11.3368C16.7 11.566 16.7 11.9377 16.4711 12.1669Z" fill="#8E9CCC"/>
</g>
</svg>
