<svg width="20" height="20" viewBox="0 0 20 20" fill="none" xmlns="http://www.w3.org/2000/svg">
<path d="M9.12109 5.41992H10.8789V7.17773H9.12109V5.41992Z" fill="#3870F3"/>
<path d="M3.84766 5.41992H5.60547V7.17773H3.84766V5.41992Z" fill="#3870F3"/>
<path d="M14.3945 5.41992H16.1523V7.17773H14.3945V5.41992Z" fill="#3870F3"/>
<path d="M17.418 2.16797H2.58203C1.7097 2.16797 1 2.87767 1 3.75V11.5666H19V3.75C19 2.87767 18.2903 2.16797 17.418 2.16797ZM6.66016 7.70508C6.66016 7.99631 6.42405 8.23242 6.13281 8.23242H3.32031C3.02908 8.23242 2.79297 7.99631 2.79297 7.70508V4.89258C2.79297 4.60134 3.02908 4.36523 3.32031 4.36523H6.13281C6.42405 4.36523 6.66016 4.60134 6.66016 4.89258V7.70508ZM11.9336 7.70508C11.9336 7.99631 11.6975 8.23242 11.4062 8.23242H8.59375C8.30252 8.23242 8.06641 7.99631 8.06641 7.70508V4.89258C8.06641 4.60134 8.30252 4.36523 8.59375 4.36523H11.4062C11.6975 4.36523 11.9336 4.60134 11.9336 4.89258V7.70508ZM17.207 7.70508C17.207 7.99631 16.9709 8.23242 16.6797 8.23242H13.8672C13.576 8.23242 13.3398 7.99631 13.3398 7.70508V4.89258C13.3398 4.60134 13.576 4.36523 13.8672 4.36523H16.6797C16.9709 4.36523 17.207 4.60134 17.207 4.89258V7.70508Z" fill="#3870F3"/>
<path d="M1 12.6139V13.7277C1 14.4661 1.60061 15.0667 2.339 15.0667H7.93735L7.56705 16.73H6.71848C6.41431 16.73 6.16744 16.9769 6.16744 17.281C6.16744 17.5855 6.41431 17.832 6.71848 17.832H13.2815C13.5857 17.832 13.8325 17.5855 13.8325 17.281C13.8325 16.9769 13.5856 16.73 13.2815 16.73H12.4329L12.0626 15.0667H17.661C18.3993 15.0667 19 14.4661 19 13.7277V12.6139H1Z" fill="#3870F3"/>
</svg>
