<svg width="20" height="20" viewBox="0 0 20 20" fill="none" xmlns="http://www.w3.org/2000/svg">
<path d="M8.5 2.5H11.5V5.5H8.5V2.5Z" stroke="#3870F3"/>
<path d="M5.5 2.5H8.5V5.5H5.5V2.5Z" stroke="#3870F3"/>
<path d="M11.5 2.5H14.5V5.5H11.5V2.5Z" stroke="#3870F3"/>
<path d="M2.5 5.5H5.5V8.5H2.5V5.5Z" stroke="#3870F3"/>
<path d="M8.5 5.5H11.5V8.5H8.5V5.5Z" stroke="#3870F3"/>
<path d="M5.5 5.5H8.5V8.5H5.5V5.5Z" stroke="#3870F3"/>
<path d="M11.5 5.5H14.5V8.5H11.5V5.5Z" stroke="#3870F3"/>
<path d="M14.5 5.5H17.5V8.5H14.5V5.5Z" stroke="#3870F3"/>
<path d="M2.5 8.5H5.5V11.5H2.5V8.5Z" stroke="#3870F3"/>
<path d="M8.5 8.5H11.5V11.5H8.5V8.5Z" stroke="#3870F3"/>
<path d="M5.5 8.5H8.5V11.5H5.5V8.5Z" stroke="#3870F3"/>
<path d="M11.5 8.5H14.5V11.5H11.5V8.5Z" stroke="#3870F3"/>
<path d="M14.5 8.5H17.5V11.5H14.5V8.5Z" stroke="#3870F3"/>
<path d="M2.5 11.5H5.5V14.5H2.5V11.5Z" stroke="#3870F3"/>
<path d="M8.5 11.5H11.5V14.5H8.5V11.5Z" stroke="#3870F3"/>
<path d="M5.5 11.5H8.5V14.5H5.5V11.5Z" stroke="#3870F3"/>
<path d="M11.5 11.5H14.5V14.5H11.5V11.5Z" stroke="#3870F3"/>
<path d="M14.5 11.5H17.5V14.5H14.5V11.5Z" stroke="#3870F3"/>
<path d="M8.5 14.5H11.5V17.5H8.5V14.5Z" stroke="#3870F3"/>
<path d="M5.5 14.5H8.5V17.5H5.5V14.5Z" stroke="#3870F3"/>
<path d="M11.5 14.5H14.5V17.5H11.5V14.5Z" stroke="#3870F3"/>
</svg>
