<svg width="28" height="28" viewBox="0 0 28 28" fill="none" xmlns="http://www.w3.org/2000/svg">
<path d="M11.2796 0.984395C12.9005 -0.197963 15.0995 -0.197963 16.7204 0.984395C17.5128 1.56242 18.4687 1.87302 19.4495 1.87116C21.4558 1.86734 23.2349 3.15988 23.8512 5.06915C24.1525 6.00255 24.7433 6.81572 25.5379 7.39072C27.1633 8.5669 27.8428 10.6583 27.2192 12.5652C26.9144 13.4974 26.9144 14.5026 27.2192 15.4348C27.8428 17.3417 27.1633 19.4331 25.5379 20.6093C24.7433 21.1843 24.1525 21.9974 23.8512 22.9308C23.2349 24.8401 21.4558 26.1327 19.4495 26.1288C18.4687 26.127 17.5128 26.4376 16.7204 27.0156C15.0995 28.198 12.9005 28.198 11.2796 27.0156C10.4872 26.4376 9.53128 26.127 8.55045 26.1288C6.54416 26.1327 4.76513 24.8401 4.14879 22.9308C3.84747 21.9974 3.25667 21.1843 2.46207 20.6093C0.8367 19.4331 0.15717 17.3417 0.78078 15.4348C1.08565 14.5026 1.08565 13.4974 0.780781 12.5652C0.15717 10.6583 0.836699 8.5669 2.46207 7.39072C3.25667 6.81572 3.84747 6.00255 4.14879 5.06915C4.76513 3.15988 6.54416 1.86734 8.55045 1.87116C9.53128 1.87302 10.4872 1.56242 11.2796 0.984395Z" fill="#0DDD9F"/>
<mask id="mask0_7850_19060" style="mask-type:alpha" maskUnits="userSpaceOnUse" x="0" y="0" width="28" height="28">
<path d="M11.2796 0.984395C12.9005 -0.197963 15.0995 -0.197963 16.7204 0.984395C17.5128 1.56242 18.4687 1.87302 19.4495 1.87116C21.4558 1.86734 23.2349 3.15988 23.8512 5.06915C24.1525 6.00255 24.7433 6.81572 25.5379 7.39072C27.1633 8.5669 27.8428 10.6583 27.2192 12.5652C26.9144 13.4974 26.9144 14.5026 27.2192 15.4348C27.8428 17.3417 27.1633 19.4331 25.5379 20.6093C24.7433 21.1843 24.1525 21.9974 23.8512 22.9308C23.2349 24.8401 21.4558 26.1327 19.4495 26.1288C18.4687 26.127 17.5128 26.4376 16.7204 27.0156C15.0995 28.198 12.9005 28.198 11.2796 27.0156C10.4872 26.4376 9.53128 26.127 8.55045 26.1288C6.54416 26.1327 4.76513 24.8401 4.14879 22.9308C3.84747 21.9974 3.25667 21.1843 2.46207 20.6093C0.8367 19.4331 0.15717 17.3417 0.78078 15.4348C1.08565 14.5026 1.08565 13.4974 0.780781 12.5652C0.15717 10.6583 0.836699 8.5669 2.46207 7.39072C3.25667 6.81572 3.84747 6.00255 4.14879 5.06915C4.76513 3.15988 6.54416 1.86734 8.55045 1.87116C9.53128 1.87302 10.4872 1.56242 11.2796 0.984395Z" fill="#A5A3AB"/>
</mask>
<g mask="url(#mask0_7850_19060)">
<path d="M9.76642 10.5L8.88558 17.5H7.44943L5.356 12.8364L4.76916 17.5H3.5L4.38084 10.5H5.817L7.90926 15.1728L8.49726 10.5H9.76642Z" fill="white"/>
<path d="M15.1692 10.5L15.0182 11.7005H11.9705L11.7695 13.2982H14.3746L14.2235 14.4987H11.6184L11.3918 16.2995H14.4395L14.2884 17.5H9.97157L10.8524 10.5H15.1692Z" fill="white"/>
<path d="M24.5 10.5L21.9659 17.5H20.8721L20.0072 12.8272L18.1334 17.5H17.0396L15.8664 10.5H17.2023L17.909 14.9697L19.5975 10.5092H20.9836L21.6163 14.9697L23.164 10.5H24.5Z" fill="white"/>
</g>
<path d="M11.5743 1.38834C13.0196 0.334054 14.9804 0.334054 16.4257 1.38834C17.304 2.02898 18.3634 2.37322 19.4505 2.37115C21.2395 2.36775 22.8258 3.52029 23.3754 5.22276C23.7093 6.25726 24.3641 7.1585 25.2448 7.79579C26.6941 8.84457 27.3001 10.7094 26.744 12.4098C26.4061 13.443 26.4061 14.557 26.744 15.5902C27.3001 17.2906 26.6941 19.1554 25.2448 20.2042C24.3641 20.8415 23.7093 21.7427 23.3754 22.7772C22.8258 24.4797 21.2395 25.6323 19.4505 25.6288C18.3634 25.6268 17.304 25.971 16.4257 26.6117C14.9804 27.6659 13.0196 27.6659 11.5743 26.6117C10.696 25.971 9.63657 25.6268 8.5495 25.6288C6.76053 25.6323 5.17419 24.4797 4.62461 22.7772C4.29065 21.7427 3.63586 20.8415 2.75519 20.2042C1.30588 19.1554 0.699951 17.2906 1.25601 15.5902C1.5939 14.557 1.5939 13.443 1.25601 12.4098C0.69995 10.7094 1.30588 8.84457 2.75519 7.79579C3.63586 7.1585 4.29065 6.25726 4.62461 5.22276C5.17419 3.52029 6.76052 2.36775 8.5495 2.37115C9.63657 2.37322 10.696 2.02898 11.5743 1.38834Z" stroke="#01A977"/>
</svg>
