<svg width="20" height="20" viewBox="0 0 20 20" fill="none" xmlns="http://www.w3.org/2000/svg">
<path d="M10.3022 14.2118C10.2114 14.2753 10.1057 14.307 10.0001 14.307C9.89194 14.307 9.78394 14.2738 9.69194 14.2076L1 7.9505V18.4726C1 18.7639 1.23611 19 1.52735 19H18.4728C18.764 19 19.0001 18.7639 19.0001 18.4726V8.13103L10.3022 14.2118Z" fill="#3870F3"/>
<path d="M16.9258 5.33905V8.29413L18.5448 7.16226L16.9258 5.33905Z" fill="#3870F3"/>
<path d="M3.07434 5.07373L1.3689 6.9167L3.07434 8.1444V5.07373Z" fill="#3870F3"/>
<path d="M6.94141 7.85659H13.1641V3.07532H6.94141V7.85659ZM8.5586 3.97181C8.5586 3.77068 8.673 3.58709 8.85353 3.49846C9.03406 3.4098 9.24932 3.43159 9.4084 3.55454L11.342 5.04868C11.4712 5.14856 11.5469 5.30265 11.5469 5.46596C11.5469 5.62926 11.4712 5.78335 11.342 5.88323L9.4084 7.37738C9.31426 7.45012 9.20049 7.48745 9.08588 7.48745C9.00674 7.48745 8.92722 7.46966 8.85353 7.43345C8.673 7.34482 8.5586 7.16124 8.5586 6.96011V3.97181Z" fill="#3870F3"/>
<path d="M15.8712 9.0317V1.52735C15.8712 1.23611 15.635 1 15.3438 1H4.65625C4.36502 1 4.12891 1.23611 4.12891 1.52735V8.90349L10.0045 13.1332L15.8712 9.0317ZM5.88673 8.38405V2.54808C5.88673 2.25684 6.12284 2.02073 6.41408 2.02073H13.6915C13.9827 2.02073 14.2188 2.25684 14.2188 2.54808V8.38405C14.2188 8.67529 13.9827 8.9114 13.6915 8.9114H6.41408C6.12284 8.9114 5.88673 8.67529 5.88673 8.38405Z" fill="#3870F3"/>
<path d="M9.61328 5.04572V5.88617L10.1571 5.46594L9.61328 5.04572Z" fill="#3870F3"/>
</svg>
