<svg width="20" height="20" viewBox="0 0 20 20" fill="none" xmlns="http://www.w3.org/2000/svg">
<path d="M17.661 2.14062H2.339C1.60061 2.14062 1 2.74123 1 3.47962V11.5392H19V3.47962C19 2.74123 18.3994 2.14062 17.661 2.14062ZM12.4381 7.86941L8.90126 9.92214C8.53521 10.1342 8.07361 9.8712 8.07361 9.44532V5.33984C8.07361 4.91523 8.53483 4.65015 8.90126 4.86341L12.4381 6.91614C12.8032 7.12793 12.8037 7.65654 12.4381 7.86941Z" fill="#3870F3"/>
<path d="M1 12.6412V13.755C1 14.4934 1.60061 15.094 2.339 15.094H7.93735L7.56705 16.7574H6.71848C6.41431 16.7574 6.16744 17.0042 6.16744 17.3084C6.16744 17.6129 6.41431 17.8594 6.71848 17.8594H13.2815C13.5857 17.8594 13.8325 17.6129 13.8325 17.3084C13.8325 17.0042 13.5856 16.7574 13.2815 16.7574H12.4329L12.0626 15.094H17.661C18.3993 15.094 19 14.4934 19 13.755V12.6412H1Z" fill="#3870F3"/>
</svg>
