<svg width="18" height="20" viewBox="0 0 18 20" fill="none" xmlns="http://www.w3.org/2000/svg">
<g id="Group">
<path id="Vector" d="M8.56314 4.11828C9.54196 4.46986 10.8279 4.66347 12.1841 4.66347C13.5403 4.66347 14.8263 4.46986 15.8051 4.11828C17.3037 3.58 17.6183 2.84966 17.6183 2.33173C17.6183 1.81381 17.3037 1.08347 15.8051 0.545191C14.8263 0.193613 13.5404 0 12.1841 0C10.8279 0 9.54196 0.193613 8.56314 0.545191C7.06455 1.08347 6.75 1.81381 6.75 2.33173C6.75 2.84966 7.06455 3.58 8.56314 4.11828Z" fill="#8E9CCC"/>
<path id="Vector_2" d="M12.1838 5.849C10.978 5.849 9.8123 5.70573 8.82617 5.44075L13.3801 7.82718C13.6532 7.97028 13.8855 8.18378 14.0521 8.44461C14.2335 8.72889 14.333 9.06505 14.333 9.40244V15.9469C14.8722 15.8562 15.3709 15.7312 15.8075 15.5743C17.3038 15.0369 17.6179 14.3056 17.6179 13.7869V4.50244C17.2606 4.76972 16.7996 5.02064 16.2055 5.23401C15.1014 5.63061 13.6731 5.849 12.1838 5.849Z" fill="#8E9CCC"/>
<path id="Vector_3" d="M7.03998 5.84336C6.86763 5.75306 6.662 5.75306 6.48961 5.84336C6.48961 5.84336 2.08227 8.15297 0.958496 8.74187L6.76507 11.7683L12.5774 8.74515L7.03998 5.84336Z" fill="#8E9CCC"/>
<path id="Vector_4" d="M7.35791 20.0001L12.8307 17.1235C13.0257 17.021 13.1477 16.819 13.1477 16.5988C13.1477 16.5988 13.1477 11.2738 13.1477 9.78516L7.35791 12.7966V20.0001Z" fill="#8E9CCC"/>
<path id="Vector_5" d="M0.382324 16.5988C0.382324 16.819 0.504404 17.0211 0.699322 17.1235L6.17214 20.0001V12.7962L0.382324 9.77856V16.5988Z" fill="#8E9CCC"/>
</g>
</svg>
